<?xml version="1.0" encoding="UTF-8" standalone="no"?>
<svg width="1346.46px" height="446.457px" viewBox="0 0 1346.46 446.457"
 xmlns="http://www.w3.org/2000/svg" xmlns:xlink="http://www.w3.org/1999/xlink" version="1.2" baseProfile="tiny">
<title>the-grand-staff</title>
<desc>Generated by MuseScore 3.4.2</desc>
<polyline class="StaffLines" fill="none" stroke="#000000" stroke-width="2.00" stroke-linejoin="bevel" points="52.5002,62.5039 1332.28,62.5039"/>
<polyline class="StaffLines" fill="none" stroke="#000000" stroke-width="2.00" stroke-linejoin="bevel" points="52.5002,87.5055 1332.28,87.5055"/>
<polyline class="StaffLines" fill="none" stroke="#000000" stroke-width="2.00" stroke-linejoin="bevel" points="52.5002,112.507 1332.28,112.507"/>
<polyline class="StaffLines" fill="none" stroke="#000000" stroke-width="2.00" stroke-linejoin="bevel" points="52.5002,137.509 1332.28,137.509"/>
<polyline class="StaffLines" fill="none" stroke="#000000" stroke-width="2.00" stroke-linejoin="bevel" points="52.5002,162.51 1332.28,162.51"/>
<polyline class="StaffLines" fill="none" stroke="#000000" stroke-width="2.00" stroke-linejoin="bevel" points="52.5002,287.518 1332.28,287.518"/>
<polyline class="StaffLines" fill="none" stroke="#000000" stroke-width="2.00" stroke-linejoin="bevel" points="52.5002,312.52 1332.28,312.52"/>
<polyline class="StaffLines" fill="none" stroke="#000000" stroke-width="2.00" stroke-linejoin="bevel" points="52.5002,337.521 1332.28,337.521"/>
<polyline class="StaffLines" fill="none" stroke="#000000" stroke-width="2.00" stroke-linejoin="bevel" points="52.5002,362.523 1332.28,362.523"/>
<polyline class="StaffLines" fill="none" stroke="#000000" stroke-width="2.00" stroke-linejoin="bevel" points="52.5002,387.524 1332.28,387.524"/>
<polyline class="BarLine" fill="none" stroke="#000000" stroke-width="4.00" stroke-linejoin="bevel" points="54.5003,286.518 54.5003,388.524"/>
<polyline class="BarLine" fill="none" stroke="#000000" stroke-width="4.00" stroke-linejoin="bevel" points="1330.28,286.518 1330.28,388.524"/>
<polyline class="BarLine" fill="none" stroke="#000000" stroke-width="4.00" stroke-linejoin="bevel" points="54.5003,61.5039 54.5003,287.518"/>
<polyline class="BarLine" fill="none" stroke="#000000" stroke-width="4.00" stroke-linejoin="bevel" points="1330.28,61.5039 1330.28,287.518"/>
<path class="Clef" d="M134.908,303.629 C133.934,302.65 133.447,301.444 133.447,300.012 C133.447,298.58 133.934,297.376 134.908,296.402 C135.882,295.429 137.085,294.942 138.517,294.942 C139.949,294.942 141.155,295.429 142.134,296.402 C143.113,297.376 143.603,298.58 143.603,300.012 C143.603,301.444 143.113,302.65 142.134,303.629 C141.155,304.608 139.949,305.098 138.517,305.098 C137.085,305.098 135.882,304.608 134.908,303.629 M134.908,328.637 C133.934,327.663 133.447,326.46 133.447,325.027 C133.447,323.595 133.934,322.389 134.908,321.41 C135.882,320.431 137.085,319.942 138.517,319.942 C139.949,319.942 141.155,320.431 142.134,321.41 C143.113,322.389 143.603,323.595 143.603,325.027 C143.603,326.46 143.113,327.663 142.134,328.637 C141.155,329.611 139.949,330.098 138.517,330.098 C137.085,330.098 135.882,329.611 134.908,328.637 M101.025,286.254 C109.681,286.254 116.775,288.431 122.306,292.785 C127.65,297.348 130.322,303.535 130.322,311.348 C130.322,316.619 129.28,321.436 127.197,325.801 C125.238,330.363 122.666,334.4 119.478,337.91 C116.218,341.494 112.28,344.879 107.666,348.067 C103.166,351.192 98.5406,353.994 93.7906,356.473 C84.0926,361.348 78.7541,363.785 77.7749,363.785 C76.9312,363.785 76.5093,363.363 76.5093,362.52 C76.5093,362.197 76.6395,361.905 76.8999,361.645 C80.2229,359.686 84.2906,357.181 89.1031,354.129 C92.2281,352.108 95.8739,349.306 100.041,345.723 C104.082,342.337 107.207,339.15 109.416,336.16 C111.697,333.223 113.78,329.577 115.666,325.223 C117.291,320.858 118.103,316.556 118.103,312.317 C118.103,306.004 116.541,300.504 113.416,295.817 C110.291,291.129 106.16,288.785 101.025,288.785 C97.3791,288.785 94.2541,289.957 91.6499,292.301 C88.8479,294.707 86.827,297.733 85.5874,301.379 C86.827,300.858 87.9676,300.598 89.0093,300.598 C91.7385,300.598 94.0822,301.577 96.0406,303.535 C97.9885,305.619 98.9624,307.994 98.9624,310.66 C98.9624,313.462 98.0197,315.973 96.1343,318.192 C94.1135,320.202 91.7385,321.207 89.0093,321.207 C86.0822,321.207 83.4468,320.202 81.1031,318.192 C78.8843,315.973 77.7749,313.462 77.7749,310.66 C77.7749,303.952 80.0562,298.223 84.6187,293.473 C89.1083,288.66 94.577,286.254 101.025,286.254"/>
<path class="Clef" d="M114.494,111.915 C114.494,111.915 114.692,111.915 115.087,111.915 C115.348,111.852 115.572,111.821 115.759,111.821 C123.051,111.821 129.041,114.394 133.728,119.54 C138.416,124.613 140.759,130.535 140.759,137.306 C140.759,145.712 137.28,152.55 130.322,157.821 C128.499,159.259 126.119,160.431 123.181,161.337 C123.515,165.566 123.681,168.983 123.681,171.587 C123.681,172.108 123.613,173.998 123.478,177.259 C123.218,183.311 121.134,188.55 117.228,192.977 C113.457,197.342 108.77,199.524 103.166,199.524 C97.8947,199.524 93.4051,197.67 89.6968,193.962 C85.9781,190.181 84.1187,185.623 84.1187,180.29 C84.1187,177.488 85.1968,175.108 87.3531,173.149 C89.5614,171.201 92.1291,170.227 95.0562,170.227 C97.6604,170.227 99.8426,171.238 101.603,173.259 C103.426,175.144 104.337,177.488 104.337,180.29 C104.337,182.821 103.426,184.998 101.603,186.821 C99.7801,188.644 97.5979,189.556 95.0562,189.556 C94.0145,189.556 93.0093,189.363 92.0406,188.977 C94.9051,193.207 98.7124,195.321 103.462,195.321 C107.952,195.321 111.629,193.498 114.494,189.852 C117.494,186.082 119.124,181.686 119.384,176.665 C119.509,173.54 119.572,171.753 119.572,171.306 C119.572,167.66 119.442,164.665 119.181,162.321 C115.931,162.842 113.035,163.102 110.494,163.102 C101.442,163.102 93.7281,159.519 87.3531,152.352 C81.1031,145.123 77.9781,136.529 77.9781,126.571 C77.9781,124.488 78.1708,122.373 78.5562,120.227 C78.952,118.467 79.4416,116.545 80.0249,114.462 C80.3479,113.285 81.2281,111.394 82.6656,108.79 C83.1864,108.009 83.7723,107.032 84.4234,105.86 C85.0744,104.688 85.5301,103.91 85.7906,103.524 C86.4364,102.222 87.702,100.462 89.5874,98.243 C90.1083,97.6597 90.6473,97.0113 91.2046,96.2977 C91.7619,95.5842 92.2359,94.9982 92.6265,94.5399 C93.0171,94.0816 93.3088,93.7222 93.5015,93.4618 C93.6942,93.2014 95.1604,91.4774 97.8999,88.2899 C98.5458,87.6337 99.1786,86.9331 99.7984,86.1883 C100.418,85.4436 100.923,84.8576 101.314,84.4305 C101.705,84.0035 101.999,83.6962 102.197,83.5087 C99.8531,75.7587 98.3843,69.5712 97.7906,64.9462 C97.3426,61.2378 97.1187,56.1597 97.1187,49.7118 C97.1187,44.0451 98.4208,38.7378 101.025,33.7899 C103.556,28.6545 107.103,24.4566 111.666,21.1962 C111.926,20.9982 112.249,20.8993 112.634,20.8993 C113.093,20.8993 113.421,20.9982 113.619,21.1962 C117.129,25.4253 120.155,30.9253 122.697,37.6962 C125.301,44.467 126.603,50.6232 126.603,56.1649 C126.603,62.4149 125.108,68.2743 122.119,73.743 C118.733,79.5347 114.369,85.5243 109.025,91.7118 C110.39,96.0035 112.212,102.738 114.494,111.915 M122.791,157.337 C126.176,156.097 128.817,153.983 130.712,150.993 C132.796,148.128 133.837,144.904 133.837,141.321 C133.837,136.696 132.275,132.592 129.15,129.009 C125.952,125.3 121.879,123.217 116.931,122.759 C119.733,136.498 121.686,148.024 122.791,157.337 M85.0093,134.774 C85.0093,141.222 87.6135,146.889 92.8218,151.774 C98.1551,156.524 104.145,158.899 110.791,158.899 C113.52,158.899 116.186,158.701 118.791,158.306 C117.749,148.41 115.697,136.561 112.634,122.759 C108.926,123.154 105.968,124.457 103.759,126.665 C101.603,128.946 100.525,131.519 100.525,134.384 C100.525,139.332 103.166,143.337 108.447,146.399 C108.895,146.858 109.119,147.347 109.119,147.868 C109.119,148.389 108.895,148.873 108.447,149.321 C108.051,149.779 107.561,150.009 106.978,150.009 C106.916,150.009 106.624,149.946 106.103,149.821 C102.384,147.8 99.5197,145.196 97.5093,142.009 C95.6135,138.613 94.6656,135.191 94.6656,131.743 C94.6656,127.253 96.0666,123.186 98.8687,119.54 C101.796,115.894 105.603,113.55 110.291,112.509 C108.468,105.217 106.973,99.5191 105.806,95.4149 C104.765,96.592 103.512,98.0087 102.048,99.6649 C100.585,101.321 99.7229,102.316 99.4624,102.649 C97.1187,105.701 95.327,108.076 94.0874,109.774 C91.8687,112.837 90.2385,115.472 89.1968,117.681 C88.0926,120.16 87.1187,122.863 86.2749,125.79 C85.4312,128.592 85.0093,131.587 85.0093,134.774 M117.619,35.4618 C112.733,37.868 108.895,41.316 106.103,45.8055 C103.238,50.4305 101.806,55.4097 101.806,60.743 C101.806,65.4305 102.978,71.7482 105.322,79.6962 C110.009,74.0295 113.525,68.7899 115.869,63.9774 C118.337,58.8941 119.572,53.5868 119.572,48.0555 C119.572,43.8889 118.921,39.691 117.619,35.4618"/>
<path class="Bracket" fill-rule="evenodd" d="M42.0424,178.138 C42.0424,151.953 21.9268,126.501 21.9268,101.415 C21.9268,88.7802 27.4129,76.5119 44.3282,65.5253 C44.5568,65.3879 44.6711,65.159 44.6711,65.0217 C44.6711,64.6097 43.4139,64.2435 42.4995,64.2435 C42.0424,64.2435 41.2423,64.2893 40.6708,64.6097 C18.7266,78.7092 11.4119,95.006 11.4119,111.486 C11.4119,138.037 32.8989,163.672 32.8989,189.125 C32.8989,201.759 27.4129,213.661 10.4975,224.648 L10.4975,225.014 L10.4975,225.38 C27.4129,236.367 32.8989,248.269 32.8989,260.904 C32.8989,286.356 11.4119,311.991 11.4119,338.542 C11.4119,355.022 18.7266,371.319 40.6708,385.419 C41.2423,385.739 42.0424,385.785 42.4995,385.785 C43.4139,385.785 44.6711,385.419 44.6711,385.007 C44.6711,384.869 44.5568,384.64 44.3282,384.503 C27.4129,373.516 21.9268,361.248 21.9268,348.614 C21.9268,323.527 42.0424,298.075 42.0424,271.89 C42.0424,255.227 34.7276,239.297 13.2405,225.014 C34.7276,210.732 42.0424,194.801 42.0424,178.138"/>
</svg>
