<?xml version="1.0" encoding="UTF-8" standalone="no"?>
<svg width="1346.46px" height="184.252px" viewBox="0 0 1346.46 184.252"
 xmlns="http://www.w3.org/2000/svg" xmlns:xlink="http://www.w3.org/1999/xlink" version="1.2" baseProfile="tiny">
<title>bass_clef_f_notes</title>
<desc>Generated by MuseScore 3.4.2</desc>
<polyline class="StaffLines" fill="none" stroke="#000000" stroke-width="2.00" stroke-linejoin="bevel" points="0,42.5027 1346.46,42.5027"/>
<polyline class="StaffLines" fill="none" stroke="#000000" stroke-width="2.00" stroke-linejoin="bevel" points="0,67.5043 1346.46,67.5043"/>
<polyline class="StaffLines" fill="none" stroke="#000000" stroke-width="2.00" stroke-linejoin="bevel" points="0,92.5058 1346.46,92.5058"/>
<polyline class="StaffLines" fill="none" stroke="#000000" stroke-width="2.00" stroke-linejoin="bevel" points="0,117.507 1346.46,117.507"/>
<polyline class="StaffLines" fill="none" stroke="#000000" stroke-width="2.00" stroke-linejoin="bevel" points="0,142.509 1346.46,142.509"/>
<polyline class="BarLine" fill="none" stroke="#000000" stroke-width="4.00" stroke-linejoin="bevel" points="326.03,41.5026 326.03,143.509"/>
<polyline class="BarLine" fill="none" stroke="#000000" stroke-width="4.00" stroke-linejoin="bevel" points="665.506,41.5026 665.506,143.509"/>
<polyline class="BarLine" fill="none" stroke="#000000" stroke-width="4.00" stroke-linejoin="bevel" points="1015.46,41.5026 1015.46,143.509"/>
<path class="Note" fill="#ffffff" d="M119.399,81.598 C130.196,81.598 143.493,72.3011 143.493,62.8011 C143.493,57.098 138.602,53.4105 131.493,53.4105 C118.289,53.4105 107.696,62.5043 107.696,72.2074 C107.696,78.098 112.789,81.598 119.399,81.598"/>
<path class="Note" d="M131.602,53.4105 C118.399,53.4105 107.696,62.5043 107.696,72.2074 C107.696,78.2074 112.899,81.598 119.399,81.598 C130.196,81.598 143.493,72.4105 143.493,62.8011 C143.493,57.098 138.602,53.4105 131.602,53.4105 M132.899,62.7074 L123.789,62.7074 L123.789,66.8011 L131.789,66.8011 L131.789,69.9105 L123.789,69.9105 L123.789,77.8011 L120.102,77.8011 L120.102,59.5043 L132.899,59.5043 L132.899,62.7074 "/>
<path class="Note" fill="#ffffff" d="M171.243,81.598 C182.04,81.598 195.337,72.3011 195.337,62.8011 C195.337,57.098 190.447,53.4105 183.337,53.4105 C170.134,53.4105 159.54,62.5043 159.54,72.2074 C159.54,78.098 164.634,81.598 171.243,81.598"/>
<path class="Note" d="M183.447,53.4105 C170.243,53.4105 159.54,62.5043 159.54,72.2074 C159.54,78.2074 164.743,81.598 171.243,81.598 C182.04,81.598 195.337,72.4105 195.337,62.8011 C195.337,57.098 190.447,53.4105 183.447,53.4105 M184.743,62.7074 L175.634,62.7074 L175.634,66.8011 L183.634,66.8011 L183.634,69.9105 L175.634,69.9105 L175.634,77.8011 L171.947,77.8011 L171.947,59.5043 L184.743,59.5043 L184.743,62.7074 "/>
<path class="Note" fill="#ffffff" d="M223.088,81.598 C233.885,81.598 247.182,72.3011 247.182,62.8011 C247.182,57.098 242.291,53.4105 235.182,53.4105 C221.979,53.4105 211.385,62.5043 211.385,72.2074 C211.385,78.098 216.479,81.598 223.088,81.598"/>
<path class="Note" d="M235.291,53.4105 C222.088,53.4105 211.385,62.5043 211.385,72.2074 C211.385,78.2074 216.588,81.598 223.088,81.598 C233.885,81.598 247.182,72.4105 247.182,62.8011 C247.182,57.098 242.291,53.4105 235.291,53.4105 M236.588,62.7074 L227.479,62.7074 L227.479,66.8011 L235.479,66.8011 L235.479,69.9105 L227.479,69.9105 L227.479,77.8011 L223.791,77.8011 L223.791,59.5043 L236.588,59.5043 L236.588,62.7074 "/>
<path class="Note" fill="#ffffff" d="M274.933,81.598 C285.73,81.598 299.026,72.3011 299.026,62.8011 C299.026,57.098 294.136,53.4105 287.026,53.4105 C273.823,53.4105 263.23,62.5043 263.23,72.2074 C263.23,78.098 268.323,81.598 274.933,81.598"/>
<path class="Note" d="M287.136,53.4105 C273.933,53.4105 263.23,62.5043 263.23,72.2074 C263.23,78.2074 268.433,81.598 274.933,81.598 C285.73,81.598 299.026,72.4105 299.026,62.8011 C299.026,57.098 294.136,53.4105 287.136,53.4105 M288.433,62.7074 L279.323,62.7074 L279.323,66.8011 L287.323,66.8011 L287.323,69.9105 L279.323,69.9105 L279.323,77.8011 L275.636,77.8011 L275.636,59.5043 L288.433,59.5043 L288.433,62.7074 "/>
<path class="Clef" d="M78.4076,58.6136 C77.4336,57.6345 76.9467,56.4287 76.9467,54.9964 C76.9467,53.5641 77.4336,52.361 78.4076,51.3871 C79.3815,50.4131 80.5847,49.9261 82.017,49.9261 C83.4493,49.9261 84.655,50.4131 85.6342,51.3871 C86.6133,52.361 87.1029,53.5641 87.1029,54.9964 C87.1029,56.4287 86.6133,57.6345 85.6342,58.6136 C84.655,59.5928 83.4493,60.0824 82.017,60.0824 C80.5847,60.0824 79.3815,59.5928 78.4076,58.6136 M78.4076,83.6214 C77.4336,82.6475 76.9467,81.4444 76.9467,80.0121 C76.9467,78.5798 77.4336,77.374 78.4076,76.3949 C79.3815,75.4157 80.5847,74.9261 82.017,74.9261 C83.4493,74.9261 84.655,75.4157 85.6342,76.3949 C86.6133,77.374 87.1029,78.5798 87.1029,80.0121 C87.1029,81.4444 86.6133,82.6475 85.6342,83.6214 C84.655,84.5954 83.4493,85.0824 82.017,85.0824 C80.5847,85.0824 79.3815,84.5954 78.4076,83.6214 M44.5248,41.2386 C53.181,41.2386 60.2748,43.4157 65.806,47.7699 C71.1498,52.3324 73.8217,58.5199 73.8217,66.3324 C73.8217,71.6032 72.78,76.4209 70.6967,80.7855 C68.7383,85.348 66.1654,89.3845 62.9779,92.8949 C59.7175,96.4782 55.78,99.8636 51.1654,103.051 C46.6654,106.176 42.0404,108.978 37.2904,111.457 C27.5925,116.332 22.2539,118.77 21.2748,118.77 C20.431,118.77 20.0092,118.348 20.0092,117.504 C20.0092,117.181 20.1394,116.89 20.3998,116.629 C23.7227,114.671 27.7904,112.166 32.6029,109.114 C35.7279,107.093 39.3737,104.291 43.5404,100.707 C47.5821,97.322 50.7071,94.1345 52.9154,91.1449 C55.1967,88.2074 57.28,84.5615 59.1654,80.2074 C60.7904,75.8428 61.6029,71.5407 61.6029,67.3011 C61.6029,60.9886 60.0404,55.4886 56.9154,50.8011 C53.7904,46.1136 49.6602,43.7699 44.5248,43.7699 C40.8789,43.7699 37.7539,44.9418 35.1498,47.2855 C32.3477,49.6918 30.3269,52.7178 29.0873,56.3636 C30.3269,55.8428 31.4675,55.5824 32.5092,55.5824 C35.2383,55.5824 37.5821,56.5615 39.5404,58.5199 C41.4883,60.6032 42.4623,62.9782 42.4623,65.6449 C42.4623,68.447 41.5196,70.9574 39.6342,73.1761 C37.6133,75.1865 35.2383,76.1918 32.5092,76.1918 C29.5821,76.1918 26.9467,75.1865 24.6029,73.1761 C22.3842,70.9574 21.2748,68.447 21.2748,65.6449 C21.2748,58.9365 23.556,53.2074 28.1185,48.4574 C32.6081,43.6449 38.0769,41.2386 44.5248,41.2386"/>
</svg>
