<?xml version="1.0" encoding="UTF-8" standalone="no"?>
<svg width="1346.46px" height="184.252px" viewBox="0 0 1346.46 184.252"
 xmlns="http://www.w3.org/2000/svg" xmlns:xlink="http://www.w3.org/1999/xlink" version="1.2" baseProfile="tiny">
<title>draw_circles3</title>
<desc>Generated by MuseScore 3.4.2</desc>
<polyline class="StaffLines" fill="none" stroke="#000000" stroke-width="2.00" stroke-linejoin="bevel" points="0,42.5027 1346.46,42.5027"/>
<polyline class="StaffLines" fill="none" stroke="#000000" stroke-width="2.00" stroke-linejoin="bevel" points="0,67.5043 1346.46,67.5043"/>
<polyline class="StaffLines" fill="none" stroke="#000000" stroke-width="2.00" stroke-linejoin="bevel" points="0,92.5058 1346.46,92.5058"/>
<polyline class="StaffLines" fill="none" stroke="#000000" stroke-width="2.00" stroke-linejoin="bevel" points="0,117.507 1346.46,117.507"/>
<polyline class="StaffLines" fill="none" stroke="#000000" stroke-width="2.00" stroke-linejoin="bevel" points="0,142.509 1346.46,142.509"/>
<path class="Note" d="M91.9732,128.743 C95.0982,128.743 97.7388,129.556 99.895,131.181 C101.905,132.941 102.911,135.155 102.911,137.821 C102.911,142.311 100.603,146.509 95.9888,150.415 C91.3013,154.321 86.2857,156.275 80.9419,156.275 C77.8169,156.275 75.1815,155.462 73.0357,153.837 C71.0148,152.077 70.0044,149.863 70.0044,147.196 C70.0044,142.707 72.3482,138.509 77.0357,134.603 C81.5982,130.696 86.5773,128.743 91.9732,128.743"/>
<path class="Note" d="M141.177,116.243 C144.302,116.243 146.943,117.055 149.099,118.68 C151.109,120.44 152.115,122.654 152.115,125.321 C152.115,129.81 149.807,134.008 145.193,137.914 C140.505,141.821 135.49,143.774 130.146,143.774 C127.021,143.774 124.385,142.961 122.24,141.336 C120.219,139.576 119.208,137.362 119.208,134.696 C119.208,130.206 121.552,126.008 126.24,122.102 C130.802,118.196 135.781,116.243 141.177,116.243"/>
<path class="Note" d="M190.381,103.742 C193.506,103.742 196.147,104.554 198.303,106.179 C200.313,107.94 201.319,110.153 201.319,112.82 C201.319,117.309 199.011,121.507 194.397,125.414 C189.709,129.32 184.694,131.273 179.35,131.273 C176.225,131.273 173.589,130.461 171.444,128.836 C169.423,127.075 168.412,124.862 168.412,122.195 C168.412,117.705 170.756,113.507 175.444,109.601 C180.006,105.695 184.985,103.742 190.381,103.742"/>
<path class="Note" d="M239.585,91.241 C242.71,91.241 245.351,92.0535 247.507,93.6785 C249.517,95.4389 250.523,97.6524 250.523,100.319 C250.523,104.809 248.215,109.007 243.601,112.913 C238.913,116.819 233.898,118.772 228.554,118.772 C225.429,118.772 222.793,117.96 220.648,116.335 C218.627,114.574 217.616,112.361 217.616,109.694 C217.616,105.205 219.96,101.007 224.648,97.1004 C229.21,93.1941 234.189,91.241 239.585,91.241"/>
<path class="Note" d="M288.789,78.7402 C291.914,78.7402 294.555,79.5527 296.711,81.1777 C298.721,82.9381 299.727,85.1517 299.727,87.8183 C299.727,92.3079 297.419,96.5058 292.805,100.412 C288.117,104.318 283.102,106.271 277.758,106.271 C274.633,106.271 271.997,105.459 269.852,103.834 C267.831,102.074 266.82,99.86 266.82,97.1933 C266.82,92.7037 269.164,88.5058 273.852,84.5996 C278.414,80.6933 283.393,78.7402 288.789,78.7402"/>
<path class="Note" d="M337.993,66.2394 C341.118,66.2394 343.759,67.0519 345.915,68.6769 C347.925,70.4373 348.931,72.6509 348.931,75.3175 C348.931,79.8071 346.623,84.005 342.009,87.9113 C337.321,91.8175 332.306,93.7707 326.962,93.7707 C323.837,93.7707 321.201,92.9582 319.056,91.3332 C317.035,89.5727 316.024,87.3592 316.024,84.6925 C316.024,80.203 318.368,76.005 323.056,72.0988 C327.618,68.1925 332.597,66.2394 337.993,66.2394"/>
<path class="Note" d="M387.197,53.7386 C390.322,53.7386 392.963,54.5511 395.119,56.1761 C397.129,57.9365 398.135,60.1501 398.135,62.8168 C398.135,67.3063 395.827,71.5043 391.213,75.4105 C386.525,79.3168 381.51,81.2699 376.166,81.2699 C373.041,81.2699 370.405,80.4574 368.26,78.8324 C366.239,77.072 365.228,74.8584 365.228,72.1918 C365.228,67.7022 367.572,63.5043 372.26,59.598 C376.822,55.6918 381.801,53.7386 387.197,53.7386"/>
<path class="Note" d="M436.401,41.2378 C439.526,41.2378 442.167,42.0503 444.323,43.6753 C446.333,45.4358 447.339,47.6493 447.339,50.316 C447.339,54.8055 445.031,59.0035 440.417,62.9097 C435.729,66.816 430.714,68.7691 425.37,68.7691 C422.245,68.7691 419.609,67.9566 417.464,66.3316 C415.443,64.5712 414.432,62.3576 414.432,59.691 C414.432,55.2014 416.776,51.0035 421.464,47.0972 C426.026,43.191 431.005,41.2378 436.401,41.2378"/>
<path class="Note" d="M485.605,28.7371 C488.73,28.7371 491.371,29.5496 493.527,31.1746 C495.537,32.935 496.543,35.1485 496.543,37.8152 C496.543,42.3048 494.235,46.5027 489.621,50.4089 C484.933,54.3152 479.918,56.2683 474.574,56.2683 C471.449,56.2683 468.813,55.4558 466.668,53.8308 C464.647,52.0704 463.636,49.8568 463.636,47.1902 C463.636,42.7006 465.98,38.5027 470.668,34.5964 C475.23,30.6902 480.209,28.7371 485.605,28.7371"/>
</svg>
