<?xml version="1.0" encoding="UTF-8" standalone="no"?>
<svg width="1346.46px" height="921.26px" viewBox="0 0 1346.46 921.26"
 xmlns="http://www.w3.org/2000/svg" xmlns:xlink="http://www.w3.org/1999/xlink" version="1.2" baseProfile="tiny">
<title>practice</title>
<desc>Generated by MuseScore 3.4.2</desc>
<polyline class="StaffLines" fill="none" stroke="#000000" stroke-width="2.00" stroke-linejoin="bevel" points="0,42.5027 1346.46,42.5027"/>
<polyline class="StaffLines" fill="none" stroke="#000000" stroke-width="2.00" stroke-linejoin="bevel" points="0,67.5043 1346.46,67.5043"/>
<polyline class="StaffLines" fill="none" stroke="#000000" stroke-width="2.00" stroke-linejoin="bevel" points="0,92.5058 1346.46,92.5058"/>
<polyline class="StaffLines" fill="none" stroke="#000000" stroke-width="2.00" stroke-linejoin="bevel" points="0,117.507 1346.46,117.507"/>
<polyline class="StaffLines" fill="none" stroke="#000000" stroke-width="2.00" stroke-linejoin="bevel" points="0,142.509 1346.46,142.509"/>
<polyline class="StaffLines" fill="none" stroke="#000000" stroke-width="2.00" stroke-linejoin="bevel" points="0,355.022 1346.46,355.022"/>
<polyline class="StaffLines" fill="none" stroke="#000000" stroke-width="2.00" stroke-linejoin="bevel" points="0,380.024 1346.46,380.024"/>
<polyline class="StaffLines" fill="none" stroke="#000000" stroke-width="2.00" stroke-linejoin="bevel" points="0,405.026 1346.46,405.026"/>
<polyline class="StaffLines" fill="none" stroke="#000000" stroke-width="2.00" stroke-linejoin="bevel" points="0,430.027 1346.46,430.027"/>
<polyline class="StaffLines" fill="none" stroke="#000000" stroke-width="2.00" stroke-linejoin="bevel" points="0,455.029 1346.46,455.029"/>
<polyline class="StaffLines" fill="none" stroke="#000000" stroke-width="2.00" stroke-linejoin="bevel" points="0,667.542 1346.46,667.542"/>
<polyline class="StaffLines" fill="none" stroke="#000000" stroke-width="2.00" stroke-linejoin="bevel" points="0,692.544 1346.46,692.544"/>
<polyline class="StaffLines" fill="none" stroke="#000000" stroke-width="2.00" stroke-linejoin="bevel" points="0,717.545 1346.46,717.545"/>
<polyline class="StaffLines" fill="none" stroke="#000000" stroke-width="2.00" stroke-linejoin="bevel" points="0,742.547 1346.46,742.547"/>
<polyline class="StaffLines" fill="none" stroke="#000000" stroke-width="2.00" stroke-linejoin="bevel" points="0,767.548 1346.46,767.548"/>
<polyline class="BarLine" fill="none" stroke="#000000" stroke-width="4.00" stroke-linejoin="bevel" points="382.479,41.5026 382.479,143.509"/>
<polyline class="BarLine" fill="none" stroke="#000000" stroke-width="4.00" stroke-linejoin="bevel" points="703.138,41.5026 703.138,143.509"/>
<polyline class="BarLine" fill="none" stroke="#000000" stroke-width="4.00" stroke-linejoin="bevel" points="1023.8,41.5026 1023.8,143.509"/>
<polyline class="BarLine" fill="none" stroke="#000000" stroke-width="4.00" stroke-linejoin="bevel" points="1344.46,41.5026 1344.46,143.509"/>
<polyline class="BarLine" fill="none" stroke="#000000" stroke-width="4.00" stroke-linejoin="bevel" points="416.666,354.022 416.666,456.029"/>
<polyline class="BarLine" fill="none" stroke="#000000" stroke-width="4.00" stroke-linejoin="bevel" points="725.93,354.022 725.93,456.029"/>
<polyline class="BarLine" fill="none" stroke="#000000" stroke-width="4.00" stroke-linejoin="bevel" points="1035.19,354.022 1035.19,456.029"/>
<polyline class="BarLine" fill="none" stroke="#000000" stroke-width="4.00" stroke-linejoin="bevel" points="1344.46,354.022 1344.46,456.029"/>
<polyline class="BarLine" fill="none" stroke="#000000" stroke-width="4.00" stroke-linejoin="bevel" points="411.041,666.542 411.041,768.548"/>
<polyline class="BarLine" fill="none" stroke="#000000" stroke-width="4.00" stroke-linejoin="bevel" points="714.679,666.542 714.679,768.548"/>
<polyline class="BarLine" fill="none" stroke="#000000" stroke-width="4.00" stroke-linejoin="bevel" points="1018.32,666.542 1018.32,768.548"/>
<polyline class="BarLine" fill="none" stroke="#000000" stroke-width="4.00" stroke-linejoin="bevel" points="1321.96,666.542 1321.96,768.548"/>
<polyline class="BarLine" fill="none" stroke="#000000" stroke-width="12.50" stroke-linejoin="bevel" points="1340.21,666.542 1340.21,768.548"/>
<polyline class="LedgerLine" fill="none" stroke="#000000" stroke-width="4.00" stroke-linecap="square" stroke-linejoin="bevel" points="733.682,167.511 781.599,167.511"/>
<polyline class="LedgerLine" fill="none" stroke="#000000" stroke-width="4.00" stroke-linecap="square" stroke-linejoin="bevel" points="1054.34,167.511 1102.26,167.511"/>
<polyline class="LedgerLine" fill="none" stroke="#000000" stroke-width="4.00" stroke-linecap="square" stroke-linejoin="bevel" points="1065.74,480.03 1113.65,480.03"/>
<polyline class="LedgerLine" fill="none" stroke="#000000" stroke-width="4.00" stroke-linecap="square" stroke-linejoin="bevel" points="1266,480.03 1313.91,480.03"/>
<polyline class="LedgerLine" fill="none" stroke="#000000" stroke-width="4.00" stroke-linecap="square" stroke-linejoin="bevel" points="1048.86,792.55 1096.78,792.55"/>
<polyline class="LedgerLine" fill="none" stroke="#000000" stroke-width="4.00" stroke-linecap="square" stroke-linejoin="bevel" points="1243.49,792.55 1291.41,792.55"/>
<path class="Note" d="M129.833,103.742 C132.958,103.742 135.598,104.554 137.754,106.179 C139.765,107.94 140.77,110.153 140.77,112.82 C140.77,117.309 138.463,121.507 133.848,125.414 C129.161,129.32 124.145,131.273 118.801,131.273 C115.676,131.273 113.041,130.461 110.895,128.836 C108.874,127.075 107.864,124.862 107.864,122.195 C107.864,117.705 110.208,113.507 114.895,109.601 C119.458,105.695 124.437,103.742 129.833,103.742"/>
<path class="Note" d="M197.718,116.243 C200.843,116.243 203.483,117.055 205.64,118.68 C207.65,120.44 208.655,122.654 208.655,125.321 C208.655,129.81 206.348,134.008 201.733,137.914 C197.046,141.821 192.03,143.774 186.687,143.774 C183.562,143.774 180.926,142.961 178.78,141.336 C176.759,139.576 175.749,137.362 175.749,134.696 C175.749,130.206 178.093,126.008 182.78,122.102 C187.343,118.196 192.322,116.243 197.718,116.243"/>
<path class="Note" d="M265.603,103.742 C268.728,103.742 271.369,104.554 273.525,106.179 C275.535,107.94 276.541,110.153 276.541,112.82 C276.541,117.309 274.233,121.507 269.619,125.414 C264.931,129.32 259.916,131.273 254.572,131.273 C251.447,131.273 248.811,130.461 246.666,128.836 C244.645,127.075 243.634,124.862 243.634,122.195 C243.634,117.705 245.978,113.507 250.666,109.601 C255.228,105.695 260.207,103.742 265.603,103.742"/>
<path class="Note" d="M333.488,116.243 C336.613,116.243 339.254,117.055 341.41,118.68 C343.421,120.44 344.426,122.654 344.426,125.321 C344.426,129.81 342.118,134.008 337.504,137.914 C332.816,141.821 327.801,143.774 322.457,143.774 C319.332,143.774 316.697,142.961 314.551,141.336 C312.53,139.576 311.519,137.362 311.519,134.696 C311.519,130.206 313.863,126.008 318.551,122.102 C323.113,118.196 328.092,116.243 333.488,116.243"/>
<path class="Note" d="M442.492,128.743 C445.617,128.743 448.257,129.556 450.414,131.181 C452.424,132.941 453.429,135.155 453.429,137.821 C453.429,142.311 451.122,146.509 446.507,150.415 C441.82,154.321 436.804,156.275 431.46,156.275 C428.335,156.275 425.7,155.462 423.554,153.837 C421.533,152.077 420.523,149.863 420.523,147.196 C420.523,142.707 422.867,138.509 427.554,134.603 C432.117,130.696 437.096,128.743 442.492,128.743"/>
<path class="Note" d="M512.645,141.244 C515.77,141.244 518.411,142.057 520.567,143.682 C522.578,145.442 523.583,147.656 523.583,150.322 C523.583,154.812 521.276,159.01 516.661,162.916 C511.974,166.822 506.958,168.775 501.614,168.775 C498.489,168.775 495.854,167.963 493.708,166.338 C491.687,164.577 490.677,162.364 490.677,159.697 C490.677,155.208 493.02,151.01 497.708,147.104 C502.27,143.197 507.25,141.244 512.645,141.244"/>
<path class="Note" d="M582.799,128.743 C585.924,128.743 588.565,129.556 590.721,131.181 C592.732,132.941 593.737,135.155 593.737,137.821 C593.737,142.311 591.43,146.509 586.815,150.415 C582.127,154.321 577.112,156.275 571.768,156.275 C568.643,156.275 566.008,155.462 563.862,153.837 C561.841,152.077 560.831,149.863 560.831,147.196 C560.831,142.707 563.174,138.509 567.862,134.603 C572.424,130.696 577.403,128.743 582.799,128.743"/>
<path class="Note" d="M652.953,141.244 C656.078,141.244 658.719,142.057 660.875,143.682 C662.885,145.442 663.891,147.656 663.891,150.322 C663.891,154.812 661.583,159.01 656.969,162.916 C652.281,166.822 647.266,168.775 641.922,168.775 C638.797,168.775 636.161,167.963 634.016,166.338 C631.995,164.577 630.984,162.364 630.984,159.697 C630.984,155.208 633.328,151.01 638.016,147.104 C642.578,143.197 647.557,141.244 652.953,141.244"/>
<path class="Note" d="M763.151,153.745 C766.276,153.745 768.916,154.557 771.073,156.182 C773.083,157.943 774.088,160.156 774.088,162.823 C774.088,167.313 771.781,171.511 767.166,175.417 C762.479,179.323 757.463,181.276 752.119,181.276 C748.994,181.276 746.359,180.464 744.213,178.839 C742.192,177.078 741.182,174.865 741.182,172.198 C741.182,167.708 743.526,163.511 748.213,159.604 C752.776,155.698 757.755,153.745 763.151,153.745"/>
<path class="Note" d="M833.305,128.743 C836.43,128.743 839.07,129.556 841.226,131.181 C843.237,132.941 844.242,135.155 844.242,137.821 C844.242,142.311 841.935,146.509 837.32,150.415 C832.633,154.321 827.617,156.275 822.273,156.275 C819.148,156.275 816.513,155.462 814.367,153.837 C812.346,152.077 811.336,149.863 811.336,147.196 C811.336,142.707 813.68,138.509 818.367,134.603 C822.93,130.696 827.909,128.743 833.305,128.743"/>
<path class="Note" d="M903.458,103.742 C906.583,103.742 909.224,104.554 911.38,106.179 C913.391,107.94 914.396,110.153 914.396,112.82 C914.396,117.309 912.089,121.507 907.474,125.414 C902.787,129.32 897.771,131.273 892.427,131.273 C889.302,131.273 886.667,130.461 884.521,128.836 C882.5,127.075 881.49,124.862 881.49,122.195 C881.49,117.705 883.833,113.507 888.521,109.601 C893.083,105.695 898.063,103.742 903.458,103.742"/>
<path class="Note" d="M973.612,128.743 C976.737,128.743 979.378,129.556 981.534,131.181 C983.545,132.941 984.55,135.155 984.55,137.821 C984.55,142.311 982.242,146.509 977.628,150.415 C972.94,154.321 967.925,156.275 962.581,156.275 C959.456,156.275 956.821,155.462 954.675,153.837 C952.654,152.077 951.644,149.863 951.644,147.196 C951.644,142.707 953.987,138.509 958.675,134.603 C963.237,130.696 968.216,128.743 973.612,128.743"/>
<path class="Note" d="M1083.81,153.745 C1086.93,153.745 1089.58,154.557 1091.73,156.182 C1093.74,157.943 1094.75,160.156 1094.75,162.823 C1094.75,167.313 1092.44,171.511 1087.83,175.417 C1083.14,179.323 1078.12,181.276 1072.78,181.276 C1069.65,181.276 1067.02,180.464 1064.87,178.839 C1062.85,177.078 1061.84,174.865 1061.84,172.198 C1061.84,167.708 1064.18,163.511 1068.87,159.604 C1073.43,155.698 1078.41,153.745 1083.81,153.745"/>
<path class="Note" d="M1153.96,128.743 C1157.09,128.743 1159.73,129.556 1161.89,131.181 C1163.9,132.941 1164.9,135.155 1164.9,137.821 C1164.9,142.311 1162.59,146.509 1157.98,150.415 C1153.29,154.321 1148.28,156.275 1142.93,156.275 C1139.81,156.275 1137.17,155.462 1135.03,153.837 C1133.01,152.077 1131.99,149.863 1131.99,147.196 C1131.99,142.707 1134.34,138.509 1139.03,134.603 C1143.59,130.696 1148.57,128.743 1153.96,128.743"/>
<path class="Note" d="M1224.12,141.244 C1227.24,141.244 1229.88,142.057 1232.04,143.682 C1234.05,145.442 1235.06,147.656 1235.06,150.322 C1235.06,154.812 1232.75,159.01 1228.13,162.916 C1223.45,166.822 1218.43,168.775 1213.09,168.775 C1209.96,168.775 1207.33,167.963 1205.18,166.338 C1203.16,164.577 1202.15,162.364 1202.15,159.697 C1202.15,155.208 1204.49,151.01 1209.18,147.104 C1213.74,143.197 1218.72,141.244 1224.12,141.244"/>
<path class="Note" d="M1294.27,141.244 C1297.4,141.244 1300.04,142.057 1302.19,143.682 C1304.2,145.442 1305.21,147.656 1305.21,150.322 C1305.21,154.812 1302.9,159.01 1298.29,162.916 C1293.6,166.822 1288.58,168.775 1283.24,168.775 C1280.12,168.775 1277.48,167.963 1275.33,166.338 C1273.31,164.577 1272.3,162.364 1272.3,159.697 C1272.3,155.208 1274.65,151.01 1279.33,147.104 C1283.9,143.197 1288.88,141.244 1294.27,141.244"/>
<path class="Note" d="M167.415,453.764 C170.54,453.764 173.181,454.576 175.337,456.201 C177.348,457.962 178.353,460.175 178.353,462.842 C178.353,467.332 176.046,471.529 171.431,475.436 C166.744,479.342 161.728,481.295 156.384,481.295 C153.259,481.295 150.624,480.483 148.478,478.858 C146.457,477.097 145.447,474.884 145.447,472.217 C145.447,467.727 147.79,463.529 152.478,459.623 C157.04,455.717 162.02,453.764 167.415,453.764"/>
<path class="Note" d="M234.169,428.762 C237.294,428.762 239.934,429.575 242.091,431.2 C244.101,432.96 245.106,435.174 245.106,437.84 C245.106,442.33 242.799,446.528 238.184,450.434 C233.497,454.34 228.481,456.293 223.137,456.293 C220.012,456.293 217.377,455.481 215.231,453.856 C213.21,452.096 212.2,449.882 212.2,447.215 C212.2,442.726 214.544,438.528 219.231,434.622 C223.794,430.715 228.773,428.762 234.169,428.762"/>
<path class="Note" d="M300.922,453.764 C304.047,453.764 306.688,454.576 308.844,456.201 C310.854,457.962 311.86,460.175 311.86,462.842 C311.86,467.332 309.552,471.529 304.938,475.436 C300.25,479.342 295.235,481.295 289.891,481.295 C286.766,481.295 284.13,480.483 281.985,478.858 C279.964,477.097 278.953,474.884 278.953,472.217 C278.953,467.727 281.297,463.529 285.985,459.623 C290.547,455.717 295.526,453.764 300.922,453.764"/>
<path class="Note" d="M367.675,428.762 C370.8,428.762 373.441,429.575 375.597,431.2 C377.608,432.96 378.613,435.174 378.613,437.84 C378.613,442.33 376.306,446.528 371.691,450.434 C367.004,454.34 361.988,456.293 356.644,456.293 C353.519,456.293 350.884,455.481 348.738,453.856 C346.717,452.096 345.707,449.882 345.707,447.215 C345.707,442.726 348.05,438.528 352.738,434.622 C357.3,430.715 362.28,428.762 367.675,428.762"/>
<path class="Note" d="M476.679,428.762 C479.804,428.762 482.444,429.575 484.601,431.2 C486.611,432.96 487.616,435.174 487.616,437.84 C487.616,442.33 485.309,446.528 480.694,450.434 C476.007,454.34 470.991,456.293 465.648,456.293 C462.523,456.293 459.887,455.481 457.741,453.856 C455.72,452.096 454.71,449.882 454.71,447.215 C454.71,442.726 457.054,438.528 461.741,434.622 C466.304,430.715 471.283,428.762 476.679,428.762"/>
<path class="Note" d="M543.432,416.261 C546.557,416.261 549.198,417.074 551.354,418.699 C553.364,420.459 554.37,422.673 554.37,425.34 C554.37,429.829 552.062,434.027 547.448,437.933 C542.76,441.84 537.745,443.793 532.401,443.793 C529.276,443.793 526.64,442.98 524.495,441.355 C522.474,439.595 521.463,437.381 521.463,434.715 C521.463,430.225 523.807,426.027 528.495,422.121 C533.057,418.215 538.036,416.261 543.432,416.261"/>
<path class="Note" d="M610.185,428.762 C613.31,428.762 615.951,429.575 618.107,431.2 C620.118,432.96 621.123,435.174 621.123,437.84 C621.123,442.33 618.816,446.528 614.201,450.434 C609.514,454.34 604.498,456.293 599.154,456.293 C596.029,456.293 593.394,455.481 591.248,453.856 C589.227,452.096 588.217,449.882 588.217,447.215 C588.217,442.726 590.56,438.528 595.248,434.622 C599.81,430.715 604.79,428.762 610.185,428.762"/>
<path class="Note" d="M676.939,416.261 C680.064,416.261 682.704,417.074 684.861,418.699 C686.871,420.459 687.876,422.673 687.876,425.34 C687.876,429.829 685.569,434.027 680.954,437.933 C676.267,441.84 671.251,443.793 665.908,443.793 C662.783,443.793 660.147,442.98 658.001,441.355 C655.98,439.595 654.97,437.381 654.97,434.715 C654.97,430.225 657.314,426.027 662.001,422.121 C666.564,418.215 671.543,416.261 676.939,416.261"/>
<path class="Note" d="M785.942,453.764 C789.067,453.764 791.708,454.576 793.864,456.201 C795.874,457.962 796.88,460.175 796.88,462.842 C796.88,467.332 794.572,471.529 789.958,475.436 C785.27,479.342 780.255,481.295 774.911,481.295 C771.786,481.295 769.151,480.483 767.005,478.858 C764.984,477.097 763.973,474.884 763.973,472.217 C763.973,467.727 766.317,463.529 771.005,459.623 C775.567,455.717 780.546,453.764 785.942,453.764"/>
<path class="Note" d="M852.696,416.261 C855.821,416.261 858.461,417.074 860.617,418.699 C862.628,420.459 863.633,422.673 863.633,425.34 C863.633,429.829 861.326,434.027 856.711,437.933 C852.024,441.84 847.008,443.793 841.664,443.793 C838.539,443.793 835.904,442.98 833.758,441.355 C831.737,439.595 830.727,437.381 830.727,434.715 C830.727,430.225 833.071,426.027 837.758,422.121 C842.321,418.215 847.3,416.261 852.696,416.261"/>
<path class="Note" d="M919.449,428.762 C922.574,428.762 925.214,429.575 927.371,431.2 C929.381,432.96 930.386,435.174 930.386,437.84 C930.386,442.33 928.079,446.528 923.464,450.434 C918.777,454.34 913.761,456.293 908.418,456.293 C905.293,456.293 902.657,455.481 900.511,453.856 C898.491,452.096 897.48,449.882 897.48,447.215 C897.48,442.726 899.824,438.528 904.511,434.622 C909.074,430.715 914.053,428.762 919.449,428.762"/>
<path class="Note" d="M986.202,416.261 C989.327,416.261 991.968,417.074 994.124,418.699 C996.134,420.459 997.14,422.673 997.14,425.34 C997.14,429.829 994.832,434.027 990.218,437.933 C985.53,441.84 980.515,443.793 975.171,443.793 C972.046,443.793 969.41,442.98 967.265,441.355 C965.244,439.595 964.233,437.381 964.233,434.715 C964.233,430.225 966.577,426.027 971.265,422.121 C975.827,418.215 980.806,416.261 986.202,416.261"/>
<path class="Note" d="M1095.21,466.265 C1098.33,466.265 1100.97,467.077 1103.13,468.702 C1105.14,470.463 1106.14,472.676 1106.14,475.343 C1106.14,479.832 1103.84,484.03 1099.22,487.936 C1094.53,491.843 1089.52,493.796 1084.17,493.796 C1081.05,493.796 1078.41,492.983 1076.27,491.358 C1074.25,489.598 1073.24,487.384 1073.24,484.718 C1073.24,480.228 1075.58,476.03 1080.27,472.124 C1084.83,468.218 1089.81,466.265 1095.21,466.265"/>
<path class="Note" d="M1161.96,416.261 C1165.08,416.261 1167.72,417.074 1169.88,418.699 C1171.89,420.459 1172.9,422.673 1172.9,425.34 C1172.9,429.829 1170.59,434.027 1165.97,437.933 C1161.29,441.84 1156.27,443.793 1150.93,443.793 C1147.8,443.793 1145.17,442.98 1143.02,441.355 C1141,439.595 1139.99,437.381 1139.99,434.715 C1139.99,430.225 1142.33,426.027 1147.02,422.121 C1151.58,418.215 1156.56,416.261 1161.96,416.261"/>
<path class="Note" d="M1228.71,441.263 C1231.84,441.263 1234.48,442.076 1236.63,443.701 C1238.64,445.461 1239.65,447.674 1239.65,450.341 C1239.65,454.831 1237.34,459.029 1232.73,462.935 C1228.04,466.841 1223.02,468.794 1217.68,468.794 C1214.56,468.794 1211.92,467.982 1209.77,466.357 C1207.75,464.596 1206.74,462.383 1206.74,459.716 C1206.74,455.227 1209.09,451.029 1213.77,447.122 C1218.34,443.216 1223.32,441.263 1228.71,441.263"/>
<path class="Note" d="M1295.47,466.265 C1298.59,466.265 1301.23,467.077 1303.39,468.702 C1305.4,470.463 1306.4,472.676 1306.4,475.343 C1306.4,479.832 1304.1,484.03 1299.48,487.936 C1294.79,491.843 1289.78,493.796 1284.43,493.796 C1281.31,493.796 1278.67,492.983 1276.53,491.358 C1274.51,489.598 1273.5,487.384 1273.5,484.718 C1273.5,480.228 1275.84,476.03 1280.53,472.124 C1285.09,468.218 1290.07,466.265 1295.47,466.265"/>
<path class="Note" d="M167.415,766.284 C170.54,766.284 173.181,767.096 175.337,768.721 C177.348,770.481 178.353,772.695 178.353,775.362 C178.353,779.851 176.046,784.049 171.431,787.955 C166.744,791.862 161.728,793.815 156.384,793.815 C153.259,793.815 150.624,793.002 148.478,791.377 C146.457,789.617 145.447,787.403 145.447,784.737 C145.447,780.247 147.79,776.049 152.478,772.143 C157.04,768.237 162.02,766.284 167.415,766.284"/>
<path class="Note" d="M232.294,741.282 C235.419,741.282 238.059,742.094 240.215,743.719 C242.226,745.48 243.231,747.693 243.231,750.36 C243.231,754.85 240.924,759.048 236.309,762.954 C231.622,766.86 226.606,768.813 221.262,768.813 C218.137,768.813 215.502,768.001 213.356,766.376 C211.335,764.615 210.325,762.402 210.325,759.735 C210.325,755.245 212.669,751.048 217.356,747.141 C221.919,743.235 226.898,741.282 232.294,741.282"/>
<path class="Note" d="M297.172,766.284 C300.297,766.284 302.937,767.096 305.094,768.721 C307.104,770.481 308.109,772.695 308.109,775.362 C308.109,779.851 305.802,784.049 301.187,787.955 C296.5,791.862 291.484,793.815 286.141,793.815 C283.016,793.815 280.38,793.002 278.234,791.377 C276.213,789.617 275.203,787.403 275.203,784.737 C275.203,780.247 277.547,776.049 282.234,772.143 C286.797,768.237 291.776,766.284 297.172,766.284"/>
<path class="Note" d="M362.05,741.282 C365.175,741.282 367.816,742.094 369.972,743.719 C371.982,745.48 372.988,747.693 372.988,750.36 C372.988,754.85 370.68,759.048 366.066,762.954 C361.378,766.86 356.363,768.813 351.019,768.813 C347.894,768.813 345.258,768.001 343.113,766.376 C341.092,764.615 340.081,762.402 340.081,759.735 C340.081,755.245 342.425,751.048 347.113,747.141 C351.675,743.235 356.654,741.282 362.05,741.282"/>
<path class="Note" d="M471.053,741.282 C474.178,741.282 476.819,742.094 478.975,743.719 C480.986,745.48 481.991,747.693 481.991,750.36 C481.991,754.85 479.684,759.048 475.069,762.954 C470.382,766.86 465.366,768.813 460.022,768.813 C456.897,768.813 454.262,768.001 452.116,766.376 C450.095,764.615 449.085,762.402 449.085,759.735 C449.085,755.245 451.428,751.048 456.116,747.141 C460.678,743.235 465.658,741.282 471.053,741.282"/>
<path class="Note" d="M535.932,728.781 C539.057,728.781 541.697,729.594 543.854,731.219 C545.864,732.979 546.869,735.193 546.869,737.859 C546.869,742.349 544.562,746.547 539.947,750.453 C535.26,754.359 530.244,756.312 524.9,756.312 C521.775,756.312 519.14,755.5 516.994,753.875 C514.973,752.114 513.963,749.901 513.963,747.234 C513.963,742.745 516.307,738.547 520.994,734.641 C525.557,730.734 530.536,728.781 535.932,728.781"/>
<path class="Note" d="M600.81,741.282 C603.935,741.282 606.575,742.094 608.732,743.719 C610.742,745.48 611.747,747.693 611.747,750.36 C611.747,754.85 609.44,759.048 604.825,762.954 C600.138,766.86 595.122,768.813 589.779,768.813 C586.654,768.813 584.018,768.001 581.872,766.376 C579.852,764.615 578.841,762.402 578.841,759.735 C578.841,755.245 581.185,751.048 585.872,747.141 C590.435,743.235 595.414,741.282 600.81,741.282"/>
<path class="Note" d="M665.688,728.781 C668.813,728.781 671.454,729.594 673.61,731.219 C675.62,732.979 676.626,735.193 676.626,737.859 C676.626,742.349 674.318,746.547 669.704,750.453 C665.016,754.359 660.001,756.312 654.657,756.312 C651.532,756.312 648.896,755.5 646.751,753.875 C644.73,752.114 643.719,749.901 643.719,747.234 C643.719,742.745 646.063,738.547 650.751,734.641 C655.313,730.734 660.292,728.781 665.688,728.781"/>
<path class="Note" d="M774.691,766.284 C777.816,766.284 780.457,767.096 782.613,768.721 C784.624,770.481 785.629,772.695 785.629,775.362 C785.629,779.851 783.322,784.049 778.707,787.955 C774.02,791.862 769.004,793.815 763.66,793.815 C760.535,793.815 757.9,793.002 755.754,791.377 C753.733,789.617 752.723,787.403 752.723,784.737 C752.723,780.247 755.066,776.049 759.754,772.143 C764.316,768.237 769.296,766.284 774.691,766.284"/>
<path class="Note" d="M839.57,728.781 C842.695,728.781 845.335,729.594 847.492,731.219 C849.502,732.979 850.507,735.193 850.507,737.859 C850.507,742.349 848.2,746.547 843.585,750.453 C838.898,754.359 833.882,756.312 828.538,756.312 C825.413,756.312 822.778,755.5 820.632,753.875 C818.611,752.114 817.601,749.901 817.601,747.234 C817.601,742.745 819.945,738.547 824.632,734.641 C829.195,730.734 834.174,728.781 839.57,728.781"/>
<path class="Note" d="M904.448,741.282 C907.573,741.282 910.214,742.094 912.37,743.719 C914.38,745.48 915.385,747.693 915.385,750.36 C915.385,754.85 913.078,759.048 908.464,762.954 C903.776,766.86 898.76,768.813 893.417,768.813 C890.292,768.813 887.656,768.001 885.51,766.376 C883.49,764.615 882.479,762.402 882.479,759.735 C882.479,755.245 884.823,751.048 889.51,747.141 C894.073,743.235 899.052,741.282 904.448,741.282"/>
<path class="Note" d="M969.326,728.781 C972.451,728.781 975.092,729.594 977.248,731.219 C979.258,732.979 980.264,735.193 980.264,737.859 C980.264,742.349 977.956,746.547 973.342,750.453 C968.654,754.359 963.639,756.312 958.295,756.312 C955.17,756.312 952.534,755.5 950.389,753.875 C948.368,752.114 947.357,749.901 947.357,747.234 C947.357,742.745 949.701,738.547 954.389,734.641 C958.951,730.734 963.93,728.781 969.326,728.781"/>
<path class="Note" d="M1078.33,778.784 C1081.45,778.784 1084.1,779.597 1086.25,781.222 C1088.26,782.982 1089.27,785.196 1089.27,787.862 C1089.27,792.352 1086.96,796.55 1082.35,800.456 C1077.66,804.362 1072.64,806.316 1067.3,806.316 C1064.17,806.316 1061.54,805.503 1059.39,803.878 C1057.37,802.118 1056.36,799.904 1056.36,797.237 C1056.36,792.748 1058.7,788.55 1063.39,784.644 C1067.95,780.737 1072.93,778.784 1078.33,778.784"/>
<path class="Note" d="M1143.21,728.781 C1146.33,728.781 1148.97,729.594 1151.13,731.219 C1153.14,732.979 1154.15,735.193 1154.15,737.859 C1154.15,742.349 1151.84,746.547 1147.22,750.453 C1142.54,754.359 1137.52,756.312 1132.18,756.312 C1129.05,756.312 1126.42,755.5 1124.27,753.875 C1122.25,752.114 1121.24,749.901 1121.24,747.234 C1121.24,742.745 1123.58,738.547 1128.27,734.641 C1132.83,730.734 1137.81,728.781 1143.21,728.781"/>
<path class="Note" d="M1208.09,753.783 C1211.21,753.783 1213.85,754.595 1216.01,756.22 C1218.02,757.981 1219.02,760.194 1219.02,762.861 C1219.02,767.35 1216.72,771.548 1212.1,775.455 C1207.41,779.361 1202.4,781.314 1197.05,781.314 C1193.93,781.314 1191.29,780.501 1189.15,778.876 C1187.13,777.116 1186.12,774.903 1186.12,772.236 C1186.12,767.746 1188.46,763.548 1193.15,759.642 C1197.71,755.736 1202.69,753.783 1208.09,753.783"/>
<path class="Note" d="M1272.96,778.784 C1276.09,778.784 1278.73,779.597 1280.89,781.222 C1282.9,782.982 1283.9,785.196 1283.9,787.862 C1283.9,792.352 1281.59,796.55 1276.98,800.456 C1272.29,804.362 1267.28,806.316 1261.93,806.316 C1258.81,806.316 1256.17,805.503 1254.03,803.878 C1252.01,802.118 1251,799.904 1251,797.237 C1251,792.748 1253.34,788.55 1258.03,784.644 C1262.59,780.737 1267.57,778.784 1272.96,778.784"/>
<path class="Clef" d="M56.72,91.9137 C56.72,91.9137 56.9179,91.9137 57.3138,91.9137 C57.5742,91.8512 57.7981,91.8199 57.9856,91.8199 C65.2773,91.8199 71.2669,94.3928 75.9544,99.5387 C80.6419,104.612 82.9856,110.533 82.9856,117.304 C82.9856,125.711 79.5065,132.549 72.5481,137.82 C70.7252,139.257 68.345,140.429 65.4075,141.336 C65.7408,145.565 65.9075,148.981 65.9075,151.586 C65.9075,152.106 65.8398,153.997 65.7044,157.257 C65.444,163.309 63.3606,168.549 59.4544,172.976 C55.6836,177.341 50.9961,179.523 45.3919,179.523 C40.1211,179.523 35.6315,177.669 31.9231,173.961 C28.2044,170.179 26.345,165.622 26.345,160.289 C26.345,157.487 27.4231,155.106 29.5794,153.148 C31.7877,151.2 34.3554,150.226 37.2825,150.226 C39.8867,150.226 42.069,151.237 43.8294,153.257 C45.6523,155.143 46.5638,157.487 46.5638,160.289 C46.5638,162.82 45.6523,164.997 43.8294,166.82 C42.0065,168.643 39.8242,169.554 37.2825,169.554 C36.2408,169.554 35.2356,169.362 34.2669,168.976 C37.1315,173.205 40.9388,175.32 45.6888,175.32 C50.1783,175.32 53.8554,173.497 56.72,169.851 C59.72,166.08 61.3502,161.684 61.6106,156.664 C61.7356,153.539 61.7981,151.752 61.7981,151.304 C61.7981,147.658 61.6679,144.664 61.4075,142.32 C58.1575,142.841 55.2617,143.101 52.72,143.101 C43.6679,143.101 35.9544,139.518 29.5794,132.351 C23.3294,125.122 20.2044,116.528 20.2044,106.57 C20.2044,104.487 20.3971,102.372 20.7825,100.226 C21.1783,98.4657 21.6679,96.5439 22.2513,94.4605 C22.5742,93.2834 23.4544,91.3928 24.8919,88.7887 C25.4127,88.0074 25.9987,87.0308 26.6497,85.859 C27.3007,84.6871 27.7565,83.9084 28.0169,83.523 C28.6627,82.2209 29.9283,80.4605 31.8138,78.2418 C32.3346,77.6584 32.8737,77.01 33.4309,76.2965 C33.9882,75.5829 34.4622,74.997 34.8528,74.5387 C35.2434,74.0803 35.5351,73.7209 35.7278,73.4605 C35.9205,73.2001 37.3867,71.4762 40.1263,68.2887 C40.7721,67.6324 41.4049,66.9319 42.0247,66.1871 C42.6445,65.4423 43.1497,64.8564 43.5403,64.4293 C43.9309,64.0022 44.2252,63.6949 44.4231,63.5074 C42.0794,55.7574 40.6106,49.5699 40.0169,44.9449 C39.569,41.2366 39.345,36.1584 39.345,29.7105 C39.345,24.0439 40.6471,18.7366 43.2513,13.7887 C45.7825,8.65323 49.3294,4.45532 53.8919,1.1949 C54.1523,0.996985 54.4752,0.898027 54.8606,0.898027 C55.319,0.898027 55.6471,0.996985 55.845,1.1949 C59.3554,5.42407 62.3815,10.9241 64.9231,17.6949 C67.5273,24.4657 68.8294,30.622 68.8294,36.1637 C68.8294,42.4137 67.3346,48.273 64.345,53.7418 C60.9596,59.5334 56.595,65.523 51.2513,71.7105 C52.6158,76.0022 54.4388,82.7366 56.72,91.9137 M65.0169,137.336 C68.4023,136.096 71.0429,133.981 72.9388,130.992 C75.0221,128.127 76.0638,124.903 76.0638,121.32 C76.0638,116.695 74.5013,112.591 71.3763,109.007 C68.1783,105.299 64.1054,103.216 59.1575,102.757 C61.9596,116.497 63.9127,128.023 65.0169,137.336 M27.2356,114.773 C27.2356,121.221 29.8398,126.888 35.0481,131.773 C40.3815,136.523 46.3711,138.898 53.0169,138.898 C55.7461,138.898 58.4127,138.7 61.0169,138.304 C59.9752,128.408 57.9231,116.559 54.8606,102.757 C51.1523,103.153 48.194,104.455 45.9856,106.664 C43.8294,108.945 42.7513,111.518 42.7513,114.382 C42.7513,119.33 45.3919,123.336 50.6731,126.398 C51.1211,126.856 51.345,127.346 51.345,127.867 C51.345,128.388 51.1211,128.872 50.6731,129.32 C50.2773,129.778 49.7877,130.007 49.2044,130.007 C49.1419,130.007 48.8502,129.945 48.3294,129.82 C44.6106,127.799 41.7461,125.195 39.7356,122.007 C37.8398,118.612 36.8919,115.19 36.8919,111.742 C36.8919,107.252 38.2929,103.184 41.095,99.5387 C44.0221,95.8928 47.8294,93.5491 52.5169,92.5074 C50.694,85.2157 49.1992,79.5178 48.0325,75.4137 C46.9908,76.5907 45.7382,78.0074 44.2747,79.6637 C42.8112,81.3199 41.9492,82.3147 41.6888,82.648 C39.345,85.7001 37.5533,88.0751 36.3138,89.773 C34.095,92.8355 32.4648,95.4709 31.4231,97.6793 C30.319,100.158 29.345,102.862 28.5013,105.789 C27.6575,108.591 27.2356,111.586 27.2356,114.773 M59.845,15.4605 C54.9596,17.8668 51.1211,21.3147 48.3294,25.8043 C45.4648,30.4293 44.0325,35.4084 44.0325,40.7418 C44.0325,45.4293 45.2044,51.747 47.5481,59.6949 C52.2356,54.0282 55.7513,48.7887 58.095,43.9762 C60.5638,38.8928 61.7981,33.5855 61.7981,28.0543 C61.7981,23.8876 61.1471,19.6897 59.845,15.4605"/>
<path class="Clef" d="M56.72,404.433 C56.72,404.433 56.9179,404.433 57.3138,404.433 C57.5742,404.371 57.7981,404.34 57.9856,404.34 C65.2773,404.34 71.2669,406.913 75.9544,412.058 C80.6419,417.131 82.9856,423.053 82.9856,429.824 C82.9856,438.23 79.5065,445.069 72.5481,450.34 C70.7252,451.777 68.345,452.949 65.4075,453.855 C65.7408,458.084 65.9075,461.501 65.9075,464.105 C65.9075,464.626 65.8398,466.517 65.7044,469.777 C65.444,475.829 63.3606,481.069 59.4544,485.496 C55.6836,489.86 50.9961,492.043 45.3919,492.043 C40.1211,492.043 35.6315,490.189 31.9231,486.48 C28.2044,482.699 26.345,478.142 26.345,472.808 C26.345,470.006 27.4231,467.626 29.5794,465.668 C31.7877,463.72 34.3554,462.746 37.2825,462.746 C39.8867,462.746 42.069,463.756 43.8294,465.777 C45.6523,467.663 46.5638,470.006 46.5638,472.808 C46.5638,475.34 45.6523,477.517 43.8294,479.34 C42.0065,481.163 39.8242,482.074 37.2825,482.074 C36.2408,482.074 35.2356,481.881 34.2669,481.496 C37.1315,485.725 40.9388,487.84 45.6888,487.84 C50.1783,487.84 53.8554,486.017 56.72,482.371 C59.72,478.6 61.3502,474.204 61.6106,469.183 C61.7356,466.058 61.7981,464.272 61.7981,463.824 C61.7981,460.178 61.6679,457.183 61.4075,454.84 C58.1575,455.36 55.2617,455.621 52.72,455.621 C43.6679,455.621 35.9544,452.038 29.5794,444.871 C23.3294,437.642 20.2044,429.048 20.2044,419.09 C20.2044,417.006 20.3971,414.892 20.7825,412.746 C21.1783,410.985 21.6679,409.064 22.2513,406.98 C22.5742,405.803 23.4544,403.913 24.8919,401.308 C25.4127,400.527 25.9987,399.551 26.6497,398.379 C27.3007,397.207 27.7565,396.428 28.0169,396.043 C28.6627,394.741 29.9283,392.98 31.8138,390.761 C32.3346,390.178 32.8737,389.53 33.4309,388.816 C33.9882,388.103 34.4622,387.517 34.8528,387.058 C35.2434,386.6 35.5351,386.241 35.7278,385.98 C35.9205,385.72 37.3867,383.996 40.1263,380.808 C40.7721,380.152 41.4049,379.452 42.0247,378.707 C42.6445,377.962 43.1497,377.376 43.5403,376.949 C43.9309,376.522 44.2252,376.215 44.4231,376.027 C42.0794,368.277 40.6106,362.09 40.0169,357.465 C39.569,353.756 39.345,348.678 39.345,342.23 C39.345,336.564 40.6471,331.256 43.2513,326.308 C45.7825,321.173 49.3294,316.975 53.8919,313.715 C54.1523,313.517 54.4752,313.418 54.8606,313.418 C55.319,313.418 55.6471,313.517 55.845,313.715 C59.3554,317.944 62.3815,323.444 64.9231,330.215 C67.5273,336.985 68.8294,343.142 68.8294,348.683 C68.8294,354.933 67.3346,360.793 64.345,366.261 C60.9596,372.053 56.595,378.043 51.2513,384.23 C52.6158,388.522 54.4388,395.256 56.72,404.433 M65.0169,449.855 C68.4023,448.616 71.0429,446.501 72.9388,443.511 C75.0221,440.647 76.0638,437.423 76.0638,433.84 C76.0638,429.215 74.5013,425.11 71.3763,421.527 C68.1783,417.819 64.1054,415.735 59.1575,415.277 C61.9596,429.017 63.9127,440.543 65.0169,449.855 M27.2356,427.293 C27.2356,433.741 29.8398,439.407 35.0481,444.293 C40.3815,449.043 46.3711,451.418 53.0169,451.418 C55.7461,451.418 58.4127,451.22 61.0169,450.824 C59.9752,440.928 57.9231,429.079 54.8606,415.277 C51.1523,415.673 48.194,416.975 45.9856,419.183 C43.8294,421.465 42.7513,424.038 42.7513,426.902 C42.7513,431.85 45.3919,435.855 50.6731,438.918 C51.1211,439.376 51.345,439.866 51.345,440.386 C51.345,440.907 51.1211,441.392 50.6731,441.84 C50.2773,442.298 49.7877,442.527 49.2044,442.527 C49.1419,442.527 48.8502,442.465 48.3294,442.34 C44.6106,440.319 41.7461,437.715 39.7356,434.527 C37.8398,431.131 36.8919,427.709 36.8919,424.261 C36.8919,419.772 38.2929,415.704 41.095,412.058 C44.0221,408.413 47.8294,406.069 52.5169,405.027 C50.694,397.735 49.1992,392.038 48.0325,387.933 C46.9908,389.11 45.7382,390.527 44.2747,392.183 C42.8112,393.84 41.9492,394.834 41.6888,395.168 C39.345,398.22 37.5533,400.595 36.3138,402.293 C34.095,405.355 32.4648,407.991 31.4231,410.199 C30.319,412.678 29.345,415.381 28.5013,418.308 C27.6575,421.11 27.2356,424.105 27.2356,427.293 M59.845,327.98 C54.9596,330.386 51.1211,333.834 48.3294,338.324 C45.4648,342.949 44.0325,347.928 44.0325,353.261 C44.0325,357.949 45.2044,364.267 47.5481,372.215 C52.2356,366.548 55.7513,361.308 58.095,356.496 C60.5638,351.413 61.7981,346.105 61.7981,340.574 C61.7981,336.407 61.1471,332.209 59.845,327.98"/>
<path class="Clef" d="M56.72,716.953 C56.72,716.953 56.9179,716.953 57.3138,716.953 C57.5742,716.891 57.7981,716.859 57.9856,716.859 C65.2773,716.859 71.2669,719.432 75.9544,724.578 C80.6419,729.651 82.9856,735.573 82.9856,742.344 C82.9856,750.75 79.5065,757.588 72.5481,762.859 C70.7252,764.297 68.345,765.469 65.4075,766.375 C65.7408,770.604 65.9075,774.021 65.9075,776.625 C65.9075,777.146 65.8398,779.036 65.7044,782.297 C65.444,788.349 63.3606,793.588 59.4544,798.016 C55.6836,802.38 50.9961,804.562 45.3919,804.562 C40.1211,804.562 35.6315,802.708 31.9231,799 C28.2044,795.219 26.345,790.661 26.345,785.328 C26.345,782.526 27.4231,780.146 29.5794,778.187 C31.7877,776.239 34.3554,775.266 37.2825,775.266 C39.8867,775.266 42.069,776.276 43.8294,778.297 C45.6523,780.182 46.5638,782.526 46.5638,785.328 C46.5638,787.859 45.6523,790.036 43.8294,791.859 C42.0065,793.682 39.8242,794.594 37.2825,794.594 C36.2408,794.594 35.2356,794.401 34.2669,794.016 C37.1315,798.245 40.9388,800.359 45.6888,800.359 C50.1783,800.359 53.8554,798.536 56.72,794.891 C59.72,791.12 61.3502,786.724 61.6106,781.703 C61.7356,778.578 61.7981,776.792 61.7981,776.344 C61.7981,772.698 61.6679,769.703 61.4075,767.359 C58.1575,767.88 55.2617,768.141 52.72,768.141 C43.6679,768.141 35.9544,764.557 29.5794,757.391 C23.3294,750.161 20.2044,741.568 20.2044,731.609 C20.2044,729.526 20.3971,727.411 20.7825,725.266 C21.1783,723.505 21.6679,721.583 22.2513,719.5 C22.5742,718.323 23.4544,716.432 24.8919,713.828 C25.4127,713.047 25.9987,712.07 26.6497,710.898 C27.3007,709.726 27.7565,708.948 28.0169,708.562 C28.6627,707.26 29.9283,705.5 31.8138,703.281 C32.3346,702.698 32.8737,702.049 33.4309,701.336 C33.9882,700.622 34.4622,700.036 34.8528,699.578 C35.2434,699.12 35.5351,698.76 35.7278,698.5 C35.9205,698.239 37.3867,696.516 40.1263,693.328 C40.7721,692.672 41.4049,691.971 42.0247,691.226 C42.6445,690.482 43.1497,689.896 43.5403,689.469 C43.9309,689.042 44.2252,688.734 44.4231,688.547 C42.0794,680.797 40.6106,674.609 40.0169,669.984 C39.569,666.276 39.345,661.198 39.345,654.75 C39.345,649.083 40.6471,643.776 43.2513,638.828 C45.7825,633.693 49.3294,629.495 53.8919,626.234 C54.1523,626.036 54.4752,625.937 54.8606,625.937 C55.319,625.937 55.6471,626.036 55.845,626.234 C59.3554,630.463 62.3815,635.963 64.9231,642.734 C67.5273,649.505 68.8294,655.661 68.8294,661.203 C68.8294,667.453 67.3346,673.312 64.345,678.781 C60.9596,684.573 56.595,690.562 51.2513,696.75 C52.6158,701.042 54.4388,707.776 56.72,716.953 M65.0169,762.375 C68.4023,761.135 71.0429,759.021 72.9388,756.031 C75.0221,753.167 76.0638,749.943 76.0638,746.359 C76.0638,741.734 74.5013,737.63 71.3763,734.047 C68.1783,730.338 64.1054,728.255 59.1575,727.797 C61.9596,741.536 63.9127,753.062 65.0169,762.375 M27.2356,739.812 C27.2356,746.26 29.8398,751.927 35.0481,756.812 C40.3815,761.562 46.3711,763.937 53.0169,763.937 C55.7461,763.937 58.4127,763.739 61.0169,763.344 C59.9752,753.448 57.9231,741.599 54.8606,727.797 C51.1523,728.193 48.194,729.495 45.9856,731.703 C43.8294,733.984 42.7513,736.557 42.7513,739.422 C42.7513,744.37 45.3919,748.375 50.6731,751.437 C51.1211,751.896 51.345,752.385 51.345,752.906 C51.345,753.427 51.1211,753.911 50.6731,754.359 C50.2773,754.818 49.7877,755.047 49.2044,755.047 C49.1419,755.047 48.8502,754.984 48.3294,754.859 C44.6106,752.838 41.7461,750.234 39.7356,747.047 C37.8398,743.651 36.8919,740.229 36.8919,736.781 C36.8919,732.292 38.2929,728.224 41.095,724.578 C44.0221,720.932 47.8294,718.588 52.5169,717.547 C50.694,710.255 49.1992,704.557 48.0325,700.453 C46.9908,701.63 45.7382,703.047 44.2747,704.703 C42.8112,706.359 41.9492,707.354 41.6888,707.687 C39.345,710.739 37.5533,713.114 36.3138,714.812 C34.095,717.875 32.4648,720.51 31.4231,722.719 C30.319,725.198 29.345,727.901 28.5013,730.828 C27.6575,733.63 27.2356,736.625 27.2356,739.812 M59.845,640.5 C54.9596,642.906 51.1211,646.354 48.3294,650.844 C45.4648,655.469 44.0325,660.448 44.0325,665.781 C44.0325,670.469 45.2044,676.786 47.5481,684.734 C52.2356,679.068 55.7513,673.828 58.095,669.016 C60.5638,663.932 61.7981,658.625 61.7981,653.094 C61.7981,648.927 61.1471,644.729 59.845,640.5"/>
<path class="Lyrics" d="M125.541,182.545 C123.457,182.545 121.608,182.92 119.994,183.67 C118.379,184.42 117.077,185.381 116.087,186.553 C115.098,187.725 114.291,189.1 113.666,190.678 C113.041,192.256 112.608,193.769 112.369,195.217 C112.129,196.665 112.009,198.123 112.009,199.592 C112.009,204.717 113.304,208.766 115.892,211.74 C118.481,214.714 122.009,216.201 126.478,216.201 C128.457,216.201 130.171,215.878 131.619,215.232 C133.067,214.587 133.791,213.821 133.791,212.936 L133.791,203.967 C133.791,201.894 133.507,200.592 132.939,200.061 C132.371,199.529 131.041,199.186 128.947,199.029 L128.947,198.045 L142.978,198.045 L142.978,199.029 C141.364,199.186 140.319,199.529 139.845,200.061 C139.371,200.592 139.134,201.67 139.134,203.295 L139.134,214.529 C138.03,215.456 136.038,216.313 133.158,217.1 C130.278,217.886 127.666,218.279 125.322,218.279 C123.676,218.279 122.028,218.115 120.377,217.787 C118.726,217.459 117.002,216.855 115.205,215.975 C113.408,215.094 111.832,213.985 110.478,212.647 C109.124,211.308 107.996,209.522 107.095,207.287 C106.194,205.053 105.744,202.503 105.744,199.639 C105.744,194.066 107.512,189.475 111.048,185.865 C114.585,182.256 119.103,180.451 124.603,180.451 C126.739,180.451 128.84,180.738 130.908,181.311 C132.976,181.883 134.176,182.17 134.509,182.17 C135.093,182.17 135.606,182.006 136.048,181.678 C136.491,181.35 136.801,180.941 136.978,180.451 L138.197,180.451 L138.634,192.045 L137.369,192.045 C136.192,189.16 134.723,186.855 132.962,185.131 C131.202,183.407 128.728,182.545 125.541,182.545"/>
<path class="Lyrics" d="M164.707,222.67 L219.488,222.67 L219.488,225.029 L164.707,225.029 L164.707,222.67 "/>
<path class="Lyrics" d="M232.592,222.67 L287.374,222.67 L287.374,225.029 L232.592,225.029 L232.592,222.67 "/>
<path class="Lyrics" d="M300.478,222.67 L355.259,222.67 L355.259,225.029 L300.478,225.029 L300.478,222.67 "/>
<path class="Lyrics" d="M409.481,222.67 L464.262,222.67 L464.262,225.029 L409.481,225.029 L409.481,222.67 "/>
<path class="Lyrics" d="M479.635,222.67 L534.416,222.67 L534.416,225.029 L479.635,225.029 L479.635,222.67 "/>
<path class="Lyrics" d="M549.789,222.67 L604.57,222.67 L604.57,225.029 L549.789,225.029 L549.789,222.67 "/>
<path class="Lyrics" d="M619.942,222.67 L674.724,222.67 L674.724,225.029 L619.942,225.029 L619.942,222.67 "/>
<path class="Lyrics" d="M730.14,222.67 L784.921,222.67 L784.921,225.029 L730.14,225.029 L730.14,222.67 "/>
<path class="Lyrics" d="M800.294,222.67 L855.075,222.67 L855.075,225.029 L800.294,225.029 L800.294,222.67 "/>
<path class="Lyrics" d="M870.448,222.67 L925.229,222.67 L925.229,225.029 L870.448,225.029 L870.448,222.67 "/>
<path class="Lyrics" d="M940.602,222.67 L995.383,222.67 L995.383,225.029 L940.602,225.029 L940.602,222.67 "/>
<path class="Lyrics" d="M1050.8,222.67 L1105.58,222.67 L1105.58,225.029 L1050.8,225.029 L1050.8,222.67 "/>
<path class="Lyrics" d="M1120.95,222.67 L1175.73,222.67 L1175.73,225.029 L1120.95,225.029 L1120.95,222.67 "/>
<path class="Lyrics" d="M1191.11,222.67 L1245.89,222.67 L1245.89,225.029 L1191.11,225.029 L1191.11,222.67 "/>
<path class="Lyrics" d="M1261.26,222.67 L1316.04,222.67 L1316.04,225.029 L1261.26,225.029 L1261.26,222.67 "/>
<path class="Lyrics" d="M134.405,535.19 L189.186,535.19 L189.186,537.549 L134.405,537.549 L134.405,535.19 "/>
<path class="Lyrics" d="M201.158,535.19 L255.939,535.19 L255.939,537.549 L201.158,537.549 L201.158,535.19 "/>
<path class="Lyrics" d="M267.911,535.19 L322.693,535.19 L322.693,537.549 L267.911,537.549 L267.911,535.19 "/>
<path class="Lyrics" d="M334.665,535.19 L389.446,535.19 L389.446,537.549 L334.665,537.549 L334.665,535.19 "/>
<path class="Lyrics" d="M443.668,535.19 L498.449,535.19 L498.449,537.549 L443.668,537.549 L443.668,535.19 "/>
<path class="Lyrics" d="M510.421,535.19 L565.203,535.19 L565.203,537.549 L510.421,537.549 L510.421,535.19 "/>
<path class="Lyrics" d="M577.175,535.19 L631.956,535.19 L631.956,537.549 L577.175,537.549 L577.175,535.19 "/>
<path class="Lyrics" d="M643.928,535.19 L698.709,535.19 L698.709,537.549 L643.928,537.549 L643.928,535.19 "/>
<path class="Lyrics" d="M752.931,535.19 L807.713,535.19 L807.713,537.549 L752.931,537.549 L752.931,535.19 "/>
<path class="Lyrics" d="M819.685,535.19 L874.466,535.19 L874.466,537.549 L819.685,537.549 L819.685,535.19 "/>
<path class="Lyrics" d="M886.438,535.19 L941.219,535.19 L941.219,537.549 L886.438,537.549 L886.438,535.19 "/>
<path class="Lyrics" d="M953.191,535.19 L1007.97,535.19 L1007.97,537.549 L953.191,537.549 L953.191,535.19 "/>
<path class="Lyrics" d="M1062.19,535.19 L1116.98,535.19 L1116.98,537.549 L1062.19,537.549 L1062.19,535.19 "/>
<path class="Lyrics" d="M1128.95,535.19 L1183.73,535.19 L1183.73,537.549 L1128.95,537.549 L1128.95,535.19 "/>
<path class="Lyrics" d="M1195.7,535.19 L1250.48,535.19 L1250.48,537.549 L1195.7,537.549 L1195.7,535.19 "/>
<path class="Lyrics" d="M1262.45,535.19 L1317.24,535.19 L1317.24,537.549 L1262.45,537.549 L1262.45,535.19 "/>
<path class="Lyrics" d="M134.405,847.709 L189.186,847.709 L189.186,850.069 L134.405,850.069 L134.405,847.709 "/>
<path class="Lyrics" d="M199.283,847.709 L254.064,847.709 L254.064,850.069 L199.283,850.069 L199.283,847.709 "/>
<path class="Lyrics" d="M264.161,847.709 L318.942,847.709 L318.942,850.069 L264.161,850.069 L264.161,847.709 "/>
<path class="Lyrics" d="M329.039,847.709 L383.821,847.709 L383.821,850.069 L329.039,850.069 L329.039,847.709 "/>
<path class="Lyrics" d="M438.043,847.709 L492.824,847.709 L492.824,850.069 L438.043,850.069 L438.043,847.709 "/>
<path class="Lyrics" d="M502.921,847.709 L557.702,847.709 L557.702,850.069 L502.921,850.069 L502.921,847.709 "/>
<path class="Lyrics" d="M567.799,847.709 L622.58,847.709 L622.58,850.069 L567.799,850.069 L567.799,847.709 "/>
<path class="Lyrics" d="M632.677,847.709 L687.459,847.709 L687.459,850.069 L632.677,850.069 L632.677,847.709 "/>
<path class="Lyrics" d="M741.681,847.709 L796.462,847.709 L796.462,850.069 L741.681,850.069 L741.681,847.709 "/>
<path class="Lyrics" d="M806.559,847.709 L861.34,847.709 L861.34,850.069 L806.559,850.069 L806.559,847.709 "/>
<path class="Lyrics" d="M871.437,847.709 L926.218,847.709 L926.218,850.069 L871.437,850.069 L871.437,847.709 "/>
<path class="Lyrics" d="M936.315,847.709 L991.097,847.709 L991.097,850.069 L936.315,850.069 L936.315,847.709 "/>
<path class="Lyrics" d="M1045.32,847.709 L1100.1,847.709 L1100.1,850.069 L1045.32,850.069 L1045.32,847.709 "/>
<path class="Lyrics" d="M1110.2,847.709 L1164.98,847.709 L1164.98,850.069 L1110.2,850.069 L1110.2,847.709 "/>
<path class="Lyrics" d="M1175.08,847.709 L1229.86,847.709 L1229.86,850.069 L1175.08,850.069 L1175.08,847.709 "/>
<path class="Lyrics" d="M1239.95,847.709 L1294.73,847.709 L1294.73,850.069 L1239.95,850.069 L1239.95,847.709 "/>
</svg>
