<?xml version="1.0" encoding="UTF-8" standalone="no"?>
<svg width="1346.46px" height="184.252px" viewBox="0 0 1346.46 184.252"
 xmlns="http://www.w3.org/2000/svg" xmlns:xlink="http://www.w3.org/1999/xlink" version="1.2" baseProfile="tiny">
<title>treble_clef_c_position</title>
<desc>Generated by MuseScore 3.4.2</desc>
<polyline class="StaffLines" fill="none" stroke="#000000" stroke-width="2.00" stroke-linejoin="bevel" points="0,42.5027 1346.46,42.5027"/>
<polyline class="StaffLines" fill="none" stroke="#000000" stroke-width="2.00" stroke-linejoin="bevel" points="0,67.5043 1346.46,67.5043"/>
<polyline class="StaffLines" fill="none" stroke="#000000" stroke-width="2.00" stroke-linejoin="bevel" points="0,92.5058 1346.46,92.5058"/>
<polyline class="StaffLines" fill="none" stroke="#000000" stroke-width="2.00" stroke-linejoin="bevel" points="0,117.507 1346.46,117.507"/>
<polyline class="StaffLines" fill="none" stroke="#000000" stroke-width="2.00" stroke-linejoin="bevel" points="0,142.509 1346.46,142.509"/>
<polyline class="BarLine" fill="none" stroke="#000000" stroke-width="4.00" stroke-linejoin="bevel" points="424.377,41.5026 424.377,143.509"/>
<polyline class="BarLine" fill="none" stroke="#000000" stroke-width="4.00" stroke-linejoin="bevel" points="868.945,41.5026 868.945,143.509"/>
<polyline class="LedgerLine" fill="none" stroke="#000000" stroke-width="4.00" stroke-linecap="square" stroke-linejoin="bevel" points="350.568,167.511 401.369,167.511"/>
<path class="Note" fill="#ffffff" d="M118.307,131.601 C129.104,131.601 142.401,122.304 142.401,112.804 C142.401,107.101 137.51,103.414 130.401,103.414 C117.198,103.414 106.604,112.507 106.604,122.211 C106.604,128.101 111.698,131.601 118.307,131.601"/>
<path class="Note" d="M130.51,103.304 C117.307,103.304 106.604,112.414 106.604,122.101 C106.604,128.007 111.807,131.507 118.401,131.507 C129.104,131.507 142.401,122.211 142.401,112.711 C142.401,107.007 137.51,103.304 130.51,103.304 M123.51,123.304 C125.698,123.304 127.901,121.804 128.104,119.507 L124.01,119.507 L124.01,116.414 L131.307,116.414 L131.307,124.804 L129.01,126.211 L128.604,123.711 C127.198,125.601 125.51,126.507 123.104,126.507 C118.198,126.507 114.604,122.601 114.604,117.101 C114.604,111.414 118.104,107.711 123.401,107.711 C127.807,107.711 130.807,110.101 131.307,113.804 L127.807,113.804 C127.01,111.711 125.51,110.914 123.401,110.914 C120.198,110.914 118.307,113.101 118.307,117.007 C118.307,120.804 120.51,123.304 123.51,123.304"/>
<path class="Note" fill="#ffffff" d="M181.174,144.102 C191.97,144.102 205.267,134.805 205.267,125.305 C205.267,119.602 200.377,115.914 193.267,115.914 C180.064,115.914 169.47,125.008 169.47,134.711 C169.47,140.602 174.564,144.102 181.174,144.102"/>
<path class="Note" d="M193.377,115.914 C180.174,115.914 169.47,125.008 169.47,134.711 C169.47,140.711 174.674,144.102 181.174,144.102 C191.97,144.102 205.267,134.914 205.267,125.305 C205.267,119.602 200.377,115.914 193.377,115.914 M194.674,125.211 L185.564,125.211 L185.564,129.305 L193.564,129.305 L193.564,132.414 L185.564,132.414 L185.564,140.305 L181.877,140.305 L181.877,122.008 L194.674,122.008 L194.674,125.211 "/>
<path class="Note" fill="#ffffff" d="M244.04,156.603 C254.837,156.603 268.133,147.306 268.133,137.806 C268.133,132.103 263.243,128.415 256.133,128.415 C242.93,128.415 232.337,137.509 232.337,147.212 C232.337,153.103 237.43,156.603 244.04,156.603"/>
<path class="Note" d="M256.243,128.415 C243.04,128.415 232.337,137.509 232.337,147.212 C232.337,153.103 237.54,156.603 244.04,156.603 C254.837,156.603 268.133,147.306 268.133,137.806 C268.133,132.103 263.243,128.415 256.243,128.415 M256.243,151.509 L243.04,151.509 L243.04,133.806 L255.837,133.806 L255.837,136.806 L246.743,136.806 L246.743,140.915 L255.133,140.915 L255.133,143.915 L246.743,143.915 L246.743,148.509 L256.243,148.509 L256.243,151.509 "/>
<path class="Note" fill="#ffffff" d="M306.957,169.104 C317.754,169.104 331.05,159.807 331.05,150.307 C331.05,144.604 326.16,140.916 319.05,140.916 C305.847,140.916 295.254,150.01 295.254,159.713 C295.254,165.604 300.347,169.104 306.957,169.104"/>
<path class="Note" d="M314.55,149.01 L311.16,149.01 L311.16,160.916 L314.55,160.916 C317.347,160.916 318.754,159.01 318.754,155.01 C318.754,150.916 317.347,149.01 314.55,149.01 M319.05,140.916 C305.847,140.916 295.254,149.916 295.254,159.713 C295.254,165.604 300.347,169.104 306.957,169.104 C317.66,169.104 330.957,159.807 330.957,150.307 C330.957,144.51 326.05,140.916 319.05,140.916 M320.254,161.916 C319.05,163.416 317.347,164.104 314.55,164.104 L307.457,164.104 L307.457,145.807 L314.55,145.807 C317.347,145.807 319.05,146.51 320.254,147.916 C321.754,149.713 322.55,152.104 322.55,154.916 C322.55,157.807 321.754,160.213 320.254,161.916"/>
<path class="Note" fill="#ffffff" d="M369.772,181.604 C380.569,181.604 393.866,172.307 393.866,162.807 C393.866,157.104 388.975,153.417 381.866,153.417 C368.663,153.417 358.069,162.511 358.069,172.214 C358.069,178.104 363.163,181.604 369.772,181.604"/>
<path class="Note" d="M381.975,153.307 C368.772,153.307 358.069,162.417 358.069,172.104 C358.069,178.104 363.163,181.511 369.772,181.511 C380.569,181.511 393.866,172.307 393.866,162.714 C393.866,157.011 388.975,153.307 381.975,153.307 M375.772,177.417 C370.663,177.417 367.366,173.807 367.366,167.807 C367.366,161.807 370.663,158.214 375.975,158.214 C380.069,158.214 383.366,160.511 383.678,164.807 L380.069,164.807 C379.475,162.417 378.163,161.417 376.069,161.417 C373.069,161.417 371.163,163.714 371.163,167.917 C371.163,171.917 372.975,174.214 375.975,174.214 C378.272,174.214 379.772,173.104 380.069,170.807 L383.772,170.807 C383.569,175.011 380.475,177.417 375.772,177.417"/>
<path class="Clef" d="M56.72,91.9137 C56.72,91.9137 56.9179,91.9137 57.3138,91.9137 C57.5742,91.8512 57.7981,91.8199 57.9856,91.8199 C65.2773,91.8199 71.2669,94.3928 75.9544,99.5387 C80.6419,104.612 82.9856,110.533 82.9856,117.304 C82.9856,125.711 79.5065,132.549 72.5481,137.82 C70.7252,139.257 68.345,140.429 65.4075,141.336 C65.7408,145.565 65.9075,148.981 65.9075,151.586 C65.9075,152.106 65.8398,153.997 65.7044,157.257 C65.444,163.309 63.3606,168.549 59.4544,172.976 C55.6836,177.341 50.9961,179.523 45.3919,179.523 C40.1211,179.523 35.6315,177.669 31.9231,173.961 C28.2044,170.179 26.345,165.622 26.345,160.289 C26.345,157.487 27.4231,155.106 29.5794,153.148 C31.7877,151.2 34.3554,150.226 37.2825,150.226 C39.8867,150.226 42.069,151.237 43.8294,153.257 C45.6523,155.143 46.5638,157.487 46.5638,160.289 C46.5638,162.82 45.6523,164.997 43.8294,166.82 C42.0065,168.643 39.8242,169.554 37.2825,169.554 C36.2408,169.554 35.2356,169.362 34.2669,168.976 C37.1315,173.205 40.9388,175.32 45.6888,175.32 C50.1783,175.32 53.8554,173.497 56.72,169.851 C59.72,166.08 61.3502,161.684 61.6106,156.664 C61.7356,153.539 61.7981,151.752 61.7981,151.304 C61.7981,147.658 61.6679,144.664 61.4075,142.32 C58.1575,142.841 55.2617,143.101 52.72,143.101 C43.6679,143.101 35.9544,139.518 29.5794,132.351 C23.3294,125.122 20.2044,116.528 20.2044,106.57 C20.2044,104.487 20.3971,102.372 20.7825,100.226 C21.1783,98.4657 21.6679,96.5439 22.2513,94.4605 C22.5742,93.2834 23.4544,91.3928 24.8919,88.7887 C25.4127,88.0074 25.9987,87.0308 26.6497,85.859 C27.3007,84.6871 27.7565,83.9084 28.0169,83.523 C28.6627,82.2209 29.9283,80.4605 31.8138,78.2418 C32.3346,77.6584 32.8737,77.01 33.4309,76.2965 C33.9882,75.5829 34.4622,74.997 34.8528,74.5387 C35.2434,74.0803 35.5351,73.7209 35.7278,73.4605 C35.9205,73.2001 37.3867,71.4762 40.1263,68.2887 C40.7721,67.6324 41.4049,66.9319 42.0247,66.1871 C42.6445,65.4423 43.1497,64.8564 43.5403,64.4293 C43.9309,64.0022 44.2252,63.6949 44.4231,63.5074 C42.0794,55.7574 40.6106,49.5699 40.0169,44.9449 C39.569,41.2366 39.345,36.1584 39.345,29.7105 C39.345,24.0439 40.6471,18.7366 43.2513,13.7887 C45.7825,8.65323 49.3294,4.45532 53.8919,1.1949 C54.1523,0.996985 54.4752,0.898027 54.8606,0.898027 C55.319,0.898027 55.6471,0.996985 55.845,1.1949 C59.3554,5.42407 62.3815,10.9241 64.9231,17.6949 C67.5273,24.4657 68.8294,30.622 68.8294,36.1637 C68.8294,42.4137 67.3346,48.273 64.345,53.7418 C60.9596,59.5334 56.595,65.523 51.2513,71.7105 C52.6158,76.0022 54.4388,82.7366 56.72,91.9137 M65.0169,137.336 C68.4023,136.096 71.0429,133.981 72.9388,130.992 C75.0221,128.127 76.0638,124.903 76.0638,121.32 C76.0638,116.695 74.5013,112.591 71.3763,109.007 C68.1783,105.299 64.1054,103.216 59.1575,102.757 C61.9596,116.497 63.9127,128.023 65.0169,137.336 M27.2356,114.773 C27.2356,121.221 29.8398,126.888 35.0481,131.773 C40.3815,136.523 46.3711,138.898 53.0169,138.898 C55.7461,138.898 58.4127,138.7 61.0169,138.304 C59.9752,128.408 57.9231,116.559 54.8606,102.757 C51.1523,103.153 48.194,104.455 45.9856,106.664 C43.8294,108.945 42.7513,111.518 42.7513,114.382 C42.7513,119.33 45.3919,123.336 50.6731,126.398 C51.1211,126.856 51.345,127.346 51.345,127.867 C51.345,128.388 51.1211,128.872 50.6731,129.32 C50.2773,129.778 49.7877,130.007 49.2044,130.007 C49.1419,130.007 48.8502,129.945 48.3294,129.82 C44.6106,127.799 41.7461,125.195 39.7356,122.007 C37.8398,118.612 36.8919,115.19 36.8919,111.742 C36.8919,107.252 38.2929,103.184 41.095,99.5387 C44.0221,95.8928 47.8294,93.5491 52.5169,92.5074 C50.694,85.2157 49.1992,79.5178 48.0325,75.4137 C46.9908,76.5907 45.7382,78.0074 44.2747,79.6637 C42.8112,81.3199 41.9492,82.3147 41.6888,82.648 C39.345,85.7001 37.5533,88.0751 36.3138,89.773 C34.095,92.8355 32.4648,95.4709 31.4231,97.6793 C30.319,100.158 29.345,102.862 28.5013,105.789 C27.6575,108.591 27.2356,111.586 27.2356,114.773 M59.845,15.4605 C54.9596,17.8668 51.1211,21.3147 48.3294,25.8043 C45.4648,30.4293 44.0325,35.4084 44.0325,40.7418 C44.0325,45.4293 45.2044,51.747 47.5481,59.6949 C52.2356,54.0282 55.7513,48.7887 58.095,43.9762 C60.5638,38.8928 61.7981,33.5855 61.7981,28.0543 C61.7981,23.8876 61.1471,19.6897 59.845,15.4605"/>
</svg>
