<?xml version="1.0" encoding="UTF-8" standalone="no"?>
<svg width="1346.46px" height="184.252px" viewBox="0 0 1346.46 184.252"
 xmlns="http://www.w3.org/2000/svg" xmlns:xlink="http://www.w3.org/1999/xlink" version="1.2" baseProfile="tiny">
<title>treble_clef_g_notes</title>
<desc>Generated by MuseScore 3.4.2</desc>
<polyline class="StaffLines" fill="none" stroke="#000000" stroke-width="2.00" stroke-linejoin="bevel" points="0,42.5027 1346.46,42.5027"/>
<polyline class="StaffLines" fill="none" stroke="#000000" stroke-width="2.00" stroke-linejoin="bevel" points="0,67.5043 1346.46,67.5043"/>
<polyline class="StaffLines" fill="none" stroke="#000000" stroke-width="2.00" stroke-linejoin="bevel" points="0,92.5058 1346.46,92.5058"/>
<polyline class="StaffLines" fill="none" stroke="#000000" stroke-width="2.00" stroke-linejoin="bevel" points="0,117.507 1346.46,117.507"/>
<polyline class="StaffLines" fill="none" stroke="#000000" stroke-width="2.00" stroke-linejoin="bevel" points="0,142.509 1346.46,142.509"/>
<polyline class="BarLine" fill="none" stroke="#000000" stroke-width="4.00" stroke-linejoin="bevel" points="333.221,41.5026 333.221,143.509"/>
<polyline class="BarLine" fill="none" stroke="#000000" stroke-width="4.00" stroke-linejoin="bevel" points="670.299,41.5026 670.299,143.509"/>
<polyline class="BarLine" fill="none" stroke="#000000" stroke-width="4.00" stroke-linejoin="bevel" points="1017.76,41.5026 1017.76,143.509"/>
<path class="Note" fill="#ffffff" d="M125.916,131.601 C136.712,131.601 150.009,122.304 150.009,112.804 C150.009,107.101 145.119,103.414 138.009,103.414 C124.806,103.414 114.212,112.507 114.212,122.211 C114.212,128.101 119.306,131.601 125.916,131.601"/>
<path class="Note" d="M138.119,103.304 C124.916,103.304 114.212,112.414 114.212,122.101 C114.212,128.007 119.416,131.507 126.009,131.507 C136.712,131.507 150.009,122.211 150.009,112.711 C150.009,107.007 145.119,103.304 138.119,103.304 M131.119,123.304 C133.306,123.304 135.509,121.804 135.712,119.507 L131.619,119.507 L131.619,116.414 L138.916,116.414 L138.916,124.804 L136.619,126.211 L136.212,123.711 C134.806,125.601 133.119,126.507 130.712,126.507 C125.806,126.507 122.212,122.601 122.212,117.101 C122.212,111.414 125.712,107.711 131.009,107.711 C135.416,107.711 138.416,110.101 138.916,113.804 L135.416,113.804 C134.619,111.711 133.119,110.914 131.009,110.914 C127.806,110.914 125.916,113.101 125.916,117.007 C125.916,120.804 128.119,123.304 131.119,123.304"/>
<path class="Note" fill="#ffffff" d="M177.504,131.601 C188.301,131.601 201.598,122.304 201.598,112.804 C201.598,107.101 196.707,103.414 189.598,103.414 C176.395,103.414 165.801,112.507 165.801,122.211 C165.801,128.101 170.895,131.601 177.504,131.601"/>
<path class="Note" d="M189.707,103.304 C176.504,103.304 165.801,112.414 165.801,122.101 C165.801,128.007 171.004,131.507 177.598,131.507 C188.301,131.507 201.598,122.211 201.598,112.711 C201.598,107.007 196.707,103.304 189.707,103.304 M182.707,123.304 C184.895,123.304 187.098,121.804 187.301,119.507 L183.207,119.507 L183.207,116.414 L190.504,116.414 L190.504,124.804 L188.207,126.211 L187.801,123.711 C186.395,125.601 184.707,126.507 182.301,126.507 C177.395,126.507 173.801,122.601 173.801,117.101 C173.801,111.414 177.301,107.711 182.598,107.711 C187.004,107.711 190.004,110.101 190.504,113.804 L187.004,113.804 C186.207,111.711 184.707,110.914 182.598,110.914 C179.395,110.914 177.504,113.101 177.504,117.007 C177.504,120.804 179.707,123.304 182.707,123.304"/>
<path class="Note" fill="#ffffff" d="M229.093,131.601 C239.89,131.601 253.186,122.304 253.186,112.804 C253.186,107.101 248.296,103.414 241.186,103.414 C227.983,103.414 217.39,112.507 217.39,122.211 C217.39,128.101 222.483,131.601 229.093,131.601"/>
<path class="Note" d="M241.296,103.304 C228.093,103.304 217.39,112.414 217.39,122.101 C217.39,128.007 222.593,131.507 229.186,131.507 C239.89,131.507 253.186,122.211 253.186,112.711 C253.186,107.007 248.296,103.304 241.296,103.304 M234.296,123.304 C236.483,123.304 238.686,121.804 238.89,119.507 L234.796,119.507 L234.796,116.414 L242.093,116.414 L242.093,124.804 L239.796,126.211 L239.39,123.711 C237.983,125.601 236.296,126.507 233.89,126.507 C228.983,126.507 225.39,122.601 225.39,117.101 C225.39,111.414 228.89,107.711 234.186,107.711 C238.593,107.711 241.593,110.101 242.093,113.804 L238.593,113.804 C237.796,111.711 236.296,110.914 234.186,110.914 C230.983,110.914 229.093,113.101 229.093,117.007 C229.093,120.804 231.296,123.304 234.296,123.304"/>
<path class="Note" fill="#ffffff" d="M280.681,131.601 C291.478,131.601 304.775,122.304 304.775,112.804 C304.775,107.101 299.884,103.414 292.775,103.414 C279.572,103.414 268.978,112.507 268.978,122.211 C268.978,128.101 274.072,131.601 280.681,131.601"/>
<path class="Note" d="M292.884,103.304 C279.681,103.304 268.978,112.414 268.978,122.101 C268.978,128.007 274.181,131.507 280.775,131.507 C291.478,131.507 304.775,122.211 304.775,112.711 C304.775,107.007 299.884,103.304 292.884,103.304 M285.884,123.304 C288.072,123.304 290.275,121.804 290.478,119.507 L286.384,119.507 L286.384,116.414 L293.681,116.414 L293.681,124.804 L291.384,126.211 L290.978,123.711 C289.572,125.601 287.884,126.507 285.478,126.507 C280.572,126.507 276.978,122.601 276.978,117.101 C276.978,111.414 280.478,107.711 285.775,107.711 C290.181,107.711 293.181,110.101 293.681,113.804 L290.181,113.804 C289.384,111.711 287.884,110.914 285.775,110.914 C282.572,110.914 280.681,113.101 280.681,117.007 C280.681,120.804 282.884,123.304 285.884,123.304"/>
<path class="Clef" d="M56.72,91.9137 C56.72,91.9137 56.9179,91.9137 57.3138,91.9137 C57.5742,91.8512 57.7981,91.8199 57.9856,91.8199 C65.2773,91.8199 71.2669,94.3928 75.9544,99.5387 C80.6419,104.612 82.9856,110.533 82.9856,117.304 C82.9856,125.711 79.5065,132.549 72.5481,137.82 C70.7252,139.257 68.345,140.429 65.4075,141.336 C65.7408,145.565 65.9075,148.981 65.9075,151.586 C65.9075,152.106 65.8398,153.997 65.7044,157.257 C65.444,163.309 63.3606,168.549 59.4544,172.976 C55.6836,177.341 50.9961,179.523 45.3919,179.523 C40.1211,179.523 35.6315,177.669 31.9231,173.961 C28.2044,170.179 26.345,165.622 26.345,160.289 C26.345,157.487 27.4231,155.106 29.5794,153.148 C31.7877,151.2 34.3554,150.226 37.2825,150.226 C39.8867,150.226 42.069,151.237 43.8294,153.257 C45.6523,155.143 46.5638,157.487 46.5638,160.289 C46.5638,162.82 45.6523,164.997 43.8294,166.82 C42.0065,168.643 39.8242,169.554 37.2825,169.554 C36.2408,169.554 35.2356,169.362 34.2669,168.976 C37.1315,173.205 40.9388,175.32 45.6888,175.32 C50.1783,175.32 53.8554,173.497 56.72,169.851 C59.72,166.08 61.3502,161.684 61.6106,156.664 C61.7356,153.539 61.7981,151.752 61.7981,151.304 C61.7981,147.658 61.6679,144.664 61.4075,142.32 C58.1575,142.841 55.2617,143.101 52.72,143.101 C43.6679,143.101 35.9544,139.518 29.5794,132.351 C23.3294,125.122 20.2044,116.528 20.2044,106.57 C20.2044,104.487 20.3971,102.372 20.7825,100.226 C21.1783,98.4657 21.6679,96.5439 22.2513,94.4605 C22.5742,93.2834 23.4544,91.3928 24.8919,88.7887 C25.4127,88.0074 25.9987,87.0308 26.6497,85.859 C27.3007,84.6871 27.7565,83.9084 28.0169,83.523 C28.6627,82.2209 29.9283,80.4605 31.8138,78.2418 C32.3346,77.6584 32.8737,77.01 33.4309,76.2965 C33.9882,75.5829 34.4622,74.997 34.8528,74.5387 C35.2434,74.0803 35.5351,73.7209 35.7278,73.4605 C35.9205,73.2001 37.3867,71.4762 40.1263,68.2887 C40.7721,67.6324 41.4049,66.9319 42.0247,66.1871 C42.6445,65.4423 43.1497,64.8564 43.5403,64.4293 C43.9309,64.0022 44.2252,63.6949 44.4231,63.5074 C42.0794,55.7574 40.6106,49.5699 40.0169,44.9449 C39.569,41.2366 39.345,36.1584 39.345,29.7105 C39.345,24.0439 40.6471,18.7366 43.2513,13.7887 C45.7825,8.65323 49.3294,4.45532 53.8919,1.1949 C54.1523,0.996985 54.4752,0.898027 54.8606,0.898027 C55.319,0.898027 55.6471,0.996985 55.845,1.1949 C59.3554,5.42407 62.3815,10.9241 64.9231,17.6949 C67.5273,24.4657 68.8294,30.622 68.8294,36.1637 C68.8294,42.4137 67.3346,48.273 64.345,53.7418 C60.9596,59.5334 56.595,65.523 51.2513,71.7105 C52.6158,76.0022 54.4388,82.7366 56.72,91.9137 M65.0169,137.336 C68.4023,136.096 71.0429,133.981 72.9388,130.992 C75.0221,128.127 76.0638,124.903 76.0638,121.32 C76.0638,116.695 74.5013,112.591 71.3763,109.007 C68.1783,105.299 64.1054,103.216 59.1575,102.757 C61.9596,116.497 63.9127,128.023 65.0169,137.336 M27.2356,114.773 C27.2356,121.221 29.8398,126.888 35.0481,131.773 C40.3815,136.523 46.3711,138.898 53.0169,138.898 C55.7461,138.898 58.4127,138.7 61.0169,138.304 C59.9752,128.408 57.9231,116.559 54.8606,102.757 C51.1523,103.153 48.194,104.455 45.9856,106.664 C43.8294,108.945 42.7513,111.518 42.7513,114.382 C42.7513,119.33 45.3919,123.336 50.6731,126.398 C51.1211,126.856 51.345,127.346 51.345,127.867 C51.345,128.388 51.1211,128.872 50.6731,129.32 C50.2773,129.778 49.7877,130.007 49.2044,130.007 C49.1419,130.007 48.8502,129.945 48.3294,129.82 C44.6106,127.799 41.7461,125.195 39.7356,122.007 C37.8398,118.612 36.8919,115.19 36.8919,111.742 C36.8919,107.252 38.2929,103.184 41.095,99.5387 C44.0221,95.8928 47.8294,93.5491 52.5169,92.5074 C50.694,85.2157 49.1992,79.5178 48.0325,75.4137 C46.9908,76.5907 45.7382,78.0074 44.2747,79.6637 C42.8112,81.3199 41.9492,82.3147 41.6888,82.648 C39.345,85.7001 37.5533,88.0751 36.3138,89.773 C34.095,92.8355 32.4648,95.4709 31.4231,97.6793 C30.319,100.158 29.345,102.862 28.5013,105.789 C27.6575,108.591 27.2356,111.586 27.2356,114.773 M59.845,15.4605 C54.9596,17.8668 51.1211,21.3147 48.3294,25.8043 C45.4648,30.4293 44.0325,35.4084 44.0325,40.7418 C44.0325,45.4293 45.2044,51.747 47.5481,59.6949 C52.2356,54.0282 55.7513,48.7887 58.095,43.9762 C60.5638,38.8928 61.7981,33.5855 61.7981,28.0543 C61.7981,23.8876 61.1471,19.6897 59.845,15.4605"/>
</svg>
