<?xml version="1.0" encoding="UTF-8" standalone="no"?>
<svg width="1346.46px" height="496.063px" viewBox="0 0 1346.46 496.063"
 xmlns="http://www.w3.org/2000/svg" xmlns:xlink="http://www.w3.org/1999/xlink" version="1.2" baseProfile="tiny">
<title>bass_clef_ode_to_joy</title>
<desc>Generated by MuseScore 3.4.2</desc>
<polyline class="StaffLines" fill="none" stroke="#000000" stroke-width="2.00" stroke-linejoin="bevel" points="0,42.5027 1346.46,42.5027"/>
<polyline class="StaffLines" fill="none" stroke="#000000" stroke-width="2.00" stroke-linejoin="bevel" points="0,67.5043 1346.46,67.5043"/>
<polyline class="StaffLines" fill="none" stroke="#000000" stroke-width="2.00" stroke-linejoin="bevel" points="0,92.5058 1346.46,92.5058"/>
<polyline class="StaffLines" fill="none" stroke="#000000" stroke-width="2.00" stroke-linejoin="bevel" points="0,117.507 1346.46,117.507"/>
<polyline class="StaffLines" fill="none" stroke="#000000" stroke-width="2.00" stroke-linejoin="bevel" points="0,142.509 1346.46,142.509"/>
<polyline class="StaffLines" fill="none" stroke="#000000" stroke-width="2.00" stroke-linejoin="bevel" points="0,355.022 1346.46,355.022"/>
<polyline class="StaffLines" fill="none" stroke="#000000" stroke-width="2.00" stroke-linejoin="bevel" points="0,380.024 1346.46,380.024"/>
<polyline class="StaffLines" fill="none" stroke="#000000" stroke-width="2.00" stroke-linejoin="bevel" points="0,405.026 1346.46,405.026"/>
<polyline class="StaffLines" fill="none" stroke="#000000" stroke-width="2.00" stroke-linejoin="bevel" points="0,430.027 1346.46,430.027"/>
<polyline class="StaffLines" fill="none" stroke="#000000" stroke-width="2.00" stroke-linejoin="bevel" points="0,455.029 1346.46,455.029"/>
<polyline class="BarLine" fill="none" stroke="#000000" stroke-width="4.00" stroke-linejoin="bevel" points="432.07,41.5026 432.07,143.509"/>
<polyline class="BarLine" fill="none" stroke="#000000" stroke-width="4.00" stroke-linejoin="bevel" points="753.694,41.5026 753.694,143.509"/>
<polyline class="BarLine" fill="none" stroke="#000000" stroke-width="4.00" stroke-linejoin="bevel" points="1077.68,41.5026 1077.68,143.509"/>
<polyline class="BarLine" fill="none" stroke="#000000" stroke-width="4.00" stroke-linejoin="bevel" points="1344.46,41.5026 1344.46,143.509"/>
<polyline class="BarLine" fill="none" stroke="#000000" stroke-width="4.00" stroke-linejoin="bevel" points="432.882,354.022 432.882,456.029"/>
<polyline class="BarLine" fill="none" stroke="#000000" stroke-width="4.00" stroke-linejoin="bevel" points="744.645,354.022 744.645,456.029"/>
<polyline class="BarLine" fill="none" stroke="#000000" stroke-width="4.00" stroke-linejoin="bevel" points="1058.43,354.022 1058.43,456.029"/>
<polyline class="BarLine" fill="none" stroke="#000000" stroke-width="4.00" stroke-linejoin="bevel" points="1321.96,354.022 1321.96,456.029"/>
<polyline class="BarLine" fill="none" stroke="#000000" stroke-width="12.50" stroke-linejoin="bevel" points="1340.21,354.022 1340.21,456.029"/>
<path class="Note" fill="#ffffff" d="M176.809,94.0988 C187.606,94.0988 200.903,84.8019 200.903,75.3019 C200.903,69.5988 196.013,65.9113 188.903,65.9113 C175.7,65.9113 165.106,75.005 165.106,84.7082 C165.106,90.5988 170.2,94.0988 176.809,94.0988"/>
<path class="Note" d="M189.013,65.9113 C175.809,65.9113 165.106,75.005 165.106,84.7082 C165.106,90.5988 170.309,94.0988 176.809,94.0988 C187.606,94.0988 200.903,84.8019 200.903,75.3019 C200.903,69.5988 196.013,65.9113 189.013,65.9113 M189.013,89.005 L175.809,89.005 L175.809,71.3019 L188.606,71.3019 L188.606,74.3019 L179.513,74.3019 L179.513,78.4113 L187.903,78.4113 L187.903,81.4113 L179.513,81.4113 L179.513,86.005 L189.013,86.005 L189.013,89.005 "/>
<path class="Note" fill="#ffffff" d="M242.69,94.0988 C253.487,94.0988 266.784,84.8019 266.784,75.3019 C266.784,69.5988 261.893,65.9113 254.784,65.9113 C241.58,65.9113 230.987,75.005 230.987,84.7082 C230.987,90.5988 236.08,94.0988 242.69,94.0988"/>
<path class="Note" d="M254.893,65.9113 C241.69,65.9113 230.987,75.005 230.987,84.7082 C230.987,90.5988 236.19,94.0988 242.69,94.0988 C253.487,94.0988 266.784,84.8019 266.784,75.3019 C266.784,69.5988 261.893,65.9113 254.893,65.9113 M254.893,89.005 L241.69,89.005 L241.69,71.3019 L254.487,71.3019 L254.487,74.3019 L245.393,74.3019 L245.393,78.4113 L253.784,78.4113 L253.784,81.4113 L245.393,81.4113 L245.393,86.005 L254.893,86.005 L254.893,89.005 "/>
<path class="Note" fill="#ffffff" d="M308.57,81.598 C319.367,81.598 332.664,72.3011 332.664,62.8011 C332.664,57.098 327.773,53.4105 320.664,53.4105 C307.461,53.4105 296.867,62.5043 296.867,72.2074 C296.867,78.098 301.961,81.598 308.57,81.598"/>
<path class="Note" d="M320.773,53.4105 C307.57,53.4105 296.867,62.5043 296.867,72.2074 C296.867,78.2074 302.07,81.598 308.57,81.598 C319.367,81.598 332.664,72.4105 332.664,62.8011 C332.664,57.098 327.773,53.4105 320.773,53.4105 M322.07,62.7074 L312.961,62.7074 L312.961,66.8011 L320.961,66.8011 L320.961,69.9105 L312.961,69.9105 L312.961,77.8011 L309.273,77.8011 L309.273,59.5043 L322.07,59.5043 L322.07,62.7074 "/>
<path class="Note" fill="#ffffff" d="M374.451,69.0972 C385.248,69.0972 398.544,59.8003 398.544,50.3003 C398.544,44.5972 393.654,40.9097 386.544,40.9097 C373.341,40.9097 362.748,50.0035 362.748,59.7066 C362.748,65.5972 367.841,69.0972 374.451,69.0972"/>
<path class="Note" d="M386.654,40.8003 C373.451,40.8003 362.748,49.9097 362.748,59.5972 C362.748,65.5035 367.951,69.0035 374.544,69.0035 C385.248,69.0035 398.544,59.7066 398.544,50.2066 C398.544,44.5035 393.654,40.8003 386.654,40.8003 M379.654,60.8003 C381.841,60.8003 384.044,59.3003 384.248,57.0035 L380.154,57.0035 L380.154,53.9097 L387.451,53.9097 L387.451,62.3003 L385.154,63.7066 L384.748,61.2066 C383.341,63.0972 381.654,64.0035 379.248,64.0035 C374.341,64.0035 370.748,60.0972 370.748,54.5972 C370.748,48.9097 374.248,45.2066 379.544,45.2066 C383.951,45.2066 386.951,47.5972 387.451,51.3003 L383.951,51.3003 C383.154,49.2066 381.654,48.4097 379.544,48.4097 C376.341,48.4097 374.451,50.5972 374.451,54.5035 C374.451,58.3003 376.654,60.8003 379.654,60.8003"/>
<path class="Note" fill="#ffffff" d="M472.216,69.0972 C483.013,69.0972 496.31,59.8003 496.31,50.3003 C496.31,44.5972 491.419,40.9097 484.31,40.9097 C471.106,40.9097 460.513,50.0035 460.513,59.7066 C460.513,65.5972 465.606,69.0972 472.216,69.0972"/>
<path class="Note" d="M484.419,40.8003 C471.216,40.8003 460.513,49.9097 460.513,59.5972 C460.513,65.5035 465.716,69.0035 472.31,69.0035 C483.013,69.0035 496.31,59.7066 496.31,50.2066 C496.31,44.5035 491.419,40.8003 484.419,40.8003 M477.419,60.8003 C479.606,60.8003 481.81,59.3003 482.013,57.0035 L477.919,57.0035 L477.919,53.9097 L485.216,53.9097 L485.216,62.3003 L482.919,63.7066 L482.513,61.2066 C481.106,63.0972 479.419,64.0035 477.013,64.0035 C472.106,64.0035 468.513,60.0972 468.513,54.5972 C468.513,48.9097 472.013,45.2066 477.31,45.2066 C481.716,45.2066 484.716,47.5972 485.216,51.3003 L481.716,51.3003 C480.919,49.2066 479.419,48.4097 477.31,48.4097 C474.106,48.4097 472.216,50.5972 472.216,54.5035 C472.216,58.3003 474.419,60.8003 477.419,60.8003"/>
<path class="Note" fill="#ffffff" d="M544.651,81.598 C555.448,81.598 568.745,72.3011 568.745,62.8011 C568.745,57.098 563.854,53.4105 556.745,53.4105 C543.541,53.4105 532.948,62.5043 532.948,72.2074 C532.948,78.098 538.041,81.598 544.651,81.598"/>
<path class="Note" d="M556.854,53.4105 C543.651,53.4105 532.948,62.5043 532.948,72.2074 C532.948,78.2074 538.151,81.598 544.651,81.598 C555.448,81.598 568.745,72.4105 568.745,62.8011 C568.745,57.098 563.854,53.4105 556.854,53.4105 M558.151,62.7074 L549.041,62.7074 L549.041,66.8011 L557.041,66.8011 L557.041,69.9105 L549.041,69.9105 L549.041,77.8011 L545.354,77.8011 L545.354,59.5043 L558.151,59.5043 L558.151,62.7074 "/>
<path class="Note" fill="#ffffff" d="M617.086,94.0988 C627.883,94.0988 641.179,84.8019 641.179,75.3019 C641.179,69.5988 636.289,65.9113 629.179,65.9113 C615.976,65.9113 605.383,75.005 605.383,84.7082 C605.383,90.5988 610.476,94.0988 617.086,94.0988"/>
<path class="Note" d="M629.289,65.9113 C616.086,65.9113 605.383,75.005 605.383,84.7082 C605.383,90.5988 610.586,94.0988 617.086,94.0988 C627.883,94.0988 641.179,84.8019 641.179,75.3019 C641.179,69.5988 636.289,65.9113 629.289,65.9113 M629.289,89.005 L616.086,89.005 L616.086,71.3019 L628.883,71.3019 L628.883,74.3019 L619.789,74.3019 L619.789,78.4113 L628.179,78.4113 L628.179,81.4113 L619.789,81.4113 L619.789,86.005 L629.289,86.005 L629.289,89.005 "/>
<path class="Note" fill="#ffffff" d="M689.571,106.6 C700.368,106.6 713.665,97.3027 713.665,87.8027 C713.665,82.0996 708.775,78.4121 701.665,78.4121 C688.462,78.4121 677.868,87.5058 677.868,97.209 C677.868,103.1 682.962,106.6 689.571,106.6"/>
<path class="Note" d="M697.165,86.5058 L693.775,86.5058 L693.775,98.4121 L697.165,98.4121 C699.962,98.4121 701.368,96.5058 701.368,92.5058 C701.368,88.4121 699.962,86.5058 697.165,86.5058 M701.665,78.4121 C688.462,78.4121 677.868,87.4121 677.868,97.209 C677.868,103.1 682.962,106.6 689.571,106.6 C700.275,106.6 713.571,97.3027 713.571,87.8027 C713.571,82.0058 708.665,78.4121 701.665,78.4121 M702.868,99.4121 C701.665,100.912 699.962,101.6 697.165,101.6 L690.071,101.6 L690.071,83.3027 L697.165,83.3027 C699.962,83.3027 701.665,84.0058 702.868,85.4121 C704.368,87.209 705.165,89.5996 705.165,92.4121 C705.165,95.3027 704.368,97.709 702.868,99.4121"/>
<path class="Note" fill="#ffffff" d="M792.399,119.1 C803.196,119.1 816.493,109.803 816.493,100.303 C816.493,94.6004 811.602,90.9129 804.493,90.9129 C791.289,90.9129 780.696,100.007 780.696,109.71 C780.696,115.6 785.789,119.1 792.399,119.1"/>
<path class="Note" d="M804.602,90.8035 C791.399,90.8035 780.696,99.9129 780.696,109.6 C780.696,115.6 785.789,119.007 792.399,119.007 C803.196,119.007 816.493,109.803 816.493,100.21 C816.493,94.5066 811.602,90.8035 804.602,90.8035 M798.399,114.913 C793.289,114.913 789.993,111.303 789.993,105.303 C789.993,99.3035 793.289,95.7097 798.602,95.7097 C802.696,95.7097 805.993,98.0066 806.305,102.303 L802.696,102.303 C802.102,99.9129 800.789,98.9129 798.696,98.9129 C795.696,98.9129 793.789,101.21 793.789,105.413 C793.789,109.413 795.602,111.71 798.602,111.71 C800.899,111.71 802.399,110.6 802.696,108.303 L806.399,108.303 C806.196,112.507 803.102,114.913 798.399,114.913"/>
<path class="Note" fill="#ffffff" d="M865.785,119.1 C876.582,119.1 889.879,109.803 889.879,100.303 C889.879,94.6004 884.988,90.9129 877.879,90.9129 C864.676,90.9129 854.082,100.007 854.082,109.71 C854.082,115.6 859.176,119.1 865.785,119.1"/>
<path class="Note" d="M877.988,90.8035 C864.785,90.8035 854.082,99.9129 854.082,109.6 C854.082,115.6 859.176,119.007 865.785,119.007 C876.582,119.007 889.879,109.803 889.879,100.21 C889.879,94.5066 884.988,90.8035 877.988,90.8035 M871.785,114.913 C866.676,114.913 863.379,111.303 863.379,105.303 C863.379,99.3035 866.676,95.7097 871.988,95.7097 C876.082,95.7097 879.379,98.0066 879.691,102.303 L876.082,102.303 C875.488,99.9129 874.176,98.9129 872.082,98.9129 C869.082,98.9129 867.176,101.21 867.176,105.413 C867.176,109.413 868.988,111.71 871.988,111.71 C874.285,111.71 875.785,110.6 876.082,108.303 L879.785,108.303 C879.582,112.507 876.488,114.913 871.785,114.913"/>
<path class="Note" fill="#ffffff" d="M939.222,106.6 C950.019,106.6 963.316,97.3027 963.316,87.8027 C963.316,82.0996 958.425,78.4121 951.316,78.4121 C938.113,78.4121 927.519,87.5058 927.519,97.209 C927.519,103.1 932.613,106.6 939.222,106.6"/>
<path class="Note" d="M946.816,86.5058 L943.425,86.5058 L943.425,98.4121 L946.816,98.4121 C949.613,98.4121 951.019,96.5058 951.019,92.5058 C951.019,88.4121 949.613,86.5058 946.816,86.5058 M951.316,78.4121 C938.113,78.4121 927.519,87.4121 927.519,97.209 C927.519,103.1 932.613,106.6 939.222,106.6 C949.925,106.6 963.222,97.3027 963.222,87.8027 C963.222,82.0058 958.316,78.4121 951.316,78.4121 M952.519,99.4121 C951.316,100.912 949.613,101.6 946.816,101.6 L939.722,101.6 L939.722,83.3027 L946.816,83.3027 C949.613,83.3027 951.316,84.0058 952.519,85.4121 C954.019,87.209 954.816,89.5996 954.816,92.4121 C954.816,95.3027 954.019,97.709 952.519,99.4121"/>
<path class="Note" fill="#ffffff" d="M1012.56,94.0988 C1023.35,94.0988 1036.65,84.8019 1036.65,75.3019 C1036.65,69.5988 1031.76,65.9113 1024.65,65.9113 C1011.45,65.9113 1000.85,75.005 1000.85,84.7082 C1000.85,90.5988 1005.95,94.0988 1012.56,94.0988"/>
<path class="Note" d="M1024.76,65.9113 C1011.56,65.9113 1000.85,75.005 1000.85,84.7082 C1000.85,90.5988 1006.06,94.0988 1012.56,94.0988 C1023.35,94.0988 1036.65,84.8019 1036.65,75.3019 C1036.65,69.5988 1031.76,65.9113 1024.76,65.9113 M1024.76,89.005 L1011.56,89.005 L1011.56,71.3019 L1024.35,71.3019 L1024.35,74.3019 L1015.26,74.3019 L1015.26,78.4113 L1023.65,78.4113 L1023.65,81.4113 L1015.26,81.4113 L1015.26,86.005 L1024.76,86.005 L1024.76,89.005 "/>
<path class="Note" fill="#ffffff" d="M1117.83,94.0988 C1128.63,94.0988 1141.92,84.8019 1141.92,75.3019 C1141.92,69.5988 1137.03,65.9113 1129.92,65.9113 C1116.72,65.9113 1106.13,75.005 1106.13,84.7082 C1106.13,90.5988 1111.22,94.0988 1117.83,94.0988"/>
<path class="Note" d="M1130.03,65.9113 C1116.83,65.9113 1106.13,75.005 1106.13,84.7082 C1106.13,90.5988 1111.33,94.0988 1117.83,94.0988 C1128.63,94.0988 1141.92,84.8019 1141.92,75.3019 C1141.92,69.5988 1137.03,65.9113 1130.03,65.9113 M1130.03,89.005 L1116.83,89.005 L1116.83,71.3019 L1129.63,71.3019 L1129.63,74.3019 L1120.53,74.3019 L1120.53,78.4113 L1128.92,78.4113 L1128.92,81.4113 L1120.53,81.4113 L1120.53,86.005 L1130.03,86.005 L1130.03,89.005 "/>
<path class="Note" fill="#ffffff" d="M1183.13,106.6 C1193.92,106.6 1207.22,97.3027 1207.22,87.8027 C1207.22,82.0996 1202.33,78.4121 1195.22,78.4121 C1182.02,78.4121 1171.42,87.5058 1171.42,97.209 C1171.42,103.1 1176.52,106.6 1183.13,106.6"/>
<path class="Note" d="M1190.72,86.5058 L1187.33,86.5058 L1187.33,98.4121 L1190.72,98.4121 C1193.52,98.4121 1194.92,96.5058 1194.92,92.5058 C1194.92,88.4121 1193.52,86.5058 1190.72,86.5058 M1195.22,78.4121 C1182.02,78.4121 1171.42,87.4121 1171.42,97.209 C1171.42,103.1 1176.52,106.6 1183.13,106.6 C1193.83,106.6 1207.13,97.3027 1207.13,87.8027 C1207.13,82.0058 1202.22,78.4121 1195.22,78.4121 M1196.42,99.4121 C1195.22,100.912 1193.52,101.6 1190.72,101.6 L1183.63,101.6 L1183.63,83.3027 L1190.72,83.3027 C1193.52,83.3027 1195.22,84.0058 1196.42,85.4121 C1197.92,87.209 1198.72,89.5996 1198.72,92.4121 C1198.72,95.3027 1197.92,97.709 1196.42,99.4121"/>
<path class="Note" fill="#ffffff" d="M1248.38,106.912 C1268.58,106.912 1272.58,91.3027 1272.58,87.5996 C1272.58,81.709 1267.58,77.9121 1260.57,77.9121 C1242.17,77.9121 1236.47,91.3027 1236.47,97.209 C1236.47,103.412 1241.67,106.912 1248.38,106.912"/>
<path class="Note" d="M1248.38,106.912 C1268.58,106.912 1272.58,91.3027 1272.58,87.5996 C1272.58,81.709 1267.58,77.9121 1260.57,77.9121 C1242.17,77.9121 1236.47,91.3027 1236.47,97.209 C1236.47,103.412 1241.67,106.912 1248.38,106.912 M1259.57,100.303 C1255.07,103.1 1251.47,104.209 1248.67,104.209 C1244.67,104.209 1242.27,102.1 1240.67,99.5058 C1239.88,98.3027 1239.47,97.0058 1239.47,95.5996 C1239.47,92.3027 1242.17,88.5996 1249.88,84.5058 C1254.88,81.8027 1258.47,80.709 1261.27,80.709 C1264.67,80.709 1266.67,82.3027 1268.17,84.709 C1268.97,86.0996 1269.58,87.5058 1269.58,88.9121 C1269.58,92.0996 1266.97,95.5996 1259.57,100.303 M1255.67,85.5058 L1249.97,85.5058 L1249.97,100.1 L1255.67,100.1 C1257.97,100.1 1259.27,99.5996 1260.27,98.4121 C1261.47,97.0996 1262.08,95.0996 1262.08,92.8027 C1262.08,90.5996 1261.47,88.5996 1260.27,87.209 C1259.38,86.0058 1257.97,85.5058 1255.67,85.5058 M1255.67,97.5996 L1252.97,97.5996 L1252.97,88.0058 L1255.67,88.0058 C1257.97,88.0058 1259.07,89.5996 1259.07,92.8027 C1259.07,96.0058 1257.97,97.5996 1255.67,97.5996"/>
<path class="Note" fill="#ffffff" d="M161.142,406.618 C171.939,406.618 185.236,397.322 185.236,387.822 C185.236,382.118 180.345,378.431 173.236,378.431 C160.033,378.431 149.439,387.525 149.439,397.228 C149.439,403.118 154.533,406.618 161.142,406.618"/>
<path class="Note" d="M173.345,378.431 C160.142,378.431 149.439,387.525 149.439,397.228 C149.439,403.118 154.642,406.618 161.142,406.618 C171.939,406.618 185.236,397.322 185.236,387.822 C185.236,382.118 180.345,378.431 173.345,378.431 M173.345,401.525 L160.142,401.525 L160.142,383.822 L172.939,383.822 L172.939,386.822 L163.845,386.822 L163.845,390.931 L172.236,390.931 L172.236,393.931 L163.845,393.931 L163.845,398.525 L173.345,398.525 L173.345,401.525 "/>
<path class="Note" fill="#ffffff" d="M231.142,406.618 C241.939,406.618 255.236,397.322 255.236,387.822 C255.236,382.118 250.346,378.431 243.236,378.431 C230.033,378.431 219.439,387.525 219.439,397.228 C219.439,403.118 224.533,406.618 231.142,406.618"/>
<path class="Note" d="M243.346,378.431 C230.142,378.431 219.439,387.525 219.439,397.228 C219.439,403.118 224.642,406.618 231.142,406.618 C241.939,406.618 255.236,397.322 255.236,387.822 C255.236,382.118 250.346,378.431 243.346,378.431 M243.346,401.525 L230.142,401.525 L230.142,383.822 L242.939,383.822 L242.939,386.822 L233.846,386.822 L233.846,390.931 L242.236,390.931 L242.236,393.931 L233.846,393.931 L233.846,398.525 L243.346,398.525 L243.346,401.525 "/>
<path class="Note" fill="#ffffff" d="M301.143,394.118 C311.94,394.118 325.236,384.821 325.236,375.321 C325.236,369.618 320.346,365.93 313.236,365.93 C300.033,365.93 289.44,375.024 289.44,384.727 C289.44,390.618 294.533,394.118 301.143,394.118"/>
<path class="Note" d="M313.346,365.93 C300.143,365.93 289.44,375.024 289.44,384.727 C289.44,390.727 294.643,394.118 301.143,394.118 C311.94,394.118 325.236,384.93 325.236,375.321 C325.236,369.618 320.346,365.93 313.346,365.93 M314.643,375.227 L305.533,375.227 L305.533,379.321 L313.533,379.321 L313.533,382.43 L305.533,382.43 L305.533,390.321 L301.846,390.321 L301.846,372.024 L314.643,372.024 L314.643,375.227 "/>
<path class="Note" fill="#ffffff" d="M371.143,381.617 C381.94,381.617 395.237,372.32 395.237,362.82 C395.237,357.117 390.346,353.429 383.237,353.429 C370.033,353.429 359.44,362.523 359.44,372.226 C359.44,378.117 364.533,381.617 371.143,381.617"/>
<path class="Note" d="M383.346,353.32 C370.143,353.32 359.44,362.429 359.44,372.117 C359.44,378.023 364.643,381.523 371.237,381.523 C381.94,381.523 395.237,372.226 395.237,362.726 C395.237,357.023 390.346,353.32 383.346,353.32 M376.346,373.32 C378.533,373.32 380.737,371.82 380.94,369.523 L376.846,369.523 L376.846,366.429 L384.143,366.429 L384.143,374.82 L381.846,376.226 L381.44,373.726 C380.033,375.617 378.346,376.523 375.94,376.523 C371.033,376.523 367.44,372.617 367.44,367.117 C367.44,361.429 370.94,357.726 376.237,357.726 C380.643,357.726 383.643,360.117 384.143,363.82 L380.643,363.82 C379.846,361.726 378.346,360.929 376.237,360.929 C373.033,360.929 371.143,363.117 371.143,367.023 C371.143,370.82 373.346,373.32 376.346,373.32"/>
<path class="Note" fill="#ffffff" d="M473.028,381.617 C483.825,381.617 497.122,372.32 497.122,362.82 C497.122,357.117 492.231,353.429 485.122,353.429 C471.919,353.429 461.325,362.523 461.325,372.226 C461.325,378.117 466.419,381.617 473.028,381.617"/>
<path class="Note" d="M485.231,353.32 C472.028,353.32 461.325,362.429 461.325,372.117 C461.325,378.023 466.528,381.523 473.122,381.523 C483.825,381.523 497.122,372.226 497.122,362.726 C497.122,357.023 492.231,353.32 485.231,353.32 M478.231,373.32 C480.419,373.32 482.622,371.82 482.825,369.523 L478.731,369.523 L478.731,366.429 L486.028,366.429 L486.028,374.82 L483.731,376.226 L483.325,373.726 C481.919,375.617 480.231,376.523 477.825,376.523 C472.919,376.523 469.325,372.617 469.325,367.117 C469.325,361.429 472.825,357.726 478.122,357.726 C482.528,357.726 485.528,360.117 486.028,363.82 L482.528,363.82 C481.731,361.726 480.231,360.929 478.122,360.929 C474.919,360.929 473.028,363.117 473.028,367.023 C473.028,370.82 475.231,373.32 478.231,373.32"/>
<path class="Note" fill="#ffffff" d="M542.998,394.118 C553.795,394.118 567.091,384.821 567.091,375.321 C567.091,369.618 562.201,365.93 555.091,365.93 C541.888,365.93 531.295,375.024 531.295,384.727 C531.295,390.618 536.388,394.118 542.998,394.118"/>
<path class="Note" d="M555.201,365.93 C541.998,365.93 531.295,375.024 531.295,384.727 C531.295,390.727 536.498,394.118 542.998,394.118 C553.795,394.118 567.091,384.93 567.091,375.321 C567.091,369.618 562.201,365.93 555.201,365.93 M556.498,375.227 L547.388,375.227 L547.388,379.321 L555.388,379.321 L555.388,382.43 L547.388,382.43 L547.388,390.321 L543.701,390.321 L543.701,372.024 L556.498,372.024 L556.498,375.227 "/>
<path class="Note" fill="#ffffff" d="M612.967,406.618 C623.764,406.618 637.061,397.322 637.061,387.822 C637.061,382.118 632.17,378.431 625.061,378.431 C611.858,378.431 601.264,387.525 601.264,397.228 C601.264,403.118 606.358,406.618 612.967,406.618"/>
<path class="Note" d="M625.17,378.431 C611.967,378.431 601.264,387.525 601.264,397.228 C601.264,403.118 606.467,406.618 612.967,406.618 C623.764,406.618 637.061,397.322 637.061,387.822 C637.061,382.118 632.17,378.431 625.17,378.431 M625.17,401.525 L611.967,401.525 L611.967,383.822 L624.764,383.822 L624.764,386.822 L615.67,386.822 L615.67,390.931 L624.061,390.931 L624.061,393.931 L615.67,393.931 L615.67,398.525 L625.17,398.525 L625.17,401.525 "/>
<path class="Note" fill="#ffffff" d="M682.988,419.119 C693.785,419.119 707.082,409.822 707.082,400.322 C707.082,394.619 702.191,390.932 695.082,390.932 C681.879,390.932 671.285,400.026 671.285,409.729 C671.285,415.619 676.379,419.119 682.988,419.119"/>
<path class="Note" d="M690.582,399.026 L687.191,399.026 L687.191,410.932 L690.582,410.932 C693.379,410.932 694.785,409.026 694.785,405.026 C694.785,400.932 693.379,399.026 690.582,399.026 M695.082,390.932 C681.879,390.932 671.285,399.932 671.285,409.729 C671.285,415.619 676.379,419.119 682.988,419.119 C693.691,419.119 706.988,409.822 706.988,400.322 C706.988,394.526 702.082,390.932 695.082,390.932 M696.285,411.932 C695.082,413.432 693.379,414.119 690.582,414.119 L683.488,414.119 L683.488,395.822 L690.582,395.822 C693.379,395.822 695.082,396.526 696.285,397.932 C697.785,399.729 698.582,402.119 698.582,404.932 C698.582,407.822 697.785,410.229 696.285,411.932"/>
<path class="Note" fill="#ffffff" d="M783.35,431.62 C794.147,431.62 807.444,422.323 807.444,412.823 C807.444,407.12 802.553,403.433 795.444,403.433 C782.241,403.433 771.647,412.526 771.647,422.229 C771.647,428.12 776.741,431.62 783.35,431.62"/>
<path class="Note" d="M795.553,403.323 C782.35,403.323 771.647,412.433 771.647,422.12 C771.647,428.12 776.741,431.526 783.35,431.526 C794.147,431.526 807.444,422.323 807.444,412.729 C807.444,407.026 802.553,403.323 795.553,403.323 M789.35,427.433 C784.241,427.433 780.944,423.823 780.944,417.823 C780.944,411.823 784.241,408.229 789.553,408.229 C793.647,408.229 796.944,410.526 797.256,414.823 L793.647,414.823 C793.053,412.433 791.741,411.433 789.647,411.433 C786.647,411.433 784.741,413.729 784.741,417.933 C784.741,421.933 786.553,424.229 789.553,424.229 C791.85,424.229 793.35,423.12 793.647,420.823 L797.35,420.823 C797.147,425.026 794.053,427.433 789.35,427.433"/>
<path class="Note" fill="#ffffff" d="M854.185,431.62 C864.982,431.62 878.279,422.323 878.279,412.823 C878.279,407.12 873.388,403.433 866.279,403.433 C853.075,403.433 842.482,412.526 842.482,422.229 C842.482,428.12 847.575,431.62 854.185,431.62"/>
<path class="Note" d="M866.388,403.323 C853.185,403.323 842.482,412.433 842.482,422.12 C842.482,428.12 847.575,431.526 854.185,431.526 C864.982,431.526 878.279,422.323 878.279,412.729 C878.279,407.026 873.388,403.323 866.388,403.323 M860.185,427.433 C855.075,427.433 851.779,423.823 851.779,417.823 C851.779,411.823 855.075,408.229 860.388,408.229 C864.482,408.229 867.779,410.526 868.091,414.823 L864.482,414.823 C863.888,412.433 862.575,411.433 860.482,411.433 C857.482,411.433 855.575,413.729 855.575,417.933 C855.575,421.933 857.388,424.229 860.388,424.229 C862.685,424.229 864.185,423.12 864.482,420.823 L868.185,420.823 C867.982,425.026 864.888,427.433 860.185,427.433"/>
<path class="Note" fill="#ffffff" d="M925.07,419.119 C935.867,419.119 949.164,409.822 949.164,400.322 C949.164,394.619 944.273,390.932 937.164,390.932 C923.961,390.932 913.367,400.026 913.367,409.729 C913.367,415.619 918.461,419.119 925.07,419.119"/>
<path class="Note" d="M932.664,399.026 L929.273,399.026 L929.273,410.932 L932.664,410.932 C935.461,410.932 936.867,409.026 936.867,405.026 C936.867,400.932 935.461,399.026 932.664,399.026 M937.164,390.932 C923.961,390.932 913.367,399.932 913.367,409.729 C913.367,415.619 918.461,419.119 925.07,419.119 C935.773,419.119 949.07,409.822 949.07,400.322 C949.07,394.526 944.164,390.932 937.164,390.932 M938.367,411.932 C937.164,413.432 935.461,414.119 932.664,414.119 L925.57,414.119 L925.57,395.822 L932.664,395.822 C935.461,395.822 937.164,396.526 938.367,397.932 C939.867,399.729 940.664,402.119 940.664,404.932 C940.664,407.822 939.867,410.229 938.367,411.932"/>
<path class="Note" fill="#ffffff" d="M995.854,406.618 C1006.65,406.618 1019.95,397.322 1019.95,387.822 C1019.95,382.118 1015.06,378.431 1007.95,378.431 C994.745,378.431 984.151,387.525 984.151,397.228 C984.151,403.118 989.245,406.618 995.854,406.618"/>
<path class="Note" d="M1008.06,378.431 C994.854,378.431 984.151,387.525 984.151,397.228 C984.151,403.118 989.354,406.618 995.854,406.618 C1006.65,406.618 1019.95,397.322 1019.95,387.822 C1019.95,382.118 1015.06,378.431 1008.06,378.431 M1008.06,401.525 L994.854,401.525 L994.854,383.822 L1007.65,383.822 L1007.65,386.822 L998.557,386.822 L998.557,390.931 L1006.95,390.931 L1006.95,393.931 L998.557,393.931 L998.557,398.525 L1008.06,398.525 L1008.06,401.525 "/>
<path class="Note" fill="#ffffff" d="M1098.52,419.119 C1109.32,419.119 1122.62,409.822 1122.62,400.322 C1122.62,394.619 1117.73,390.932 1110.62,390.932 C1097.41,390.932 1086.82,400.026 1086.82,409.729 C1086.82,415.619 1091.91,419.119 1098.52,419.119"/>
<path class="Note" d="M1106.12,399.026 L1102.73,399.026 L1102.73,410.932 L1106.12,410.932 C1108.91,410.932 1110.32,409.026 1110.32,405.026 C1110.32,400.932 1108.91,399.026 1106.12,399.026 M1110.62,390.932 C1097.41,390.932 1086.82,399.932 1086.82,409.729 C1086.82,415.619 1091.91,419.119 1098.52,419.119 C1109.23,419.119 1122.52,409.822 1122.52,400.322 C1122.52,394.526 1117.62,390.932 1110.62,390.932 M1111.82,411.932 C1110.62,413.432 1108.91,414.119 1106.12,414.119 L1099.02,414.119 L1099.02,395.822 L1106.12,395.822 C1108.91,395.822 1110.62,396.526 1111.82,397.932 C1113.32,399.729 1114.12,402.119 1114.12,404.932 C1114.12,407.822 1113.32,410.229 1111.82,411.932"/>
<path class="Note" fill="#ffffff" d="M1162.85,431.62 C1173.64,431.62 1186.94,422.323 1186.94,412.823 C1186.94,407.12 1182.05,403.433 1174.94,403.433 C1161.74,403.433 1151.14,412.526 1151.14,422.229 C1151.14,428.12 1156.24,431.62 1162.85,431.62"/>
<path class="Note" d="M1175.05,403.323 C1161.85,403.323 1151.14,412.433 1151.14,422.12 C1151.14,428.12 1156.24,431.526 1162.85,431.526 C1173.64,431.526 1186.94,422.323 1186.94,412.729 C1186.94,407.026 1182.05,403.323 1175.05,403.323 M1168.85,427.433 C1163.74,427.433 1160.44,423.823 1160.44,417.823 C1160.44,411.823 1163.74,408.229 1169.05,408.229 C1173.14,408.229 1176.44,410.526 1176.75,414.823 L1173.14,414.823 C1172.55,412.433 1171.24,411.433 1169.14,411.433 C1166.14,411.433 1164.24,413.729 1164.24,417.933 C1164.24,421.933 1166.05,424.229 1169.05,424.229 C1171.35,424.229 1172.85,423.12 1173.14,420.823 L1176.85,420.823 C1176.64,425.026 1173.55,427.433 1168.85,427.433"/>
<path class="Note" fill="#ffffff" d="M1227.27,431.933 C1247.48,431.933 1251.48,416.323 1251.48,412.62 C1251.48,406.729 1246.48,402.933 1239.46,402.933 C1221.07,402.933 1215.37,416.323 1215.37,422.229 C1215.37,428.433 1220.57,431.933 1227.27,431.933"/>
<path class="Note" d="M1227.27,431.933 C1247.48,431.933 1251.48,416.323 1251.48,412.62 C1251.48,406.729 1246.48,402.933 1239.46,402.933 C1221.07,402.933 1215.37,416.323 1215.37,422.229 C1215.37,428.433 1220.57,431.933 1227.27,431.933 M1238.46,425.323 C1233.96,428.12 1230.37,429.229 1227.57,429.229 C1223.57,429.229 1221.16,427.12 1219.57,424.526 C1218.77,423.323 1218.37,422.026 1218.37,420.62 C1218.37,417.323 1221.07,413.62 1228.77,409.526 C1233.77,406.823 1237.37,405.729 1240.16,405.729 C1243.57,405.729 1245.57,407.323 1247.07,409.729 C1247.87,411.12 1248.48,412.526 1248.48,413.933 C1248.48,417.12 1245.87,420.62 1238.46,425.323 M1233.96,424.62 C1237.57,424.62 1240.07,422.729 1240.16,419.433 L1237.27,419.433 C1237.07,421.323 1235.96,422.12 1234.07,422.12 C1231.77,422.12 1230.37,420.323 1230.37,417.12 C1230.37,413.933 1231.77,412.12 1234.16,412.12 C1235.77,412.12 1236.87,412.933 1237.27,414.729 L1240.16,414.729 C1239.87,411.433 1237.37,409.62 1234.07,409.62 C1229.96,409.62 1227.37,412.433 1227.37,417.12 C1227.37,421.823 1229.96,424.62 1233.96,424.62"/>
<path class="Clef" d="M78.4076,58.6136 C77.4336,57.6345 76.9467,56.4287 76.9467,54.9964 C76.9467,53.5641 77.4336,52.361 78.4076,51.3871 C79.3815,50.4131 80.5847,49.9261 82.017,49.9261 C83.4493,49.9261 84.655,50.4131 85.6342,51.3871 C86.6133,52.361 87.1029,53.5641 87.1029,54.9964 C87.1029,56.4287 86.6133,57.6345 85.6342,58.6136 C84.655,59.5928 83.4493,60.0824 82.017,60.0824 C80.5847,60.0824 79.3815,59.5928 78.4076,58.6136 M78.4076,83.6214 C77.4336,82.6475 76.9467,81.4444 76.9467,80.0121 C76.9467,78.5798 77.4336,77.374 78.4076,76.3949 C79.3815,75.4157 80.5847,74.9261 82.017,74.9261 C83.4493,74.9261 84.655,75.4157 85.6342,76.3949 C86.6133,77.374 87.1029,78.5798 87.1029,80.0121 C87.1029,81.4444 86.6133,82.6475 85.6342,83.6214 C84.655,84.5954 83.4493,85.0824 82.017,85.0824 C80.5847,85.0824 79.3815,84.5954 78.4076,83.6214 M44.5248,41.2386 C53.181,41.2386 60.2748,43.4157 65.806,47.7699 C71.1498,52.3324 73.8217,58.5199 73.8217,66.3324 C73.8217,71.6032 72.78,76.4209 70.6967,80.7855 C68.7383,85.348 66.1654,89.3845 62.9779,92.8949 C59.7175,96.4782 55.78,99.8636 51.1654,103.051 C46.6654,106.176 42.0404,108.978 37.2904,111.457 C27.5925,116.332 22.2539,118.77 21.2748,118.77 C20.431,118.77 20.0092,118.348 20.0092,117.504 C20.0092,117.181 20.1394,116.89 20.3998,116.629 C23.7227,114.671 27.7904,112.166 32.6029,109.114 C35.7279,107.093 39.3737,104.291 43.5404,100.707 C47.5821,97.322 50.7071,94.1345 52.9154,91.1449 C55.1967,88.2074 57.28,84.5615 59.1654,80.2074 C60.7904,75.8428 61.6029,71.5407 61.6029,67.3011 C61.6029,60.9886 60.0404,55.4886 56.9154,50.8011 C53.7904,46.1136 49.6602,43.7699 44.5248,43.7699 C40.8789,43.7699 37.7539,44.9418 35.1498,47.2855 C32.3477,49.6918 30.3269,52.7178 29.0873,56.3636 C30.3269,55.8428 31.4675,55.5824 32.5092,55.5824 C35.2383,55.5824 37.5821,56.5615 39.5404,58.5199 C41.4883,60.6032 42.4623,62.9782 42.4623,65.6449 C42.4623,68.447 41.5196,70.9574 39.6342,73.1761 C37.6133,75.1865 35.2383,76.1918 32.5092,76.1918 C29.5821,76.1918 26.9467,75.1865 24.6029,73.1761 C22.3842,70.9574 21.2748,68.447 21.2748,65.6449 C21.2748,58.9365 23.556,53.2074 28.1185,48.4574 C32.6081,43.6449 38.0769,41.2386 44.5248,41.2386"/>
<path class="Clef" d="M78.4076,371.133 C77.4336,370.154 76.9467,368.948 76.9467,367.516 C76.9467,366.084 77.4336,364.881 78.4076,363.907 C79.3815,362.933 80.5847,362.446 82.017,362.446 C83.4493,362.446 84.655,362.933 85.6342,363.907 C86.6133,364.881 87.1029,366.084 87.1029,367.516 C87.1029,368.948 86.6133,370.154 85.6342,371.133 C84.655,372.112 83.4493,372.602 82.017,372.602 C80.5847,372.602 79.3815,372.112 78.4076,371.133 M78.4076,396.141 C77.4336,395.167 76.9467,393.964 76.9467,392.532 C76.9467,391.099 77.4336,389.894 78.4076,388.915 C79.3815,387.935 80.5847,387.446 82.017,387.446 C83.4493,387.446 84.655,387.935 85.6342,388.915 C86.6133,389.894 87.1029,391.099 87.1029,392.532 C87.1029,393.964 86.6133,395.167 85.6342,396.141 C84.655,397.115 83.4493,397.602 82.017,397.602 C80.5847,397.602 79.3815,397.115 78.4076,396.141 M44.5248,353.758 C53.181,353.758 60.2748,355.935 65.806,360.29 C71.1498,364.852 73.8217,371.04 73.8217,378.852 C73.8217,384.123 72.78,388.941 70.6967,393.305 C68.7383,397.868 66.1654,401.904 62.9779,405.415 C59.7175,408.998 55.78,412.383 51.1654,415.571 C46.6654,418.696 42.0404,421.498 37.2904,423.977 C27.5925,428.852 22.2539,431.29 21.2748,431.29 C20.431,431.29 20.0092,430.868 20.0092,430.024 C20.0092,429.701 20.1394,429.409 20.3998,429.149 C23.7227,427.191 27.7904,424.685 32.6029,421.633 C35.7279,419.612 39.3737,416.81 43.5404,413.227 C47.5821,409.842 50.7071,406.654 52.9154,403.665 C55.1967,400.727 57.28,397.081 59.1654,392.727 C60.7904,388.362 61.6029,384.06 61.6029,379.821 C61.6029,373.508 60.0404,368.008 56.9154,363.321 C53.7904,358.633 49.6602,356.29 44.5248,356.29 C40.8789,356.29 37.7539,357.461 35.1498,359.805 C32.3477,362.211 30.3269,365.237 29.0873,368.883 C30.3269,368.362 31.4675,368.102 32.5092,368.102 C35.2383,368.102 37.5821,369.081 39.5404,371.04 C41.4883,373.123 42.4623,375.498 42.4623,378.165 C42.4623,380.967 41.5196,383.477 39.6342,385.696 C37.6133,387.706 35.2383,388.711 32.5092,388.711 C29.5821,388.711 26.9467,387.706 24.6029,385.696 C22.3842,383.477 21.2748,380.967 21.2748,378.165 C21.2748,371.456 23.556,365.727 28.1185,360.977 C32.6081,356.165 38.0769,353.758 44.5248,353.758"/>
</svg>
