<?xml version="1.0" encoding="UTF-8" standalone="no"?>
<svg width="1346.46px" height="184.252px" viewBox="0 0 1346.46 184.252"
 xmlns="http://www.w3.org/2000/svg" xmlns:xlink="http://www.w3.org/1999/xlink" version="1.2" baseProfile="tiny">
<title>bass_clef_c_position</title>
<desc>Generated by MuseScore 3.4.2</desc>
<polyline class="StaffLines" fill="none" stroke="#000000" stroke-width="2.00" stroke-linejoin="bevel" points="0,42.5027 1346.46,42.5027"/>
<polyline class="StaffLines" fill="none" stroke="#000000" stroke-width="2.00" stroke-linejoin="bevel" points="0,67.5043 1346.46,67.5043"/>
<polyline class="StaffLines" fill="none" stroke="#000000" stroke-width="2.00" stroke-linejoin="bevel" points="0,92.5058 1346.46,92.5058"/>
<polyline class="StaffLines" fill="none" stroke="#000000" stroke-width="2.00" stroke-linejoin="bevel" points="0,117.507 1346.46,117.507"/>
<polyline class="StaffLines" fill="none" stroke="#000000" stroke-width="2.00" stroke-linejoin="bevel" points="0,142.509 1346.46,142.509"/>
<polyline class="BarLine" fill="none" stroke="#000000" stroke-width="4.00" stroke-linejoin="bevel" points="437.351,41.5026 437.351,143.509"/>
<polyline class="BarLine" fill="none" stroke="#000000" stroke-width="4.00" stroke-linejoin="bevel" points="875.678,41.5026 875.678,143.509"/>
<path class="Note" fill="#ffffff" d="M143.061,119.1 C153.858,119.1 167.155,109.803 167.155,100.303 C167.155,94.6004 162.264,90.9129 155.155,90.9129 C141.952,90.9129 131.358,100.007 131.358,109.71 C131.358,115.6 136.452,119.1 143.061,119.1"/>
<path class="Note" d="M155.264,90.8035 C142.061,90.8035 131.358,99.9129 131.358,109.6 C131.358,115.6 136.452,119.007 143.061,119.007 C153.858,119.007 167.155,109.803 167.155,100.21 C167.155,94.5066 162.264,90.8035 155.264,90.8035 M149.061,114.913 C143.952,114.913 140.655,111.303 140.655,105.303 C140.655,99.3035 143.952,95.7097 149.264,95.7097 C153.358,95.7097 156.655,98.0066 156.967,102.303 L153.358,102.303 C152.764,99.9129 151.452,98.9129 149.358,98.9129 C146.358,98.9129 144.452,101.21 144.452,105.413 C144.452,109.413 146.264,111.71 149.264,111.71 C151.561,111.71 153.061,110.6 153.358,108.303 L157.061,108.303 C156.858,112.507 153.764,114.913 149.061,114.913"/>
<path class="Note" fill="#ffffff" d="M203.622,106.6 C214.419,106.6 227.716,97.3027 227.716,87.8027 C227.716,82.0996 222.825,78.4121 215.716,78.4121 C202.513,78.4121 191.919,87.5058 191.919,97.209 C191.919,103.1 197.013,106.6 203.622,106.6"/>
<path class="Note" d="M211.216,86.5058 L207.825,86.5058 L207.825,98.4121 L211.216,98.4121 C214.013,98.4121 215.419,96.5058 215.419,92.5058 C215.419,88.4121 214.013,86.5058 211.216,86.5058 M215.716,78.4121 C202.513,78.4121 191.919,87.4121 191.919,97.209 C191.919,103.1 197.013,106.6 203.622,106.6 C214.325,106.6 227.622,97.3027 227.622,87.8027 C227.622,82.0058 222.716,78.4121 215.716,78.4121 M216.919,99.4121 C215.716,100.912 214.013,101.6 211.216,101.6 L204.122,101.6 L204.122,83.3027 L211.216,83.3027 C214.013,83.3027 215.716,84.0058 216.919,85.4121 C218.419,87.209 219.216,89.5996 219.216,92.4121 C219.216,95.3027 218.419,97.709 216.919,99.4121"/>
<path class="Note" fill="#ffffff" d="M264.081,94.0988 C274.878,94.0988 288.175,84.8019 288.175,75.3019 C288.175,69.5988 283.285,65.9113 276.175,65.9113 C262.972,65.9113 252.378,75.005 252.378,84.7082 C252.378,90.5988 257.472,94.0988 264.081,94.0988"/>
<path class="Note" d="M276.285,65.9113 C263.081,65.9113 252.378,75.005 252.378,84.7082 C252.378,90.5988 257.581,94.0988 264.081,94.0988 C274.878,94.0988 288.175,84.8019 288.175,75.3019 C288.175,69.5988 283.285,65.9113 276.285,65.9113 M276.285,89.005 L263.081,89.005 L263.081,71.3019 L275.878,71.3019 L275.878,74.3019 L266.785,74.3019 L266.785,78.4113 L275.175,78.4113 L275.175,81.4113 L266.785,81.4113 L266.785,86.005 L276.285,86.005 L276.285,89.005 "/>
<path class="Note" fill="#ffffff" d="M324.592,81.598 C335.389,81.598 348.685,72.3011 348.685,62.8011 C348.685,57.098 343.795,53.4105 336.685,53.4105 C323.482,53.4105 312.889,62.5043 312.889,72.2074 C312.889,78.098 317.982,81.598 324.592,81.598"/>
<path class="Note" d="M336.795,53.4105 C323.592,53.4105 312.889,62.5043 312.889,72.2074 C312.889,78.2074 318.092,81.598 324.592,81.598 C335.389,81.598 348.685,72.4105 348.685,62.8011 C348.685,57.098 343.795,53.4105 336.795,53.4105 M338.092,62.7074 L328.982,62.7074 L328.982,66.8011 L336.982,66.8011 L336.982,69.9105 L328.982,69.9105 L328.982,77.8011 L325.295,77.8011 L325.295,59.5043 L338.092,59.5043 L338.092,62.7074 "/>
<path class="Note" fill="#ffffff" d="M385.102,69.0972 C395.899,69.0972 409.196,59.8003 409.196,50.3003 C409.196,44.5972 404.305,40.9097 397.196,40.9097 C383.993,40.9097 373.399,50.0035 373.399,59.7066 C373.399,65.5972 378.493,69.0972 385.102,69.0972"/>
<path class="Note" d="M397.305,40.8003 C384.102,40.8003 373.399,49.9097 373.399,59.5972 C373.399,65.5035 378.602,69.0035 385.196,69.0035 C395.899,69.0035 409.196,59.7066 409.196,50.2066 C409.196,44.5035 404.305,40.8003 397.305,40.8003 M390.305,60.8003 C392.493,60.8003 394.696,59.3003 394.899,57.0035 L390.805,57.0035 L390.805,53.9097 L398.102,53.9097 L398.102,62.3003 L395.805,63.7066 L395.399,61.2066 C393.993,63.0972 392.305,64.0035 389.899,64.0035 C384.993,64.0035 381.399,60.0972 381.399,54.5972 C381.399,48.9097 384.899,45.2066 390.196,45.2066 C394.602,45.2066 397.602,47.5972 398.102,51.3003 L394.602,51.3003 C393.805,49.2066 392.305,48.4097 390.196,48.4097 C386.993,48.4097 385.102,50.5972 385.102,54.5035 C385.102,58.3003 387.305,60.8003 390.305,60.8003"/>
<path class="Clef" d="M78.4076,58.6136 C77.4336,57.6345 76.9467,56.4287 76.9467,54.9964 C76.9467,53.5641 77.4336,52.361 78.4076,51.3871 C79.3815,50.4131 80.5847,49.9261 82.017,49.9261 C83.4493,49.9261 84.655,50.4131 85.6342,51.3871 C86.6133,52.361 87.1029,53.5641 87.1029,54.9964 C87.1029,56.4287 86.6133,57.6345 85.6342,58.6136 C84.655,59.5928 83.4493,60.0824 82.017,60.0824 C80.5847,60.0824 79.3815,59.5928 78.4076,58.6136 M78.4076,83.6214 C77.4336,82.6475 76.9467,81.4444 76.9467,80.0121 C76.9467,78.5798 77.4336,77.374 78.4076,76.3949 C79.3815,75.4157 80.5847,74.9261 82.017,74.9261 C83.4493,74.9261 84.655,75.4157 85.6342,76.3949 C86.6133,77.374 87.1029,78.5798 87.1029,80.0121 C87.1029,81.4444 86.6133,82.6475 85.6342,83.6214 C84.655,84.5954 83.4493,85.0824 82.017,85.0824 C80.5847,85.0824 79.3815,84.5954 78.4076,83.6214 M44.5248,41.2386 C53.181,41.2386 60.2748,43.4157 65.806,47.7699 C71.1498,52.3324 73.8217,58.5199 73.8217,66.3324 C73.8217,71.6032 72.78,76.4209 70.6967,80.7855 C68.7383,85.348 66.1654,89.3845 62.9779,92.8949 C59.7175,96.4782 55.78,99.8636 51.1654,103.051 C46.6654,106.176 42.0404,108.978 37.2904,111.457 C27.5925,116.332 22.2539,118.77 21.2748,118.77 C20.431,118.77 20.0092,118.348 20.0092,117.504 C20.0092,117.181 20.1394,116.89 20.3998,116.629 C23.7227,114.671 27.7904,112.166 32.6029,109.114 C35.7279,107.093 39.3737,104.291 43.5404,100.707 C47.5821,97.322 50.7071,94.1345 52.9154,91.1449 C55.1967,88.2074 57.28,84.5615 59.1654,80.2074 C60.7904,75.8428 61.6029,71.5407 61.6029,67.3011 C61.6029,60.9886 60.0404,55.4886 56.9154,50.8011 C53.7904,46.1136 49.6602,43.7699 44.5248,43.7699 C40.8789,43.7699 37.7539,44.9418 35.1498,47.2855 C32.3477,49.6918 30.3269,52.7178 29.0873,56.3636 C30.3269,55.8428 31.4675,55.5824 32.5092,55.5824 C35.2383,55.5824 37.5821,56.5615 39.5404,58.5199 C41.4883,60.6032 42.4623,62.9782 42.4623,65.6449 C42.4623,68.447 41.5196,70.9574 39.6342,73.1761 C37.6133,75.1865 35.2383,76.1918 32.5092,76.1918 C29.5821,76.1918 26.9467,75.1865 24.6029,73.1761 C22.3842,70.9574 21.2748,68.447 21.2748,65.6449 C21.2748,58.9365 23.556,53.2074 28.1185,48.4574 C32.6081,43.6449 38.0769,41.2386 44.5248,41.2386"/>
</svg>
