<?xml version="1.0" encoding="UTF-8" standalone="no"?>
<svg width="1346.46px" height="184.252px" viewBox="0 0 1346.46 184.252"
 xmlns="http://www.w3.org/2000/svg" xmlns:xlink="http://www.w3.org/1999/xlink" version="1.2" baseProfile="tiny">
<title>draw_circles2</title>
<desc>Generated by MuseScore 3.4.2</desc>
<polyline class="StaffLines" fill="none" stroke="#000000" stroke-width="2.00" stroke-linejoin="bevel" points="0,42.5027 1346.46,42.5027"/>
<polyline class="StaffLines" fill="none" stroke="#000000" stroke-width="2.00" stroke-linejoin="bevel" points="0,67.5043 1346.46,67.5043"/>
<polyline class="StaffLines" fill="none" stroke="#000000" stroke-width="2.00" stroke-linejoin="bevel" points="0,92.5058 1346.46,92.5058"/>
<polyline class="StaffLines" fill="none" stroke="#000000" stroke-width="2.00" stroke-linejoin="bevel" points="0,117.507 1346.46,117.507"/>
<polyline class="StaffLines" fill="none" stroke="#000000" stroke-width="2.00" stroke-linejoin="bevel" points="0,142.509 1346.46,142.509"/>
<path class="Note" d="M66.9716,116.243 C70.0966,116.243 72.7372,117.055 74.8935,118.68 C76.9039,120.44 77.9091,122.654 77.9091,125.321 C77.9091,129.81 75.6018,134.008 70.9872,137.914 C66.2997,141.821 61.2841,143.774 55.9403,143.774 C52.8153,143.774 50.1799,142.961 48.0341,141.336 C46.0133,139.576 45.0028,137.362 45.0028,134.696 C45.0028,130.206 47.3466,126.008 52.0341,122.102 C56.5966,118.196 61.5758,116.243 66.9716,116.243"/>
<path class="Note" d="M107.041,91.241 C110.166,91.241 112.807,92.0535 114.963,93.6785 C116.973,95.4389 117.979,97.6524 117.979,100.319 C117.979,104.809 115.671,109.007 111.057,112.913 C106.369,116.819 101.354,118.772 96.0099,118.772 C92.8849,118.772 90.2495,117.96 88.1037,116.335 C86.0828,114.574 85.0724,112.361 85.0724,109.694 C85.0724,105.205 87.4162,101.007 92.1037,97.1004 C96.6662,93.1941 101.645,91.241 107.041,91.241"/>
<path class="Note" d="M147.111,66.2394 C150.236,66.2394 152.876,67.0519 155.033,68.6769 C157.043,70.4373 158.048,72.6509 158.048,75.3175 C158.048,79.8071 155.741,84.005 151.126,87.9113 C146.439,91.8175 141.423,93.7707 136.08,93.7707 C132.955,93.7707 130.319,92.9582 128.173,91.3332 C126.152,89.5727 125.142,87.3592 125.142,84.6925 C125.142,80.203 127.486,76.005 132.173,72.0988 C136.736,68.1925 141.715,66.2394 147.111,66.2394"/>
<path class="Note" d="M187.18,41.2378 C190.305,41.2378 192.946,42.0503 195.102,43.6753 C197.113,45.4358 198.118,47.6493 198.118,50.316 C198.118,54.8055 195.811,59.0035 191.196,62.9097 C186.508,66.816 181.493,68.7691 176.149,68.7691 C173.024,68.7691 170.389,67.9566 168.243,66.3316 C166.222,64.5712 165.212,62.3576 165.212,59.691 C165.212,55.2014 167.555,51.0035 172.243,47.0972 C176.805,43.191 181.785,41.2378 187.18,41.2378"/>
<path class="Note" d="M274.1,41.2378 C277.225,41.2378 279.866,42.0503 282.022,43.6753 C284.032,45.4358 285.037,47.6493 285.037,50.316 C285.037,54.8055 282.73,59.0035 278.116,62.9097 C273.428,66.816 268.412,68.7691 263.069,68.7691 C259.944,68.7691 257.308,67.9566 255.162,66.3316 C253.142,64.5712 252.131,62.3576 252.131,59.691 C252.131,55.2014 254.475,51.0035 259.162,47.0972 C263.725,43.191 268.704,41.2378 274.1,41.2378"/>
<path class="Note" d="M314.564,66.2394 C317.689,66.2394 320.329,67.0519 322.486,68.6769 C324.496,70.4373 325.501,72.6509 325.501,75.3175 C325.501,79.8071 323.194,84.005 318.579,87.9113 C313.892,91.8175 308.876,93.7707 303.533,93.7707 C300.408,93.7707 297.772,92.9582 295.626,91.3332 C293.606,89.5727 292.595,87.3592 292.595,84.6925 C292.595,80.203 294.939,76.005 299.626,72.0988 C304.189,68.1925 309.168,66.2394 314.564,66.2394"/>
<path class="Note" d="M355.028,91.241 C358.153,91.241 360.793,92.0535 362.95,93.6785 C364.96,95.4389 365.965,97.6524 365.965,100.319 C365.965,104.809 363.658,109.007 359.043,112.913 C354.356,116.819 349.34,118.772 343.997,118.772 C340.872,118.772 338.236,117.96 336.09,116.335 C334.069,114.574 333.059,112.361 333.059,109.694 C333.059,105.205 335.403,101.007 340.09,97.1004 C344.653,93.1941 349.632,91.241 355.028,91.241"/>
<path class="Note" d="M395.492,116.243 C398.617,116.243 401.257,117.055 403.414,118.68 C405.424,120.44 406.429,122.654 406.429,125.321 C406.429,129.81 404.122,134.008 399.507,137.914 C394.82,141.821 389.804,143.774 384.461,143.774 C381.336,143.774 378.7,142.961 376.554,141.336 C374.533,139.576 373.523,137.362 373.523,134.696 C373.523,130.206 375.867,126.008 380.554,122.102 C385.117,118.196 390.096,116.243 395.492,116.243"/>
</svg>
