<?xml version="1.0" encoding="UTF-8" standalone="no"?>
<svg width="1346.46px" height="184.252px" viewBox="0 0 1346.46 184.252"
 xmlns="http://www.w3.org/2000/svg" xmlns:xlink="http://www.w3.org/1999/xlink" version="1.2" baseProfile="tiny">
<title>bass_clef_c_position</title>
<desc>Generated by MuseScore 3.4.2</desc>
<polyline class="StaffLines" fill="none" stroke="#000000" stroke-width="2.00" stroke-linejoin="bevel" points="467.717,42.5027 878.74,42.5027"/>
<polyline class="StaffLines" fill="none" stroke="#000000" stroke-width="2.00" stroke-linejoin="bevel" points="467.717,67.5043 878.74,67.5043"/>
<polyline class="StaffLines" fill="none" stroke="#000000" stroke-width="2.00" stroke-linejoin="bevel" points="467.717,92.5058 878.74,92.5058"/>
<polyline class="StaffLines" fill="none" stroke="#000000" stroke-width="2.00" stroke-linejoin="bevel" points="467.717,117.507 878.74,117.507"/>
<polyline class="StaffLines" fill="none" stroke="#000000" stroke-width="2.00" stroke-linejoin="bevel" points="467.717,142.509 878.74,142.509"/>
<path class="Note" fill="#ffffff" d="M610.777,119.1 C621.574,119.1 634.871,109.803 634.871,100.303 C634.871,94.6004 629.981,90.9129 622.871,90.9129 C609.668,90.9129 599.074,100.007 599.074,109.71 C599.074,115.6 604.168,119.1 610.777,119.1"/>
<path class="Note" d="M622.981,90.8035 C609.777,90.8035 599.074,99.9129 599.074,109.6 C599.074,115.6 604.168,119.007 610.777,119.007 C621.574,119.007 634.871,109.803 634.871,100.21 C634.871,94.5066 629.981,90.8035 622.981,90.8035 M616.777,114.913 C611.668,114.913 608.371,111.303 608.371,105.303 C608.371,99.3035 611.668,95.7097 616.981,95.7097 C621.074,95.7097 624.371,98.0066 624.684,102.303 L621.074,102.303 C620.481,99.9129 619.168,98.9129 617.074,98.9129 C614.074,98.9129 612.168,101.21 612.168,105.413 C612.168,109.413 613.981,111.71 616.981,111.71 C619.277,111.71 620.777,110.6 621.074,108.303 L624.777,108.303 C624.574,112.507 621.481,114.913 616.777,114.913"/>
<path class="Note" fill="#ffffff" d="M658.919,106.6 C669.716,106.6 683.013,97.3027 683.013,87.8027 C683.013,82.0996 678.122,78.4121 671.013,78.4121 C657.81,78.4121 647.216,87.5058 647.216,97.209 C647.216,103.1 652.31,106.6 658.919,106.6"/>
<path class="Note" d="M666.513,86.5058 L663.122,86.5058 L663.122,98.4121 L666.513,98.4121 C669.31,98.4121 670.716,96.5058 670.716,92.5058 C670.716,88.4121 669.31,86.5058 666.513,86.5058 M671.013,78.4121 C657.81,78.4121 647.216,87.4121 647.216,97.209 C647.216,103.1 652.31,106.6 658.919,106.6 C669.622,106.6 682.919,97.3027 682.919,87.8027 C682.919,82.0058 678.013,78.4121 671.013,78.4121 M672.216,99.4121 C671.013,100.912 669.31,101.6 666.513,101.6 L659.419,101.6 L659.419,83.3027 L666.513,83.3027 C669.31,83.3027 671.013,84.0058 672.216,85.4121 C673.716,87.209 674.513,89.5996 674.513,92.4121 C674.513,95.3027 673.716,97.709 672.216,99.4121"/>
<path class="Note" fill="#ffffff" d="M706.959,94.0988 C717.756,94.0988 731.053,84.8019 731.053,75.3019 C731.053,69.5988 726.162,65.9113 719.053,65.9113 C705.85,65.9113 695.256,75.005 695.256,84.7082 C695.256,90.5988 700.35,94.0988 706.959,94.0988"/>
<path class="Note" d="M719.162,65.9113 C705.959,65.9113 695.256,75.005 695.256,84.7082 C695.256,90.5988 700.459,94.0988 706.959,94.0988 C717.756,94.0988 731.053,84.8019 731.053,75.3019 C731.053,69.5988 726.162,65.9113 719.162,65.9113 M719.162,89.005 L705.959,89.005 L705.959,71.3019 L718.756,71.3019 L718.756,74.3019 L709.662,74.3019 L709.662,78.4113 L718.053,78.4113 L718.053,81.4113 L709.662,81.4113 L709.662,86.005 L719.162,86.005 L719.162,89.005 "/>
<path class="Note" fill="#ffffff" d="M755.05,81.598 C765.847,81.598 779.144,72.3011 779.144,62.8011 C779.144,57.098 774.253,53.4105 767.144,53.4105 C753.941,53.4105 743.347,62.5043 743.347,72.2074 C743.347,78.098 748.441,81.598 755.05,81.598"/>
<path class="Note" d="M767.253,53.4105 C754.05,53.4105 743.347,62.5043 743.347,72.2074 C743.347,78.2074 748.55,81.598 755.05,81.598 C765.847,81.598 779.144,72.4105 779.144,62.8011 C779.144,57.098 774.253,53.4105 767.253,53.4105 M768.55,62.7074 L759.441,62.7074 L759.441,66.8011 L767.441,66.8011 L767.441,69.9105 L759.441,69.9105 L759.441,77.8011 L755.753,77.8011 L755.753,59.5043 L768.55,59.5043 L768.55,62.7074 "/>
<path class="Note" fill="#ffffff" d="M803.141,69.0972 C813.938,69.0972 827.235,59.8003 827.235,50.3003 C827.235,44.5972 822.344,40.9097 815.235,40.9097 C802.032,40.9097 791.438,50.0035 791.438,59.7066 C791.438,65.5972 796.532,69.0972 803.141,69.0972"/>
<path class="Note" d="M815.344,40.8003 C802.141,40.8003 791.438,49.9097 791.438,59.5972 C791.438,65.5035 796.641,69.0035 803.235,69.0035 C813.938,69.0035 827.235,59.7066 827.235,50.2066 C827.235,44.5035 822.344,40.8003 815.344,40.8003 M808.344,60.8003 C810.532,60.8003 812.735,59.3003 812.938,57.0035 L808.844,57.0035 L808.844,53.9097 L816.141,53.9097 L816.141,62.3003 L813.844,63.7066 L813.438,61.2066 C812.032,63.0972 810.344,64.0035 807.938,64.0035 C803.032,64.0035 799.438,60.0972 799.438,54.5972 C799.438,48.9097 802.938,45.2066 808.235,45.2066 C812.641,45.2066 815.641,47.5972 816.141,51.3003 L812.641,51.3003 C811.844,49.2066 810.344,48.4097 808.235,48.4097 C805.032,48.4097 803.141,50.5972 803.141,54.5035 C803.141,58.3003 805.344,60.8003 808.344,60.8003"/>
<path class="Clef" d="M546.124,58.6136 C545.15,57.6345 544.663,56.4287 544.663,54.9964 C544.663,53.5641 545.15,52.361 546.124,51.3871 C547.098,50.4131 548.301,49.9261 549.734,49.9261 C551.166,49.9261 552.372,50.4131 553.351,51.3871 C554.33,52.361 554.819,53.5641 554.819,54.9964 C554.819,56.4287 554.33,57.6345 553.351,58.6136 C552.372,59.5928 551.166,60.0824 549.734,60.0824 C548.301,60.0824 547.098,59.5928 546.124,58.6136 M546.124,83.6214 C545.15,82.6475 544.663,81.4444 544.663,80.0121 C544.663,78.5798 545.15,77.374 546.124,76.3949 C547.098,75.4157 548.301,74.9261 549.734,74.9261 C551.166,74.9261 552.372,75.4157 553.351,76.3949 C554.33,77.374 554.819,78.5798 554.819,80.0121 C554.819,81.4444 554.33,82.6475 553.351,83.6214 C552.372,84.5954 551.166,85.0824 549.734,85.0824 C548.301,85.0824 547.098,84.5954 546.124,83.6214 M512.241,41.2386 C520.898,41.2386 527.991,43.4157 533.523,47.7699 C538.866,52.3324 541.538,58.5199 541.538,66.3324 C541.538,71.6032 540.497,76.4209 538.413,80.7855 C536.455,85.348 533.882,89.3845 530.694,92.8949 C527.434,96.4782 523.497,99.8636 518.882,103.051 C514.382,106.176 509.757,108.978 505.007,111.457 C495.309,116.332 489.97,118.77 488.991,118.77 C488.148,118.77 487.726,118.348 487.726,117.504 C487.726,117.181 487.856,116.89 488.116,116.629 C491.439,114.671 495.507,112.166 500.319,109.114 C503.444,107.093 507.09,104.291 511.257,100.707 C515.299,97.322 518.424,94.1345 520.632,91.1449 C522.913,88.2074 524.997,84.5615 526.882,80.2074 C528.507,75.8428 529.319,71.5407 529.319,67.3011 C529.319,60.9886 527.757,55.4886 524.632,50.8011 C521.507,46.1136 517.377,43.7699 512.241,43.7699 C508.595,43.7699 505.47,44.9418 502.866,47.2855 C500.064,49.6918 498.043,52.7178 496.804,56.3636 C498.043,55.8428 499.184,55.5824 500.226,55.5824 C502.955,55.5824 505.299,56.5615 507.257,58.5199 C509.205,60.6032 510.179,62.9782 510.179,65.6449 C510.179,68.447 509.236,70.9574 507.351,73.1761 C505.33,75.1865 502.955,76.1918 500.226,76.1918 C497.299,76.1918 494.663,75.1865 492.319,73.1761 C490.101,70.9574 488.991,68.447 488.991,65.6449 C488.991,58.9365 491.273,53.2074 495.835,48.4574 C500.325,43.6449 505.793,41.2386 512.241,41.2386"/>
</svg>
