<?xml version="1.0" encoding="UTF-8" standalone="no"?>
<svg width="1346.46px" height="255.118px" viewBox="0 0 1346.46 255.118"
 xmlns="http://www.w3.org/2000/svg" xmlns:xlink="http://www.w3.org/1999/xlink" version="1.2" baseProfile="tiny">
<title>practice1</title>
<desc>Generated by MuseScore 3.4.2</desc>
<polyline class="StaffLines" fill="none" stroke="#000000" stroke-width="2.00" stroke-linejoin="bevel" points="0,42.5027 1346.46,42.5027"/>
<polyline class="StaffLines" fill="none" stroke="#000000" stroke-width="2.00" stroke-linejoin="bevel" points="0,67.5043 1346.46,67.5043"/>
<polyline class="StaffLines" fill="none" stroke="#000000" stroke-width="2.00" stroke-linejoin="bevel" points="0,92.5058 1346.46,92.5058"/>
<polyline class="StaffLines" fill="none" stroke="#000000" stroke-width="2.00" stroke-linejoin="bevel" points="0,117.507 1346.46,117.507"/>
<polyline class="StaffLines" fill="none" stroke="#000000" stroke-width="2.00" stroke-linejoin="bevel" points="0,142.509 1346.46,142.509"/>
<polyline class="BarLine" fill="none" stroke="#000000" stroke-width="4.00" stroke-linejoin="bevel" points="374.809,41.5026 374.809,143.509"/>
<polyline class="BarLine" fill="none" stroke="#000000" stroke-width="4.00" stroke-linejoin="bevel" points="690.525,41.5026 690.525,143.509"/>
<polyline class="BarLine" fill="none" stroke="#000000" stroke-width="4.00" stroke-linejoin="bevel" points="1006.24,41.5026 1006.24,143.509"/>
<polyline class="BarLine" fill="none" stroke="#000000" stroke-width="4.00" stroke-linejoin="bevel" points="1321.96,41.5026 1321.96,143.509"/>
<polyline class="BarLine" fill="none" stroke="#000000" stroke-width="12.50" stroke-linejoin="bevel" points="1340.21,41.5026 1340.21,143.509"/>
<path class="Note" d="M131.106,53.7386 C134.231,53.7386 136.872,54.5511 139.028,56.1761 C141.038,57.9365 142.044,60.1501 142.044,62.8168 C142.044,67.3063 139.736,71.5043 135.122,75.4105 C130.434,79.3168 125.419,81.2699 120.075,81.2699 C116.95,81.2699 114.314,80.4574 112.169,78.8324 C110.148,77.072 109.137,74.8584 109.137,72.1918 C109.137,67.7022 111.481,63.5043 116.169,59.598 C120.731,55.6918 125.71,53.7386 131.106,53.7386"/>
<path class="Note" d="M196.01,66.2394 C199.135,66.2394 201.776,67.0519 203.932,68.6769 C205.942,70.4373 206.948,72.6509 206.948,75.3175 C206.948,79.8071 204.64,84.005 200.026,87.9113 C195.338,91.8175 190.323,93.7707 184.979,93.7707 C181.854,93.7707 179.218,92.9582 177.073,91.3332 C175.052,89.5727 174.041,87.3592 174.041,84.6925 C174.041,80.203 176.385,76.005 181.073,72.0988 C185.635,68.1925 190.614,66.2394 196.01,66.2394"/>
<path class="Note" d="M260.914,53.7386 C264.039,53.7386 266.68,54.5511 268.836,56.1761 C270.846,57.9365 271.852,60.1501 271.852,62.8168 C271.852,67.3063 269.544,71.5043 264.93,75.4105 C260.242,79.3168 255.227,81.2699 249.883,81.2699 C246.758,81.2699 244.123,80.4574 241.977,78.8324 C239.956,77.072 238.945,74.8584 238.945,72.1918 C238.945,67.7022 241.289,63.5043 245.977,59.598 C250.539,55.6918 255.518,53.7386 260.914,53.7386"/>
<path class="Note" d="M325.818,41.2378 C328.943,41.2378 331.584,42.0503 333.74,43.6753 C335.751,45.4358 336.756,47.6493 336.756,50.316 C336.756,54.8055 334.448,59.0035 329.834,62.9097 C325.146,66.816 320.131,68.7691 314.787,68.7691 C311.662,68.7691 309.027,67.9566 306.881,66.3316 C304.86,64.5712 303.85,62.3576 303.85,59.691 C303.85,55.2014 306.193,51.0035 310.881,47.0972 C315.443,43.191 320.422,41.2378 325.818,41.2378"/>
<path class="Note" d="M434.822,78.7402 C437.947,78.7402 440.587,79.5527 442.744,81.1777 C444.754,82.9381 445.759,85.1517 445.759,87.8183 C445.759,92.3079 443.452,96.5058 438.837,100.412 C434.15,104.318 429.134,106.271 423.79,106.271 C420.665,106.271 418.03,105.459 415.884,103.834 C413.863,102.074 412.853,99.86 412.853,97.1933 C412.853,92.7037 415.197,88.5058 419.884,84.5996 C424.447,80.6933 429.426,78.7402 434.822,78.7402"/>
<path class="Note" d="M503.726,66.2394 C506.851,66.2394 509.491,67.0519 511.648,68.6769 C513.658,70.4373 514.663,72.6509 514.663,75.3175 C514.663,79.8071 512.356,84.005 507.741,87.9113 C503.054,91.8175 498.038,93.7707 492.694,93.7707 C489.569,93.7707 486.934,92.9582 484.788,91.3332 C482.767,89.5727 481.757,87.3592 481.757,84.6925 C481.757,80.203 484.101,76.005 488.788,72.0988 C493.351,68.1925 498.33,66.2394 503.726,66.2394"/>
<path class="Note" d="M572.63,53.7386 C575.755,53.7386 578.395,54.5511 580.552,56.1761 C582.562,57.9365 583.567,60.1501 583.567,62.8168 C583.567,67.3063 581.26,71.5043 576.645,75.4105 C571.958,79.3168 566.942,81.2699 561.599,81.2699 C558.474,81.2699 555.838,80.4574 553.692,78.8324 C551.671,77.072 550.661,74.8584 550.661,72.1918 C550.661,67.7022 553.005,63.5043 557.692,59.598 C562.255,55.6918 567.234,53.7386 572.63,53.7386"/>
<path class="Note" d="M641.534,41.2378 C644.659,41.2378 647.299,42.0503 649.456,43.6753 C651.466,45.4358 652.471,47.6493 652.471,50.316 C652.471,54.8055 650.164,59.0035 645.549,62.9097 C640.862,66.816 635.846,68.7691 630.503,68.7691 C627.378,68.7691 624.742,67.9566 622.596,66.3316 C620.576,64.5712 619.565,62.3576 619.565,59.691 C619.565,55.2014 621.909,51.0035 626.596,47.0972 C631.159,43.191 636.138,41.2378 641.534,41.2378"/>
<path class="Note" d="M750.537,53.7386 C753.662,53.7386 756.303,54.5511 758.459,56.1761 C760.47,57.9365 761.475,60.1501 761.475,62.8168 C761.475,67.3063 759.167,71.5043 754.553,75.4105 C749.865,79.3168 744.85,81.2699 739.506,81.2699 C736.381,81.2699 733.746,80.4574 731.6,78.8324 C729.579,77.072 728.569,74.8584 728.569,72.1918 C728.569,67.7022 730.912,63.5043 735.6,59.598 C740.162,55.6918 745.141,53.7386 750.537,53.7386"/>
<path class="Note" d="M819.441,66.2394 C822.566,66.2394 825.207,67.0519 827.363,68.6769 C829.374,70.4373 830.379,72.6509 830.379,75.3175 C830.379,79.8071 828.072,84.005 823.457,87.9113 C818.769,91.8175 813.754,93.7707 808.41,93.7707 C805.285,93.7707 802.65,92.9582 800.504,91.3332 C798.483,89.5727 797.473,87.3592 797.473,84.6925 C797.473,80.203 799.816,76.005 804.504,72.0988 C809.066,68.1925 814.045,66.2394 819.441,66.2394"/>
<path class="Note" d="M888.345,78.7402 C891.47,78.7402 894.111,79.5527 896.267,81.1777 C898.278,82.9381 899.283,85.1517 899.283,87.8183 C899.283,92.3079 896.976,96.5058 892.361,100.412 C887.674,104.318 882.658,106.271 877.314,106.271 C874.189,106.271 871.554,105.459 869.408,103.834 C867.387,102.074 866.377,99.86 866.377,97.1933 C866.377,92.7037 868.72,88.5058 873.408,84.5996 C877.97,80.6933 882.95,78.7402 888.345,78.7402"/>
<path class="Note" d="M957.249,91.241 C960.374,91.241 963.015,92.0535 965.171,93.6785 C967.182,95.4389 968.187,97.6524 968.187,100.319 C968.187,104.809 965.88,109.007 961.265,112.913 C956.578,116.819 951.562,118.772 946.218,118.772 C943.093,118.772 940.458,117.96 938.312,116.335 C936.291,114.574 935.281,112.361 935.281,109.694 C935.281,105.205 937.624,101.007 942.312,97.1004 C946.874,93.1941 951.854,91.241 957.249,91.241"/>
<path class="Note" d="M1066.25,78.7402 C1069.38,78.7402 1072.02,79.5527 1074.17,81.1777 C1076.19,82.9381 1077.19,85.1517 1077.19,87.8183 C1077.19,92.3079 1074.88,96.5058 1070.27,100.412 C1065.58,104.318 1060.57,106.271 1055.22,106.271 C1052.1,106.271 1049.46,105.459 1047.32,103.834 C1045.29,102.074 1044.28,99.86 1044.28,97.1933 C1044.28,92.7037 1046.63,88.5058 1051.32,84.5996 C1055.88,80.6933 1060.86,78.7402 1066.25,78.7402"/>
<path class="Note" d="M1135.16,53.7386 C1138.28,53.7386 1140.92,54.5511 1143.08,56.1761 C1145.09,57.9365 1146.09,60.1501 1146.09,62.8168 C1146.09,67.3063 1143.79,71.5043 1139.17,75.4105 C1134.49,79.3168 1129.47,81.2699 1124.13,81.2699 C1121,81.2699 1118.37,80.4574 1116.22,78.8324 C1114.2,77.072 1113.19,74.8584 1113.19,72.1918 C1113.19,67.7022 1115.53,63.5043 1120.22,59.598 C1124.78,55.6918 1129.76,53.7386 1135.16,53.7386"/>
<path class="Note" d="M1204.06,41.2378 C1207.19,41.2378 1209.83,42.0503 1211.98,43.6753 C1213.99,45.4358 1215,47.6493 1215,50.316 C1215,54.8055 1212.69,59.0035 1208.08,62.9097 C1203.39,66.816 1198.37,68.7691 1193.03,68.7691 C1189.9,68.7691 1187.27,67.9566 1185.12,66.3316 C1183.1,64.5712 1182.09,62.3576 1182.09,59.691 C1182.09,55.2014 1184.44,51.0035 1189.12,47.0972 C1193.69,43.191 1198.67,41.2378 1204.06,41.2378"/>
<path class="Note" d="M1272.97,91.241 C1276.09,91.241 1278.73,92.0535 1280.89,93.6785 C1282.9,95.4389 1283.9,97.6524 1283.9,100.319 C1283.9,104.809 1281.6,109.007 1276.98,112.913 C1272.29,116.819 1267.28,118.772 1261.93,118.772 C1258.81,118.772 1256.17,117.96 1254.03,116.335 C1252.01,114.574 1251,112.361 1251,109.694 C1251,105.205 1253.34,101.007 1258.03,97.1004 C1262.59,93.1941 1267.57,91.241 1272.97,91.241"/>
<path class="Clef" d="M78.4076,58.6136 C77.4336,57.6345 76.9467,56.4287 76.9467,54.9964 C76.9467,53.5641 77.4336,52.361 78.4076,51.3871 C79.3815,50.4131 80.5847,49.9261 82.017,49.9261 C83.4493,49.9261 84.655,50.4131 85.6342,51.3871 C86.6133,52.361 87.1029,53.5641 87.1029,54.9964 C87.1029,56.4287 86.6133,57.6345 85.6342,58.6136 C84.655,59.5928 83.4493,60.0824 82.017,60.0824 C80.5847,60.0824 79.3815,59.5928 78.4076,58.6136 M78.4076,83.6214 C77.4336,82.6475 76.9467,81.4444 76.9467,80.0121 C76.9467,78.5798 77.4336,77.374 78.4076,76.3949 C79.3815,75.4157 80.5847,74.9261 82.017,74.9261 C83.4493,74.9261 84.655,75.4157 85.6342,76.3949 C86.6133,77.374 87.1029,78.5798 87.1029,80.0121 C87.1029,81.4444 86.6133,82.6475 85.6342,83.6214 C84.655,84.5954 83.4493,85.0824 82.017,85.0824 C80.5847,85.0824 79.3815,84.5954 78.4076,83.6214 M44.5248,41.2386 C53.181,41.2386 60.2748,43.4157 65.806,47.7699 C71.1498,52.3324 73.8217,58.5199 73.8217,66.3324 C73.8217,71.6032 72.78,76.4209 70.6967,80.7855 C68.7383,85.348 66.1654,89.3845 62.9779,92.8949 C59.7175,96.4782 55.78,99.8636 51.1654,103.051 C46.6654,106.176 42.0404,108.978 37.2904,111.457 C27.5925,116.332 22.2539,118.77 21.2748,118.77 C20.431,118.77 20.0092,118.348 20.0092,117.504 C20.0092,117.181 20.1394,116.89 20.3998,116.629 C23.7227,114.671 27.7904,112.166 32.6029,109.114 C35.7279,107.093 39.3737,104.291 43.5404,100.707 C47.5821,97.322 50.7071,94.1345 52.9154,91.1449 C55.1967,88.2074 57.28,84.5615 59.1654,80.2074 C60.7904,75.8428 61.6029,71.5407 61.6029,67.3011 C61.6029,60.9886 60.0404,55.4886 56.9154,50.8011 C53.7904,46.1136 49.6602,43.7699 44.5248,43.7699 C40.8789,43.7699 37.7539,44.9418 35.1498,47.2855 C32.3477,49.6918 30.3269,52.7178 29.0873,56.3636 C30.3269,55.8428 31.4675,55.5824 32.5092,55.5824 C35.2383,55.5824 37.5821,56.5615 39.5404,58.5199 C41.4883,60.6032 42.4623,62.9782 42.4623,65.6449 C42.4623,68.447 41.5196,70.9574 39.6342,73.1761 C37.6133,75.1865 35.2383,76.1918 32.5092,76.1918 C29.5821,76.1918 26.9467,75.1865 24.6029,73.1761 C22.3842,70.9574 21.2748,68.447 21.2748,65.6449 C21.2748,58.9365 23.556,53.2074 28.1185,48.4574 C32.6081,43.6449 38.0769,41.2386 44.5248,41.2386"/>
<path class="Lyrics" d="M136.595,204.811 L135.33,204.811 C135.007,202.571 134.478,201.131 133.744,200.49 C133.009,199.85 131.522,199.529 129.283,199.529 L121.314,199.529 L121.314,210.967 C121.314,213.206 121.616,214.657 122.22,215.318 C122.825,215.98 124.189,216.363 126.314,216.467 L126.314,217.514 L110.924,217.514 L110.924,216.467 C113.007,216.321 114.325,215.928 114.877,215.287 C115.429,214.647 115.705,213.191 115.705,210.92 L115.705,187.107 C115.705,185.16 115.41,183.883 114.822,183.279 C114.233,182.675 112.934,182.3 110.924,182.154 L110.924,181.107 L140.127,181.107 L140.283,188.967 L138.908,188.967 C138.429,186.519 137.694,184.946 136.705,184.248 C135.715,183.55 133.663,183.201 130.549,183.201 L123.08,183.201 C122.34,183.201 121.861,183.321 121.642,183.561 C121.424,183.8 121.314,184.3 121.314,185.061 L121.314,197.279 L129.283,197.279 C131.481,197.279 132.957,196.959 133.713,196.318 C134.468,195.678 135.007,194.253 135.33,192.045 L136.595,192.045 L136.595,204.811 "/>
<path class="Lyrics" d="M162.999,222.67 L217.781,222.67 L217.781,225.029 L162.999,225.029 L162.999,222.67 "/>
<path class="Lyrics" d="M227.904,222.67 L282.685,222.67 L282.685,225.029 L227.904,225.029 L227.904,222.67 "/>
<path class="Lyrics" d="M292.808,222.67 L347.589,222.67 L347.589,225.029 L292.808,225.029 L292.808,222.67 "/>
<path class="Lyrics" d="M401.811,222.67 L456.592,222.67 L456.592,225.029 L401.811,225.029 L401.811,222.67 "/>
<path class="Lyrics" d="M470.715,222.67 L525.496,222.67 L525.496,225.029 L470.715,225.029 L470.715,222.67 "/>
<path class="Lyrics" d="M539.619,222.67 L594.4,222.67 L594.4,225.029 L539.619,225.029 L539.619,222.67 "/>
<path class="Lyrics" d="M608.523,222.67 L663.304,222.67 L663.304,225.029 L608.523,225.029 L608.523,222.67 "/>
<path class="Lyrics" d="M717.527,222.67 L772.308,222.67 L772.308,225.029 L717.527,225.029 L717.527,222.67 "/>
<path class="Lyrics" d="M786.431,222.67 L841.212,222.67 L841.212,225.029 L786.431,225.029 L786.431,222.67 "/>
<path class="Lyrics" d="M855.335,222.67 L910.116,222.67 L910.116,225.029 L855.335,225.029 L855.335,222.67 "/>
<path class="Lyrics" d="M924.239,222.67 L979.02,222.67 L979.02,225.029 L924.239,225.029 L924.239,222.67 "/>
<path class="Lyrics" d="M1033.24,222.67 L1088.02,222.67 L1088.02,225.029 L1033.24,225.029 L1033.24,222.67 "/>
<path class="Lyrics" d="M1102.15,222.67 L1156.93,222.67 L1156.93,225.029 L1102.15,225.029 L1102.15,222.67 "/>
<path class="Lyrics" d="M1171.05,222.67 L1225.83,222.67 L1225.83,225.029 L1171.05,225.029 L1171.05,222.67 "/>
<path class="Lyrics" d="M1239.95,222.67 L1294.74,222.67 L1294.74,225.029 L1239.95,225.029 L1239.95,222.67 "/>
</svg>
