<?xml version="1.0" encoding="UTF-8" standalone="no"?>
<svg width="1346.46px" height="255.118px" viewBox="0 0 1346.46 255.118"
 xmlns="http://www.w3.org/2000/svg" xmlns:xlink="http://www.w3.org/1999/xlink" version="1.2" baseProfile="tiny">
<title>practice2</title>
<desc>Generated by MuseScore 3.4.2</desc>
<polyline class="StaffLines" fill="none" stroke="#000000" stroke-width="2.00" stroke-linejoin="bevel" points="0,42.5027 1346.46,42.5027"/>
<polyline class="StaffLines" fill="none" stroke="#000000" stroke-width="2.00" stroke-linejoin="bevel" points="0,67.5043 1346.46,67.5043"/>
<polyline class="StaffLines" fill="none" stroke="#000000" stroke-width="2.00" stroke-linejoin="bevel" points="0,92.5058 1346.46,92.5058"/>
<polyline class="StaffLines" fill="none" stroke="#000000" stroke-width="2.00" stroke-linejoin="bevel" points="0,117.507 1346.46,117.507"/>
<polyline class="StaffLines" fill="none" stroke="#000000" stroke-width="2.00" stroke-linejoin="bevel" points="0,142.509 1346.46,142.509"/>
<polyline class="BarLine" fill="none" stroke="#000000" stroke-width="4.00" stroke-linejoin="bevel" points="386.171,41.5026 386.171,143.509"/>
<polyline class="BarLine" fill="none" stroke="#000000" stroke-width="4.00" stroke-linejoin="bevel" points="698.1,41.5026 698.1,143.509"/>
<polyline class="BarLine" fill="none" stroke="#000000" stroke-width="4.00" stroke-linejoin="bevel" points="1010.03,41.5026 1010.03,143.509"/>
<polyline class="BarLine" fill="none" stroke="#000000" stroke-width="4.00" stroke-linejoin="bevel" points="1321.96,41.5026 1321.96,143.509"/>
<polyline class="BarLine" fill="none" stroke="#000000" stroke-width="12.50" stroke-linejoin="bevel" points="1340.21,41.5026 1340.21,143.509"/>
<path class="Note" d="M132.681,91.241 C135.806,91.241 138.446,92.0535 140.603,93.6785 C142.613,95.4389 143.618,97.6524 143.618,100.319 C143.618,104.809 141.311,109.007 136.696,112.913 C132.009,116.819 126.993,118.772 121.649,118.772 C118.524,118.772 115.889,117.96 113.743,116.335 C111.722,114.574 110.712,112.361 110.712,109.694 C110.712,105.205 113.056,101.007 117.743,97.1004 C122.306,93.1941 127.285,91.241 132.681,91.241"/>
<path class="Note" d="M200.847,78.7402 C203.972,78.7402 206.613,79.5527 208.769,81.1777 C210.779,82.9381 211.785,85.1517 211.785,87.8183 C211.785,92.3079 209.477,96.5058 204.863,100.412 C200.175,104.318 195.16,106.271 189.816,106.271 C186.691,106.271 184.056,105.459 181.91,103.834 C179.889,102.074 178.878,99.86 178.878,97.1933 C178.878,92.7037 181.222,88.5058 185.91,84.5996 C190.472,80.6933 195.451,78.7402 200.847,78.7402"/>
<path class="Note" d="M269.014,91.241 C272.139,91.241 274.779,92.0535 276.936,93.6785 C278.946,95.4389 279.951,97.6524 279.951,100.319 C279.951,104.809 277.644,109.007 273.029,112.913 C268.342,116.819 263.326,118.772 257.982,118.772 C254.857,118.772 252.222,117.96 250.076,116.335 C248.055,114.574 247.045,112.361 247.045,109.694 C247.045,105.205 249.389,101.007 254.076,97.1004 C258.639,93.1941 263.618,91.241 269.014,91.241"/>
<path class="Note" d="M337.18,78.7402 C340.305,78.7402 342.946,79.5527 345.102,81.1777 C347.113,82.9381 348.118,85.1517 348.118,87.8183 C348.118,92.3079 345.81,96.5058 341.196,100.412 C336.508,104.318 331.493,106.271 326.149,106.271 C323.024,106.271 320.389,105.459 318.243,103.834 C316.222,102.074 315.211,99.86 315.211,97.1933 C315.211,92.7037 317.555,88.5058 322.243,84.5996 C326.805,80.6933 331.784,78.7402 337.18,78.7402"/>
<path class="Note" d="M446.184,66.2394 C449.309,66.2394 451.949,67.0519 454.106,68.6769 C456.116,70.4373 457.121,72.6509 457.121,75.3175 C457.121,79.8071 454.814,84.005 450.199,87.9113 C445.512,91.8175 440.496,93.7707 435.152,93.7707 C432.027,93.7707 429.392,92.9582 427.246,91.3332 C425.225,89.5727 424.215,87.3592 424.215,84.6925 C424.215,80.203 426.559,76.005 431.246,72.0988 C435.809,68.1925 440.788,66.2394 446.184,66.2394"/>
<path class="Note" d="M513.825,53.7386 C516.95,53.7386 519.591,54.5511 521.747,56.1761 C523.758,57.9365 524.763,60.1501 524.763,62.8168 C524.763,67.3063 522.455,71.5043 517.841,75.4105 C513.153,79.3168 508.138,81.2699 502.794,81.2699 C499.669,81.2699 497.034,80.4574 494.888,78.8324 C492.867,77.072 491.857,74.8584 491.857,72.1918 C491.857,67.7022 494.2,63.5043 498.888,59.598 C503.45,55.6918 508.429,53.7386 513.825,53.7386"/>
<path class="Note" d="M581.467,66.2394 C584.592,66.2394 587.233,67.0519 589.389,68.6769 C591.399,70.4373 592.404,72.6509 592.404,75.3175 C592.404,79.8071 590.097,84.005 585.483,87.9113 C580.795,91.8175 575.779,93.7707 570.436,93.7707 C567.311,93.7707 564.675,92.9582 562.529,91.3332 C560.509,89.5727 559.498,87.3592 559.498,84.6925 C559.498,80.203 561.842,76.005 566.529,72.0988 C571.092,68.1925 576.071,66.2394 581.467,66.2394"/>
<path class="Note" d="M649.109,53.7386 C652.234,53.7386 654.874,54.5511 657.03,56.1761 C659.041,57.9365 660.046,60.1501 660.046,62.8168 C660.046,67.3063 657.739,71.5043 653.124,75.4105 C648.437,79.3168 643.421,81.2699 638.077,81.2699 C634.952,81.2699 632.317,80.4574 630.171,78.8324 C628.15,77.072 627.14,74.8584 627.14,72.1918 C627.14,67.7022 629.484,63.5043 634.171,59.598 C638.734,55.6918 643.713,53.7386 649.109,53.7386"/>
<path class="Note" d="M758.112,41.2378 C761.237,41.2378 763.878,42.0503 766.034,43.6753 C768.044,45.4358 769.049,47.6493 769.049,50.316 C769.049,54.8055 766.742,59.0035 762.128,62.9097 C757.44,66.816 752.424,68.7691 747.081,68.7691 C743.956,68.7691 741.32,67.9566 739.174,66.3316 C737.154,64.5712 736.143,62.3576 736.143,59.691 C736.143,55.2014 738.487,51.0035 743.174,47.0972 C747.737,43.191 752.716,41.2378 758.112,41.2378"/>
<path class="Note" d="M825.754,53.7386 C828.879,53.7386 831.519,54.5511 833.675,56.1761 C835.686,57.9365 836.691,60.1501 836.691,62.8168 C836.691,67.3063 834.384,71.5043 829.769,75.4105 C825.082,79.3168 820.066,81.2699 814.722,81.2699 C811.597,81.2699 808.962,80.4574 806.816,78.8324 C804.795,77.072 803.785,74.8584 803.785,72.1918 C803.785,67.7022 806.129,63.5043 810.816,59.598 C815.379,55.6918 820.358,53.7386 825.754,53.7386"/>
<path class="Note" d="M893.395,66.2394 C896.52,66.2394 899.161,67.0519 901.317,68.6769 C903.327,70.4373 904.333,72.6509 904.333,75.3175 C904.333,79.8071 902.025,84.005 897.411,87.9113 C892.723,91.8175 887.708,93.7707 882.364,93.7707 C879.239,93.7707 876.603,92.9582 874.458,91.3332 C872.437,89.5727 871.426,87.3592 871.426,84.6925 C871.426,80.203 873.77,76.005 878.458,72.0988 C883.02,68.1925 887.999,66.2394 893.395,66.2394"/>
<path class="Note" d="M961.037,78.7402 C964.162,78.7402 966.802,79.5527 968.959,81.1777 C970.969,82.9381 971.974,85.1517 971.974,87.8183 C971.974,92.3079 969.667,96.5058 965.052,100.412 C960.365,104.318 955.349,106.271 950.006,106.271 C946.881,106.271 944.245,105.459 942.099,103.834 C940.078,102.074 939.068,99.86 939.068,97.1933 C939.068,92.7037 941.412,88.5058 946.099,84.5996 C950.662,80.6933 955.641,78.7402 961.037,78.7402"/>
<path class="Note" d="M1070.04,91.241 C1073.17,91.241 1075.81,92.0535 1077.96,93.6785 C1079.97,95.4389 1080.98,97.6524 1080.98,100.319 C1080.98,104.809 1078.67,109.007 1074.06,112.913 C1069.37,116.819 1064.35,118.772 1059.01,118.772 C1055.88,118.772 1053.25,117.96 1051.1,116.335 C1049.08,114.574 1048.07,112.361 1048.07,109.694 C1048.07,105.205 1050.42,101.007 1055.1,97.1004 C1059.67,93.1941 1064.64,91.241 1070.04,91.241"/>
<path class="Note" d="M1137.68,66.2394 C1140.81,66.2394 1143.45,67.0519 1145.6,68.6769 C1147.61,70.4373 1148.62,72.6509 1148.62,75.3175 C1148.62,79.8071 1146.31,84.005 1141.7,87.9113 C1137.01,91.8175 1131.99,93.7707 1126.65,93.7707 C1123.53,93.7707 1120.89,92.9582 1118.74,91.3332 C1116.72,89.5727 1115.71,87.3592 1115.71,84.6925 C1115.71,80.203 1118.06,76.005 1122.74,72.0988 C1127.31,68.1925 1132.29,66.2394 1137.68,66.2394"/>
<path class="Note" d="M1205.32,41.2378 C1208.45,41.2378 1211.09,42.0503 1213.25,43.6753 C1215.26,45.4358 1216.26,47.6493 1216.26,50.316 C1216.26,54.8055 1213.95,59.0035 1209.34,62.9097 C1204.65,66.816 1199.64,68.7691 1194.29,68.7691 C1191.17,68.7691 1188.53,67.9566 1186.39,66.3316 C1184.37,64.5712 1183.35,62.3576 1183.35,59.691 C1183.35,55.2014 1185.7,51.0035 1190.39,47.0972 C1194.95,43.191 1199.93,41.2378 1205.32,41.2378"/>
<path class="Note" d="M1272.97,91.241 C1276.09,91.241 1278.73,92.0535 1280.89,93.6785 C1282.9,95.4389 1283.9,97.6524 1283.9,100.319 C1283.9,104.809 1281.6,109.007 1276.98,112.913 C1272.29,116.819 1267.28,118.772 1261.93,118.772 C1258.81,118.772 1256.17,117.96 1254.03,116.335 C1252.01,114.574 1251,112.361 1251,109.694 C1251,105.205 1253.34,101.007 1258.03,97.1004 C1262.59,93.1941 1267.57,91.241 1272.97,91.241"/>
<path class="Clef" d="M78.4076,58.6136 C77.4336,57.6345 76.9467,56.4287 76.9467,54.9964 C76.9467,53.5641 77.4336,52.361 78.4076,51.3871 C79.3815,50.4131 80.5847,49.9261 82.017,49.9261 C83.4493,49.9261 84.655,50.4131 85.6342,51.3871 C86.6133,52.361 87.1029,53.5641 87.1029,54.9964 C87.1029,56.4287 86.6133,57.6345 85.6342,58.6136 C84.655,59.5928 83.4493,60.0824 82.017,60.0824 C80.5847,60.0824 79.3815,59.5928 78.4076,58.6136 M78.4076,83.6214 C77.4336,82.6475 76.9467,81.4444 76.9467,80.0121 C76.9467,78.5798 77.4336,77.374 78.4076,76.3949 C79.3815,75.4157 80.5847,74.9261 82.017,74.9261 C83.4493,74.9261 84.655,75.4157 85.6342,76.3949 C86.6133,77.374 87.1029,78.5798 87.1029,80.0121 C87.1029,81.4444 86.6133,82.6475 85.6342,83.6214 C84.655,84.5954 83.4493,85.0824 82.017,85.0824 C80.5847,85.0824 79.3815,84.5954 78.4076,83.6214 M44.5248,41.2386 C53.181,41.2386 60.2748,43.4157 65.806,47.7699 C71.1498,52.3324 73.8217,58.5199 73.8217,66.3324 C73.8217,71.6032 72.78,76.4209 70.6967,80.7855 C68.7383,85.348 66.1654,89.3845 62.9779,92.8949 C59.7175,96.4782 55.78,99.8636 51.1654,103.051 C46.6654,106.176 42.0404,108.978 37.2904,111.457 C27.5925,116.332 22.2539,118.77 21.2748,118.77 C20.431,118.77 20.0092,118.348 20.0092,117.504 C20.0092,117.181 20.1394,116.89 20.3998,116.629 C23.7227,114.671 27.7904,112.166 32.6029,109.114 C35.7279,107.093 39.3737,104.291 43.5404,100.707 C47.5821,97.322 50.7071,94.1345 52.9154,91.1449 C55.1967,88.2074 57.28,84.5615 59.1654,80.2074 C60.7904,75.8428 61.6029,71.5407 61.6029,67.3011 C61.6029,60.9886 60.0404,55.4886 56.9154,50.8011 C53.7904,46.1136 49.6602,43.7699 44.5248,43.7699 C40.8789,43.7699 37.7539,44.9418 35.1498,47.2855 C32.3477,49.6918 30.3269,52.7178 29.0873,56.3636 C30.3269,55.8428 31.4675,55.5824 32.5092,55.5824 C35.2383,55.5824 37.5821,56.5615 39.5404,58.5199 C41.4883,60.6032 42.4623,62.9782 42.4623,65.6449 C42.4623,68.447 41.5196,70.9574 39.6342,73.1761 C37.6133,75.1865 35.2383,76.1918 32.5092,76.1918 C29.5821,76.1918 26.9467,75.1865 24.6029,73.1761 C22.3842,70.9574 21.2748,68.447 21.2748,65.6449 C21.2748,58.9365 23.556,53.2074 28.1185,48.4574 C32.6081,43.6449 38.0769,41.2386 44.5248,41.2386"/>
<path class="Lyrics" d="M99.67,222.67 L154.451,222.67 L154.451,225.029 L99.67,225.029 L99.67,222.67 "/>
<path class="Lyrics" d="M167.837,222.67 L222.618,222.67 L222.618,225.029 L167.837,225.029 L167.837,222.67 "/>
<path class="Lyrics" d="M236.003,222.67 L290.784,222.67 L290.784,225.029 L236.003,225.029 L236.003,222.67 "/>
<path class="Lyrics" d="M304.17,222.67 L358.951,222.67 L358.951,225.029 L304.17,225.029 L304.17,222.67 "/>
<path class="Lyrics" d="M413.173,222.67 L467.954,222.67 L467.954,225.029 L413.173,225.029 L413.173,222.67 "/>
<path class="Lyrics" d="M480.815,222.67 L535.596,222.67 L535.596,225.029 L480.815,225.029 L480.815,222.67 "/>
<path class="Lyrics" d="M548.456,222.67 L603.237,222.67 L603.237,225.029 L548.456,225.029 L548.456,222.67 "/>
<path class="Lyrics" d="M616.098,222.67 L670.879,222.67 L670.879,225.029 L616.098,225.029 L616.098,222.67 "/>
<path class="Lyrics" d="M725.101,222.67 L779.882,222.67 L779.882,225.029 L725.101,225.029 L725.101,222.67 "/>
<path class="Lyrics" d="M792.743,222.67 L847.524,222.67 L847.524,225.029 L792.743,225.029 L792.743,222.67 "/>
<path class="Lyrics" d="M860.384,222.67 L915.166,222.67 L915.166,225.029 L860.384,225.029 L860.384,222.67 "/>
<path class="Lyrics" d="M928.026,222.67 L982.807,222.67 L982.807,225.029 L928.026,225.029 L928.026,222.67 "/>
<path class="Lyrics" d="M1037.03,222.67 L1091.81,222.67 L1091.81,225.029 L1037.03,225.029 L1037.03,222.67 "/>
<path class="Lyrics" d="M1104.67,222.67 L1159.45,222.67 L1159.45,225.029 L1104.67,225.029 L1104.67,222.67 "/>
<path class="Lyrics" d="M1172.31,222.67 L1227.09,222.67 L1227.09,225.029 L1172.31,225.029 L1172.31,222.67 "/>
<path class="Lyrics" d="M1239.95,222.67 L1294.74,222.67 L1294.74,225.029 L1239.95,225.029 L1239.95,222.67 "/>
</svg>
