<?xml version="1.0" encoding="UTF-8" standalone="no"?>
<svg width="1346.46px" height="184.252px" viewBox="0 0 1346.46 184.252"
 xmlns="http://www.w3.org/2000/svg" xmlns:xlink="http://www.w3.org/1999/xlink" version="1.2" baseProfile="tiny">
<title>draw_circles</title>
<desc>Generated by MuseScore 3.4.2</desc>
<polyline class="StaffLines" fill="none" stroke="#000000" stroke-width="2.00" stroke-linejoin="bevel" points="0,42.5027 1346.46,42.5027"/>
<polyline class="StaffLines" fill="none" stroke="#000000" stroke-width="2.00" stroke-linejoin="bevel" points="0,67.5043 1346.46,67.5043"/>
<polyline class="StaffLines" fill="none" stroke="#000000" stroke-width="2.00" stroke-linejoin="bevel" points="0,92.5058 1346.46,92.5058"/>
<polyline class="StaffLines" fill="none" stroke="#000000" stroke-width="2.00" stroke-linejoin="bevel" points="0,117.507 1346.46,117.507"/>
<polyline class="StaffLines" fill="none" stroke="#000000" stroke-width="2.00" stroke-linejoin="bevel" points="0,142.509 1346.46,142.509"/>
<path class="Note" d="M66.9716,128.743 C70.0966,128.743 72.7372,129.556 74.8935,131.181 C76.9039,132.941 77.9091,135.155 77.9091,137.821 C77.9091,142.311 75.6018,146.509 70.9872,150.415 C66.2997,154.321 61.2841,156.275 55.9403,156.275 C52.8153,156.275 50.1799,155.462 48.0341,153.837 C46.0133,152.077 45.0028,149.863 45.0028,147.196 C45.0028,142.707 47.3466,138.509 52.0341,134.603 C56.5966,130.696 61.5758,128.743 66.9716,128.743"/>
<path class="Note" d="M115.904,128.743 C119.029,128.743 121.67,129.556 123.826,131.181 C125.836,132.941 126.841,135.155 126.841,137.821 C126.841,142.311 124.534,146.509 119.92,150.415 C115.232,154.321 110.216,156.275 104.873,156.275 C101.748,156.275 99.1122,155.462 96.9664,153.837 C94.9456,152.077 93.9351,149.863 93.9351,147.196 C93.9351,142.707 96.2789,138.509 100.966,134.603 C105.529,130.696 110.508,128.743 115.904,128.743"/>
<path class="Note" d="M164.836,128.743 C167.961,128.743 170.602,129.556 172.758,131.181 C174.768,132.941 175.774,135.155 175.774,137.821 C175.774,142.311 173.466,146.509 168.852,150.415 C164.164,154.321 159.149,156.275 153.805,156.275 C150.68,156.275 148.045,155.462 145.899,153.837 C143.878,152.077 142.867,149.863 142.867,147.196 C142.867,142.707 145.211,138.509 149.899,134.603 C154.461,130.696 159.44,128.743 164.836,128.743"/>
<path class="Note" d="M213.768,128.743 C216.893,128.743 219.534,129.556 221.69,131.181 C223.701,132.941 224.706,135.155 224.706,137.821 C224.706,142.311 222.399,146.509 217.784,150.415 C213.097,154.321 208.081,156.275 202.737,156.275 C199.612,156.275 196.977,155.462 194.831,153.837 C192.81,152.077 191.8,149.863 191.8,147.196 C191.8,142.707 194.143,138.509 198.831,134.603 C203.393,130.696 208.373,128.743 213.768,128.743"/>
</svg>
