<?xml version="1.0" encoding="UTF-8" standalone="no"?>
<svg width="1346.46px" height="184.252px" viewBox="0 0 1346.46 184.252"
 xmlns="http://www.w3.org/2000/svg" xmlns:xlink="http://www.w3.org/1999/xlink" version="1.2" baseProfile="tiny">
<title>bass_clef_5_black_notes</title>
<desc>Generated by MuseScore 3.4.2</desc>
<polyline class="StaffLines" fill="none" stroke="#000000" stroke-width="2.00" stroke-linejoin="bevel" points="0,42.5027 1346.46,42.5027"/>
<polyline class="StaffLines" fill="none" stroke="#000000" stroke-width="2.00" stroke-linejoin="bevel" points="0,67.5043 1346.46,67.5043"/>
<polyline class="StaffLines" fill="none" stroke="#000000" stroke-width="2.00" stroke-linejoin="bevel" points="0,92.5058 1346.46,92.5058"/>
<polyline class="StaffLines" fill="none" stroke="#000000" stroke-width="2.00" stroke-linejoin="bevel" points="0,117.507 1346.46,117.507"/>
<polyline class="StaffLines" fill="none" stroke="#000000" stroke-width="2.00" stroke-linejoin="bevel" points="0,142.509 1346.46,142.509"/>
<polyline class="BarLine" fill="none" stroke="#000000" stroke-width="4.00" stroke-linejoin="bevel" points="692.545,41.5026 692.545,143.509"/>
<path class="Accidental" d="M147.31,136.163 C147.31,137.402 146.693,138.022 145.458,138.022 C144.224,138.022 143.607,137.402 143.607,136.163 L143.607,121.71 L135.31,124.835 L135.31,140.647 C135.31,141.887 134.69,142.507 133.451,142.507 C132.211,142.507 131.591,141.887 131.591,140.647 L131.591,126.1 L128.466,127.272 C128.404,127.335 128.143,127.366 127.685,127.366 C127.164,127.366 126.708,127.171 126.318,126.78 C125.927,126.389 125.732,125.934 125.732,125.413 L125.732,119.366 C125.732,118.387 126.154,117.767 126.997,117.507 L131.591,115.944 L131.591,99.9285 L128.466,101.007 C128.404,101.069 128.143,101.1 127.685,101.1 C127.164,101.1 126.708,100.905 126.318,100.514 C125.927,100.124 125.732,99.6681 125.732,99.1472 L125.732,93.0847 C125.732,92.1785 126.154,91.5952 126.997,91.3347 L131.591,89.5691 L131.591,73.8504 C131.591,72.6108 132.211,71.991 133.451,71.991 C134.69,71.991 135.31,72.6108 135.31,73.8504 L135.31,88.3035 L143.607,85.1785 L143.607,69.366 C143.607,68.1264 144.224,67.5066 145.458,67.5066 C146.693,67.5066 147.31,68.1264 147.31,69.366 L147.31,83.9129 L150.544,82.741 C150.607,82.6785 150.831,82.6472 151.216,82.6472 C151.675,82.6472 152.164,82.8399 152.685,83.2254 C153.081,83.6212 153.279,84.0795 153.279,84.6004 L153.279,90.6472 C153.279,91.5639 152.82,92.1837 151.904,92.5066 L147.31,94.0691 L147.31,110.085 L150.544,109.007 C150.607,108.944 150.831,108.913 151.216,108.913 C151.675,108.913 152.164,109.111 152.685,109.507 C153.081,109.892 153.279,110.345 153.279,110.866 L153.279,116.928 C153.279,117.772 152.82,118.356 151.904,118.678 L147.31,120.444 L147.31,136.163 M143.607,95.5379 L135.31,98.4597 L135.31,114.475 L143.607,111.553 L143.607,95.5379 "/>
<path class="Accidental" d="M253.664,123.662 C253.664,124.902 253.047,125.521 251.813,125.521 C250.578,125.521 249.961,124.902 249.961,123.662 L249.961,109.209 L241.664,112.334 L241.664,128.146 C241.664,129.386 241.044,130.006 239.805,130.006 C238.565,130.006 237.946,129.386 237.946,128.146 L237.946,113.6 L234.821,114.771 C234.758,114.834 234.498,114.865 234.039,114.865 C233.518,114.865 233.063,114.67 232.672,114.279 C232.281,113.889 232.086,113.433 232.086,112.912 L232.086,106.865 C232.086,105.886 232.508,105.266 233.352,105.006 L237.946,103.443 L237.946,87.4277 L234.821,88.5058 C234.758,88.5683 234.498,88.5996 234.039,88.5996 C233.518,88.5996 233.063,88.4043 232.672,88.0136 C232.281,87.623 232.086,87.1673 232.086,86.6465 L232.086,80.584 C232.086,79.6777 232.508,79.0944 233.352,78.834 L237.946,77.0683 L237.946,61.3496 C237.946,60.11 238.565,59.4902 239.805,59.4902 C241.044,59.4902 241.664,60.11 241.664,61.3496 L241.664,75.8027 L249.961,72.6777 L249.961,56.8652 C249.961,55.6256 250.578,55.0058 251.813,55.0058 C253.047,55.0058 253.664,55.6256 253.664,56.8652 L253.664,71.4121 L256.899,70.2402 C256.961,70.1777 257.185,70.1465 257.571,70.1465 C258.029,70.1465 258.518,70.3392 259.039,70.7246 C259.435,71.1204 259.633,71.5787 259.633,72.0996 L259.633,78.1465 C259.633,79.0631 259.175,79.6829 258.258,80.0058 L253.664,81.5683 L253.664,97.584 L256.899,96.5058 C256.961,96.4433 257.185,96.4121 257.571,96.4121 C258.029,96.4121 258.518,96.61 259.039,97.0058 C259.435,97.3912 259.633,97.8444 259.633,98.3652 L259.633,104.428 C259.633,105.271 259.175,105.855 258.258,106.178 L253.664,107.943 L253.664,123.662 M249.961,83.0371 L241.664,85.959 L241.664,101.975 L249.961,99.0527 L249.961,83.0371 "/>
<path class="Accidental" d="M360.019,98.6605 C360.019,99.9001 359.401,100.52 358.167,100.52 C356.933,100.52 356.315,99.9001 356.315,98.6605 L356.315,84.2074 L348.019,87.3324 L348.019,103.145 C348.019,104.384 347.399,105.004 346.159,105.004 C344.92,105.004 344.3,104.384 344.3,103.145 L344.3,88.598 L341.175,89.7699 C341.112,89.8324 340.852,89.8636 340.394,89.8636 C339.873,89.8636 339.417,89.6683 339.026,89.2777 C338.636,88.8871 338.44,88.4313 338.44,87.9105 L338.44,81.8636 C338.44,80.8845 338.862,80.2647 339.706,80.0043 L344.3,78.4418 L344.3,62.4261 L341.175,63.5043 C341.112,63.5668 340.852,63.598 340.394,63.598 C339.873,63.598 339.417,63.4027 339.026,63.0121 C338.636,62.6214 338.44,62.1657 338.44,61.6449 L338.44,55.5824 C338.44,54.6761 338.862,54.0928 339.706,53.8324 L344.3,52.0668 L344.3,36.348 C344.3,35.1084 344.92,34.4886 346.159,34.4886 C347.399,34.4886 348.019,35.1084 348.019,36.348 L348.019,50.8011 L356.315,47.6761 L356.315,31.8636 C356.315,30.624 356.933,30.0043 358.167,30.0043 C359.401,30.0043 360.019,30.624 360.019,31.8636 L360.019,46.4105 L363.253,45.2386 C363.315,45.1761 363.539,45.1449 363.925,45.1449 C364.383,45.1449 364.873,45.3376 365.394,45.723 C365.789,46.1188 365.987,46.5772 365.987,47.098 L365.987,53.1449 C365.987,54.0615 365.529,54.6813 364.612,55.0043 L360.019,56.5668 L360.019,72.5824 L363.253,71.5043 C363.315,71.4418 363.539,71.4105 363.925,71.4105 C364.383,71.4105 364.873,71.6084 365.394,72.0043 C365.789,72.3897 365.987,72.8428 365.987,73.3636 L365.987,79.4261 C365.987,80.2699 365.529,80.8532 364.612,81.1761 L360.019,82.9418 L360.019,98.6605 M356.315,58.0355 L348.019,60.9574 L348.019,76.973 L356.315,74.0511 L356.315,58.0355 "/>
<path class="Accidental" d="M466.373,86.1597 C466.373,87.3993 465.756,88.0191 464.521,88.0191 C463.287,88.0191 462.67,87.3993 462.67,86.1597 L462.67,71.7066 L454.373,74.8316 L454.373,90.6441 C454.373,91.8837 453.753,92.5035 452.514,92.5035 C451.274,92.5035 450.654,91.8837 450.654,90.6441 L450.654,76.0972 L447.529,77.2691 C447.467,77.3316 447.206,77.3628 446.748,77.3628 C446.227,77.3628 445.771,77.1675 445.381,76.7769 C444.99,76.3863 444.795,75.9305 444.795,75.4097 L444.795,69.3628 C444.795,68.3837 445.217,67.7639 446.06,67.5035 L450.654,65.941 L450.654,49.9253 L447.529,51.0035 C447.467,51.066 447.206,51.0972 446.748,51.0972 C446.227,51.0972 445.771,50.9019 445.381,50.5113 C444.99,50.1207 444.795,49.6649 444.795,49.1441 L444.795,43.0816 C444.795,42.1753 445.217,41.592 446.06,41.3316 L450.654,39.566 L450.654,23.8472 C450.654,22.6076 451.274,21.9878 452.514,21.9878 C453.753,21.9878 454.373,22.6076 454.373,23.8472 L454.373,38.3003 L462.67,35.1753 L462.67,19.3628 C462.67,18.1233 463.287,17.5035 464.521,17.5035 C465.756,17.5035 466.373,18.1233 466.373,19.3628 L466.373,33.9097 L469.607,32.7378 C469.67,32.6753 469.894,32.6441 470.279,32.6441 C470.737,32.6441 471.227,32.8368 471.748,33.2222 C472.144,33.618 472.342,34.0764 472.342,34.5972 L472.342,40.6441 C472.342,41.5608 471.883,42.1805 470.967,42.5035 L466.373,44.066 L466.373,60.0816 L469.607,59.0035 C469.67,58.941 469.894,58.9097 470.279,58.9097 C470.737,58.9097 471.227,59.1076 471.748,59.5035 C472.144,59.8889 472.342,60.342 472.342,60.8628 L472.342,66.9253 C472.342,67.7691 471.883,68.3524 470.967,68.6753 L466.373,70.441 L466.373,86.1597 M462.67,45.5347 L454.373,48.4566 L454.373,64.4722 L462.67,61.5503 L462.67,45.5347 "/>
<path class="Accidental" d="M572.727,73.6589 C572.727,74.8985 572.11,75.5183 570.876,75.5183 C569.641,75.5183 569.024,74.8985 569.024,73.6589 L569.024,59.2058 L560.727,62.3308 L560.727,78.1433 C560.727,79.3829 560.107,80.0027 558.868,80.0027 C557.628,80.0027 557.008,79.3829 557.008,78.1433 L557.008,63.5964 L553.883,64.7683 C553.821,64.8308 553.561,64.8621 553.102,64.8621 C552.581,64.8621 552.126,64.6667 551.735,64.2761 C551.344,63.8855 551.149,63.4298 551.149,62.9089 L551.149,56.8621 C551.149,55.8829 551.571,55.2631 552.415,55.0027 L557.008,53.4402 L557.008,37.4246 L553.883,38.5027 C553.821,38.5652 553.561,38.5964 553.102,38.5964 C552.581,38.5964 552.126,38.4011 551.735,38.0105 C551.344,37.6199 551.149,37.1641 551.149,36.6433 L551.149,30.5808 C551.149,29.6746 551.571,29.0912 552.415,28.8308 L557.008,27.0652 L557.008,11.3464 C557.008,10.1068 557.628,9.48705 558.868,9.48705 C560.107,9.48705 560.727,10.1068 560.727,11.3464 L560.727,25.7996 L569.024,22.6746 L569.024,6.86205 C569.024,5.62247 569.641,5.00268 570.876,5.00268 C572.11,5.00268 572.727,5.62247 572.727,6.86205 L572.727,21.4089 L575.962,20.2371 C576.024,20.1746 576.248,20.1433 576.633,20.1433 C577.092,20.1433 577.581,20.336 578.102,20.7214 C578.498,21.1173 578.696,21.5756 578.696,22.0964 L578.696,28.1433 C578.696,29.06 578.238,29.6798 577.321,30.0027 L572.727,31.5652 L572.727,47.5808 L575.962,46.5027 C576.024,46.4402 576.248,46.4089 576.633,46.4089 C577.092,46.4089 577.581,46.6068 578.102,47.0027 C578.498,47.3881 578.696,47.8412 578.696,48.3621 L578.696,54.4246 C578.696,55.2683 578.238,55.8516 577.321,56.1746 L572.727,57.9402 L572.727,73.6589 M569.024,33.0339 L560.727,35.9558 L560.727,51.9714 L569.024,49.0496 L569.024,33.0339 "/>
<path class="Note" d="M180.742,91.241 C183.867,91.241 186.507,92.0535 188.664,93.6785 C190.674,95.4389 191.679,97.6524 191.679,100.319 C191.679,104.809 189.372,109.007 184.757,112.913 C180.07,116.819 175.054,118.772 169.711,118.772 C166.586,118.772 163.95,117.96 161.804,116.335 C159.783,114.574 158.773,112.361 158.773,109.694 C158.773,105.205 161.117,101.007 165.804,97.1004 C170.367,93.1941 175.346,91.241 180.742,91.241"/>
<path class="Note" d="M287.096,78.7402 C290.221,78.7402 292.862,79.5527 295.018,81.1777 C297.028,82.9381 298.034,85.1517 298.034,87.8183 C298.034,92.3079 295.726,96.5058 291.112,100.412 C286.424,104.318 281.409,106.271 276.065,106.271 C272.94,106.271 270.304,105.459 268.159,103.834 C266.138,102.074 265.127,99.86 265.127,97.1933 C265.127,92.7037 267.471,88.5058 272.159,84.5996 C276.721,80.6933 281.7,78.7402 287.096,78.7402"/>
<path class="Note" d="M393.45,53.7386 C396.575,53.7386 399.216,54.5511 401.372,56.1761 C403.383,57.9365 404.388,60.1501 404.388,62.8168 C404.388,67.3063 402.081,71.5043 397.466,75.4105 C392.778,79.3168 387.763,81.2699 382.419,81.2699 C379.294,81.2699 376.659,80.4574 374.513,78.8324 C372.492,77.072 371.482,74.8584 371.482,72.1918 C371.482,67.7022 373.825,63.5043 378.513,59.598 C383.075,55.6918 388.055,53.7386 393.45,53.7386"/>
<path class="Note" d="M499.805,41.2378 C502.93,41.2378 505.57,42.0503 507.727,43.6753 C509.737,45.4358 510.742,47.6493 510.742,50.316 C510.742,54.8055 508.435,59.0035 503.82,62.9097 C499.133,66.816 494.117,68.7691 488.773,68.7691 C485.648,68.7691 483.013,67.9566 480.867,66.3316 C478.846,64.5712 477.836,62.3576 477.836,59.691 C477.836,55.2014 480.18,51.0035 484.867,47.0972 C489.43,43.191 494.409,41.2378 499.805,41.2378"/>
<path class="Note" d="M606.159,28.7371 C609.284,28.7371 611.925,29.5496 614.081,31.1746 C616.091,32.935 617.096,35.1485 617.096,37.8152 C617.096,42.3048 614.789,46.5027 610.175,50.4089 C605.487,54.3152 600.471,56.2683 595.128,56.2683 C592.003,56.2683 589.367,55.4558 587.221,53.8308 C585.201,52.0704 584.19,49.8568 584.19,47.1902 C584.19,42.7006 586.534,38.5027 591.221,34.5964 C595.784,30.6902 600.763,28.7371 606.159,28.7371"/>
<path class="Clef" d="M78.4076,58.6136 C77.4336,57.6345 76.9467,56.4287 76.9467,54.9964 C76.9467,53.5641 77.4336,52.361 78.4076,51.3871 C79.3815,50.4131 80.5847,49.9261 82.017,49.9261 C83.4493,49.9261 84.655,50.4131 85.6342,51.3871 C86.6133,52.361 87.1029,53.5641 87.1029,54.9964 C87.1029,56.4287 86.6133,57.6345 85.6342,58.6136 C84.655,59.5928 83.4493,60.0824 82.017,60.0824 C80.5847,60.0824 79.3815,59.5928 78.4076,58.6136 M78.4076,83.6214 C77.4336,82.6475 76.9467,81.4444 76.9467,80.0121 C76.9467,78.5798 77.4336,77.374 78.4076,76.3949 C79.3815,75.4157 80.5847,74.9261 82.017,74.9261 C83.4493,74.9261 84.655,75.4157 85.6342,76.3949 C86.6133,77.374 87.1029,78.5798 87.1029,80.0121 C87.1029,81.4444 86.6133,82.6475 85.6342,83.6214 C84.655,84.5954 83.4493,85.0824 82.017,85.0824 C80.5847,85.0824 79.3815,84.5954 78.4076,83.6214 M44.5248,41.2386 C53.181,41.2386 60.2748,43.4157 65.806,47.7699 C71.1498,52.3324 73.8217,58.5199 73.8217,66.3324 C73.8217,71.6032 72.78,76.4209 70.6967,80.7855 C68.7383,85.348 66.1654,89.3845 62.9779,92.8949 C59.7175,96.4782 55.78,99.8636 51.1654,103.051 C46.6654,106.176 42.0404,108.978 37.2904,111.457 C27.5925,116.332 22.2539,118.77 21.2748,118.77 C20.431,118.77 20.0092,118.348 20.0092,117.504 C20.0092,117.181 20.1394,116.89 20.3998,116.629 C23.7227,114.671 27.7904,112.166 32.6029,109.114 C35.7279,107.093 39.3737,104.291 43.5404,100.707 C47.5821,97.322 50.7071,94.1345 52.9154,91.1449 C55.1967,88.2074 57.28,84.5615 59.1654,80.2074 C60.7904,75.8428 61.6029,71.5407 61.6029,67.3011 C61.6029,60.9886 60.0404,55.4886 56.9154,50.8011 C53.7904,46.1136 49.6602,43.7699 44.5248,43.7699 C40.8789,43.7699 37.7539,44.9418 35.1498,47.2855 C32.3477,49.6918 30.3269,52.7178 29.0873,56.3636 C30.3269,55.8428 31.4675,55.5824 32.5092,55.5824 C35.2383,55.5824 37.5821,56.5615 39.5404,58.5199 C41.4883,60.6032 42.4623,62.9782 42.4623,65.6449 C42.4623,68.447 41.5196,70.9574 39.6342,73.1761 C37.6133,75.1865 35.2383,76.1918 32.5092,76.1918 C29.5821,76.1918 26.9467,75.1865 24.6029,73.1761 C22.3842,70.9574 21.2748,68.447 21.2748,65.6449 C21.2748,58.9365 23.556,53.2074 28.1185,48.4574 C32.6081,43.6449 38.0769,41.2386 44.5248,41.2386"/>
<polyline class="HairpinSegment" fill="none" stroke="#000000" stroke-width="3.25" stroke-linecap="square" stroke-linejoin="bevel" points="158.773,230.014 664.773,245.014"/>
<polyline class="HairpinSegment" fill="none" stroke="#000000" stroke-width="3.25" stroke-linecap="square" stroke-linejoin="bevel" points="158.773,230.014 664.773,215.014"/>
</svg>
