<?xml version="1.0" encoding="UTF-8" standalone="no"?>
<svg width="1700.79px" height="1062.99px" viewBox="0 0 1700.79 1062.99"
 xmlns="http://www.w3.org/2000/svg" xmlns:xlink="http://www.w3.org/1999/xlink" version="1.2" baseProfile="tiny">
<title>the_high_road</title>
<desc>Generated by MuseScore 3.4.2</desc>
<polyline class="StaffLines" fill="none" stroke="#000000" stroke-width="2.00" stroke-linejoin="bevel" points="52.5002,62.5039 1686.61,62.5039"/>
<polyline class="StaffLines" fill="none" stroke="#000000" stroke-width="2.00" stroke-linejoin="bevel" points="52.5002,87.5055 1686.61,87.5055"/>
<polyline class="StaffLines" fill="none" stroke="#000000" stroke-width="2.00" stroke-linejoin="bevel" points="52.5002,112.507 1686.61,112.507"/>
<polyline class="StaffLines" fill="none" stroke="#000000" stroke-width="2.00" stroke-linejoin="bevel" points="52.5002,137.509 1686.61,137.509"/>
<polyline class="StaffLines" fill="none" stroke="#000000" stroke-width="2.00" stroke-linejoin="bevel" points="52.5002,162.51 1686.61,162.51"/>
<polyline class="StaffLines" fill="none" stroke="#000000" stroke-width="2.00" stroke-linejoin="bevel" points="52.5002,287.518 1686.61,287.518"/>
<polyline class="StaffLines" fill="none" stroke="#000000" stroke-width="2.00" stroke-linejoin="bevel" points="52.5002,312.52 1686.61,312.52"/>
<polyline class="StaffLines" fill="none" stroke="#000000" stroke-width="2.00" stroke-linejoin="bevel" points="52.5002,337.521 1686.61,337.521"/>
<polyline class="StaffLines" fill="none" stroke="#000000" stroke-width="2.00" stroke-linejoin="bevel" points="52.5002,362.523 1686.61,362.523"/>
<polyline class="StaffLines" fill="none" stroke="#000000" stroke-width="2.00" stroke-linejoin="bevel" points="52.5002,387.524 1686.61,387.524"/>
<polyline class="StaffLines" fill="none" stroke="#000000" stroke-width="2.00" stroke-linejoin="bevel" points="52.5002,562.961 1686.61,562.961"/>
<polyline class="StaffLines" fill="none" stroke="#000000" stroke-width="2.00" stroke-linejoin="bevel" points="52.5002,587.962 1686.61,587.962"/>
<polyline class="StaffLines" fill="none" stroke="#000000" stroke-width="2.00" stroke-linejoin="bevel" points="52.5002,612.964 1686.61,612.964"/>
<polyline class="StaffLines" fill="none" stroke="#000000" stroke-width="2.00" stroke-linejoin="bevel" points="52.5002,637.965 1686.61,637.965"/>
<polyline class="StaffLines" fill="none" stroke="#000000" stroke-width="2.00" stroke-linejoin="bevel" points="52.5002,662.967 1686.61,662.967"/>
<polyline class="StaffLines" fill="none" stroke="#000000" stroke-width="2.00" stroke-linejoin="bevel" points="52.5002,787.975 1686.61,787.975"/>
<polyline class="StaffLines" fill="none" stroke="#000000" stroke-width="2.00" stroke-linejoin="bevel" points="52.5002,812.976 1686.61,812.976"/>
<polyline class="StaffLines" fill="none" stroke="#000000" stroke-width="2.00" stroke-linejoin="bevel" points="52.5002,837.978 1686.61,837.978"/>
<polyline class="StaffLines" fill="none" stroke="#000000" stroke-width="2.00" stroke-linejoin="bevel" points="52.5002,862.98 1686.61,862.98"/>
<polyline class="StaffLines" fill="none" stroke="#000000" stroke-width="2.00" stroke-linejoin="bevel" points="52.5002,887.981 1686.61,887.981"/>
<polyline class="BarLine" fill="none" stroke="#000000" stroke-width="4.00" stroke-linejoin="bevel" points="54.5003,286.518 54.5003,388.524"/>
<polyline class="BarLine" fill="none" stroke="#000000" stroke-width="4.00" stroke-linejoin="bevel" points="571.382,286.518 571.382,388.524"/>
<polyline class="BarLine" fill="none" stroke="#000000" stroke-width="4.00" stroke-linejoin="bevel" points="933.824,286.518 933.824,388.524"/>
<polyline class="BarLine" fill="none" stroke="#000000" stroke-width="4.00" stroke-linejoin="bevel" points="1296.27,286.518 1296.27,388.524"/>
<polyline class="BarLine" fill="none" stroke="#000000" stroke-width="4.00" stroke-linejoin="bevel" points="1684.61,286.518 1684.61,388.524"/>
<polyline class="BarLine" fill="none" stroke="#000000" stroke-width="4.00" stroke-linejoin="bevel" points="54.5003,786.975 54.5003,888.981"/>
<polyline class="BarLine" fill="none" stroke="#000000" stroke-width="4.00" stroke-linejoin="bevel" points="563.379,786.975 563.379,888.981"/>
<polyline class="BarLine" fill="none" stroke="#000000" stroke-width="4.00" stroke-linejoin="bevel" points="941.62,786.975 941.62,888.981"/>
<polyline class="BarLine" fill="none" stroke="#000000" stroke-width="4.00" stroke-linejoin="bevel" points="1299.75,786.975 1299.75,888.981"/>
<polyline class="BarLine" fill="none" stroke="#000000" stroke-width="4.00" stroke-linejoin="bevel" points="1662.11,786.975 1662.11,888.981"/>
<polyline class="BarLine" fill="none" stroke="#000000" stroke-width="12.50" stroke-linejoin="bevel" points="1680.36,786.975 1680.36,888.981"/>
<polyline class="BarLine" fill="none" stroke="#000000" stroke-width="4.00" stroke-linejoin="bevel" points="54.5003,61.5039 54.5003,287.518"/>
<polyline class="BarLine" fill="none" stroke="#000000" stroke-width="4.00" stroke-linejoin="bevel" points="571.382,61.5039 571.382,287.518"/>
<polyline class="BarLine" fill="none" stroke="#000000" stroke-width="4.00" stroke-linejoin="bevel" points="933.824,61.5039 933.824,287.518"/>
<polyline class="BarLine" fill="none" stroke="#000000" stroke-width="4.00" stroke-linejoin="bevel" points="1296.27,61.5039 1296.27,287.518"/>
<polyline class="BarLine" fill="none" stroke="#000000" stroke-width="4.00" stroke-linejoin="bevel" points="1684.61,61.5039 1684.61,287.518"/>
<polyline class="BarLine" fill="none" stroke="#000000" stroke-width="4.00" stroke-linejoin="bevel" points="54.5003,561.961 54.5003,787.975"/>
<polyline class="BarLine" fill="none" stroke="#000000" stroke-width="4.00" stroke-linejoin="bevel" points="563.379,561.961 563.379,787.975"/>
<polyline class="BarLine" fill="none" stroke="#000000" stroke-width="4.00" stroke-linejoin="bevel" points="941.62,561.961 941.62,787.975"/>
<polyline class="BarLine" fill="none" stroke="#000000" stroke-width="4.00" stroke-linejoin="bevel" points="1299.75,561.961 1299.75,787.975"/>
<polyline class="BarLine" fill="none" stroke="#000000" stroke-width="4.00" stroke-linejoin="bevel" points="1662.11,561.961 1662.11,787.975"/>
<polyline class="BarLine" fill="none" stroke="#000000" stroke-width="12.50" stroke-linejoin="bevel" points="1680.36,561.961 1680.36,787.975"/>
<path class="Accidental" d="M245.519,381.178 C245.519,382.418 244.902,383.038 243.667,383.038 C242.433,383.038 241.816,382.418 241.816,381.178 L241.816,366.725 L233.519,369.85 L233.519,385.663 C233.519,386.902 232.899,387.522 231.659,387.522 C230.42,387.522 229.8,386.902 229.8,385.663 L229.8,371.116 L226.675,372.288 C226.613,372.35 226.352,372.381 225.894,372.381 C225.373,372.381 224.917,372.186 224.527,371.795 C224.136,371.405 223.941,370.949 223.941,370.428 L223.941,364.381 C223.941,363.402 224.363,362.782 225.206,362.522 L229.8,360.96 L229.8,344.944 L226.675,346.022 C226.613,346.085 226.352,346.116 225.894,346.116 C225.373,346.116 224.917,345.92 224.527,345.53 C224.136,345.139 223.941,344.684 223.941,344.163 L223.941,338.1 C223.941,337.194 224.363,336.611 225.206,336.35 L229.8,334.585 L229.8,318.866 C229.8,317.626 230.42,317.006 231.659,317.006 C232.899,317.006 233.519,317.626 233.519,318.866 L233.519,333.319 L241.816,330.194 L241.816,314.381 C241.816,313.142 242.433,312.522 243.667,312.522 C244.902,312.522 245.519,313.142 245.519,314.381 L245.519,328.928 L248.753,327.756 C248.816,327.694 249.04,327.663 249.425,327.663 C249.883,327.663 250.373,327.855 250.894,328.241 C251.29,328.637 251.488,329.095 251.488,329.616 L251.488,335.663 C251.488,336.579 251.029,337.199 250.113,337.522 L245.519,339.085 L245.519,355.1 L248.753,354.022 C248.816,353.96 249.04,353.928 249.425,353.928 C249.883,353.928 250.373,354.126 250.894,354.522 C251.29,354.907 251.488,355.361 251.488,355.881 L251.488,361.944 C251.488,362.788 251.029,363.371 250.113,363.694 L245.519,365.46 L245.519,381.178 M241.816,340.553 L233.519,343.475 L233.519,359.491 L241.816,356.569 L241.816,340.553 "/>
<path class="Accidental" d="M349.652,368.678 C349.652,369.917 349.035,370.537 347.8,370.537 C346.566,370.537 345.949,369.917 345.949,368.678 L345.949,354.224 L337.652,357.349 L337.652,373.162 C337.652,374.401 337.032,375.021 335.793,375.021 C334.553,375.021 333.933,374.401 333.933,373.162 L333.933,358.615 L330.808,359.787 C330.746,359.849 330.485,359.881 330.027,359.881 C329.506,359.881 329.05,359.685 328.66,359.295 C328.269,358.904 328.074,358.448 328.074,357.928 L328.074,351.881 C328.074,350.901 328.496,350.282 329.34,350.021 L333.933,348.459 L333.933,332.443 L330.808,333.521 C330.746,333.584 330.485,333.615 330.027,333.615 C329.506,333.615 329.05,333.42 328.66,333.029 C328.269,332.638 328.074,332.183 328.074,331.662 L328.074,325.599 C328.074,324.693 328.496,324.11 329.34,323.849 L333.933,322.084 L333.933,306.365 C333.933,305.125 334.553,304.506 335.793,304.506 C337.032,304.506 337.652,305.125 337.652,306.365 L337.652,320.818 L345.949,317.693 L345.949,301.881 C345.949,300.641 346.566,300.021 347.8,300.021 C349.035,300.021 349.652,300.641 349.652,301.881 L349.652,316.428 L352.886,315.256 C352.949,315.193 353.173,315.162 353.558,315.162 C354.017,315.162 354.506,315.355 355.027,315.74 C355.423,316.136 355.621,316.594 355.621,317.115 L355.621,323.162 C355.621,324.079 355.162,324.698 354.246,325.021 L349.652,326.584 L349.652,342.599 L352.886,341.521 C352.949,341.459 353.173,341.428 353.558,341.428 C354.017,341.428 354.506,341.625 355.027,342.021 C355.423,342.407 355.621,342.86 355.621,343.381 L355.621,349.443 C355.621,350.287 355.162,350.87 354.246,351.193 L349.652,352.959 L349.652,368.678 M345.949,328.053 L337.652,330.974 L337.652,346.99 L345.949,344.068 L345.949,328.053 "/>
<path class="Accidental" d="M453.785,343.676 C453.785,344.916 453.168,345.535 451.934,345.535 C450.699,345.535 450.082,344.916 450.082,343.676 L450.082,329.223 L441.785,332.348 L441.785,348.16 C441.785,349.4 441.165,350.02 439.926,350.02 C438.686,350.02 438.066,349.4 438.066,348.16 L438.066,333.613 L434.941,334.785 C434.879,334.848 434.619,334.879 434.16,334.879 C433.639,334.879 433.184,334.684 432.793,334.293 C432.402,333.902 432.207,333.447 432.207,332.926 L432.207,326.879 C432.207,325.9 432.629,325.28 433.473,325.02 L438.066,323.457 L438.066,307.442 L434.941,308.52 C434.879,308.582 434.619,308.613 434.16,308.613 C433.639,308.613 433.184,308.418 432.793,308.027 C432.402,307.637 432.207,307.181 432.207,306.66 L432.207,300.598 C432.207,299.692 432.629,299.108 433.473,298.848 L438.066,297.082 L438.066,281.363 C438.066,280.124 438.686,279.504 439.926,279.504 C441.165,279.504 441.785,280.124 441.785,281.363 L441.785,295.817 L450.082,292.692 L450.082,276.879 C450.082,275.639 450.699,275.02 451.934,275.02 C453.168,275.02 453.785,275.639 453.785,276.879 L453.785,291.426 L457.02,290.254 C457.082,290.192 457.306,290.16 457.691,290.16 C458.15,290.16 458.639,290.353 459.16,290.738 C459.556,291.134 459.754,291.593 459.754,292.113 L459.754,298.16 C459.754,299.077 459.296,299.697 458.379,300.02 L453.785,301.582 L453.785,317.598 L457.02,316.52 C457.082,316.457 457.306,316.426 457.691,316.426 C458.15,316.426 458.639,316.624 459.16,317.02 C459.556,317.405 459.754,317.858 459.754,318.379 L459.754,324.442 C459.754,325.285 459.296,325.869 458.379,326.192 L453.785,327.957 L453.785,343.676 M450.082,303.051 L441.785,305.973 L441.785,321.988 L450.082,319.067 L450.082,303.051 "/>
<path class="Accidental" d="M607.961,343.676 C607.961,344.916 607.344,345.535 606.109,345.535 C604.875,345.535 604.258,344.916 604.258,343.676 L604.258,329.223 L595.961,332.348 L595.961,348.16 C595.961,349.4 595.341,350.02 594.101,350.02 C592.862,350.02 592.242,349.4 592.242,348.16 L592.242,333.613 L589.117,334.785 C589.054,334.848 588.794,334.879 588.336,334.879 C587.815,334.879 587.359,334.684 586.969,334.293 C586.578,333.902 586.383,333.447 586.383,332.926 L586.383,326.879 C586.383,325.9 586.804,325.28 587.648,325.02 L592.242,323.457 L592.242,307.442 L589.117,308.52 C589.054,308.582 588.794,308.613 588.336,308.613 C587.815,308.613 587.359,308.418 586.969,308.027 C586.578,307.637 586.383,307.181 586.383,306.66 L586.383,300.598 C586.383,299.692 586.804,299.108 587.648,298.848 L592.242,297.082 L592.242,281.363 C592.242,280.124 592.862,279.504 594.101,279.504 C595.341,279.504 595.961,280.124 595.961,281.363 L595.961,295.817 L604.258,292.692 L604.258,276.879 C604.258,275.639 604.875,275.02 606.109,275.02 C607.344,275.02 607.961,275.639 607.961,276.879 L607.961,291.426 L611.195,290.254 C611.258,290.192 611.482,290.16 611.867,290.16 C612.325,290.16 612.815,290.353 613.336,290.738 C613.732,291.134 613.929,291.593 613.929,292.113 L613.929,298.16 C613.929,299.077 613.471,299.697 612.554,300.02 L607.961,301.582 L607.961,317.598 L611.195,316.52 C611.258,316.457 611.482,316.426 611.867,316.426 C612.325,316.426 612.815,316.624 613.336,317.02 C613.732,317.405 613.929,317.858 613.929,318.379 L613.929,324.442 C613.929,325.285 613.471,325.869 612.554,326.192 L607.961,327.957 L607.961,343.676 M604.258,303.051 L595.961,305.973 L595.961,321.988 L604.258,319.067 L604.258,303.051 "/>
<path class="Accidental" d="M712.094,331.175 C712.094,332.415 711.477,333.035 710.242,333.035 C709.008,333.035 708.391,332.415 708.391,331.175 L708.391,316.722 L700.094,319.847 L700.094,335.66 C700.094,336.899 699.474,337.519 698.235,337.519 C696.995,337.519 696.375,336.899 696.375,335.66 L696.375,321.113 L693.25,322.285 C693.188,322.347 692.927,322.378 692.469,322.378 C691.948,322.378 691.492,322.183 691.102,321.792 C690.711,321.402 690.516,320.946 690.516,320.425 L690.516,314.378 C690.516,313.399 690.938,312.779 691.781,312.519 L696.375,310.956 L696.375,294.941 L693.25,296.019 C693.188,296.081 692.927,296.113 692.469,296.113 C691.948,296.113 691.492,295.917 691.102,295.527 C690.711,295.136 690.516,294.68 690.516,294.16 L690.516,288.097 C690.516,287.191 690.938,286.607 691.781,286.347 L696.375,284.581 L696.375,268.863 C696.375,267.623 696.995,267.003 698.235,267.003 C699.474,267.003 700.094,267.623 700.094,268.863 L700.094,283.316 L708.391,280.191 L708.391,264.378 C708.391,263.139 709.008,262.519 710.242,262.519 C711.477,262.519 712.094,263.139 712.094,264.378 L712.094,278.925 L715.328,277.753 C715.391,277.691 715.615,277.66 716,277.66 C716.459,277.66 716.948,277.852 717.469,278.238 C717.865,278.633 718.063,279.092 718.063,279.613 L718.063,285.66 C718.063,286.576 717.604,287.196 716.688,287.519 L712.094,289.081 L712.094,305.097 L715.328,304.019 C715.391,303.956 715.615,303.925 716,303.925 C716.459,303.925 716.948,304.123 717.469,304.519 C717.865,304.904 718.063,305.357 718.063,305.878 L718.063,311.941 C718.063,312.785 717.604,313.368 716.688,313.691 L712.094,315.456 L712.094,331.175 M708.391,290.55 L700.094,293.472 L700.094,309.488 L708.391,306.566 L708.391,290.55 "/>
<path class="Accidental" d="M816.227,318.674 C816.227,319.914 815.61,320.534 814.376,320.534 C813.141,320.534 812.524,319.914 812.524,318.674 L812.524,304.221 L804.227,307.346 L804.227,323.159 C804.227,324.398 803.607,325.018 802.368,325.018 C801.128,325.018 800.508,324.398 800.508,323.159 L800.508,308.612 L797.383,309.784 C797.321,309.846 797.061,309.877 796.602,309.877 C796.081,309.877 795.626,309.682 795.235,309.292 C794.844,308.901 794.649,308.445 794.649,307.924 L794.649,301.877 C794.649,300.898 795.071,300.279 795.915,300.018 L800.508,298.456 L800.508,282.44 L797.383,283.518 C797.321,283.581 797.061,283.612 796.602,283.612 C796.081,283.612 795.626,283.417 795.235,283.026 C794.844,282.635 794.649,282.18 794.649,281.659 L794.649,275.596 C794.649,274.69 795.071,274.107 795.915,273.846 L800.508,272.081 L800.508,256.362 C800.508,255.122 801.128,254.502 802.368,254.502 C803.607,254.502 804.227,255.122 804.227,256.362 L804.227,270.815 L812.524,267.69 L812.524,251.877 C812.524,250.638 813.141,250.018 814.376,250.018 C815.61,250.018 816.227,250.638 816.227,251.877 L816.227,266.424 L819.462,265.252 C819.524,265.19 819.748,265.159 820.133,265.159 C820.592,265.159 821.081,265.351 821.602,265.737 C821.998,266.133 822.196,266.591 822.196,267.112 L822.196,273.159 C822.196,274.075 821.738,274.695 820.821,275.018 L816.227,276.581 L816.227,292.596 L819.462,291.518 C819.524,291.456 819.748,291.424 820.133,291.424 C820.592,291.424 821.081,291.622 821.602,292.018 C821.998,292.404 822.196,292.857 822.196,293.377 L822.196,299.44 C822.196,300.284 821.738,300.867 820.821,301.19 L816.227,302.956 L816.227,318.674 M812.524,278.049 L804.227,280.971 L804.227,296.987 L812.524,294.065 L812.524,278.049 "/>
<path class="Accidental" d="M970.403,318.674 C970.403,319.914 969.785,320.534 968.551,320.534 C967.317,320.534 966.7,319.914 966.7,318.674 L966.7,304.221 L958.403,307.346 L958.403,323.159 C958.403,324.398 957.783,325.018 956.543,325.018 C955.304,325.018 954.684,324.398 954.684,323.159 L954.684,308.612 L951.559,309.784 C951.496,309.846 951.236,309.877 950.778,309.877 C950.257,309.877 949.801,309.682 949.41,309.292 C949.02,308.901 948.825,308.445 948.825,307.924 L948.825,301.877 C948.825,300.898 949.246,300.279 950.09,300.018 L954.684,298.456 L954.684,282.44 L951.559,283.518 C951.496,283.581 951.236,283.612 950.778,283.612 C950.257,283.612 949.801,283.417 949.41,283.026 C949.02,282.635 948.825,282.18 948.825,281.659 L948.825,275.596 C948.825,274.69 949.246,274.107 950.09,273.846 L954.684,272.081 L954.684,256.362 C954.684,255.122 955.304,254.502 956.543,254.502 C957.783,254.502 958.403,255.122 958.403,256.362 L958.403,270.815 L966.7,267.69 L966.7,251.877 C966.7,250.638 967.317,250.018 968.551,250.018 C969.785,250.018 970.403,250.638 970.403,251.877 L970.403,266.424 L973.637,265.252 C973.7,265.19 973.923,265.159 974.309,265.159 C974.767,265.159 975.257,265.351 975.778,265.737 C976.173,266.133 976.371,266.591 976.371,267.112 L976.371,273.159 C976.371,274.075 975.913,274.695 974.996,275.018 L970.403,276.581 L970.403,292.596 L973.637,291.518 C973.7,291.456 973.923,291.424 974.309,291.424 C974.767,291.424 975.257,291.622 975.778,292.018 C976.173,292.404 976.371,292.857 976.371,293.377 L976.371,299.44 C976.371,300.284 975.913,300.867 974.996,301.19 L970.403,302.956 L970.403,318.674 M966.7,278.049 L958.403,280.971 L958.403,296.987 L966.7,294.065 L966.7,278.049 "/>
<path class="Accidental" d="M1074.54,331.175 C1074.54,332.415 1073.92,333.035 1072.68,333.035 C1071.45,333.035 1070.83,332.415 1070.83,331.175 L1070.83,316.722 L1062.54,319.847 L1062.54,335.66 C1062.54,336.899 1061.92,337.519 1060.68,337.519 C1059.44,337.519 1058.82,336.899 1058.82,335.66 L1058.82,321.113 L1055.69,322.285 C1055.63,322.347 1055.37,322.378 1054.91,322.378 C1054.39,322.378 1053.93,322.183 1053.54,321.792 C1053.15,321.402 1052.96,320.946 1052.96,320.425 L1052.96,314.378 C1052.96,313.399 1053.38,312.779 1054.22,312.519 L1058.82,310.956 L1058.82,294.941 L1055.69,296.019 C1055.63,296.081 1055.37,296.113 1054.91,296.113 C1054.39,296.113 1053.93,295.917 1053.54,295.527 C1053.15,295.136 1052.96,294.68 1052.96,294.16 L1052.96,288.097 C1052.96,287.191 1053.38,286.607 1054.22,286.347 L1058.82,284.581 L1058.82,268.863 C1058.82,267.623 1059.44,267.003 1060.68,267.003 C1061.92,267.003 1062.54,267.623 1062.54,268.863 L1062.54,283.316 L1070.83,280.191 L1070.83,264.378 C1070.83,263.139 1071.45,262.519 1072.68,262.519 C1073.92,262.519 1074.54,263.139 1074.54,264.378 L1074.54,278.925 L1077.77,277.753 C1077.83,277.691 1078.06,277.66 1078.44,277.66 C1078.9,277.66 1079.39,277.852 1079.91,278.238 C1080.31,278.633 1080.5,279.092 1080.5,279.613 L1080.5,285.66 C1080.5,286.576 1080.05,287.196 1079.13,287.519 L1074.54,289.081 L1074.54,305.097 L1077.77,304.019 C1077.83,303.956 1078.06,303.925 1078.44,303.925 C1078.9,303.925 1079.39,304.123 1079.91,304.519 C1080.31,304.904 1080.5,305.357 1080.5,305.878 L1080.5,311.941 C1080.5,312.785 1080.05,313.368 1079.13,313.691 L1074.54,315.456 L1074.54,331.175 M1070.83,290.55 L1062.54,293.472 L1062.54,309.488 L1070.83,306.566 L1070.83,290.55 "/>
<path class="Accidental" d="M1178.67,343.676 C1178.67,344.916 1178.05,345.535 1176.82,345.535 C1175.58,345.535 1174.97,344.916 1174.97,343.676 L1174.97,329.223 L1166.67,332.348 L1166.67,348.16 C1166.67,349.4 1166.05,350.02 1164.81,350.02 C1163.57,350.02 1162.95,349.4 1162.95,348.16 L1162.95,333.613 L1159.83,334.785 C1159.76,334.848 1159.5,334.879 1159.04,334.879 C1158.52,334.879 1158.07,334.684 1157.68,334.293 C1157.29,333.902 1157.09,333.447 1157.09,332.926 L1157.09,326.879 C1157.09,325.9 1157.51,325.28 1158.36,325.02 L1162.95,323.457 L1162.95,307.442 L1159.83,308.52 C1159.76,308.582 1159.5,308.613 1159.04,308.613 C1158.52,308.613 1158.07,308.418 1157.68,308.027 C1157.29,307.637 1157.09,307.181 1157.09,306.66 L1157.09,300.598 C1157.09,299.692 1157.51,299.108 1158.36,298.848 L1162.95,297.082 L1162.95,281.363 C1162.95,280.124 1163.57,279.504 1164.81,279.504 C1166.05,279.504 1166.67,280.124 1166.67,281.363 L1166.67,295.817 L1174.97,292.692 L1174.97,276.879 C1174.97,275.639 1175.58,275.02 1176.82,275.02 C1178.05,275.02 1178.67,275.639 1178.67,276.879 L1178.67,291.426 L1181.9,290.254 C1181.97,290.192 1182.19,290.16 1182.58,290.16 C1183.03,290.16 1183.52,290.353 1184.04,290.738 C1184.44,291.134 1184.64,291.593 1184.64,292.113 L1184.64,298.16 C1184.64,299.077 1184.18,299.697 1183.26,300.02 L1178.67,301.582 L1178.67,317.598 L1181.9,316.52 C1181.97,316.457 1182.19,316.426 1182.58,316.426 C1183.03,316.426 1183.52,316.624 1184.04,317.02 C1184.44,317.405 1184.64,317.858 1184.64,318.379 L1184.64,324.442 C1184.64,325.285 1184.18,325.869 1183.26,326.192 L1178.67,327.957 L1178.67,343.676 M1174.97,303.051 L1166.67,305.973 L1166.67,321.988 L1174.97,319.067 L1174.97,303.051 "/>
<path class="Accidental" d="M1332.84,368.678 C1332.84,369.917 1332.23,370.537 1330.99,370.537 C1329.76,370.537 1329.14,369.917 1329.14,368.678 L1329.14,354.224 L1320.84,357.349 L1320.84,373.162 C1320.84,374.401 1320.22,375.021 1318.99,375.021 C1317.75,375.021 1317.13,374.401 1317.13,373.162 L1317.13,358.615 L1314,359.787 C1313.94,359.849 1313.68,359.881 1313.22,359.881 C1312.7,359.881 1312.24,359.685 1311.85,359.295 C1311.46,358.904 1311.27,358.448 1311.27,357.928 L1311.27,351.881 C1311.27,350.901 1311.69,350.282 1312.53,350.021 L1317.13,348.459 L1317.13,332.443 L1314,333.521 C1313.94,333.584 1313.68,333.615 1313.22,333.615 C1312.7,333.615 1312.24,333.42 1311.85,333.029 C1311.46,332.638 1311.27,332.183 1311.27,331.662 L1311.27,325.599 C1311.27,324.693 1311.69,324.11 1312.53,323.849 L1317.13,322.084 L1317.13,306.365 C1317.13,305.125 1317.75,304.506 1318.99,304.506 C1320.22,304.506 1320.84,305.125 1320.84,306.365 L1320.84,320.818 L1329.14,317.693 L1329.14,301.881 C1329.14,300.641 1329.76,300.021 1330.99,300.021 C1332.23,300.021 1332.84,300.641 1332.84,301.881 L1332.84,316.428 L1336.08,315.256 C1336.14,315.193 1336.37,315.162 1336.75,315.162 C1337.21,315.162 1337.7,315.355 1338.22,315.74 C1338.62,316.136 1338.81,316.594 1338.81,317.115 L1338.81,323.162 C1338.81,324.079 1338.35,324.698 1337.44,325.021 L1332.84,326.584 L1332.84,342.599 L1336.08,341.521 C1336.14,341.459 1336.37,341.428 1336.75,341.428 C1337.21,341.428 1337.7,341.625 1338.22,342.021 C1338.62,342.407 1338.81,342.86 1338.81,343.381 L1338.81,349.443 C1338.81,350.287 1338.35,350.87 1337.44,351.193 L1332.84,352.959 L1332.84,368.678 M1329.14,328.053 L1320.84,330.974 L1320.84,346.99 L1329.14,344.068 L1329.14,328.053 "/>
<path class="Accidental" d="M1445.61,368.678 C1445.61,369.917 1445,370.537 1443.76,370.537 C1442.53,370.537 1441.91,369.917 1441.91,368.678 L1441.91,354.224 L1433.61,357.349 L1433.61,373.162 C1433.61,374.401 1432.99,375.021 1431.75,375.021 C1430.51,375.021 1429.89,374.401 1429.89,373.162 L1429.89,358.615 L1426.77,359.787 C1426.71,359.849 1426.45,359.881 1425.99,359.881 C1425.47,359.881 1425.01,359.685 1424.62,359.295 C1424.23,358.904 1424.04,358.448 1424.04,357.928 L1424.04,351.881 C1424.04,350.901 1424.46,350.282 1425.3,350.021 L1429.89,348.459 L1429.89,332.443 L1426.77,333.521 C1426.71,333.584 1426.45,333.615 1425.99,333.615 C1425.47,333.615 1425.01,333.42 1424.62,333.029 C1424.23,332.638 1424.04,332.183 1424.04,331.662 L1424.04,325.599 C1424.04,324.693 1424.46,324.11 1425.3,323.849 L1429.89,322.084 L1429.89,306.365 C1429.89,305.125 1430.51,304.506 1431.75,304.506 C1432.99,304.506 1433.61,305.125 1433.61,306.365 L1433.61,320.818 L1441.91,317.693 L1441.91,301.881 C1441.91,300.641 1442.53,300.021 1443.76,300.021 C1445,300.021 1445.61,300.641 1445.61,301.881 L1445.61,316.428 L1448.85,315.256 C1448.91,315.193 1449.13,315.162 1449.52,315.162 C1449.98,315.162 1450.47,315.355 1450.99,315.74 C1451.38,316.136 1451.58,316.594 1451.58,317.115 L1451.58,323.162 C1451.58,324.079 1451.12,324.698 1450.21,325.021 L1445.61,326.584 L1445.61,342.599 L1448.85,341.521 C1448.91,341.459 1449.13,341.428 1449.52,341.428 C1449.98,341.428 1450.47,341.625 1450.99,342.021 C1451.38,342.407 1451.58,342.86 1451.58,343.381 L1451.58,349.443 C1451.58,350.287 1451.12,350.87 1450.21,351.193 L1445.61,352.959 L1445.61,368.678 M1441.91,328.053 L1433.61,330.974 L1433.61,346.99 L1441.91,344.068 L1441.91,328.053 "/>
<path class="Accidental" d="M1558.38,381.178 C1558.38,382.418 1557.76,383.038 1556.53,383.038 C1555.3,383.038 1554.68,382.418 1554.68,381.178 L1554.68,366.725 L1546.38,369.85 L1546.38,385.663 C1546.38,386.902 1545.76,387.522 1544.52,387.522 C1543.28,387.522 1542.66,386.902 1542.66,385.663 L1542.66,371.116 L1539.54,372.288 C1539.48,372.35 1539.22,372.381 1538.76,372.381 C1538.24,372.381 1537.78,372.186 1537.39,371.795 C1537,371.405 1536.8,370.949 1536.8,370.428 L1536.8,364.381 C1536.8,363.402 1537.23,362.782 1538.07,362.522 L1542.66,360.96 L1542.66,344.944 L1539.54,346.022 C1539.48,346.085 1539.22,346.116 1538.76,346.116 C1538.24,346.116 1537.78,345.92 1537.39,345.53 C1537,345.139 1536.8,344.684 1536.8,344.163 L1536.8,338.1 C1536.8,337.194 1537.23,336.611 1538.07,336.35 L1542.66,334.585 L1542.66,318.866 C1542.66,317.626 1543.28,317.006 1544.52,317.006 C1545.76,317.006 1546.38,317.626 1546.38,318.866 L1546.38,333.319 L1554.68,330.194 L1554.68,314.381 C1554.68,313.142 1555.3,312.522 1556.53,312.522 C1557.76,312.522 1558.38,313.142 1558.38,314.381 L1558.38,328.928 L1561.62,327.756 C1561.68,327.694 1561.9,327.663 1562.29,327.663 C1562.75,327.663 1563.24,327.855 1563.76,328.241 C1564.15,328.637 1564.35,329.095 1564.35,329.616 L1564.35,335.663 C1564.35,336.579 1563.89,337.199 1562.98,337.522 L1558.38,339.085 L1558.38,355.1 L1561.62,354.022 C1561.68,353.96 1561.9,353.928 1562.29,353.928 C1562.75,353.928 1563.24,354.126 1563.76,354.522 C1564.15,354.907 1564.35,355.361 1564.35,355.881 L1564.35,361.944 C1564.35,362.788 1563.89,363.371 1562.98,363.694 L1558.38,365.46 L1558.38,381.178 M1554.68,340.553 L1546.38,343.475 L1546.38,359.491 L1554.68,356.569 L1554.68,340.553 "/>
<path class="Accidental" d="M232.59,881.635 C232.59,882.875 231.973,883.494 230.738,883.494 C229.504,883.494 228.887,882.875 228.887,881.635 L228.887,867.182 L220.59,870.307 L220.59,886.119 C220.59,887.359 219.97,887.979 218.73,887.979 C217.491,887.979 216.871,887.359 216.871,886.119 L216.871,871.572 L213.746,872.744 C213.684,872.807 213.423,872.838 212.965,872.838 C212.444,872.838 211.988,872.643 211.598,872.252 C211.207,871.862 211.012,871.406 211.012,870.885 L211.012,864.838 C211.012,863.859 211.434,863.239 212.277,862.979 L216.871,861.416 L216.871,845.401 L213.746,846.479 C213.684,846.541 213.423,846.572 212.965,846.572 C212.444,846.572 211.988,846.377 211.598,845.987 C211.207,845.596 211.012,845.14 211.012,844.619 L211.012,838.557 C211.012,837.651 211.434,837.067 212.277,836.807 L216.871,835.041 L216.871,819.322 C216.871,818.083 217.491,817.463 218.73,817.463 C219.97,817.463 220.59,818.083 220.59,819.322 L220.59,833.776 L228.887,830.651 L228.887,814.838 C228.887,813.599 229.504,812.979 230.738,812.979 C231.973,812.979 232.59,813.599 232.59,814.838 L232.59,829.385 L235.824,828.213 C235.887,828.151 236.111,828.119 236.496,828.119 C236.954,828.119 237.444,828.312 237.965,828.697 C238.361,829.093 238.559,829.552 238.559,830.072 L238.559,836.119 C238.559,837.036 238.1,837.656 237.184,837.979 L232.59,839.541 L232.59,855.557 L235.824,854.479 C235.887,854.416 236.111,854.385 236.496,854.385 C236.954,854.385 237.444,854.583 237.965,854.979 C238.361,855.364 238.559,855.817 238.559,856.338 L238.559,862.401 C238.559,863.244 238.1,863.828 237.184,864.151 L232.59,865.916 L232.59,881.635 M228.887,841.01 L220.59,843.932 L220.59,859.947 L228.887,857.026 L228.887,841.01 "/>
<path class="Accidental" d="M338.365,869.134 C338.365,870.374 337.748,870.994 336.514,870.994 C335.279,870.994 334.662,870.374 334.662,869.134 L334.662,854.681 L326.365,857.806 L326.365,873.619 C326.365,874.858 325.745,875.478 324.506,875.478 C323.266,875.478 322.646,874.858 322.646,873.619 L322.646,859.072 L319.521,860.244 C319.459,860.306 319.198,860.337 318.74,860.337 C318.219,860.337 317.764,860.142 317.373,859.751 C316.982,859.361 316.787,858.905 316.787,858.384 L316.787,852.337 C316.787,851.358 317.209,850.738 318.053,850.478 L322.646,848.915 L322.646,832.9 L319.521,833.978 C319.459,834.04 319.198,834.072 318.74,834.072 C318.219,834.072 317.764,833.876 317.373,833.486 C316.982,833.095 316.787,832.639 316.787,832.119 L316.787,826.056 C316.787,825.15 317.209,824.566 318.053,824.306 L322.646,822.54 L322.646,806.822 C322.646,805.582 323.266,804.962 324.506,804.962 C325.745,804.962 326.365,805.582 326.365,806.822 L326.365,821.275 L334.662,818.15 L334.662,802.337 C334.662,801.098 335.279,800.478 336.514,800.478 C337.748,800.478 338.365,801.098 338.365,802.337 L338.365,816.884 L341.599,815.712 C341.662,815.65 341.886,815.619 342.271,815.619 C342.73,815.619 343.219,815.811 343.74,816.197 C344.136,816.593 344.334,817.051 344.334,817.572 L344.334,823.619 C344.334,824.535 343.875,825.155 342.959,825.478 L338.365,827.04 L338.365,843.056 L341.599,841.978 C341.662,841.915 341.886,841.884 342.271,841.884 C342.73,841.884 343.219,842.082 343.74,842.478 C344.136,842.863 344.334,843.316 344.334,843.837 L344.334,849.9 C344.334,850.744 343.875,851.327 342.959,851.65 L338.365,853.415 L338.365,869.134 M334.662,828.509 L326.365,831.431 L326.365,847.447 L334.662,844.525 L334.662,828.509 "/>
<path class="Accidental" d="M444.14,844.133 C444.14,845.372 443.523,845.992 442.289,845.992 C441.054,845.992 440.437,845.372 440.437,844.133 L440.437,829.68 L432.14,832.805 L432.14,848.617 C432.14,849.857 431.521,850.476 430.281,850.476 C429.041,850.476 428.422,849.857 428.422,848.617 L428.422,834.07 L425.297,835.242 C425.234,835.305 424.974,835.336 424.515,835.336 C423.995,835.336 423.539,835.14 423.148,834.75 C422.758,834.359 422.562,833.903 422.562,833.383 L422.562,827.336 C422.562,826.357 422.984,825.737 423.828,825.476 L428.422,823.914 L428.422,807.898 L425.297,808.976 C425.234,809.039 424.974,809.07 424.515,809.07 C423.995,809.07 423.539,808.875 423.148,808.484 C422.758,808.094 422.562,807.638 422.562,807.117 L422.562,801.055 C422.562,800.148 422.984,799.565 423.828,799.305 L428.422,797.539 L428.422,781.82 C428.422,780.581 429.041,779.961 430.281,779.961 C431.521,779.961 432.14,780.581 432.14,781.82 L432.14,796.273 L440.437,793.148 L440.437,777.336 C440.437,776.096 441.054,775.476 442.289,775.476 C443.523,775.476 444.14,776.096 444.14,777.336 L444.14,791.883 L447.375,790.711 C447.437,790.648 447.661,790.617 448.047,790.617 C448.505,790.617 448.995,790.81 449.515,791.195 C449.911,791.591 450.109,792.049 450.109,792.57 L450.109,798.617 C450.109,799.534 449.651,800.153 448.734,800.476 L444.14,802.039 L444.14,818.055 L447.375,816.976 C447.437,816.914 447.661,816.883 448.047,816.883 C448.505,816.883 448.995,817.081 449.515,817.476 C449.911,817.862 450.109,818.315 450.109,818.836 L450.109,824.898 C450.109,825.742 449.651,826.325 448.734,826.648 L444.14,828.414 L444.14,844.133 M440.437,803.508 L432.14,806.43 L432.14,822.445 L440.437,819.523 L440.437,803.508 "/>
<path class="Accidental" d="M599.958,844.133 C599.958,845.372 599.341,845.992 598.106,845.992 C596.872,845.992 596.255,845.372 596.255,844.133 L596.255,829.68 L587.958,832.805 L587.958,848.617 C587.958,849.857 587.338,850.476 586.098,850.476 C584.859,850.476 584.239,849.857 584.239,848.617 L584.239,834.07 L581.114,835.242 C581.052,835.305 580.791,835.336 580.333,835.336 C579.812,835.336 579.356,835.14 578.966,834.75 C578.575,834.359 578.38,833.903 578.38,833.383 L578.38,827.336 C578.38,826.357 578.802,825.737 579.645,825.476 L584.239,823.914 L584.239,807.898 L581.114,808.976 C581.052,809.039 580.791,809.07 580.333,809.07 C579.812,809.07 579.356,808.875 578.966,808.484 C578.575,808.094 578.38,807.638 578.38,807.117 L578.38,801.055 C578.38,800.148 578.802,799.565 579.645,799.305 L584.239,797.539 L584.239,781.82 C584.239,780.581 584.859,779.961 586.098,779.961 C587.338,779.961 587.958,780.581 587.958,781.82 L587.958,796.273 L596.255,793.148 L596.255,777.336 C596.255,776.096 596.872,775.476 598.106,775.476 C599.341,775.476 599.958,776.096 599.958,777.336 L599.958,791.883 L603.192,790.711 C603.255,790.648 603.479,790.617 603.864,790.617 C604.322,790.617 604.812,790.81 605.333,791.195 C605.729,791.591 605.927,792.049 605.927,792.57 L605.927,798.617 C605.927,799.534 605.468,800.153 604.552,800.476 L599.958,802.039 L599.958,818.055 L603.192,816.976 C603.255,816.914 603.479,816.883 603.864,816.883 C604.322,816.883 604.812,817.081 605.333,817.476 C605.729,817.862 605.927,818.315 605.927,818.836 L605.927,824.898 C605.927,825.742 605.468,826.325 604.552,826.648 L599.958,828.414 L599.958,844.133 M596.255,803.508 L587.958,806.43 L587.958,822.445 L596.255,819.523 L596.255,803.508 "/>
<path class="Accidental" d="M709.358,819.131 C709.358,820.371 708.74,820.99 707.506,820.99 C706.272,820.99 705.655,820.371 705.655,819.131 L705.655,804.678 L697.358,807.803 L697.358,823.615 C697.358,824.855 696.738,825.475 695.498,825.475 C694.259,825.475 693.639,824.855 693.639,823.615 L693.639,809.069 L690.514,810.24 C690.451,810.303 690.191,810.334 689.733,810.334 C689.212,810.334 688.756,810.139 688.365,809.748 C687.975,809.358 687.78,808.902 687.78,808.381 L687.78,802.334 C687.78,801.355 688.201,800.735 689.045,800.475 L693.639,798.912 L693.639,782.897 L690.514,783.975 C690.451,784.037 690.191,784.069 689.733,784.069 C689.212,784.069 688.756,783.873 688.365,783.483 C687.975,783.092 687.78,782.636 687.78,782.115 L687.78,776.053 C687.78,775.147 688.201,774.563 689.045,774.303 L693.639,772.537 L693.639,756.819 C693.639,755.579 694.259,754.959 695.498,754.959 C696.738,754.959 697.358,755.579 697.358,756.819 L697.358,771.272 L705.655,768.147 L705.655,752.334 C705.655,751.095 706.272,750.475 707.506,750.475 C708.74,750.475 709.358,751.095 709.358,752.334 L709.358,766.881 L712.592,765.709 C712.655,765.647 712.878,765.615 713.264,765.615 C713.722,765.615 714.212,765.808 714.733,766.194 C715.128,766.589 715.326,767.048 715.326,767.569 L715.326,773.615 C715.326,774.532 714.868,775.152 713.951,775.475 L709.358,777.037 L709.358,793.053 L712.592,791.975 C712.655,791.912 712.878,791.881 713.264,791.881 C713.722,791.881 714.212,792.079 714.733,792.475 C715.128,792.86 715.326,793.313 715.326,793.834 L715.326,799.897 C715.326,800.74 714.868,801.324 713.951,801.647 L709.358,803.412 L709.358,819.131 M705.655,778.506 L697.358,781.428 L697.358,797.444 L705.655,794.522 L705.655,778.506 "/>
<path class="Accidental" d="M1183.59,819.131 C1183.59,820.371 1182.97,820.99 1181.74,820.99 C1180.5,820.99 1179.89,820.371 1179.89,819.131 L1179.89,804.678 L1171.59,807.803 L1171.59,823.615 C1171.59,824.855 1170.97,825.475 1169.73,825.475 C1168.49,825.475 1167.87,824.855 1167.87,823.615 L1167.87,809.069 L1164.75,810.24 C1164.68,810.303 1164.42,810.334 1163.97,810.334 C1163.44,810.334 1162.99,810.139 1162.6,809.748 C1162.21,809.358 1162.01,808.902 1162.01,808.381 L1162.01,802.334 C1162.01,801.355 1162.43,800.735 1163.28,800.475 L1167.87,798.912 L1167.87,782.897 L1164.75,783.975 C1164.68,784.037 1164.42,784.069 1163.97,784.069 C1163.44,784.069 1162.99,783.873 1162.6,783.483 C1162.21,783.092 1162.01,782.636 1162.01,782.115 L1162.01,776.053 C1162.01,775.147 1162.43,774.563 1163.28,774.303 L1167.87,772.537 L1167.87,756.819 C1167.87,755.579 1168.49,754.959 1169.73,754.959 C1170.97,754.959 1171.59,755.579 1171.59,756.819 L1171.59,771.272 L1179.89,768.147 L1179.89,752.334 C1179.89,751.095 1180.5,750.475 1181.74,750.475 C1182.97,750.475 1183.59,751.095 1183.59,752.334 L1183.59,766.881 L1186.82,765.709 C1186.89,765.647 1187.11,765.615 1187.5,765.615 C1187.95,765.615 1188.44,765.808 1188.97,766.194 C1189.36,766.589 1189.56,767.048 1189.56,767.569 L1189.56,773.615 C1189.56,774.532 1189.1,775.152 1188.18,775.475 L1183.59,777.037 L1183.59,793.053 L1186.82,791.975 C1186.89,791.912 1187.11,791.881 1187.5,791.881 C1187.95,791.881 1188.44,792.079 1188.97,792.475 C1189.36,792.86 1189.56,793.313 1189.56,793.834 L1189.56,799.897 C1189.56,800.74 1189.1,801.324 1188.18,801.647 L1183.59,803.412 L1183.59,819.131 M1179.89,778.506 L1171.59,781.428 L1171.59,797.444 L1179.89,794.522 L1179.89,778.506 "/>
<path class="Accidental" d="M813.757,719.125 C813.757,720.364 813.14,720.984 811.906,720.984 C810.671,720.984 810.054,720.364 810.054,719.125 L810.054,704.672 L801.757,707.797 L801.757,723.609 C801.757,724.849 801.137,725.469 799.898,725.469 C798.658,725.469 798.038,724.849 798.038,723.609 L798.038,709.062 L794.913,710.234 C794.851,710.297 794.59,710.328 794.132,710.328 C793.611,710.328 793.156,710.133 792.765,709.742 C792.374,709.351 792.179,708.896 792.179,708.375 L792.179,702.328 C792.179,701.349 792.601,700.729 793.445,700.469 L798.038,698.906 L798.038,682.89 L794.913,683.969 C794.851,684.031 794.59,684.062 794.132,684.062 C793.611,684.062 793.156,683.867 792.765,683.476 C792.374,683.086 792.179,682.63 792.179,682.109 L792.179,676.047 C792.179,675.14 792.601,674.557 793.445,674.297 L798.038,672.531 L798.038,656.812 C798.038,655.573 798.658,654.953 799.898,654.953 C801.137,654.953 801.757,655.573 801.757,656.812 L801.757,671.265 L810.054,668.14 L810.054,652.328 C810.054,651.088 810.671,650.469 811.906,650.469 C813.14,650.469 813.757,651.088 813.757,652.328 L813.757,666.875 L816.991,665.703 C817.054,665.64 817.278,665.609 817.663,665.609 C818.122,665.609 818.611,665.802 819.132,666.187 C819.528,666.583 819.726,667.041 819.726,667.562 L819.726,673.609 C819.726,674.526 819.268,675.146 818.351,675.469 L813.757,677.031 L813.757,693.047 L816.991,691.969 C817.054,691.906 817.278,691.875 817.663,691.875 C818.122,691.875 818.611,692.073 819.132,692.469 C819.528,692.854 819.726,693.307 819.726,693.828 L819.726,699.89 C819.726,700.734 819.268,701.317 818.351,701.64 L813.757,703.406 L813.757,719.125 M810.054,678.5 L801.757,681.422 L801.757,697.437 L810.054,694.515 L810.054,678.5 "/>
<path class="Accidental" d="M978.199,706.624 C978.199,707.864 977.582,708.483 976.348,708.483 C975.113,708.483 974.496,707.864 974.496,706.624 L974.496,692.171 L966.199,695.296 L966.199,711.108 C966.199,712.348 965.58,712.968 964.34,712.968 C963.1,712.968 962.481,712.348 962.481,711.108 L962.481,696.561 L959.356,697.733 C959.293,697.796 959.033,697.827 958.574,697.827 C958.054,697.827 957.598,697.632 957.207,697.241 C956.817,696.851 956.621,696.395 956.621,695.874 L956.621,689.827 C956.621,688.848 957.043,688.228 957.887,687.968 L962.481,686.405 L962.481,670.39 L959.356,671.468 C959.293,671.53 959.033,671.561 958.574,671.561 C958.054,671.561 957.598,671.366 957.207,670.976 C956.817,670.585 956.621,670.129 956.621,669.608 L956.621,663.546 C956.621,662.64 957.043,662.056 957.887,661.796 L962.481,660.03 L962.481,644.311 C962.481,643.072 963.1,642.452 964.34,642.452 C965.58,642.452 966.199,643.072 966.199,644.311 L966.199,658.765 L974.496,655.64 L974.496,639.827 C974.496,638.588 975.113,637.968 976.348,637.968 C977.582,637.968 978.199,638.588 978.199,639.827 L978.199,654.374 L981.434,653.202 C981.496,653.14 981.72,653.108 982.106,653.108 C982.564,653.108 983.054,653.301 983.574,653.686 C983.97,654.082 984.168,654.541 984.168,655.061 L984.168,661.108 C984.168,662.025 983.71,662.645 982.793,662.968 L978.199,664.53 L978.199,680.546 L981.434,679.468 C981.496,679.405 981.72,679.374 982.106,679.374 C982.564,679.374 983.054,679.572 983.574,679.968 C983.97,680.353 984.168,680.806 984.168,681.327 L984.168,687.39 C984.168,688.233 983.71,688.817 982.793,689.14 L978.199,690.905 L978.199,706.624 M974.496,665.999 L966.199,668.921 L966.199,684.936 L974.496,682.015 L974.496,665.999 "/>
<path class="Accidental" d="M1075.89,719.125 C1075.89,720.364 1075.28,720.984 1074.04,720.984 C1072.81,720.984 1072.19,720.364 1072.19,719.125 L1072.19,704.672 L1063.89,707.797 L1063.89,723.609 C1063.89,724.849 1063.27,725.469 1062.04,725.469 C1060.8,725.469 1060.18,724.849 1060.18,723.609 L1060.18,709.062 L1057.05,710.234 C1056.99,710.297 1056.73,710.328 1056.27,710.328 C1055.75,710.328 1055.29,710.133 1054.9,709.742 C1054.51,709.351 1054.32,708.896 1054.32,708.375 L1054.32,702.328 C1054.32,701.349 1054.74,700.729 1055.58,700.469 L1060.18,698.906 L1060.18,682.89 L1057.05,683.969 C1056.99,684.031 1056.73,684.062 1056.27,684.062 C1055.75,684.062 1055.29,683.867 1054.9,683.476 C1054.51,683.086 1054.32,682.63 1054.32,682.109 L1054.32,676.047 C1054.32,675.14 1054.74,674.557 1055.58,674.297 L1060.18,672.531 L1060.18,656.812 C1060.18,655.573 1060.8,654.953 1062.04,654.953 C1063.27,654.953 1063.89,655.573 1063.89,656.812 L1063.89,671.265 L1072.19,668.14 L1072.19,652.328 C1072.19,651.088 1072.81,650.469 1074.04,650.469 C1075.28,650.469 1075.89,651.088 1075.89,652.328 L1075.89,666.875 L1079.13,665.703 C1079.19,665.64 1079.42,665.609 1079.8,665.609 C1080.26,665.609 1080.75,665.802 1081.27,666.187 C1081.67,666.583 1081.86,667.041 1081.86,667.562 L1081.86,673.609 C1081.86,674.526 1081.4,675.146 1080.49,675.469 L1075.89,677.031 L1075.89,693.047 L1079.13,691.969 C1079.19,691.906 1079.42,691.875 1079.8,691.875 C1080.26,691.875 1080.75,692.073 1081.27,692.469 C1081.67,692.854 1081.86,693.307 1081.86,693.828 L1081.86,699.89 C1081.86,700.734 1081.4,701.317 1080.49,701.64 L1075.89,703.406 L1075.89,719.125 M1072.19,678.5 L1063.89,681.422 L1063.89,697.437 L1072.19,694.515 L1072.19,678.5 "/>
<path class="Accidental" d="M1336.33,719.125 C1336.33,720.364 1335.71,720.984 1334.48,720.984 C1333.24,720.984 1332.62,720.364 1332.62,719.125 L1332.62,704.672 L1324.33,707.797 L1324.33,723.609 C1324.33,724.849 1323.71,725.469 1322.47,725.469 C1321.23,725.469 1320.61,724.849 1320.61,723.609 L1320.61,709.062 L1317.48,710.234 C1317.42,710.297 1317.16,710.328 1316.7,710.328 C1316.18,710.328 1315.73,710.133 1315.34,709.742 C1314.94,709.351 1314.75,708.896 1314.75,708.375 L1314.75,702.328 C1314.75,701.349 1315.17,700.729 1316.02,700.469 L1320.61,698.906 L1320.61,682.89 L1317.48,683.969 C1317.42,684.031 1317.16,684.062 1316.7,684.062 C1316.18,684.062 1315.73,683.867 1315.34,683.476 C1314.94,683.086 1314.75,682.63 1314.75,682.109 L1314.75,676.047 C1314.75,675.14 1315.17,674.557 1316.02,674.297 L1320.61,672.531 L1320.61,656.812 C1320.61,655.573 1321.23,654.953 1322.47,654.953 C1323.71,654.953 1324.33,655.573 1324.33,656.812 L1324.33,671.265 L1332.62,668.14 L1332.62,652.328 C1332.62,651.088 1333.24,650.469 1334.48,650.469 C1335.71,650.469 1336.33,651.088 1336.33,652.328 L1336.33,666.875 L1339.56,665.703 C1339.62,665.64 1339.85,665.609 1340.23,665.609 C1340.69,665.609 1341.18,665.802 1341.7,666.187 C1342.1,666.583 1342.3,667.041 1342.3,667.562 L1342.3,673.609 C1342.3,674.526 1341.84,675.146 1340.92,675.469 L1336.33,677.031 L1336.33,693.047 L1339.56,691.969 C1339.62,691.906 1339.85,691.875 1340.23,691.875 C1340.69,691.875 1341.18,692.073 1341.7,692.469 C1342.1,692.854 1342.3,693.307 1342.3,693.828 L1342.3,699.89 C1342.3,700.734 1341.84,701.317 1340.92,701.64 L1336.33,703.406 L1336.33,719.125 M1332.62,678.5 L1324.33,681.422 L1324.33,697.437 L1332.62,694.515 L1332.62,678.5 "/>
<polyline class="LedgerLine" fill="none" stroke="#000000" stroke-width="4.00" stroke-linecap="square" stroke-linejoin="bevel" points="822.72,687.969 870.637,687.969"/>
<polyline class="LedgerLine" fill="none" stroke="#000000" stroke-width="4.00" stroke-linecap="square" stroke-linejoin="bevel" points="1084.86,687.969 1132.77,687.969"/>
<polyline class="LedgerLine" fill="none" stroke="#000000" stroke-width="4.00" stroke-linecap="square" stroke-linejoin="bevel" points="1345.29,687.969 1393.21,687.969"/>
<path class="Note" d="M278.951,336.256 C282.076,336.256 284.716,337.069 286.872,338.694 C288.883,340.454 289.888,342.668 289.888,345.335 C289.888,349.824 287.581,354.022 282.966,357.928 C278.279,361.835 273.263,363.788 267.919,363.788 C264.794,363.788 262.159,362.975 260.013,361.35 C257.992,359.59 256.982,357.376 256.982,354.71 C256.982,350.22 259.326,346.022 264.013,342.116 C268.576,338.21 273.555,336.256 278.951,336.256"/>
<path class="Note" d="M383.084,323.756 C386.209,323.756 388.849,324.568 391.006,326.193 C393.016,327.954 394.021,330.167 394.021,332.834 C394.021,337.323 391.714,341.521 387.099,345.428 C382.412,349.334 377.396,351.287 372.053,351.287 C368.928,351.287 366.292,350.474 364.146,348.849 C362.125,347.089 361.115,344.875 361.115,342.209 C361.115,337.719 363.459,333.521 368.146,329.615 C372.709,325.709 377.688,323.756 383.084,323.756"/>
<path class="Note" d="M487.217,298.754 C490.342,298.754 492.983,299.567 495.139,301.192 C497.149,302.952 498.155,305.166 498.155,307.832 C498.155,312.322 495.847,316.52 491.233,320.426 C486.545,324.332 481.53,326.285 476.186,326.285 C473.061,326.285 470.425,325.473 468.28,323.848 C466.259,322.087 465.248,319.874 465.248,317.207 C465.248,312.718 467.592,308.52 472.28,304.613 C476.842,300.707 481.821,298.754 487.217,298.754"/>
<path class="Note" d="M641.392,298.754 C644.517,298.754 647.158,299.567 649.314,301.192 C651.325,302.952 652.33,305.166 652.33,307.832 C652.33,312.322 650.023,316.52 645.408,320.426 C640.721,324.332 635.705,326.285 630.361,326.285 C627.236,326.285 624.601,325.473 622.455,323.848 C620.434,322.087 619.424,319.874 619.424,317.207 C619.424,312.718 621.767,308.52 626.455,304.613 C631.017,300.707 635.997,298.754 641.392,298.754"/>
<path class="Note" d="M745.526,286.253 C748.651,286.253 751.291,287.066 753.448,288.691 C755.458,290.451 756.463,292.665 756.463,295.331 C756.463,299.821 754.156,304.019 749.541,307.925 C744.854,311.831 739.838,313.785 734.494,313.785 C731.369,313.785 728.734,312.972 726.588,311.347 C724.567,309.587 723.557,307.373 723.557,304.706 C723.557,300.217 725.901,296.019 730.588,292.113 C735.151,288.206 740.13,286.253 745.526,286.253"/>
<path class="Note" d="M849.659,273.752 C852.784,273.752 855.425,274.565 857.581,276.19 C859.591,277.95 860.596,280.164 860.596,282.831 C860.596,287.32 858.289,291.518 853.675,295.424 C848.987,299.331 843.971,301.284 838.628,301.284 C835.503,301.284 832.867,300.471 830.721,298.846 C828.701,297.086 827.69,294.872 827.69,292.206 C827.69,287.716 830.034,283.518 834.721,279.612 C839.284,275.706 844.263,273.752 849.659,273.752"/>
<path class="Note" d="M1003.83,273.752 C1006.96,273.752 1009.6,274.565 1011.76,276.19 C1013.77,277.95 1014.77,280.164 1014.77,282.831 C1014.77,287.32 1012.46,291.518 1007.85,295.424 C1003.16,299.331 998.147,301.284 992.803,301.284 C989.678,301.284 987.043,300.471 984.897,298.846 C982.876,297.086 981.866,294.872 981.866,292.206 C981.866,287.716 984.209,283.518 988.897,279.612 C993.459,275.706 998.439,273.752 1003.83,273.752"/>
<path class="Note" d="M1107.97,286.253 C1111.09,286.253 1113.73,287.066 1115.89,288.691 C1117.9,290.451 1118.91,292.665 1118.91,295.331 C1118.91,299.821 1116.6,304.019 1111.98,307.925 C1107.3,311.831 1102.28,313.785 1096.94,313.785 C1093.81,313.785 1091.18,312.972 1089.03,311.347 C1087.01,309.587 1086,307.373 1086,304.706 C1086,300.217 1088.34,296.019 1093.03,292.113 C1097.59,288.206 1102.57,286.253 1107.97,286.253"/>
<path class="Note" d="M1212.1,298.754 C1215.23,298.754 1217.87,299.567 1220.02,301.192 C1222.03,302.952 1223.04,305.166 1223.04,307.832 C1223.04,312.322 1220.73,316.52 1216.12,320.426 C1211.43,324.332 1206.41,326.285 1201.07,326.285 C1197.94,326.285 1195.31,325.473 1193.16,323.848 C1191.14,322.087 1190.13,319.874 1190.13,317.207 C1190.13,312.718 1192.48,308.52 1197.16,304.613 C1201.73,300.707 1206.71,298.754 1212.1,298.754"/>
<path class="Note" d="M1366.28,323.756 C1369.4,323.756 1372.04,324.568 1374.2,326.193 C1376.21,327.954 1377.21,330.167 1377.21,332.834 C1377.21,337.323 1374.91,341.521 1370.29,345.428 C1365.6,349.334 1360.59,351.287 1355.25,351.287 C1352.12,351.287 1349.48,350.474 1347.34,348.849 C1345.32,347.089 1344.31,344.875 1344.31,342.209 C1344.31,337.719 1346.65,333.521 1351.34,329.615 C1355.9,325.709 1360.88,323.756 1366.28,323.756"/>
<path class="Note" d="M1479.05,323.756 C1482.17,323.756 1484.81,324.568 1486.97,326.193 C1488.98,327.954 1489.98,330.167 1489.98,332.834 C1489.98,337.323 1487.68,341.521 1483.06,345.428 C1478.37,349.334 1473.36,351.287 1468.01,351.287 C1464.89,351.287 1462.25,350.474 1460.11,348.849 C1458.09,347.089 1457.08,344.875 1457.08,342.209 C1457.08,337.719 1459.42,333.521 1464.11,329.615 C1468.67,325.709 1473.65,323.756 1479.05,323.756"/>
<path class="Note" d="M1591.81,336.256 C1594.94,336.256 1597.58,337.069 1599.74,338.694 C1601.75,340.454 1602.75,342.668 1602.75,345.335 C1602.75,349.824 1600.44,354.022 1595.83,357.928 C1591.14,361.835 1586.13,363.788 1580.78,363.788 C1577.66,363.788 1575.02,362.975 1572.88,361.35 C1570.86,359.59 1569.85,357.376 1569.85,354.71 C1569.85,350.22 1572.19,346.022 1576.88,342.116 C1581.44,338.21 1586.42,336.256 1591.81,336.256"/>
<path class="Note" d="M266.022,836.713 C269.147,836.713 271.787,837.526 273.943,839.151 C275.954,840.911 276.959,843.125 276.959,845.791 C276.959,850.281 274.652,854.479 270.037,858.385 C265.35,862.291 260.334,864.244 254.99,864.244 C251.865,864.244 249.23,863.432 247.084,861.807 C245.063,860.046 244.053,857.833 244.053,855.166 C244.053,850.677 246.397,846.479 251.084,842.572 C255.647,838.666 260.626,836.713 266.022,836.713"/>
<path class="Note" d="M371.797,824.212 C374.922,824.212 377.562,825.025 379.719,826.65 C381.729,828.41 382.734,830.624 382.734,833.29 C382.734,837.78 380.427,841.978 375.812,845.884 C371.125,849.79 366.109,851.744 360.766,851.744 C357.641,851.744 355.005,850.931 352.859,849.306 C350.839,847.546 349.828,845.332 349.828,842.665 C349.828,838.176 352.172,833.978 356.859,830.072 C361.422,826.165 366.401,824.212 371.797,824.212"/>
<path class="Note" d="M477.572,799.211 C480.697,799.211 483.338,800.023 485.494,801.648 C487.504,803.409 488.51,805.622 488.51,808.289 C488.51,812.778 486.202,816.976 481.588,820.883 C476.9,824.789 471.885,826.742 466.541,826.742 C463.416,826.742 460.78,825.93 458.635,824.305 C456.614,822.544 455.603,820.331 455.603,817.664 C455.603,813.174 457.947,808.976 462.635,805.07 C467.197,801.164 472.176,799.211 477.572,799.211"/>
<path class="Note" d="M633.39,799.211 C636.515,799.211 639.155,800.023 641.311,801.648 C643.322,803.409 644.327,805.622 644.327,808.289 C644.327,812.778 642.02,816.976 637.405,820.883 C632.718,824.789 627.702,826.742 622.358,826.742 C619.233,826.742 616.598,825.93 614.452,824.305 C612.431,822.544 611.421,820.331 611.421,817.664 C611.421,813.174 613.765,808.976 618.452,805.07 C623.015,801.164 627.994,799.211 633.39,799.211"/>
<path class="Note" d="M742.789,774.209 C745.914,774.209 748.555,775.022 750.711,776.647 C752.722,778.407 753.727,780.621 753.727,783.287 C753.727,787.777 751.42,791.975 746.805,795.881 C742.118,799.787 737.102,801.74 731.758,801.74 C728.633,801.74 725.998,800.928 723.852,799.303 C721.831,797.543 720.821,795.329 720.821,792.662 C720.821,788.173 723.164,783.975 727.852,780.069 C732.414,776.162 737.394,774.209 742.789,774.209"/>
<path class="Note" d="M1217.02,774.209 C1220.15,774.209 1222.79,775.022 1224.94,776.647 C1226.95,778.407 1227.96,780.621 1227.96,783.287 C1227.96,787.777 1225.65,791.975 1221.04,795.881 C1216.35,799.787 1211.33,801.74 1205.99,801.74 C1202.87,801.74 1200.23,800.928 1198.08,799.303 C1196.06,797.543 1195.05,795.329 1195.05,792.662 C1195.05,788.173 1197.4,783.975 1202.08,780.069 C1206.65,776.162 1211.63,774.209 1217.02,774.209"/>
<path class="Note" d="M852.189,674.203 C855.314,674.203 857.955,675.015 860.111,676.64 C862.121,678.401 863.127,680.614 863.127,683.281 C863.127,687.771 860.819,691.969 856.205,695.875 C851.517,699.781 846.502,701.734 841.158,701.734 C838.033,701.734 835.398,700.922 833.252,699.297 C831.231,697.536 830.22,695.323 830.22,692.656 C830.22,688.166 832.564,683.969 837.252,680.062 C841.814,676.156 846.793,674.203 852.189,674.203"/>
<path class="Note" d="M1011.63,661.702 C1014.76,661.702 1017.4,662.515 1019.55,664.14 C1021.56,665.9 1022.57,668.114 1022.57,670.78 C1022.57,675.27 1020.26,679.468 1015.65,683.374 C1010.96,687.28 1005.94,689.233 1000.6,689.233 C997.475,689.233 994.84,688.421 992.694,686.796 C990.673,685.035 989.662,682.822 989.662,680.155 C989.662,675.666 992.006,671.468 996.694,667.561 C1001.26,663.655 1006.24,661.702 1011.63,661.702"/>
<path class="Note" d="M1114.33,674.203 C1117.45,674.203 1120.09,675.015 1122.25,676.64 C1124.26,678.401 1125.26,680.614 1125.26,683.281 C1125.26,687.771 1122.96,691.969 1118.34,695.875 C1113.65,699.781 1108.64,701.734 1103.3,701.734 C1100.17,701.734 1097.53,700.922 1095.39,699.297 C1093.37,697.536 1092.36,695.323 1092.36,692.656 C1092.36,688.166 1094.7,683.969 1099.39,680.062 C1103.95,676.156 1108.93,674.203 1114.33,674.203"/>
<path class="Note" d="M1374.76,674.203 C1377.88,674.203 1380.53,675.015 1382.68,676.64 C1384.69,678.401 1385.7,680.614 1385.7,683.281 C1385.7,687.771 1383.39,691.969 1378.78,695.875 C1374.09,699.781 1369.07,701.734 1363.73,701.734 C1360.6,701.734 1357.97,700.922 1355.82,699.297 C1353.8,697.536 1352.79,695.323 1352.79,692.656 C1352.79,688.166 1355.13,683.969 1359.82,680.062 C1364.38,676.156 1369.36,674.203 1374.76,674.203"/>
<path class="Clef" d="M134.908,303.629 C133.934,302.65 133.447,301.444 133.447,300.012 C133.447,298.58 133.934,297.376 134.908,296.402 C135.882,295.429 137.085,294.942 138.517,294.942 C139.95,294.942 141.155,295.429 142.135,296.402 C143.114,297.376 143.603,298.58 143.603,300.012 C143.603,301.444 143.114,302.65 142.135,303.629 C141.155,304.608 139.95,305.098 138.517,305.098 C137.085,305.098 135.882,304.608 134.908,303.629 M134.908,328.637 C133.934,327.663 133.447,326.46 133.447,325.027 C133.447,323.595 133.934,322.389 134.908,321.41 C135.882,320.431 137.085,319.942 138.517,319.942 C139.95,319.942 141.155,320.431 142.135,321.41 C143.114,322.389 143.603,323.595 143.603,325.027 C143.603,326.46 143.114,327.663 142.135,328.637 C141.155,329.611 139.95,330.098 138.517,330.098 C137.085,330.098 135.882,329.611 134.908,328.637 M101.025,286.254 C109.681,286.254 116.775,288.431 122.306,292.785 C127.65,297.348 130.322,303.535 130.322,311.348 C130.322,316.619 129.28,321.436 127.197,325.801 C125.239,330.363 122.666,334.4 119.478,337.91 C116.218,341.494 112.28,344.879 107.666,348.067 C103.166,351.192 98.5408,353.994 93.7908,356.473 C84.0929,361.348 78.7544,363.785 77.7752,363.785 C76.9314,363.785 76.5096,363.363 76.5096,362.52 C76.5096,362.197 76.6398,361.905 76.9002,361.645 C80.2231,359.686 84.2908,357.181 89.1033,354.129 C92.2283,352.108 95.8741,349.306 100.041,345.723 C104.082,342.337 107.207,339.15 109.416,336.16 C111.697,333.223 113.78,329.577 115.666,325.223 C117.291,320.858 118.103,316.556 118.103,312.317 C118.103,306.004 116.541,300.504 113.416,295.817 C110.291,291.129 106.161,288.785 101.025,288.785 C97.3794,288.785 94.2544,289.957 91.6502,292.301 C88.8481,294.707 86.8273,297.733 85.5877,301.379 C86.8273,300.858 87.9679,300.598 89.0096,300.598 C91.7387,300.598 94.0825,301.577 96.0408,303.535 C97.9887,305.619 98.9627,307.994 98.9627,310.66 C98.9627,313.462 98.02,315.973 96.1346,318.192 C94.1137,320.202 91.7387,321.207 89.0096,321.207 C86.0825,321.207 83.4471,320.202 81.1033,318.192 C78.8846,315.973 77.7752,313.462 77.7752,310.66 C77.7752,303.952 80.0564,298.223 84.6189,293.473 C89.1085,288.66 94.5773,286.254 101.025,286.254"/>
<path class="Clef" d="M134.908,804.086 C133.934,803.107 133.447,801.901 133.447,800.469 C133.447,799.036 133.934,797.833 134.908,796.859 C135.882,795.885 137.085,795.398 138.517,795.398 C139.95,795.398 141.155,795.885 142.135,796.859 C143.114,797.833 143.603,799.036 143.603,800.469 C143.603,801.901 143.114,803.107 142.135,804.086 C141.155,805.065 139.95,805.555 138.517,805.555 C137.085,805.555 135.882,805.065 134.908,804.086 M134.908,829.094 C133.934,828.12 133.447,826.916 133.447,825.484 C133.447,824.052 133.934,822.846 134.908,821.867 C135.882,820.888 137.085,820.398 138.517,820.398 C139.95,820.398 141.155,820.888 142.135,821.867 C143.114,822.846 143.603,824.052 143.603,825.484 C143.603,826.916 143.114,828.12 142.135,829.094 C141.155,830.068 139.95,830.555 138.517,830.555 C137.085,830.555 135.882,830.068 134.908,829.094 M101.025,786.711 C109.681,786.711 116.775,788.888 122.306,793.242 C127.65,797.805 130.322,803.992 130.322,811.805 C130.322,817.075 129.28,821.893 127.197,826.258 C125.239,830.82 122.666,834.857 119.478,838.367 C116.218,841.95 112.28,845.336 107.666,848.523 C103.166,851.648 98.5408,854.45 93.7908,856.93 C84.0929,861.805 78.7544,864.242 77.7752,864.242 C76.9314,864.242 76.5096,863.82 76.5096,862.976 C76.5096,862.653 76.6398,862.362 76.9002,862.101 C80.2231,860.143 84.2908,857.638 89.1033,854.586 C92.2283,852.565 95.8741,849.763 100.041,846.18 C104.082,842.794 107.207,839.607 109.416,836.617 C111.697,833.68 113.78,830.034 115.666,825.68 C117.291,821.315 118.103,817.013 118.103,812.773 C118.103,806.461 116.541,800.961 113.416,796.273 C110.291,791.586 106.161,789.242 101.025,789.242 C97.3794,789.242 94.2544,790.414 91.6502,792.758 C88.8481,795.164 86.8273,798.19 85.5877,801.836 C86.8273,801.315 87.9679,801.055 89.0096,801.055 C91.7387,801.055 94.0825,802.034 96.0408,803.992 C97.9887,806.075 98.9627,808.45 98.9627,811.117 C98.9627,813.919 98.02,816.43 96.1346,818.648 C94.1137,820.659 91.7387,821.664 89.0096,821.664 C86.0825,821.664 83.4471,820.659 81.1033,818.648 C78.8846,816.43 77.7752,813.919 77.7752,811.117 C77.7752,804.409 80.0564,798.68 84.6189,793.93 C89.1085,789.117 94.5773,786.711 101.025,786.711"/>
<path class="Clef" d="M114.494,111.915 C114.494,111.915 114.692,111.915 115.088,111.915 C115.348,111.852 115.572,111.821 115.76,111.821 C123.051,111.821 129.041,114.394 133.728,119.54 C138.416,124.613 140.76,130.535 140.76,137.306 C140.76,145.712 137.28,152.55 130.322,157.821 C128.499,159.259 126.119,160.431 123.181,161.337 C123.515,165.566 123.681,168.983 123.681,171.587 C123.681,172.108 123.614,173.998 123.478,177.259 C123.218,183.311 121.135,188.55 117.228,192.977 C113.457,197.342 108.77,199.524 103.166,199.524 C97.895,199.524 93.4054,197.67 89.6971,193.962 C85.9783,190.181 84.1189,185.623 84.1189,180.29 C84.1189,177.488 85.1971,175.108 87.3533,173.149 C89.5616,171.201 92.1294,170.227 95.0564,170.227 C97.6606,170.227 99.8429,171.238 101.603,173.259 C103.426,175.144 104.338,177.488 104.338,180.29 C104.338,182.821 103.426,184.998 101.603,186.821 C99.7804,188.644 97.5981,189.556 95.0564,189.556 C94.0148,189.556 93.0096,189.363 92.0408,188.977 C94.9054,193.207 98.7127,195.321 103.463,195.321 C107.952,195.321 111.629,193.498 114.494,189.852 C117.494,186.082 119.124,181.686 119.385,176.665 C119.51,173.54 119.572,171.753 119.572,171.306 C119.572,167.66 119.442,164.665 119.181,162.321 C115.931,162.842 113.036,163.102 110.494,163.102 C101.442,163.102 93.7283,159.519 87.3533,152.352 C81.1033,145.123 77.9783,136.529 77.9783,126.571 C77.9783,124.488 78.171,122.373 78.5564,120.227 C78.9523,118.467 79.4419,116.545 80.0252,114.462 C80.3481,113.285 81.2283,111.394 82.6658,108.79 C83.1866,108.009 83.7726,107.032 84.4236,105.86 C85.0747,104.688 85.5304,103.91 85.7908,103.524 C86.4366,102.222 87.7023,100.462 89.5877,98.243 C90.1085,97.6597 90.6476,97.0113 91.2049,96.2977 C91.7622,95.5842 92.2361,94.9982 92.6267,94.5399 C93.0174,94.0816 93.309,93.7222 93.5017,93.4618 C93.6945,93.2014 95.1606,91.4774 97.9002,88.2899 C98.546,87.6337 99.1788,86.9331 99.7986,86.1883 C100.418,85.4436 100.924,84.8576 101.314,84.4305 C101.705,84.0035 101.999,83.6962 102.197,83.5087 C99.8533,75.7587 98.3846,69.5712 97.7908,64.9462 C97.3429,61.2378 97.1189,56.1597 97.1189,49.7118 C97.1189,44.0451 98.421,38.7378 101.025,33.7899 C103.556,28.6545 107.103,24.4566 111.666,21.1962 C111.926,20.9982 112.249,20.8993 112.635,20.8993 C113.093,20.8993 113.421,20.9982 113.619,21.1962 C117.129,25.4253 120.155,30.9253 122.697,37.6962 C125.301,44.467 126.603,50.6232 126.603,56.1649 C126.603,62.4149 125.109,68.2743 122.119,73.743 C118.734,79.5347 114.369,85.5243 109.025,91.7118 C110.39,96.0035 112.213,102.738 114.494,111.915 M122.791,157.337 C126.176,156.097 128.817,153.983 130.713,150.993 C132.796,148.128 133.838,144.904 133.838,141.321 C133.838,136.696 132.275,132.592 129.15,129.009 C125.952,125.3 121.879,123.217 116.931,122.759 C119.734,136.498 121.687,148.024 122.791,157.337 M85.0096,134.774 C85.0096,141.222 87.6137,146.889 92.8221,151.774 C98.1554,156.524 104.145,158.899 110.791,158.899 C113.52,158.899 116.187,158.701 118.791,158.306 C117.749,148.41 115.697,136.561 112.635,122.759 C108.926,123.154 105.968,124.457 103.76,126.665 C101.603,128.946 100.525,131.519 100.525,134.384 C100.525,139.332 103.166,143.337 108.447,146.399 C108.895,146.858 109.119,147.347 109.119,147.868 C109.119,148.389 108.895,148.873 108.447,149.321 C108.051,149.779 107.562,150.009 106.978,150.009 C106.916,150.009 106.624,149.946 106.103,149.821 C102.385,147.8 99.52,145.196 97.5096,142.009 C95.6137,138.613 94.6658,135.191 94.6658,131.743 C94.6658,127.253 96.0669,123.186 98.8689,119.54 C101.796,115.894 105.603,113.55 110.291,112.509 C108.468,105.217 106.973,99.5191 105.806,95.4149 C104.765,96.592 103.512,98.0087 102.049,99.6649 C100.585,101.321 99.7231,102.316 99.4627,102.649 C97.1189,105.701 95.3273,108.076 94.0877,109.774 C91.8689,112.837 90.2387,115.472 89.1971,117.681 C88.0929,120.16 87.1189,122.863 86.2752,125.79 C85.4314,128.592 85.0096,131.587 85.0096,134.774 M117.619,35.4618 C112.734,37.868 108.895,41.316 106.103,45.8055 C103.239,50.4305 101.806,55.4097 101.806,60.743 C101.806,65.4305 102.978,71.7482 105.322,79.6962 C110.01,74.0295 113.525,68.7899 115.869,63.9774 C118.338,58.8941 119.572,53.5868 119.572,48.0555 C119.572,43.8889 118.921,39.691 117.619,35.4618"/>
<path class="Clef" d="M114.494,612.372 C114.494,612.372 114.692,612.372 115.088,612.372 C115.348,612.309 115.572,612.278 115.76,612.278 C123.051,612.278 129.041,614.851 133.728,619.997 C138.416,625.07 140.76,630.991 140.76,637.762 C140.76,646.168 137.28,653.007 130.322,658.278 C128.499,659.715 126.119,660.887 123.181,661.793 C123.515,666.023 123.681,669.439 123.681,672.043 C123.681,672.564 123.614,674.455 123.478,677.715 C123.218,683.767 121.135,689.007 117.228,693.434 C113.457,697.799 108.77,699.981 103.166,699.981 C97.895,699.981 93.4054,698.127 89.6971,694.418 C85.9783,690.637 84.1189,686.08 84.1189,680.747 C84.1189,677.945 85.1971,675.564 87.3533,673.606 C89.5616,671.658 92.1294,670.684 95.0564,670.684 C97.6606,670.684 99.8429,671.695 101.603,673.715 C103.426,675.601 104.338,677.945 104.338,680.747 C104.338,683.278 103.426,685.455 101.603,687.278 C99.7804,689.101 97.5981,690.012 95.0564,690.012 C94.0148,690.012 93.0096,689.82 92.0408,689.434 C94.9054,693.663 98.7127,695.778 103.463,695.778 C107.952,695.778 111.629,693.955 114.494,690.309 C117.494,686.538 119.124,682.142 119.385,677.122 C119.51,673.997 119.572,672.21 119.572,671.762 C119.572,668.116 119.442,665.122 119.181,662.778 C115.931,663.299 113.036,663.559 110.494,663.559 C101.442,663.559 93.7283,659.976 87.3533,652.809 C81.1033,645.58 77.9783,636.986 77.9783,627.028 C77.9783,624.945 78.171,622.83 78.5564,620.684 C78.9523,618.924 79.4419,617.002 80.0252,614.918 C80.3481,613.741 81.2283,611.851 82.6658,609.247 C83.1866,608.465 83.7726,607.489 84.4236,606.317 C85.0747,605.145 85.5304,604.366 85.7908,603.981 C86.4366,602.679 87.7023,600.918 89.5877,598.7 C90.1085,598.116 90.6476,597.468 91.2049,596.754 C91.7622,596.041 92.2361,595.455 92.6267,594.997 C93.0174,594.538 93.309,594.179 93.5017,593.918 C93.6945,593.658 95.1606,591.934 97.9002,588.747 C98.546,588.09 99.1788,587.39 99.7986,586.645 C100.418,585.9 100.924,585.314 101.314,584.887 C101.705,584.46 101.999,584.153 102.197,583.965 C99.8533,576.215 98.3846,570.028 97.7908,565.403 C97.3429,561.695 97.1189,556.616 97.1189,550.168 C97.1189,544.502 98.421,539.195 101.025,534.247 C103.556,529.111 107.103,524.913 111.666,521.653 C111.926,521.455 112.249,521.356 112.635,521.356 C113.093,521.356 113.421,521.455 113.619,521.653 C117.129,525.882 120.155,531.382 122.697,538.153 C125.301,544.924 126.603,551.08 126.603,556.622 C126.603,562.872 125.109,568.731 122.119,574.2 C118.734,579.991 114.369,585.981 109.025,592.168 C110.39,596.46 112.213,603.195 114.494,612.372 M122.791,657.793 C126.176,656.554 128.817,654.439 130.713,651.45 C132.796,648.585 133.838,645.361 133.838,641.778 C133.838,637.153 132.275,633.049 129.15,629.465 C125.952,625.757 121.879,623.674 116.931,623.215 C119.734,636.955 121.687,648.481 122.791,657.793 M85.0096,635.231 C85.0096,641.679 87.6137,647.346 92.8221,652.231 C98.1554,656.981 104.145,659.356 110.791,659.356 C113.52,659.356 116.187,659.158 118.791,658.762 C117.749,648.866 115.697,637.017 112.635,623.215 C108.926,623.611 105.968,624.913 103.76,627.122 C101.603,629.403 100.525,631.976 100.525,634.84 C100.525,639.788 103.166,643.793 108.447,646.856 C108.895,647.314 109.119,647.804 109.119,648.325 C109.119,648.846 108.895,649.33 108.447,649.778 C108.051,650.236 107.562,650.465 106.978,650.465 C106.916,650.465 106.624,650.403 106.103,650.278 C102.385,648.257 99.52,645.653 97.5096,642.465 C95.6137,639.07 94.6658,635.648 94.6658,632.2 C94.6658,627.71 96.0669,623.642 98.8689,619.997 C101.796,616.351 105.603,614.007 110.291,612.965 C108.468,605.674 106.973,599.976 105.806,595.872 C104.765,597.049 103.512,598.465 102.049,600.122 C100.585,601.778 99.7231,602.773 99.4627,603.106 C97.1189,606.158 95.3273,608.533 94.0877,610.231 C91.8689,613.293 90.2387,615.929 89.1971,618.137 C88.0929,620.616 87.1189,623.32 86.2752,626.247 C85.4314,629.049 85.0096,632.043 85.0096,635.231 M117.619,535.918 C112.734,538.325 108.895,541.773 106.103,546.262 C103.239,550.887 101.806,555.866 101.806,561.2 C101.806,565.887 102.978,572.205 105.322,580.153 C110.01,574.486 113.525,569.247 115.869,564.434 C118.338,559.351 119.572,554.043 119.572,548.512 C119.572,544.346 118.921,540.148 117.619,535.918"/>
<path class="Bracket" fill-rule="evenodd" d="M42.0424,178.138 C42.0424,151.953 21.9268,126.501 21.9268,101.415 C21.9268,88.7802 27.4129,76.5119 44.3282,65.5253 C44.5568,65.3879 44.6711,65.159 44.6711,65.0217 C44.6711,64.6097 43.4139,64.2435 42.4995,64.2435 C42.0424,64.2435 41.2423,64.2893 40.6708,64.6097 C18.7266,78.7092 11.4119,95.006 11.4119,111.486 C11.4119,138.037 32.8989,163.672 32.8989,189.125 C32.8989,201.759 27.4129,213.661 10.4975,224.648 L10.4975,225.014 L10.4975,225.38 C27.4129,236.367 32.8989,248.269 32.8989,260.904 C32.8989,286.356 11.4119,311.991 11.4119,338.542 C11.4119,355.022 18.7266,371.319 40.6708,385.419 C41.2423,385.739 42.0424,385.785 42.4995,385.785 C43.4139,385.785 44.6711,385.419 44.6711,385.007 C44.6711,384.869 44.5568,384.64 44.3282,384.503 C27.4129,373.516 21.9268,361.248 21.9268,348.614 C21.9268,323.527 42.0424,298.075 42.0424,271.89 C42.0424,255.227 34.7276,239.297 13.2405,225.014 C34.7276,210.732 42.0424,194.801 42.0424,178.138"/>
<path class="Bracket" fill-rule="evenodd" d="M42.0424,678.595 C42.0424,652.41 21.9268,626.958 21.9268,601.872 C21.9268,589.237 27.4129,576.969 44.3282,565.982 C44.5568,565.845 44.6711,565.616 44.6711,565.478 C44.6711,565.066 43.4139,564.7 42.4995,564.7 C42.0424,564.7 41.2423,564.746 40.6708,565.066 C18.7266,579.166 11.4119,595.463 11.4119,611.943 C11.4119,638.494 32.8989,664.129 32.8989,689.581 C32.8989,702.216 27.4129,714.118 10.4975,725.105 L10.4975,725.471 L10.4975,725.837 C27.4129,736.824 32.8989,748.726 32.8989,761.36 C32.8989,786.813 11.4119,812.448 11.4119,838.999 C11.4119,855.479 18.7266,871.776 40.6708,885.875 C41.2423,886.196 42.0424,886.242 42.4995,886.242 C43.4139,886.242 44.6711,885.875 44.6711,885.463 C44.6711,885.326 44.5568,885.097 44.3282,884.96 C27.4129,873.973 21.9268,861.705 21.9268,849.07 C21.9268,823.984 42.0424,798.532 42.0424,772.347 C42.0424,755.684 34.7276,739.753 13.2405,725.471 C34.7276,711.188 42.0424,695.258 42.0424,678.595"/>
</svg>
