<?xml version="1.0" encoding="UTF-8" standalone="no"?>
<svg width="1346.46px" height="212.598px" viewBox="0 0 1346.46 212.598"
 xmlns="http://www.w3.org/2000/svg" xmlns:xlink="http://www.w3.org/1999/xlink" version="1.2" baseProfile="tiny">
<title>treble_clef_5_black_notes</title>
<desc>Generated by MuseScore 3.4.2</desc>
<polyline class="StaffLines" fill="none" stroke="#000000" stroke-width="2.00" stroke-linejoin="bevel" points="0,42.5027 1346.46,42.5027"/>
<polyline class="StaffLines" fill="none" stroke="#000000" stroke-width="2.00" stroke-linejoin="bevel" points="0,67.5043 1346.46,67.5043"/>
<polyline class="StaffLines" fill="none" stroke="#000000" stroke-width="2.00" stroke-linejoin="bevel" points="0,92.5058 1346.46,92.5058"/>
<polyline class="StaffLines" fill="none" stroke="#000000" stroke-width="2.00" stroke-linejoin="bevel" points="0,117.507 1346.46,117.507"/>
<polyline class="StaffLines" fill="none" stroke="#000000" stroke-width="2.00" stroke-linejoin="bevel" points="0,142.509 1346.46,142.509"/>
<polyline class="BarLine" fill="none" stroke="#000000" stroke-width="4.00" stroke-linejoin="bevel" points="695.495,41.5026 695.495,143.509"/>
<path class="Accidental" d="M141.036,198.667 C141.036,199.906 140.419,200.526 139.185,200.526 C137.95,200.526 137.333,199.906 137.333,198.667 L137.333,184.214 L129.036,187.339 L129.036,203.151 C129.036,204.391 128.416,205.011 127.177,205.011 C125.937,205.011 125.317,204.391 125.317,203.151 L125.317,188.604 L122.192,189.776 C122.13,189.839 121.869,189.87 121.411,189.87 C120.89,189.87 120.435,189.675 120.044,189.284 C119.653,188.893 119.458,188.438 119.458,187.917 L119.458,181.87 C119.458,180.891 119.88,180.271 120.724,180.011 L125.317,178.448 L125.317,162.432 L122.192,163.511 C122.13,163.573 121.869,163.604 121.411,163.604 C120.89,163.604 120.435,163.409 120.044,163.018 C119.653,162.628 119.458,162.172 119.458,161.651 L119.458,155.589 C119.458,154.682 119.88,154.099 120.724,153.839 L125.317,152.073 L125.317,136.354 C125.317,135.115 125.937,134.495 127.177,134.495 C128.416,134.495 129.036,135.115 129.036,136.354 L129.036,150.807 L137.333,147.682 L137.333,131.87 C137.333,130.63 137.95,130.011 139.185,130.011 C140.419,130.011 141.036,130.63 141.036,131.87 L141.036,146.417 L144.271,145.245 C144.333,145.182 144.557,145.151 144.942,145.151 C145.401,145.151 145.89,145.344 146.411,145.729 C146.807,146.125 147.005,146.583 147.005,147.104 L147.005,153.151 C147.005,154.068 146.547,154.688 145.63,155.011 L141.036,156.573 L141.036,172.589 L144.271,171.511 C144.333,171.448 144.557,171.417 144.942,171.417 C145.401,171.417 145.89,171.615 146.411,172.011 C146.807,172.396 147.005,172.849 147.005,173.37 L147.005,179.432 C147.005,180.276 146.547,180.86 145.63,181.182 L141.036,182.948 L141.036,198.667 M137.333,158.042 L129.036,160.964 L129.036,176.979 L137.333,174.057 L137.333,158.042 "/>
<path class="Accidental" d="M253.236,186.166 C253.236,187.406 252.618,188.025 251.384,188.025 C250.15,188.025 249.532,187.406 249.532,186.166 L249.532,171.713 L241.236,174.838 L241.236,190.65 C241.236,191.89 240.616,192.51 239.376,192.51 C238.137,192.51 237.517,191.89 237.517,190.65 L237.517,176.104 L234.392,177.275 C234.329,177.338 234.069,177.369 233.611,177.369 C233.09,177.369 232.634,177.174 232.243,176.783 C231.853,176.393 231.657,175.937 231.657,175.416 L231.657,169.369 C231.657,168.39 232.079,167.77 232.923,167.51 L237.517,165.947 L237.517,149.932 L234.392,151.01 C234.329,151.072 234.069,151.104 233.611,151.104 C233.09,151.104 232.634,150.908 232.243,150.518 C231.853,150.127 231.657,149.671 231.657,149.15 L231.657,143.088 C231.657,142.182 232.079,141.598 232.923,141.338 L237.517,139.572 L237.517,123.854 C237.517,122.614 238.137,121.994 239.376,121.994 C240.616,121.994 241.236,122.614 241.236,123.854 L241.236,138.307 L249.532,135.182 L249.532,119.369 C249.532,118.13 250.15,117.51 251.384,117.51 C252.618,117.51 253.236,118.13 253.236,119.369 L253.236,133.916 L256.47,132.744 C256.532,132.682 256.756,132.65 257.142,132.65 C257.6,132.65 258.09,132.843 258.611,133.229 C259.006,133.624 259.204,134.083 259.204,134.604 L259.204,140.65 C259.204,141.567 258.746,142.187 257.829,142.51 L253.236,144.072 L253.236,160.088 L256.47,159.01 C256.532,158.947 256.756,158.916 257.142,158.916 C257.6,158.916 258.09,159.114 258.611,159.51 C259.006,159.895 259.204,160.348 259.204,160.869 L259.204,166.932 C259.204,167.775 258.746,168.359 257.829,168.682 L253.236,170.447 L253.236,186.166 M249.532,145.541 L241.236,148.463 L241.236,164.479 L249.532,161.557 L249.532,145.541 "/>
<path class="Accidental" d="M360.435,161.164 C360.435,162.404 359.817,163.024 358.583,163.024 C357.349,163.024 356.732,162.404 356.732,161.164 L356.732,146.711 L348.435,149.836 L348.435,165.649 C348.435,166.888 347.815,167.508 346.575,167.508 C345.336,167.508 344.716,166.888 344.716,165.649 L344.716,151.102 L341.591,152.274 C341.528,152.336 341.268,152.368 340.81,152.368 C340.289,152.368 339.833,152.172 339.442,151.782 C339.052,151.391 338.857,150.935 338.857,150.414 L338.857,144.368 C338.857,143.388 339.278,142.769 340.122,142.508 L344.716,140.946 L344.716,124.93 L341.591,126.008 C341.528,126.071 341.268,126.102 340.81,126.102 C340.289,126.102 339.833,125.907 339.442,125.516 C339.052,125.125 338.857,124.67 338.857,124.149 L338.857,118.086 C338.857,117.18 339.278,116.597 340.122,116.336 L344.716,114.571 L344.716,98.8519 C344.716,97.6124 345.336,96.9926 346.575,96.9926 C347.815,96.9926 348.435,97.6124 348.435,98.8519 L348.435,113.305 L356.732,110.18 L356.732,94.3676 C356.732,93.128 357.349,92.5082 358.583,92.5082 C359.817,92.5082 360.435,93.128 360.435,94.3676 L360.435,108.914 L363.669,107.743 C363.732,107.68 363.955,107.649 364.341,107.649 C364.799,107.649 365.289,107.842 365.81,108.227 C366.205,108.623 366.403,109.081 366.403,109.602 L366.403,115.649 C366.403,116.565 365.945,117.185 365.028,117.508 L360.435,119.071 L360.435,135.086 L363.669,134.008 C363.732,133.946 363.955,133.914 364.341,133.914 C364.799,133.914 365.289,134.112 365.81,134.508 C366.205,134.894 366.403,135.347 366.403,135.868 L366.403,141.93 C366.403,142.774 365.945,143.357 365.028,143.68 L360.435,145.446 L360.435,161.164 M356.732,120.539 L348.435,123.461 L348.435,139.477 L356.732,136.555 L356.732,120.539 "/>
<path class="Accidental" d="M467.634,148.664 C467.634,149.903 467.017,150.523 465.782,150.523 C464.548,150.523 463.931,149.903 463.931,148.664 L463.931,134.211 L455.634,137.336 L455.634,153.148 C455.634,154.388 455.014,155.007 453.774,155.007 C452.535,155.007 451.915,154.388 451.915,153.148 L451.915,138.601 L448.79,139.773 C448.727,139.836 448.467,139.867 448.009,139.867 C447.488,139.867 447.032,139.671 446.642,139.281 C446.251,138.89 446.056,138.434 446.056,137.914 L446.056,131.867 C446.056,130.888 446.477,130.268 447.321,130.007 L451.915,128.445 L451.915,112.429 L448.79,113.507 C448.727,113.57 448.467,113.601 448.009,113.601 C447.488,113.601 447.032,113.406 446.642,113.015 C446.251,112.625 446.056,112.169 446.056,111.648 L446.056,105.586 C446.056,104.679 446.477,104.096 447.321,103.836 L451.915,102.07 L451.915,86.3512 C451.915,85.1116 452.535,84.4918 453.774,84.4918 C455.014,84.4918 455.634,85.1116 455.634,86.3512 L455.634,100.804 L463.931,97.6793 L463.931,81.8668 C463.931,80.6272 464.548,80.0074 465.782,80.0074 C467.017,80.0074 467.634,80.6272 467.634,81.8668 L467.634,96.4137 L470.868,95.2418 C470.931,95.1793 471.155,95.148 471.54,95.148 C471.998,95.148 472.488,95.3407 473.009,95.7262 C473.405,96.122 473.602,96.5803 473.602,97.1012 L473.602,103.148 C473.602,104.065 473.144,104.684 472.227,105.007 L467.634,106.57 L467.634,122.586 L470.868,121.507 C470.931,121.445 471.155,121.414 471.54,121.414 C471.998,121.414 472.488,121.612 473.009,122.007 C473.405,122.393 473.602,122.846 473.602,123.367 L473.602,129.429 C473.602,130.273 473.144,130.856 472.227,131.179 L467.634,132.945 L467.634,148.664 M463.931,108.039 L455.634,110.961 L455.634,126.976 L463.931,124.054 L463.931,108.039 "/>
<path class="Accidental" d="M574.833,136.163 C574.833,137.402 574.216,138.022 572.981,138.022 C571.747,138.022 571.13,137.402 571.13,136.163 L571.13,121.71 L562.833,124.835 L562.833,140.647 C562.833,141.887 562.213,142.507 560.973,142.507 C559.734,142.507 559.114,141.887 559.114,140.647 L559.114,126.1 L555.989,127.272 C555.927,127.335 555.666,127.366 555.208,127.366 C554.687,127.366 554.231,127.171 553.841,126.78 C553.45,126.389 553.255,125.934 553.255,125.413 L553.255,119.366 C553.255,118.387 553.677,117.767 554.52,117.507 L559.114,115.944 L559.114,99.9285 L555.989,101.007 C555.927,101.069 555.666,101.1 555.208,101.1 C554.687,101.1 554.231,100.905 553.841,100.514 C553.45,100.124 553.255,99.6681 553.255,99.1472 L553.255,93.0847 C553.255,92.1785 553.677,91.5952 554.52,91.3347 L559.114,89.5691 L559.114,73.8504 C559.114,72.6108 559.734,71.991 560.973,71.991 C562.213,71.991 562.833,72.6108 562.833,73.8504 L562.833,88.3035 L571.13,85.1785 L571.13,69.366 C571.13,68.1264 571.747,67.5066 572.981,67.5066 C574.216,67.5066 574.833,68.1264 574.833,69.366 L574.833,83.9129 L578.067,82.741 C578.13,82.6785 578.354,82.6472 578.739,82.6472 C579.197,82.6472 579.687,82.8399 580.208,83.2254 C580.604,83.6212 580.802,84.0795 580.802,84.6004 L580.802,90.6472 C580.802,91.5639 580.343,92.1837 579.427,92.5066 L574.833,94.0691 L574.833,110.085 L578.067,109.007 C578.13,108.944 578.354,108.913 578.739,108.913 C579.197,108.913 579.687,109.111 580.208,109.507 C580.604,109.892 580.802,110.345 580.802,110.866 L580.802,116.928 C580.802,117.772 580.343,118.356 579.427,118.678 L574.833,120.444 L574.833,136.163 M571.13,95.5379 L562.833,98.4597 L562.833,114.475 L571.13,111.553 L571.13,95.5379 "/>
<polyline class="LedgerLine" fill="none" stroke="#000000" stroke-width="4.00" stroke-linecap="square" stroke-linejoin="bevel" points="149.999,167.511 197.916,167.511"/>
<path class="Note" d="M179.468,153.745 C182.593,153.745 185.234,154.557 187.39,156.182 C189.401,157.943 190.406,160.156 190.406,162.823 C190.406,167.313 188.098,171.511 183.484,175.417 C178.796,179.323 173.781,181.276 168.437,181.276 C165.312,181.276 162.677,180.464 160.531,178.839 C158.51,177.078 157.499,174.865 157.499,172.198 C157.499,167.708 159.843,163.511 164.531,159.604 C169.093,155.698 174.072,153.745 179.468,153.745"/>
<path class="Note" d="M286.667,141.244 C289.792,141.244 292.433,142.057 294.589,143.682 C296.6,145.442 297.605,147.656 297.605,150.322 C297.605,154.812 295.298,159.01 290.683,162.916 C285.995,166.822 280.98,168.775 275.636,168.775 C272.511,168.775 269.876,167.963 267.73,166.338 C265.709,164.577 264.699,162.364 264.699,159.697 C264.699,155.208 267.042,151.01 271.73,147.104 C276.292,143.197 281.271,141.244 286.667,141.244"/>
<path class="Note" d="M393.866,116.243 C396.991,116.243 399.632,117.055 401.788,118.68 C403.799,120.44 404.804,122.654 404.804,125.321 C404.804,129.81 402.497,134.008 397.882,137.914 C393.195,141.821 388.179,143.774 382.835,143.774 C379.71,143.774 377.075,142.961 374.929,141.336 C372.908,139.576 371.898,137.362 371.898,134.696 C371.898,130.206 374.241,126.008 378.929,122.102 C383.491,118.196 388.471,116.243 393.866,116.243"/>
<path class="Note" d="M501.065,103.742 C504.19,103.742 506.831,104.554 508.987,106.179 C510.998,107.94 512.003,110.153 512.003,112.82 C512.003,117.309 509.696,121.507 505.081,125.414 C500.394,129.32 495.378,131.273 490.034,131.273 C486.909,131.273 484.274,130.461 482.128,128.836 C480.107,127.075 479.097,124.862 479.097,122.195 C479.097,117.705 481.44,113.507 486.128,109.601 C490.69,105.695 495.67,103.742 501.065,103.742"/>
<path class="Note" d="M608.265,91.241 C611.39,91.241 614.03,92.0535 616.186,93.6785 C618.197,95.4389 619.202,97.6524 619.202,100.319 C619.202,104.809 616.895,109.007 612.28,112.913 C607.593,116.819 602.577,118.772 597.233,118.772 C594.108,118.772 591.473,117.96 589.327,116.335 C587.306,114.574 586.296,112.361 586.296,109.694 C586.296,105.205 588.64,101.007 593.327,97.1004 C597.89,93.1941 602.869,91.241 608.265,91.241"/>
<path class="Clef" d="M56.72,91.9137 C56.72,91.9137 56.9179,91.9137 57.3138,91.9137 C57.5742,91.8512 57.7981,91.8199 57.9856,91.8199 C65.2773,91.8199 71.2669,94.3928 75.9544,99.5387 C80.6419,104.612 82.9856,110.533 82.9856,117.304 C82.9856,125.711 79.5065,132.549 72.5481,137.82 C70.7252,139.257 68.345,140.429 65.4075,141.336 C65.7408,145.565 65.9075,148.981 65.9075,151.586 C65.9075,152.106 65.8398,153.997 65.7044,157.257 C65.444,163.309 63.3606,168.549 59.4544,172.976 C55.6836,177.341 50.9961,179.523 45.3919,179.523 C40.1211,179.523 35.6315,177.669 31.9231,173.961 C28.2044,170.179 26.345,165.622 26.345,160.289 C26.345,157.487 27.4231,155.106 29.5794,153.148 C31.7877,151.2 34.3554,150.226 37.2825,150.226 C39.8867,150.226 42.069,151.237 43.8294,153.257 C45.6523,155.143 46.5638,157.487 46.5638,160.289 C46.5638,162.82 45.6523,164.997 43.8294,166.82 C42.0065,168.643 39.8242,169.554 37.2825,169.554 C36.2408,169.554 35.2356,169.362 34.2669,168.976 C37.1315,173.205 40.9388,175.32 45.6888,175.32 C50.1783,175.32 53.8554,173.497 56.72,169.851 C59.72,166.08 61.3502,161.684 61.6106,156.664 C61.7356,153.539 61.7981,151.752 61.7981,151.304 C61.7981,147.658 61.6679,144.664 61.4075,142.32 C58.1575,142.841 55.2617,143.101 52.72,143.101 C43.6679,143.101 35.9544,139.518 29.5794,132.351 C23.3294,125.122 20.2044,116.528 20.2044,106.57 C20.2044,104.487 20.3971,102.372 20.7825,100.226 C21.1783,98.4657 21.6679,96.5439 22.2513,94.4605 C22.5742,93.2834 23.4544,91.3928 24.8919,88.7887 C25.4127,88.0074 25.9987,87.0308 26.6497,85.859 C27.3007,84.6871 27.7565,83.9084 28.0169,83.523 C28.6627,82.2209 29.9283,80.4605 31.8138,78.2418 C32.3346,77.6584 32.8737,77.01 33.4309,76.2965 C33.9882,75.5829 34.4622,74.997 34.8528,74.5387 C35.2434,74.0803 35.5351,73.7209 35.7278,73.4605 C35.9205,73.2001 37.3867,71.4762 40.1263,68.2887 C40.7721,67.6324 41.4049,66.9319 42.0247,66.1871 C42.6445,65.4423 43.1497,64.8564 43.5403,64.4293 C43.9309,64.0022 44.2252,63.6949 44.4231,63.5074 C42.0794,55.7574 40.6106,49.5699 40.0169,44.9449 C39.569,41.2366 39.345,36.1584 39.345,29.7105 C39.345,24.0439 40.6471,18.7366 43.2513,13.7887 C45.7825,8.65323 49.3294,4.45532 53.8919,1.1949 C54.1523,0.996985 54.4752,0.898027 54.8606,0.898027 C55.319,0.898027 55.6471,0.996985 55.845,1.1949 C59.3554,5.42407 62.3815,10.9241 64.9231,17.6949 C67.5273,24.4657 68.8294,30.622 68.8294,36.1637 C68.8294,42.4137 67.3346,48.273 64.345,53.7418 C60.9596,59.5334 56.595,65.523 51.2513,71.7105 C52.6158,76.0022 54.4388,82.7366 56.72,91.9137 M65.0169,137.336 C68.4023,136.096 71.0429,133.981 72.9388,130.992 C75.0221,128.127 76.0638,124.903 76.0638,121.32 C76.0638,116.695 74.5013,112.591 71.3763,109.007 C68.1783,105.299 64.1054,103.216 59.1575,102.757 C61.9596,116.497 63.9127,128.023 65.0169,137.336 M27.2356,114.773 C27.2356,121.221 29.8398,126.888 35.0481,131.773 C40.3815,136.523 46.3711,138.898 53.0169,138.898 C55.7461,138.898 58.4127,138.7 61.0169,138.304 C59.9752,128.408 57.9231,116.559 54.8606,102.757 C51.1523,103.153 48.194,104.455 45.9856,106.664 C43.8294,108.945 42.7513,111.518 42.7513,114.382 C42.7513,119.33 45.3919,123.336 50.6731,126.398 C51.1211,126.856 51.345,127.346 51.345,127.867 C51.345,128.388 51.1211,128.872 50.6731,129.32 C50.2773,129.778 49.7877,130.007 49.2044,130.007 C49.1419,130.007 48.8502,129.945 48.3294,129.82 C44.6106,127.799 41.7461,125.195 39.7356,122.007 C37.8398,118.612 36.8919,115.19 36.8919,111.742 C36.8919,107.252 38.2929,103.184 41.095,99.5387 C44.0221,95.8928 47.8294,93.5491 52.5169,92.5074 C50.694,85.2157 49.1992,79.5178 48.0325,75.4137 C46.9908,76.5907 45.7382,78.0074 44.2747,79.6637 C42.8112,81.3199 41.9492,82.3147 41.6888,82.648 C39.345,85.7001 37.5533,88.0751 36.3138,89.773 C34.095,92.8355 32.4648,95.4709 31.4231,97.6793 C30.319,100.158 29.345,102.862 28.5013,105.789 C27.6575,108.591 27.2356,111.586 27.2356,114.773 M59.845,15.4605 C54.9596,17.8668 51.1211,21.3147 48.3294,25.8043 C45.4648,30.4293 44.0325,35.4084 44.0325,40.7418 C44.0325,45.4293 45.2044,51.747 47.5481,59.6949 C52.2356,54.0282 55.7513,48.7887 58.095,43.9762 C60.5638,38.8928 61.7981,33.5855 61.7981,28.0543 C61.7981,23.8876 61.1471,19.6897 59.845,15.4605"/>
</svg>
