<?xml version="1.0" encoding="UTF-8" standalone="no"?>
<svg width="1700.79px" height="1133.86px" viewBox="0 0 1700.79 1133.86"
 xmlns="http://www.w3.org/2000/svg" xmlns:xlink="http://www.w3.org/1999/xlink" version="1.2" baseProfile="tiny">
<title>imperial-march</title>
<desc>Generated by MuseScore 3.4.2</desc>
<polyline class="StaffLines" fill="none" stroke="#000000" stroke-width="2.00" stroke-linejoin="bevel" points="52.5002,62.5039 1686.61,62.5039"/>
<polyline class="StaffLines" fill="none" stroke="#000000" stroke-width="2.00" stroke-linejoin="bevel" points="52.5002,87.5055 1686.61,87.5055"/>
<polyline class="StaffLines" fill="none" stroke="#000000" stroke-width="2.00" stroke-linejoin="bevel" points="52.5002,112.507 1686.61,112.507"/>
<polyline class="StaffLines" fill="none" stroke="#000000" stroke-width="2.00" stroke-linejoin="bevel" points="52.5002,137.509 1686.61,137.509"/>
<polyline class="StaffLines" fill="none" stroke="#000000" stroke-width="2.00" stroke-linejoin="bevel" points="52.5002,162.51 1686.61,162.51"/>
<polyline class="StaffLines" fill="none" stroke="#000000" stroke-width="2.00" stroke-linejoin="bevel" points="52.5002,287.518 1686.61,287.518"/>
<polyline class="StaffLines" fill="none" stroke="#000000" stroke-width="2.00" stroke-linejoin="bevel" points="52.5002,312.52 1686.61,312.52"/>
<polyline class="StaffLines" fill="none" stroke="#000000" stroke-width="2.00" stroke-linejoin="bevel" points="52.5002,337.521 1686.61,337.521"/>
<polyline class="StaffLines" fill="none" stroke="#000000" stroke-width="2.00" stroke-linejoin="bevel" points="52.5002,362.523 1686.61,362.523"/>
<polyline class="StaffLines" fill="none" stroke="#000000" stroke-width="2.00" stroke-linejoin="bevel" points="52.5002,387.524 1686.61,387.524"/>
<polyline class="StaffLines" fill="none" stroke="#000000" stroke-width="2.00" stroke-linejoin="bevel" points="52.5002,633.827 1686.61,633.827"/>
<polyline class="StaffLines" fill="none" stroke="#000000" stroke-width="2.00" stroke-linejoin="bevel" points="52.5002,658.828 1686.61,658.828"/>
<polyline class="StaffLines" fill="none" stroke="#000000" stroke-width="2.00" stroke-linejoin="bevel" points="52.5002,683.83 1686.61,683.83"/>
<polyline class="StaffLines" fill="none" stroke="#000000" stroke-width="2.00" stroke-linejoin="bevel" points="52.5002,708.831 1686.61,708.831"/>
<polyline class="StaffLines" fill="none" stroke="#000000" stroke-width="2.00" stroke-linejoin="bevel" points="52.5002,733.833 1686.61,733.833"/>
<polyline class="StaffLines" fill="none" stroke="#000000" stroke-width="2.00" stroke-linejoin="bevel" points="52.5002,858.841 1686.61,858.841"/>
<polyline class="StaffLines" fill="none" stroke="#000000" stroke-width="2.00" stroke-linejoin="bevel" points="52.5002,883.843 1686.61,883.843"/>
<polyline class="StaffLines" fill="none" stroke="#000000" stroke-width="2.00" stroke-linejoin="bevel" points="52.5002,908.844 1686.61,908.844"/>
<polyline class="StaffLines" fill="none" stroke="#000000" stroke-width="2.00" stroke-linejoin="bevel" points="52.5002,933.846 1686.61,933.846"/>
<polyline class="StaffLines" fill="none" stroke="#000000" stroke-width="2.00" stroke-linejoin="bevel" points="52.5002,958.847 1686.61,958.847"/>
<polyline class="BarLine" fill="none" stroke="#000000" stroke-width="4.00" stroke-linejoin="bevel" points="54.5003,286.518 54.5003,388.524"/>
<polyline class="BarLine" fill="none" stroke="#000000" stroke-width="4.00" stroke-linejoin="bevel" points="604.684,286.518 604.684,388.524"/>
<polyline class="BarLine" fill="none" stroke="#000000" stroke-width="4.00" stroke-linejoin="bevel" points="979.749,286.518 979.749,388.524"/>
<polyline class="BarLine" fill="none" stroke="#000000" stroke-width="4.00" stroke-linejoin="bevel" points="1338.1,286.518 1338.1,388.524"/>
<polyline class="BarLine" fill="none" stroke="#000000" stroke-width="4.00" stroke-linejoin="bevel" points="1684.61,286.518 1684.61,388.524"/>
<polyline class="BarLine" fill="none" stroke="#000000" stroke-width="4.00" stroke-linejoin="bevel" points="54.5003,857.841 54.5003,959.847"/>
<polyline class="BarLine" fill="none" stroke="#000000" stroke-width="4.00" stroke-linejoin="bevel" points="587.439,857.841 587.439,959.847"/>
<polyline class="BarLine" fill="none" stroke="#000000" stroke-width="4.00" stroke-linejoin="bevel" points="978.458,857.841 978.458,959.847"/>
<polyline class="BarLine" fill="none" stroke="#000000" stroke-width="4.00" stroke-linejoin="bevel" points="1399.46,857.841 1399.46,959.847"/>
<polyline class="BarLine" fill="none" stroke="#000000" stroke-width="4.00" stroke-linejoin="bevel" points="1662.11,857.841 1662.11,959.847"/>
<polyline class="BarLine" fill="none" stroke="#000000" stroke-width="12.50" stroke-linejoin="bevel" points="1680.36,857.841 1680.36,959.847"/>
<polyline class="BarLine" fill="none" stroke="#000000" stroke-width="4.00" stroke-linejoin="bevel" points="54.5003,61.5039 54.5003,287.518"/>
<polyline class="BarLine" fill="none" stroke="#000000" stroke-width="4.00" stroke-linejoin="bevel" points="604.684,61.5039 604.684,287.518"/>
<polyline class="BarLine" fill="none" stroke="#000000" stroke-width="4.00" stroke-linejoin="bevel" points="979.749,61.5039 979.749,287.518"/>
<polyline class="BarLine" fill="none" stroke="#000000" stroke-width="4.00" stroke-linejoin="bevel" points="1338.1,61.5039 1338.1,287.518"/>
<polyline class="BarLine" fill="none" stroke="#000000" stroke-width="4.00" stroke-linejoin="bevel" points="1684.61,61.5039 1684.61,287.518"/>
<polyline class="BarLine" fill="none" stroke="#000000" stroke-width="4.00" stroke-linejoin="bevel" points="54.5003,632.827 54.5003,858.841"/>
<polyline class="BarLine" fill="none" stroke="#000000" stroke-width="4.00" stroke-linejoin="bevel" points="587.439,632.827 587.439,858.841"/>
<polyline class="BarLine" fill="none" stroke="#000000" stroke-width="4.00" stroke-linejoin="bevel" points="978.458,632.827 978.458,858.841"/>
<polyline class="BarLine" fill="none" stroke="#000000" stroke-width="4.00" stroke-linejoin="bevel" points="1399.46,632.827 1399.46,858.841"/>
<polyline class="BarLine" fill="none" stroke="#000000" stroke-width="4.00" stroke-linejoin="bevel" points="1662.11,632.827 1662.11,858.841"/>
<polyline class="BarLine" fill="none" stroke="#000000" stroke-width="12.50" stroke-linejoin="bevel" points="1680.36,632.827 1680.36,858.841"/>
<polyline class="LedgerLine" fill="none" stroke="#000000" stroke-width="4.00" stroke-linecap="square" stroke-linejoin="bevel" points="1223.89,187.512 1271.8,187.512"/>
<polyline class="LedgerLine" fill="none" stroke="#000000" stroke-width="4.00" stroke-linecap="square" stroke-linejoin="bevel" points="1474.64,187.512 1522.55,187.512"/>
<polyline class="LedgerLine" fill="none" stroke="#000000" stroke-width="4.00" stroke-linecap="square" stroke-linejoin="bevel" points="616.441,758.835 664.358,758.835"/>
<polyline class="LedgerLine" fill="none" stroke="#000000" stroke-width="4.00" stroke-linecap="square" stroke-linejoin="bevel" points="674.608,758.835 722.525,758.835"/>
<polyline class="LedgerLine" fill="none" stroke="#000000" stroke-width="4.00" stroke-linecap="square" stroke-linejoin="bevel" points="732.776,758.835 782.498,758.835"/>
<polyline class="Stem" fill="none" stroke="#000000" stroke-width="3.25" stroke-linecap="round" stroke-linejoin="bevel" points="220.065,329.716 220.065,406.276"/>
<polyline class="Stem" fill="none" stroke="#000000" stroke-width="3.25" stroke-linecap="round" stroke-linejoin="bevel" points="310.086,329.716 310.086,406.276"/>
<polyline class="Stem" fill="none" stroke="#000000" stroke-width="3.25" stroke-linecap="round" stroke-linejoin="bevel" points="400.107,329.716 400.107,406.276"/>
<polyline class="Stem" fill="none" stroke="#000000" stroke-width="3.25" stroke-linecap="round" stroke-linejoin="bevel" points="490.128,354.718 490.128,418.776"/>
<polyline class="Stem" fill="none" stroke="#000000" stroke-width="3.25" stroke-linecap="round" stroke-linejoin="bevel" points="546.392,304.715 546.392,393.775"/>
<polyline class="Stem" fill="none" stroke="#000000" stroke-width="3.25" stroke-linecap="round" stroke-linejoin="bevel" points="633.311,329.716 633.311,406.276"/>
<polyline class="Stem" fill="none" stroke="#000000" stroke-width="3.25" stroke-linecap="round" stroke-linejoin="bevel" points="728.777,354.718 728.777,418.776"/>
<polyline class="Stem" fill="none" stroke="#000000" stroke-width="3.25" stroke-linecap="round" stroke-linejoin="bevel" points="788.443,304.715 788.443,393.775"/>
<polyline class="Stem" fill="none" stroke="#000000" stroke-width="3.25" stroke-linecap="round" stroke-linejoin="bevel" points="847.206,328.941 847.206,406.276"/>
<polyline class="Stem" fill="none" stroke="#000000" stroke-width="3.25" stroke-linecap="round" stroke-linejoin="bevel" points="296.277,901.039 296.277,977.598"/>
<polyline class="Stem" fill="none" stroke="#000000" stroke-width="3.25" stroke-linecap="round" stroke-linejoin="bevel" points="473.701,901.039 473.701,965.098"/>
<polyline class="Stem" fill="none" stroke="#000000" stroke-width="3.25" stroke-linecap="round" stroke-linejoin="bevel" points="529.146,901.039 529.146,965.098"/>
<polyline class="Stem" fill="none" stroke="#000000" stroke-width="3.25" stroke-linecap="round" stroke-linejoin="bevel" points="899.656,851.036 899.656,933.846"/>
<polyline class="Stem" fill="none" stroke="#000000" stroke-width="3.25" stroke-linecap="round" stroke-linejoin="bevel" points="1007.08,863.537 1007.08,946.346"/>
<polyline class="Stem" fill="none" stroke="#000000" stroke-width="3.25" stroke-linecap="round" stroke-linejoin="bevel" points="1093.3,926.041 1093.3,990.099"/>
<polyline class="Stem" fill="none" stroke="#000000" stroke-width="3.25" stroke-linecap="round" stroke-linejoin="bevel" points="1147.18,901.039 1147.18,977.598"/>
<polyline class="Stem" fill="none" stroke="#000000" stroke-width="3.25" stroke-linecap="round" stroke-linejoin="bevel" points="1201.07,876.037 1201.07,958.847"/>
<polyline class="Stem" fill="none" stroke="#000000" stroke-width="3.25" stroke-linecap="round" stroke-linejoin="bevel" points="1287.28,901.039 1287.28,965.098"/>
<polyline class="Stem" fill="none" stroke="#000000" stroke-width="3.25" stroke-linecap="round" stroke-linejoin="bevel" points="1341.17,876.037 1341.17,952.597"/>
<polyline class="Stem" fill="none" stroke="#000000" stroke-width="3.25" stroke-linecap="round" stroke-linejoin="bevel" points="1038.04,157.815 1038.04,75.0047"/>
<polyline class="Stem" fill="none" stroke="#000000" stroke-width="3.25" stroke-linecap="round" stroke-linejoin="bevel" points="1112.92,157.815 1112.92,75.0047"/>
<polyline class="Stem" fill="none" stroke="#000000" stroke-width="3.25" stroke-linecap="round" stroke-linejoin="bevel" points="1187.8,157.815 1187.8,75.0047"/>
<polyline class="Stem" fill="none" stroke="#000000" stroke-width="3.25" stroke-linecap="round" stroke-linejoin="bevel" points="1262.68,182.816 1262.68,87.5055"/>
<polyline class="Stem" fill="none" stroke="#000000" stroke-width="3.25" stroke-linecap="round" stroke-linejoin="bevel" points="1309.48,132.813 1309.48,62.5039"/>
<polyline class="Stem" fill="none" stroke="#000000" stroke-width="3.25" stroke-linecap="round" stroke-linejoin="bevel" points="1437.05,157.815 1437.05,75.0047"/>
<polyline class="Stem" fill="none" stroke="#000000" stroke-width="3.25" stroke-linecap="round" stroke-linejoin="bevel" points="1513.43,182.816 1513.43,87.5055"/>
<polyline class="Stem" fill="none" stroke="#000000" stroke-width="3.25" stroke-linecap="round" stroke-linejoin="bevel" points="1561.16,132.813 1561.16,62.5039"/>
<polyline class="Stem" fill="none" stroke="#000000" stroke-width="3.25" stroke-linecap="round" stroke-linejoin="bevel" points="1609.8,158.67 1609.8,75.0047"/>
<polyline class="Stem" fill="none" stroke="#000000" stroke-width="3.25" stroke-linecap="round" stroke-linejoin="bevel" points="237.231,729.137 237.231,646.328"/>
<polyline class="Stem" fill="none" stroke="#000000" stroke-width="3.25" stroke-linecap="round" stroke-linejoin="bevel" points="414.655,729.137 414.655,646.328"/>
<polyline class="Stem" fill="none" stroke="#000000" stroke-width="3.25" stroke-linecap="round" stroke-linejoin="bevel" points="655.232,754.139 655.232,683.83"/>
<polyline class="Stem" fill="none" stroke="#000000" stroke-width="3.25" stroke-linecap="round" stroke-linejoin="bevel" points="713.4,754.139 713.4,683.83"/>
<polyline class="Stem" fill="none" stroke="#000000" stroke-width="3.25" stroke-linecap="round" stroke-linejoin="bevel" points="773.372,754.994 773.372,671.329"/>
<path class="Note" d="M240.409,311.255 C243.534,311.255 246.175,312.067 248.331,313.692 C250.341,315.453 251.347,317.666 251.347,320.333 C251.347,324.823 249.039,329.02 244.425,332.927 C239.737,336.833 234.722,338.786 229.378,338.786 C226.253,338.786 223.617,337.974 221.472,336.349 C219.451,334.588 218.44,332.375 218.44,329.708 C218.44,325.218 220.784,321.02 225.472,317.114 C230.034,313.208 235.013,311.255 240.409,311.255"/>
<path class="Note" d="M330.43,311.255 C333.555,311.255 336.196,312.067 338.352,313.692 C340.362,315.453 341.368,317.666 341.368,320.333 C341.368,324.823 339.06,329.02 334.446,332.927 C329.758,336.833 324.743,338.786 319.399,338.786 C316.274,338.786 313.638,337.974 311.493,336.349 C309.472,334.588 308.461,332.375 308.461,329.708 C308.461,325.218 310.805,321.02 315.493,317.114 C320.055,313.208 325.034,311.255 330.43,311.255"/>
<path class="Note" d="M420.451,311.255 C423.576,311.255 426.217,312.067 428.373,313.692 C430.383,315.453 431.389,317.666 431.389,320.333 C431.389,324.823 429.081,329.02 424.467,332.927 C419.779,336.833 414.764,338.786 409.42,338.786 C406.295,338.786 403.659,337.974 401.514,336.349 C399.493,334.588 398.482,332.375 398.482,329.708 C398.482,325.218 400.826,321.02 405.514,317.114 C410.076,313.208 415.055,311.255 420.451,311.255"/>
<path class="Note" d="M510.472,336.256 C513.597,336.256 516.238,337.069 518.394,338.694 C520.404,340.454 521.41,342.668 521.41,345.335 C521.41,349.824 519.102,354.022 514.488,357.928 C509.8,361.835 504.785,363.788 499.441,363.788 C496.316,363.788 493.68,362.975 491.535,361.35 C489.514,359.59 488.503,357.376 488.503,354.71 C488.503,350.22 490.847,346.022 495.535,342.116 C500.097,338.21 505.076,336.256 510.472,336.256"/>
<path class="Note" d="M566.735,286.253 C569.86,286.253 572.501,287.066 574.657,288.691 C576.668,290.451 577.673,292.665 577.673,295.331 C577.673,299.821 575.365,304.019 570.751,307.925 C566.063,311.831 561.048,313.785 555.704,313.785 C552.579,313.785 549.944,312.972 547.798,311.347 C545.777,309.587 544.766,307.373 544.766,304.706 C544.766,300.217 547.11,296.019 551.798,292.113 C556.36,288.206 561.339,286.253 566.735,286.253"/>
<path class="Note" d="M653.655,311.255 C656.78,311.255 659.42,312.067 661.577,313.692 C663.587,315.453 664.592,317.666 664.592,320.333 C664.592,324.823 662.285,329.02 657.67,332.927 C652.983,336.833 647.967,338.786 642.624,338.786 C639.499,338.786 636.863,337.974 634.717,336.349 C632.696,334.588 631.686,332.375 631.686,329.708 C631.686,325.218 634.03,321.02 638.717,317.114 C643.28,313.208 648.259,311.255 653.655,311.255"/>
<path class="Note" d="M749.12,336.256 C752.245,336.256 754.886,337.069 757.042,338.694 C759.053,340.454 760.058,342.668 760.058,345.335 C760.058,349.824 757.751,354.022 753.136,357.928 C748.449,361.835 743.433,363.788 738.089,363.788 C734.964,363.788 732.329,362.975 730.183,361.35 C728.162,359.59 727.152,357.376 727.152,354.71 C727.152,350.22 729.495,346.022 734.183,342.116 C738.745,338.21 743.725,336.256 749.12,336.256"/>
<path class="Note" d="M808.786,286.253 C811.911,286.253 814.552,287.066 816.708,288.691 C818.719,290.451 819.724,292.665 819.724,295.331 C819.724,299.821 817.417,304.019 812.802,307.925 C808.115,311.831 803.099,313.785 797.755,313.785 C794.63,313.785 791.995,312.972 789.849,311.347 C787.828,309.587 786.818,307.373 786.818,304.706 C786.818,300.217 789.161,296.019 793.849,292.113 C798.411,288.206 803.391,286.253 808.786,286.253"/>
<path class="Note" d="M877.128,318.474 C877.128,317.369 876.706,316.427 875.863,315.645 C875.008,314.802 874.029,314.38 872.925,314.38 C870.977,314.38 867.04,316.333 861.113,320.239 C854.988,324.208 851.243,327.041 849.878,328.739 C849.16,329.645 848.8,330.588 848.8,331.567 C848.8,332.672 849.227,333.614 850.081,334.395 C850.863,335.239 851.837,335.661 853.003,335.661 C854.889,335.661 858.863,333.708 864.925,329.802 C870.915,325.895 874.623,323.062 876.05,321.302 C876.769,320.458 877.128,319.515 877.128,318.474 M871.956,311.255 C877.55,311.255 880.347,313.661 880.347,318.474 C880.347,320.817 879.665,323.552 878.3,326.677 C876.936,329.739 875.113,332.083 872.831,333.708 C867.821,337.093 861.54,338.786 853.988,338.786 C848.383,338.786 845.581,336.38 845.581,331.567 C845.581,329.422 846.264,326.718 847.628,323.458 C848.93,320.333 850.753,317.958 853.097,316.333 C858.118,312.948 864.404,311.255 871.956,311.255"/>
<path class="Note" d="M316.62,882.578 C319.745,882.578 322.386,883.39 324.542,885.015 C326.553,886.776 327.558,888.989 327.558,891.656 C327.558,896.145 325.251,900.343 320.636,904.25 C315.948,908.156 310.933,910.109 305.589,910.109 C302.464,910.109 299.829,909.296 297.683,907.671 C295.662,905.911 294.652,903.697 294.652,901.031 C294.652,896.541 296.995,892.343 301.683,888.437 C306.245,884.531 311.225,882.578 316.62,882.578"/>
<path class="Note" d="M494.045,882.578 C497.17,882.578 499.81,883.39 501.966,885.015 C503.977,886.776 504.982,888.989 504.982,891.656 C504.982,896.145 502.675,900.343 498.06,904.25 C493.373,908.156 488.357,910.109 483.013,910.109 C479.888,910.109 477.253,909.296 475.107,907.671 C473.086,905.911 472.076,903.697 472.076,901.031 C472.076,896.541 474.42,892.343 479.107,888.437 C483.67,884.531 488.649,882.578 494.045,882.578"/>
<path class="Note" d="M549.49,882.578 C552.615,882.578 555.255,883.39 557.412,885.015 C559.422,886.776 560.427,888.989 560.427,891.656 C560.427,896.145 558.12,900.343 553.505,904.25 C548.818,908.156 543.802,910.109 538.458,910.109 C535.333,910.109 532.698,909.296 530.552,907.671 C528.531,905.911 527.521,903.697 527.521,901.031 C527.521,896.541 529.865,892.343 534.552,888.437 C539.115,884.531 544.094,882.578 549.49,882.578"/>
<path class="Note" d="M920,832.575 C923.125,832.575 925.766,833.387 927.922,835.012 C929.932,836.772 930.937,838.986 930.937,841.653 C930.937,846.142 928.63,850.34 924.016,854.246 C919.328,858.153 914.312,860.106 908.969,860.106 C905.844,860.106 903.208,859.293 901.062,857.668 C899.042,855.908 898.031,853.694 898.031,851.028 C898.031,846.538 900.375,842.34 905.062,838.434 C909.625,834.528 914.604,832.575 920,832.575"/>
<path class="Note" d="M1027.43,845.075 C1030.55,845.075 1033.19,845.888 1035.35,847.513 C1037.36,849.273 1038.37,851.487 1038.37,854.153 C1038.37,858.643 1036.06,862.841 1031.44,866.747 C1026.76,870.653 1021.74,872.607 1016.4,872.607 C1013.27,872.607 1010.64,871.794 1008.49,870.169 C1006.47,868.409 1005.46,866.195 1005.46,863.528 C1005.46,859.039 1007.8,854.841 1012.49,850.935 C1017.05,847.028 1022.03,845.075 1027.43,845.075"/>
<path class="Note" d="M1113.64,907.579 C1116.77,907.579 1119.41,908.392 1121.56,910.017 C1123.57,911.777 1124.58,913.991 1124.58,916.657 C1124.58,921.147 1122.27,925.345 1117.66,929.251 C1112.97,933.157 1107.96,935.111 1102.61,935.111 C1099.49,935.111 1096.85,934.298 1094.71,932.673 C1092.68,930.913 1091.67,928.699 1091.67,926.032 C1091.67,921.543 1094.02,917.345 1098.71,913.439 C1103.27,909.532 1108.25,907.579 1113.64,907.579"/>
<path class="Note" d="M1167.53,882.578 C1170.65,882.578 1173.29,883.39 1175.45,885.015 C1177.46,886.776 1178.46,888.989 1178.46,891.656 C1178.46,896.145 1176.16,900.343 1171.54,904.25 C1166.85,908.156 1161.84,910.109 1156.5,910.109 C1153.37,910.109 1150.73,909.296 1148.59,907.671 C1146.57,905.911 1145.56,903.697 1145.56,901.031 C1145.56,896.541 1147.9,892.343 1152.59,888.437 C1157.15,884.531 1162.13,882.578 1167.53,882.578"/>
<path class="Note" d="M1221.41,857.576 C1224.54,857.576 1227.18,858.389 1229.33,860.014 C1231.34,861.774 1232.35,863.988 1232.35,866.654 C1232.35,871.144 1230.04,875.342 1225.43,879.248 C1220.74,883.154 1215.72,885.107 1210.38,885.107 C1207.25,885.107 1204.62,884.295 1202.47,882.67 C1200.45,880.909 1199.44,878.696 1199.44,876.029 C1199.44,871.54 1201.79,867.342 1206.47,863.435 C1211.04,859.529 1216.01,857.576 1221.41,857.576"/>
<path class="Note" d="M1307.63,882.578 C1310.75,882.578 1313.39,883.39 1315.55,885.015 C1317.56,886.776 1318.56,888.989 1318.56,891.656 C1318.56,896.145 1316.26,900.343 1311.64,904.25 C1306.95,908.156 1301.94,910.109 1296.59,910.109 C1293.47,910.109 1290.83,909.296 1288.69,907.671 C1286.67,905.911 1285.66,903.697 1285.66,901.031 C1285.66,896.541 1288,892.343 1292.69,888.437 C1297.25,884.531 1302.23,882.578 1307.63,882.578"/>
<path class="Note" d="M1361.51,857.576 C1364.63,857.576 1367.27,858.389 1369.43,860.014 C1371.44,861.774 1372.45,863.988 1372.45,866.654 C1372.45,871.144 1370.14,875.342 1365.52,879.248 C1360.84,883.154 1355.82,885.107 1350.48,885.107 C1347.35,885.107 1344.72,884.295 1342.57,882.67 C1340.55,880.909 1339.54,878.696 1339.54,876.029 C1339.54,871.54 1341.88,867.342 1346.57,863.435 C1351.13,859.529 1356.11,857.576 1361.51,857.576"/>
<path class="Note" d="M1456.25,835.106 C1453.9,835.106 1452.21,835.918 1451.17,837.543 C1450,839.106 1449.42,841.226 1449.42,843.903 C1449.42,846.965 1450.23,849.601 1451.86,851.809 C1453.48,853.955 1455.27,855.455 1457.23,856.309 C1458.98,857.153 1460.83,857.575 1462.79,857.575 C1465.07,857.575 1466.8,856.762 1467.96,855.137 C1469.07,853.502 1469.62,851.382 1469.62,848.778 C1469.62,845.715 1468.81,843.08 1467.18,840.871 C1465.56,838.788 1463.8,837.288 1461.92,836.371 C1460.02,835.528 1458.13,835.106 1456.25,835.106 M1459.57,832.575 C1466.61,832.575 1472.46,833.939 1477.15,836.668 C1481.9,839.408 1484.28,842.632 1484.28,846.34 C1484.28,850.309 1481.83,853.564 1476.95,856.106 C1472.06,858.772 1466.27,860.106 1459.57,860.106 C1452.67,860.106 1446.81,858.741 1442,856.012 C1437.17,853.272 1434.76,850.048 1434.76,846.34 C1434.76,842.371 1437.24,839.116 1442.18,836.575 C1447.07,833.908 1452.87,832.575 1459.57,832.575"/>
<path class="Note" d="M1028.72,148.745 C1031.84,148.745 1034.49,149.557 1036.64,151.182 C1038.65,152.943 1039.66,155.156 1039.66,157.823 C1039.66,162.312 1037.35,166.51 1032.74,170.416 C1028.05,174.323 1023.03,176.276 1017.69,176.276 C1014.56,176.276 1011.93,175.463 1009.78,173.838 C1007.76,172.078 1006.75,169.864 1006.75,167.198 C1006.75,162.708 1009.09,158.51 1013.78,154.604 C1018.34,150.698 1023.32,148.745 1028.72,148.745"/>
<path class="Note" d="M1103.6,148.745 C1106.72,148.745 1109.36,149.557 1111.52,151.182 C1113.53,152.943 1114.54,155.156 1114.54,157.823 C1114.54,162.312 1112.23,166.51 1107.61,170.416 C1102.93,174.323 1097.91,176.276 1092.57,176.276 C1089.44,176.276 1086.81,175.463 1084.66,173.838 C1082.64,172.078 1081.63,169.864 1081.63,167.198 C1081.63,162.708 1083.97,158.51 1088.66,154.604 C1093.22,150.698 1098.2,148.745 1103.6,148.745"/>
<path class="Note" d="M1178.48,148.745 C1181.6,148.745 1184.24,149.557 1186.4,151.182 C1188.41,152.943 1189.41,155.156 1189.41,157.823 C1189.41,162.312 1187.11,166.51 1182.49,170.416 C1177.8,174.323 1172.79,176.276 1167.45,176.276 C1164.32,176.276 1161.68,175.463 1159.54,173.838 C1157.52,172.078 1156.51,169.864 1156.51,167.198 C1156.51,162.708 1158.85,158.51 1163.54,154.604 C1168.1,150.698 1173.08,148.745 1178.48,148.745"/>
<path class="Note" d="M1253.35,173.746 C1256.48,173.746 1259.12,174.559 1261.28,176.184 C1263.29,177.944 1264.29,180.158 1264.29,182.824 C1264.29,187.314 1261.99,191.512 1257.37,195.418 C1252.68,199.324 1247.67,201.277 1242.32,201.277 C1239.2,201.277 1236.56,200.465 1234.42,198.84 C1232.4,197.08 1231.39,194.866 1231.39,192.199 C1231.39,187.71 1233.73,183.512 1238.42,179.606 C1242.98,175.699 1247.96,173.746 1253.35,173.746"/>
<path class="Note" d="M1300.15,123.743 C1303.28,123.743 1305.92,124.556 1308.08,126.181 C1310.09,127.941 1311.09,130.154 1311.09,132.821 C1311.09,137.311 1308.78,141.509 1304.17,145.415 C1299.48,149.321 1294.47,151.274 1289.12,151.274 C1286,151.274 1283.36,150.462 1281.22,148.837 C1279.2,147.076 1278.19,144.863 1278.19,142.196 C1278.19,137.707 1280.53,133.509 1285.22,129.602 C1289.78,125.696 1294.76,123.743 1300.15,123.743"/>
<path class="Note" d="M1427.73,148.745 C1430.86,148.745 1433.5,149.557 1435.65,151.182 C1437.66,152.943 1438.67,155.156 1438.67,157.823 C1438.67,162.312 1436.36,166.51 1431.75,170.416 C1427.06,174.323 1422.04,176.276 1416.7,176.276 C1413.58,176.276 1410.94,175.463 1408.79,173.838 C1406.77,172.078 1405.76,169.864 1405.76,167.198 C1405.76,162.708 1408.11,158.51 1412.79,154.604 C1417.36,150.698 1422.34,148.745 1427.73,148.745"/>
<path class="Note" d="M1504.1,173.746 C1507.23,173.746 1509.87,174.559 1512.03,176.184 C1514.04,177.944 1515.04,180.158 1515.04,182.824 C1515.04,187.314 1512.73,191.512 1508.12,195.418 C1503.43,199.324 1498.42,201.277 1493.07,201.277 C1489.95,201.277 1487.31,200.465 1485.17,198.84 C1483.15,197.08 1482.14,194.866 1482.14,192.199 C1482.14,187.71 1484.48,183.512 1489.17,179.606 C1493.73,175.699 1498.71,173.746 1504.1,173.746"/>
<path class="Note" d="M1551.84,123.743 C1554.96,123.743 1557.6,124.556 1559.76,126.181 C1561.77,127.941 1562.78,130.154 1562.78,132.821 C1562.78,137.311 1560.47,141.509 1555.85,145.415 C1551.17,149.321 1546.15,151.274 1540.81,151.274 C1537.68,151.274 1535.05,150.462 1532.9,148.837 C1530.88,147.076 1529.87,144.863 1529.87,142.196 C1529.87,137.707 1532.21,133.509 1536.9,129.602 C1541.46,125.696 1546.44,123.743 1551.84,123.743"/>
<path class="Note" d="M1608.25,155.963 C1608.25,154.859 1607.82,153.916 1606.98,153.135 C1606.13,152.291 1605.15,151.87 1604.04,151.87 C1602.1,151.87 1598.16,153.823 1592.23,157.729 C1586.11,161.698 1582.36,164.531 1581,166.229 C1580.28,167.135 1579.92,168.078 1579.92,169.057 C1579.92,170.161 1580.35,171.104 1581.2,171.885 C1581.98,172.729 1582.95,173.151 1584.12,173.151 C1586.01,173.151 1589.98,171.198 1596.04,167.291 C1602.03,163.385 1605.74,160.552 1607.17,158.791 C1607.89,157.948 1608.25,157.005 1608.25,155.963 M1603.07,148.745 C1608.67,148.745 1611.46,151.151 1611.46,155.963 C1611.46,158.307 1610.78,161.041 1609.42,164.166 C1608.05,167.229 1606.23,169.573 1603.95,171.198 C1598.94,174.583 1592.66,176.276 1585.11,176.276 C1579.5,176.276 1576.7,173.87 1576.7,169.057 C1576.7,166.911 1577.38,164.208 1578.75,160.948 C1580.05,157.823 1581.87,155.448 1584.21,153.823 C1589.24,150.437 1595.52,148.745 1603.07,148.745"/>
<path class="Note" d="M227.908,720.067 C231.033,720.067 233.674,720.88 235.83,722.505 C237.841,724.265 238.846,726.479 238.846,729.146 C238.846,733.635 236.538,737.833 231.924,741.739 C227.236,745.646 222.221,747.599 216.877,747.599 C213.752,747.599 211.117,746.786 208.971,745.161 C206.95,743.401 205.94,741.187 205.94,738.521 C205.94,734.031 208.283,729.833 212.971,725.927 C217.533,722.021 222.512,720.067 227.908,720.067"/>
<path class="Note" d="M405.332,720.067 C408.457,720.067 411.098,720.88 413.254,722.505 C415.265,724.265 416.27,726.479 416.27,729.146 C416.27,733.635 413.963,737.833 409.348,741.739 C404.661,745.646 399.645,747.599 394.301,747.599 C391.176,747.599 388.541,746.786 386.395,745.161 C384.374,743.401 383.364,741.187 383.364,738.521 C383.364,734.031 385.707,729.833 390.395,725.927 C394.957,722.021 399.937,720.067 405.332,720.067"/>
<path class="Note" d="M645.91,745.069 C649.035,745.069 651.675,745.882 653.832,747.507 C655.842,749.267 656.847,751.48 656.847,754.147 C656.847,758.637 654.54,762.835 649.925,766.741 C645.238,770.647 640.222,772.6 634.879,772.6 C631.754,772.6 629.118,771.788 626.972,770.163 C624.951,768.402 623.941,766.189 623.941,763.522 C623.941,759.033 626.285,754.835 630.972,750.928 C635.535,747.022 640.514,745.069 645.91,745.069"/>
<path class="Note" d="M704.077,745.069 C707.202,745.069 709.843,745.882 711.999,747.507 C714.01,749.267 715.015,751.48 715.015,754.147 C715.015,758.637 712.708,762.835 708.093,766.741 C703.406,770.647 698.39,772.6 693.046,772.6 C689.921,772.6 687.286,771.788 685.14,770.163 C683.119,768.402 682.109,766.189 682.109,763.522 C682.109,759.033 684.452,754.835 689.14,750.928 C693.702,747.022 698.682,745.069 704.077,745.069"/>
<path class="Note" d="M771.823,752.288 C771.823,751.184 771.401,750.241 770.558,749.46 C769.704,748.616 768.724,748.194 767.62,748.194 C765.672,748.194 761.735,750.147 755.808,754.053 C749.683,758.022 745.938,760.855 744.573,762.553 C743.855,763.46 743.495,764.402 743.495,765.382 C743.495,766.486 743.922,767.428 744.776,768.21 C745.558,769.053 746.532,769.475 747.698,769.475 C749.584,769.475 753.558,767.522 759.62,763.616 C765.61,759.71 769.318,756.876 770.745,755.116 C771.464,754.272 771.823,753.329 771.823,752.288 M766.651,745.069 C772.245,745.069 775.042,747.475 775.042,752.288 C775.042,754.632 774.36,757.366 772.995,760.491 C771.631,763.553 769.808,765.897 767.526,767.522 C762.516,770.908 756.235,772.6 748.683,772.6 C743.079,772.6 740.276,770.194 740.276,765.382 C740.276,763.236 740.959,760.533 742.323,757.272 C743.625,754.147 745.448,751.772 747.792,750.147 C752.813,746.762 759.099,745.069 766.651,745.069"/>
<path class="Clef" d="M134.908,303.629 C133.934,302.65 133.447,301.444 133.447,300.012 C133.447,298.58 133.934,297.376 134.908,296.402 C135.882,295.429 137.085,294.942 138.517,294.942 C139.95,294.942 141.155,295.429 142.135,296.402 C143.114,297.376 143.603,298.58 143.603,300.012 C143.603,301.444 143.114,302.65 142.135,303.629 C141.155,304.608 139.95,305.098 138.517,305.098 C137.085,305.098 135.882,304.608 134.908,303.629 M134.908,328.637 C133.934,327.663 133.447,326.46 133.447,325.027 C133.447,323.595 133.934,322.389 134.908,321.41 C135.882,320.431 137.085,319.942 138.517,319.942 C139.95,319.942 141.155,320.431 142.135,321.41 C143.114,322.389 143.603,323.595 143.603,325.027 C143.603,326.46 143.114,327.663 142.135,328.637 C141.155,329.611 139.95,330.098 138.517,330.098 C137.085,330.098 135.882,329.611 134.908,328.637 M101.025,286.254 C109.681,286.254 116.775,288.431 122.306,292.785 C127.65,297.348 130.322,303.535 130.322,311.348 C130.322,316.619 129.28,321.436 127.197,325.801 C125.239,330.363 122.666,334.4 119.478,337.91 C116.218,341.494 112.28,344.879 107.666,348.067 C103.166,351.192 98.5408,353.994 93.7908,356.473 C84.0929,361.348 78.7544,363.785 77.7752,363.785 C76.9314,363.785 76.5096,363.363 76.5096,362.52 C76.5096,362.197 76.6398,361.905 76.9002,361.645 C80.2231,359.686 84.2908,357.181 89.1033,354.129 C92.2283,352.108 95.8741,349.306 100.041,345.723 C104.082,342.337 107.207,339.15 109.416,336.16 C111.697,333.223 113.78,329.577 115.666,325.223 C117.291,320.858 118.103,316.556 118.103,312.317 C118.103,306.004 116.541,300.504 113.416,295.817 C110.291,291.129 106.161,288.785 101.025,288.785 C97.3794,288.785 94.2544,289.957 91.6502,292.301 C88.8481,294.707 86.8273,297.733 85.5877,301.379 C86.8273,300.858 87.9679,300.598 89.0096,300.598 C91.7387,300.598 94.0825,301.577 96.0408,303.535 C97.9887,305.619 98.9627,307.994 98.9627,310.66 C98.9627,313.462 98.02,315.973 96.1346,318.192 C94.1137,320.202 91.7387,321.207 89.0096,321.207 C86.0825,321.207 83.4471,320.202 81.1033,318.192 C78.8846,315.973 77.7752,313.462 77.7752,310.66 C77.7752,303.952 80.0564,298.223 84.6189,293.473 C89.1085,288.66 94.5773,286.254 101.025,286.254"/>
<path class="Clef" d="M134.908,874.952 C133.934,873.973 133.447,872.767 133.447,871.335 C133.447,869.902 133.934,868.699 134.908,867.725 C135.882,866.751 137.085,866.264 138.517,866.264 C139.95,866.264 141.155,866.751 142.135,867.725 C143.114,868.699 143.603,869.902 143.603,871.335 C143.603,872.767 143.114,873.973 142.135,874.952 C141.155,875.931 139.95,876.421 138.517,876.421 C137.085,876.421 135.882,875.931 134.908,874.952 M134.908,899.96 C133.934,898.986 133.447,897.783 133.447,896.35 C133.447,894.918 133.934,893.712 134.908,892.733 C135.882,891.754 137.085,891.264 138.517,891.264 C139.95,891.264 141.155,891.754 142.135,892.733 C143.114,893.712 143.603,894.918 143.603,896.35 C143.603,897.783 143.114,898.986 142.135,899.96 C141.155,900.934 139.95,901.421 138.517,901.421 C137.085,901.421 135.882,900.934 134.908,899.96 M101.025,857.577 C109.681,857.577 116.775,859.754 122.306,864.108 C127.65,868.671 130.322,874.858 130.322,882.671 C130.322,887.941 129.28,892.759 127.197,897.124 C125.239,901.686 122.666,905.723 119.478,909.233 C116.218,912.816 112.28,916.202 107.666,919.389 C103.166,922.514 98.5408,925.316 93.7908,927.796 C84.0929,932.671 78.7544,935.108 77.7752,935.108 C76.9314,935.108 76.5096,934.686 76.5096,933.843 C76.5096,933.52 76.6398,933.228 76.9002,932.968 C80.2231,931.009 84.2908,928.504 89.1033,925.452 C92.2283,923.431 95.8741,920.629 100.041,917.046 C104.082,913.66 107.207,910.473 109.416,907.483 C111.697,904.546 113.78,900.9 115.666,896.546 C117.291,892.181 118.103,887.879 118.103,883.639 C118.103,877.327 116.541,871.827 113.416,867.139 C110.291,862.452 106.161,860.108 101.025,860.108 C97.3794,860.108 94.2544,861.28 91.6502,863.624 C88.8481,866.03 86.8273,869.056 85.5877,872.702 C86.8273,872.181 87.9679,871.921 89.0096,871.921 C91.7387,871.921 94.0825,872.9 96.0408,874.858 C97.9887,876.941 98.9627,879.316 98.9627,881.983 C98.9627,884.785 98.02,887.296 96.1346,889.514 C94.1137,891.525 91.7387,892.53 89.0096,892.53 C86.0825,892.53 83.4471,891.525 81.1033,889.514 C78.8846,887.296 77.7752,884.785 77.7752,881.983 C77.7752,875.275 80.0564,869.546 84.6189,864.796 C89.1085,859.983 94.5773,857.577 101.025,857.577"/>
<path class="Clef" d="M114.494,111.915 C114.494,111.915 114.692,111.915 115.088,111.915 C115.348,111.852 115.572,111.821 115.76,111.821 C123.051,111.821 129.041,114.394 133.728,119.54 C138.416,124.613 140.76,130.535 140.76,137.306 C140.76,145.712 137.28,152.55 130.322,157.821 C128.499,159.259 126.119,160.431 123.181,161.337 C123.515,165.566 123.681,168.983 123.681,171.587 C123.681,172.108 123.614,173.998 123.478,177.259 C123.218,183.311 121.135,188.55 117.228,192.977 C113.457,197.342 108.77,199.524 103.166,199.524 C97.895,199.524 93.4054,197.67 89.6971,193.962 C85.9783,190.181 84.1189,185.623 84.1189,180.29 C84.1189,177.488 85.1971,175.108 87.3533,173.149 C89.5616,171.201 92.1294,170.227 95.0564,170.227 C97.6606,170.227 99.8429,171.238 101.603,173.259 C103.426,175.144 104.338,177.488 104.338,180.29 C104.338,182.821 103.426,184.998 101.603,186.821 C99.7804,188.644 97.5981,189.556 95.0564,189.556 C94.0148,189.556 93.0096,189.363 92.0408,188.977 C94.9054,193.207 98.7127,195.321 103.463,195.321 C107.952,195.321 111.629,193.498 114.494,189.852 C117.494,186.082 119.124,181.686 119.385,176.665 C119.51,173.54 119.572,171.753 119.572,171.306 C119.572,167.66 119.442,164.665 119.181,162.321 C115.931,162.842 113.036,163.102 110.494,163.102 C101.442,163.102 93.7283,159.519 87.3533,152.352 C81.1033,145.123 77.9783,136.529 77.9783,126.571 C77.9783,124.488 78.171,122.373 78.5564,120.227 C78.9523,118.467 79.4419,116.545 80.0252,114.462 C80.3481,113.285 81.2283,111.394 82.6658,108.79 C83.1866,108.009 83.7726,107.032 84.4236,105.86 C85.0747,104.688 85.5304,103.91 85.7908,103.524 C86.4366,102.222 87.7023,100.462 89.5877,98.243 C90.1085,97.6597 90.6476,97.0113 91.2049,96.2977 C91.7622,95.5842 92.2361,94.9982 92.6267,94.5399 C93.0174,94.0816 93.309,93.7222 93.5017,93.4618 C93.6945,93.2014 95.1606,91.4774 97.9002,88.2899 C98.546,87.6337 99.1788,86.9331 99.7986,86.1883 C100.418,85.4436 100.924,84.8576 101.314,84.4305 C101.705,84.0035 101.999,83.6962 102.197,83.5087 C99.8533,75.7587 98.3846,69.5712 97.7908,64.9462 C97.3429,61.2378 97.1189,56.1597 97.1189,49.7118 C97.1189,44.0451 98.421,38.7378 101.025,33.7899 C103.556,28.6545 107.103,24.4566 111.666,21.1962 C111.926,20.9982 112.249,20.8993 112.635,20.8993 C113.093,20.8993 113.421,20.9982 113.619,21.1962 C117.129,25.4253 120.155,30.9253 122.697,37.6962 C125.301,44.467 126.603,50.6232 126.603,56.1649 C126.603,62.4149 125.109,68.2743 122.119,73.743 C118.734,79.5347 114.369,85.5243 109.025,91.7118 C110.39,96.0035 112.213,102.738 114.494,111.915 M122.791,157.337 C126.176,156.097 128.817,153.983 130.713,150.993 C132.796,148.128 133.838,144.904 133.838,141.321 C133.838,136.696 132.275,132.592 129.15,129.009 C125.952,125.3 121.879,123.217 116.931,122.759 C119.734,136.498 121.687,148.024 122.791,157.337 M85.0096,134.774 C85.0096,141.222 87.6137,146.889 92.8221,151.774 C98.1554,156.524 104.145,158.899 110.791,158.899 C113.52,158.899 116.187,158.701 118.791,158.306 C117.749,148.41 115.697,136.561 112.635,122.759 C108.926,123.154 105.968,124.457 103.76,126.665 C101.603,128.946 100.525,131.519 100.525,134.384 C100.525,139.332 103.166,143.337 108.447,146.399 C108.895,146.858 109.119,147.347 109.119,147.868 C109.119,148.389 108.895,148.873 108.447,149.321 C108.051,149.779 107.562,150.009 106.978,150.009 C106.916,150.009 106.624,149.946 106.103,149.821 C102.385,147.8 99.52,145.196 97.5096,142.009 C95.6137,138.613 94.6658,135.191 94.6658,131.743 C94.6658,127.253 96.0669,123.186 98.8689,119.54 C101.796,115.894 105.603,113.55 110.291,112.509 C108.468,105.217 106.973,99.5191 105.806,95.4149 C104.765,96.592 103.512,98.0087 102.049,99.6649 C100.585,101.321 99.7231,102.316 99.4627,102.649 C97.1189,105.701 95.3273,108.076 94.0877,109.774 C91.8689,112.837 90.2387,115.472 89.1971,117.681 C88.0929,120.16 87.1189,122.863 86.2752,125.79 C85.4314,128.592 85.0096,131.587 85.0096,134.774 M117.619,35.4618 C112.734,37.868 108.895,41.316 106.103,45.8055 C103.239,50.4305 101.806,55.4097 101.806,60.743 C101.806,65.4305 102.978,71.7482 105.322,79.6962 C110.01,74.0295 113.525,68.7899 115.869,63.9774 C118.338,58.8941 119.572,53.5868 119.572,48.0555 C119.572,43.8889 118.921,39.691 117.619,35.4618"/>
<path class="Clef" d="M114.494,683.238 C114.494,683.238 114.692,683.238 115.088,683.238 C115.348,683.175 115.572,683.144 115.76,683.144 C123.051,683.144 129.041,685.717 133.728,690.863 C138.416,695.936 140.76,701.858 140.76,708.628 C140.76,717.035 137.28,723.873 130.322,729.144 C128.499,730.581 126.119,731.753 123.181,732.66 C123.515,736.889 123.681,740.305 123.681,742.91 C123.681,743.43 123.614,745.321 123.478,748.581 C123.218,754.634 121.135,759.873 117.228,764.3 C113.457,768.665 108.77,770.847 103.166,770.847 C97.895,770.847 93.4054,768.993 89.6971,765.285 C85.9783,761.503 84.1189,756.946 84.1189,751.613 C84.1189,748.811 85.1971,746.43 87.3533,744.472 C89.5616,742.524 92.1294,741.55 95.0564,741.55 C97.6606,741.55 99.8429,742.561 101.603,744.581 C103.426,746.467 104.338,748.811 104.338,751.613 C104.338,754.144 103.426,756.321 101.603,758.144 C99.7804,759.967 97.5981,760.878 95.0564,760.878 C94.0148,760.878 93.0096,760.686 92.0408,760.3 C94.9054,764.529 98.7127,766.644 103.463,766.644 C107.952,766.644 111.629,764.821 114.494,761.175 C117.494,757.404 119.124,753.009 119.385,747.988 C119.51,744.863 119.572,743.076 119.572,742.628 C119.572,738.983 119.442,735.988 119.181,733.644 C115.931,734.165 113.036,734.425 110.494,734.425 C101.442,734.425 93.7283,730.842 87.3533,723.675 C81.1033,716.446 77.9783,707.852 77.9783,697.894 C77.9783,695.811 78.171,693.696 78.5564,691.55 C78.9523,689.79 79.4419,687.868 80.0252,685.785 C80.3481,684.608 81.2283,682.717 82.6658,680.113 C83.1866,679.331 83.7726,678.355 84.4236,677.183 C85.0747,676.011 85.5304,675.233 85.7908,674.847 C86.4366,673.545 87.7023,671.785 89.5877,669.566 C90.1085,668.983 90.6476,668.334 91.2049,667.621 C91.7622,666.907 92.2361,666.321 92.6267,665.863 C93.0174,665.404 93.309,665.045 93.5017,664.785 C93.6945,664.524 95.1606,662.8 97.9002,659.613 C98.546,658.956 99.1788,658.256 99.7986,657.511 C100.418,656.766 100.924,656.18 101.314,655.753 C101.705,655.326 101.999,655.019 102.197,654.831 C99.8533,647.081 98.3846,640.894 97.7908,636.269 C97.3429,632.561 97.1189,627.483 97.1189,621.035 C97.1189,615.368 98.421,610.061 101.025,605.113 C103.556,599.977 107.103,595.779 111.666,592.519 C111.926,592.321 112.249,592.222 112.635,592.222 C113.093,592.222 113.421,592.321 113.619,592.519 C117.129,596.748 120.155,602.248 122.697,609.019 C125.301,615.79 126.603,621.946 126.603,627.488 C126.603,633.738 125.109,639.597 122.119,645.066 C118.734,650.858 114.369,656.847 109.025,663.035 C110.39,667.326 112.213,674.061 114.494,683.238 M122.791,728.66 C126.176,727.42 128.817,725.305 130.713,722.316 C132.796,719.451 133.838,716.227 133.838,712.644 C133.838,708.019 132.275,703.915 129.15,700.331 C125.952,696.623 121.879,694.54 116.931,694.081 C119.734,707.821 121.687,719.347 122.791,728.66 M85.0096,706.097 C85.0096,712.545 87.6137,718.212 92.8221,723.097 C98.1554,727.847 104.145,730.222 110.791,730.222 C113.52,730.222 116.187,730.024 118.791,729.628 C117.749,719.733 115.697,707.884 112.635,694.081 C108.926,694.477 105.968,695.779 103.76,697.988 C101.603,700.269 100.525,702.842 100.525,705.706 C100.525,710.654 103.166,714.66 108.447,717.722 C108.895,718.18 109.119,718.67 109.119,719.191 C109.119,719.712 108.895,720.196 108.447,720.644 C108.051,721.102 107.562,721.331 106.978,721.331 C106.916,721.331 106.624,721.269 106.103,721.144 C102.385,719.123 99.52,716.519 97.5096,713.331 C95.6137,709.936 94.6658,706.514 94.6658,703.066 C94.6658,698.576 96.0669,694.509 98.8689,690.863 C101.796,687.217 105.603,684.873 110.291,683.831 C108.468,676.54 106.973,670.842 105.806,666.738 C104.765,667.915 103.512,669.331 102.049,670.988 C100.585,672.644 99.7231,673.639 99.4627,673.972 C97.1189,677.024 95.3273,679.399 94.0877,681.097 C91.8689,684.16 90.2387,686.795 89.1971,689.003 C88.0929,691.483 87.1189,694.186 86.2752,697.113 C85.4314,699.915 85.0096,702.91 85.0096,706.097 M117.619,606.785 C112.734,609.191 108.895,612.639 106.103,617.128 C103.239,621.753 101.806,626.733 101.806,632.066 C101.806,636.753 102.978,643.071 105.322,651.019 C110.01,645.352 113.525,640.113 115.869,635.3 C118.338,630.217 119.572,624.91 119.572,619.378 C119.572,615.212 118.921,611.014 117.619,606.785"/>
<path class="Beam" fill-rule="evenodd" d="M488.503,411.937 L548.017,385.491 L548.017,399.17 L488.503,425.616 L488.503,411.937 "/>
<path class="Beam" fill-rule="evenodd" d="M727.152,411.999 L790.068,385.636 L790.068,399.19 L727.152,425.553 L727.152,411.999 "/>
<path class="Beam" fill-rule="evenodd" d="M472.076,958.847 L530.771,958.847 L530.771,971.348 L472.076,971.348 L472.076,958.847 "/>
<path class="Beam" fill-rule="evenodd" d="M1091.67,983.683 L1148.81,970.428 L1148.81,983.261 L1091.67,996.516 L1091.67,983.683 "/>
<path class="Beam" fill-rule="evenodd" d="M1285.66,958.681 L1342.79,945.426 L1342.79,958.259 L1285.66,971.514 L1285.66,958.681 "/>
<path class="Beam" fill-rule="evenodd" d="M1261.05,82.1555 L1311.1,55.4175 L1311.1,69.5904 L1261.05,96.3283 L1261.05,82.1555 "/>
<path class="Beam" fill-rule="evenodd" d="M1511.8,82.152 L1562.78,55.4481 L1562.78,69.5598 L1511.8,96.2638 L1511.8,82.152 "/>
<path class="Beam" fill-rule="evenodd" d="M653.607,677.58 L715.025,677.58 L715.025,690.08 L653.607,690.08 L653.607,677.58 "/>
<path class="Bracket" fill-rule="evenodd" d="M42.0424,178.138 C42.0424,151.953 21.9268,126.501 21.9268,101.415 C21.9268,88.7802 27.4129,76.5119 44.3282,65.5253 C44.5568,65.3879 44.6711,65.159 44.6711,65.0217 C44.6711,64.6097 43.4139,64.2435 42.4995,64.2435 C42.0424,64.2435 41.2423,64.2893 40.6708,64.6097 C18.7266,78.7092 11.4119,95.006 11.4119,111.486 C11.4119,138.037 32.8989,163.672 32.8989,189.125 C32.8989,201.759 27.4129,213.661 10.4975,224.648 L10.4975,225.014 L10.4975,225.38 C27.4129,236.367 32.8989,248.269 32.8989,260.904 C32.8989,286.356 11.4119,311.991 11.4119,338.542 C11.4119,355.022 18.7266,371.319 40.6708,385.419 C41.2423,385.739 42.0424,385.785 42.4995,385.785 C43.4139,385.785 44.6711,385.419 44.6711,385.007 C44.6711,384.869 44.5568,384.64 44.3282,384.503 C27.4129,373.516 21.9268,361.248 21.9268,348.614 C21.9268,323.527 42.0424,298.075 42.0424,271.89 C42.0424,255.227 34.7276,239.297 13.2405,225.014 C34.7276,210.732 42.0424,194.801 42.0424,178.138"/>
<path class="Bracket" fill-rule="evenodd" d="M42.0424,749.461 C42.0424,723.276 21.9268,697.824 21.9268,672.738 C21.9268,660.103 27.4129,647.835 44.3282,636.848 C44.5568,636.711 44.6711,636.482 44.6711,636.345 C44.6711,635.933 43.4139,635.566 42.4995,635.566 C42.0424,635.566 41.2423,635.612 40.6708,635.933 C18.7266,650.032 11.4119,666.329 11.4119,682.809 C11.4119,709.36 32.8989,734.995 32.8989,760.447 C32.8989,773.082 27.4129,784.984 10.4975,795.971 L10.4975,796.337 L10.4975,796.703 C27.4129,807.69 32.8989,819.592 32.8989,832.227 C32.8989,857.679 11.4119,883.314 11.4119,909.865 C11.4119,926.345 18.7266,942.642 40.6708,956.741 C41.2423,957.062 42.0424,957.108 42.4995,957.108 C43.4139,957.108 44.6711,956.741 44.6711,956.329 C44.6711,956.192 44.5568,955.963 44.3282,955.826 C27.4129,944.839 21.9268,932.571 21.9268,919.936 C21.9268,894.85 42.0424,869.398 42.0424,843.213 C42.0424,826.55 34.7276,810.62 13.2405,796.337 C34.7276,782.054 42.0424,766.124 42.0424,749.461"/>
</svg>
