<?xml version="1.0" encoding="UTF-8" standalone="no"?>
<svg width="1346.46px" height="184.252px" viewBox="0 0 1346.46 184.252"
 xmlns="http://www.w3.org/2000/svg" xmlns:xlink="http://www.w3.org/1999/xlink" version="1.2" baseProfile="tiny">
<title>bass_clef_stems</title>
<desc>Generated by MuseScore 3.4.2</desc>
<polyline class="StaffLines" fill="none" stroke="#000000" stroke-width="2.00" stroke-linejoin="bevel" points="0,42.5027 1346.46,42.5027"/>
<polyline class="StaffLines" fill="none" stroke="#000000" stroke-width="2.00" stroke-linejoin="bevel" points="0,67.5043 1346.46,67.5043"/>
<polyline class="StaffLines" fill="none" stroke="#000000" stroke-width="2.00" stroke-linejoin="bevel" points="0,92.5058 1346.46,92.5058"/>
<polyline class="StaffLines" fill="none" stroke="#000000" stroke-width="2.00" stroke-linejoin="bevel" points="0,117.507 1346.46,117.507"/>
<polyline class="StaffLines" fill="none" stroke="#000000" stroke-width="2.00" stroke-linejoin="bevel" points="0,142.509 1346.46,142.509"/>
<polyline class="BarLine" fill="none" stroke="#000000" stroke-width="4.00" stroke-linejoin="bevel" points="700.25,41.5026 700.25,143.509"/>
<polyline class="BarLine" fill="none" stroke="#000000" stroke-width="4.00" stroke-linejoin="bevel" points="1321.96,41.5026 1321.96,143.509"/>
<polyline class="BarLine" fill="none" stroke="#000000" stroke-width="12.50" stroke-linejoin="bevel" points="1340.21,41.5026 1340.21,143.509"/>
<polyline class="Stem" fill="none" stroke="#000000" stroke-width="3.25" stroke-linecap="round" stroke-linejoin="bevel" points="149.338,137.813 149.338,55.0035"/>
<polyline class="Stem" fill="none" stroke="#000000" stroke-width="3.25" stroke-linecap="round" stroke-linejoin="bevel" points="213.805,125.313 213.805,42.5027"/>
<polyline class="Stem" fill="none" stroke="#000000" stroke-width="3.25" stroke-linecap="round" stroke-linejoin="bevel" points="278.272,112.812 278.272,33.1271"/>
<polyline class="Stem" fill="none" stroke="#000000" stroke-width="3.25" stroke-linecap="round" stroke-linejoin="bevel" points="342.739,100.311 342.739,23.7515"/>
<polyline class="Stem" fill="none" stroke="#000000" stroke-width="3.25" stroke-linecap="round" stroke-linejoin="bevel" points="377.54,97.2015 377.54,170.636"/>
<polyline class="Stem" fill="none" stroke="#000000" stroke-width="3.25" stroke-linecap="round" stroke-linejoin="bevel" points="442.007,84.7007 442.007,161.26"/>
<polyline class="Stem" fill="none" stroke="#000000" stroke-width="3.25" stroke-linecap="round" stroke-linejoin="bevel" points="506.474,72.1999 506.474,151.885"/>
<polyline class="Stem" fill="none" stroke="#000000" stroke-width="3.25" stroke-linecap="round" stroke-linejoin="bevel" points="570.941,59.6991 570.941,142.509"/>
<polyline class="Stem" fill="none" stroke="#000000" stroke-width="3.25" stroke-linecap="round" stroke-linejoin="bevel" points="635.408,47.1983 635.408,130.008"/>
<path class="Note" d="M140.016,128.743 C143.141,128.743 145.781,129.556 147.937,131.181 C149.948,132.941 150.953,135.155 150.953,137.821 C150.953,142.311 148.646,146.509 144.031,150.415 C139.344,154.321 134.328,156.275 128.984,156.275 C125.859,156.275 123.224,155.462 121.078,153.837 C119.057,152.077 118.047,149.863 118.047,147.196 C118.047,142.707 120.391,138.509 125.078,134.603 C129.641,130.696 134.62,128.743 140.016,128.743"/>
<path class="Note" d="M204.483,116.243 C207.608,116.243 210.248,117.055 212.404,118.68 C214.415,120.44 215.42,122.654 215.42,125.321 C215.42,129.81 213.113,134.008 208.498,137.914 C203.811,141.821 198.795,143.774 193.451,143.774 C190.326,143.774 187.691,142.961 185.545,141.336 C183.524,139.576 182.514,137.362 182.514,134.696 C182.514,130.206 184.858,126.008 189.545,122.102 C194.108,118.196 199.087,116.243 204.483,116.243"/>
<path class="Note" d="M268.95,103.742 C272.075,103.742 274.715,104.554 276.871,106.179 C278.882,107.94 279.887,110.153 279.887,112.82 C279.887,117.309 277.58,121.507 272.965,125.414 C268.278,129.32 263.262,131.273 257.918,131.273 C254.793,131.273 252.158,130.461 250.012,128.836 C247.991,127.075 246.981,124.862 246.981,122.195 C246.981,117.705 249.325,113.507 254.012,109.601 C258.575,105.695 263.554,103.742 268.95,103.742"/>
<path class="Note" d="M333.417,91.241 C336.542,91.241 339.182,92.0535 341.339,93.6785 C343.349,95.4389 344.354,97.6524 344.354,100.319 C344.354,104.809 342.047,109.007 337.432,112.913 C332.745,116.819 327.729,118.772 322.385,118.772 C319.26,118.772 316.625,117.96 314.479,116.335 C312.458,114.574 311.448,112.361 311.448,109.694 C311.448,105.205 313.792,101.007 318.479,97.1004 C323.042,93.1941 328.021,91.241 333.417,91.241"/>
<path class="Note" d="M397.884,78.7402 C401.009,78.7402 403.649,79.5527 405.806,81.1777 C407.816,82.9381 408.821,85.1517 408.821,87.8183 C408.821,92.3079 406.514,96.5058 401.899,100.412 C397.212,104.318 392.196,106.271 386.852,106.271 C383.727,106.271 381.092,105.459 378.946,103.834 C376.925,102.074 375.915,99.86 375.915,97.1933 C375.915,92.7037 378.259,88.5058 382.946,84.5996 C387.509,80.6933 392.488,78.7402 397.884,78.7402"/>
<path class="Note" d="M462.351,66.2394 C465.476,66.2394 468.116,67.0519 470.273,68.6769 C472.283,70.4373 473.288,72.6509 473.288,75.3175 C473.288,79.8071 470.981,84.005 466.366,87.9113 C461.679,91.8175 456.663,93.7707 451.319,93.7707 C448.194,93.7707 445.559,92.9582 443.413,91.3332 C441.392,89.5727 440.382,87.3592 440.382,84.6925 C440.382,80.203 442.726,76.005 447.413,72.0988 C451.976,68.1925 456.955,66.2394 462.351,66.2394"/>
<path class="Note" d="M526.818,53.7386 C529.943,53.7386 532.583,54.5511 534.74,56.1761 C536.75,57.9365 537.755,60.1501 537.755,62.8168 C537.755,67.3063 535.448,71.5043 530.833,75.4105 C526.146,79.3168 521.13,81.2699 515.786,81.2699 C512.661,81.2699 510.026,80.4574 507.88,78.8324 C505.859,77.072 504.849,74.8584 504.849,72.1918 C504.849,67.7022 507.193,63.5043 511.88,59.598 C516.443,55.6918 521.422,53.7386 526.818,53.7386"/>
<path class="Note" d="M591.285,41.2378 C594.41,41.2378 597.05,42.0503 599.207,43.6753 C601.217,45.4358 602.222,47.6493 602.222,50.316 C602.222,54.8055 599.915,59.0035 595.3,62.9097 C590.613,66.816 585.597,68.7691 580.253,68.7691 C577.128,68.7691 574.493,67.9566 572.347,66.3316 C570.326,64.5712 569.316,62.3576 569.316,59.691 C569.316,55.2014 571.66,51.0035 576.347,47.0972 C580.91,43.191 585.889,41.2378 591.285,41.2378"/>
<path class="Note" d="M655.752,28.7371 C658.877,28.7371 661.517,29.5496 663.674,31.1746 C665.684,32.935 666.689,35.1485 666.689,37.8152 C666.689,42.3048 664.382,46.5027 659.767,50.4089 C655.08,54.3152 650.064,56.2683 644.721,56.2683 C641.596,56.2683 638.96,55.4558 636.814,53.8308 C634.793,52.0704 633.783,49.8568 633.783,47.1902 C633.783,42.7006 636.127,38.5027 640.814,34.5964 C645.377,30.6902 650.356,28.7371 655.752,28.7371"/>
<path class="Note" d="M761.721,128.743 C764.846,128.743 767.487,129.556 769.643,131.181 C771.654,132.941 772.659,135.155 772.659,137.821 C772.659,142.311 770.352,146.509 765.737,150.415 C761.05,154.321 756.034,156.275 750.69,156.275 C747.565,156.275 744.93,155.462 742.784,153.837 C740.763,152.077 739.753,149.863 739.753,147.196 C739.753,142.707 742.096,138.509 746.784,134.603 C751.346,130.696 756.326,128.743 761.721,128.743"/>
<path class="Note" d="M826.188,116.243 C829.313,116.243 831.954,117.055 834.11,118.68 C836.121,120.44 837.126,122.654 837.126,125.321 C837.126,129.81 834.819,134.008 830.204,137.914 C825.517,141.821 820.501,143.774 815.157,143.774 C812.032,143.774 809.397,142.961 807.251,141.336 C805.23,139.576 804.22,137.362 804.22,134.696 C804.22,130.206 806.563,126.008 811.251,122.102 C815.813,118.196 820.793,116.243 826.188,116.243"/>
<path class="Note" d="M890.655,103.742 C893.78,103.742 896.421,104.554 898.577,106.179 C900.588,107.94 901.593,110.153 901.593,112.82 C901.593,117.309 899.286,121.507 894.671,125.414 C889.984,129.32 884.968,131.273 879.624,131.273 C876.499,131.273 873.864,130.461 871.718,128.836 C869.697,127.075 868.687,124.862 868.687,122.195 C868.687,117.705 871.03,113.507 875.718,109.601 C880.28,105.695 885.26,103.742 890.655,103.742"/>
<path class="Note" d="M955.123,91.241 C958.248,91.241 960.888,92.0535 963.044,93.6785 C965.055,95.4389 966.06,97.6524 966.06,100.319 C966.06,104.809 963.753,109.007 959.138,112.913 C954.451,116.819 949.435,118.772 944.091,118.772 C940.966,118.772 938.331,117.96 936.185,116.335 C934.164,114.574 933.154,112.361 933.154,109.694 C933.154,105.205 935.498,101.007 940.185,97.1004 C944.748,93.1941 949.727,91.241 955.123,91.241"/>
<path class="Note" d="M1019.59,78.7402 C1022.71,78.7402 1025.36,79.5527 1027.51,81.1777 C1029.52,82.9381 1030.53,85.1517 1030.53,87.8183 C1030.53,92.3079 1028.22,96.5058 1023.61,100.412 C1018.92,104.318 1013.9,106.271 1008.56,106.271 C1005.43,106.271 1002.8,105.459 1000.65,103.834 C998.631,102.074 997.621,99.86 997.621,97.1933 C997.621,92.7037 999.965,88.5058 1004.65,84.5996 C1009.21,80.6933 1014.19,78.7402 1019.59,78.7402"/>
<path class="Note" d="M1084.06,66.2394 C1087.18,66.2394 1089.82,67.0519 1091.98,68.6769 C1093.99,70.4373 1094.99,72.6509 1094.99,75.3175 C1094.99,79.8071 1092.69,84.005 1088.07,87.9113 C1083.38,91.8175 1078.37,93.7707 1073.03,93.7707 C1069.9,93.7707 1067.26,92.9582 1065.12,91.3332 C1063.1,89.5727 1062.09,87.3592 1062.09,84.6925 C1062.09,80.203 1064.43,76.005 1069.12,72.0988 C1073.68,68.1925 1078.66,66.2394 1084.06,66.2394"/>
<path class="Note" d="M1148.52,53.7386 C1151.65,53.7386 1154.29,54.5511 1156.45,56.1761 C1158.46,57.9365 1159.46,60.1501 1159.46,62.8168 C1159.46,67.3063 1157.15,71.5043 1152.54,75.4105 C1147.85,79.3168 1142.84,81.2699 1137.49,81.2699 C1134.37,81.2699 1131.73,80.4574 1129.59,78.8324 C1127.57,77.072 1126.55,74.8584 1126.55,72.1918 C1126.55,67.7022 1128.9,63.5043 1133.59,59.598 C1138.15,55.6918 1143.13,53.7386 1148.52,53.7386"/>
<path class="Note" d="M1212.99,41.2378 C1216.12,41.2378 1218.76,42.0503 1220.91,43.6753 C1222.92,45.4358 1223.93,47.6493 1223.93,50.316 C1223.93,54.8055 1221.62,59.0035 1217.01,62.9097 C1212.32,66.816 1207.3,68.7691 1201.96,68.7691 C1198.83,68.7691 1196.2,67.9566 1194.05,66.3316 C1192.03,64.5712 1191.02,62.3576 1191.02,59.691 C1191.02,55.2014 1193.37,51.0035 1198.05,47.0972 C1202.62,43.191 1207.59,41.2378 1212.99,41.2378"/>
<path class="Note" d="M1277.46,28.7371 C1280.58,28.7371 1283.22,29.5496 1285.38,31.1746 C1287.39,32.935 1288.4,35.1485 1288.4,37.8152 C1288.4,42.3048 1286.09,46.5027 1281.47,50.4089 C1276.79,54.3152 1271.77,56.2683 1266.43,56.2683 C1263.3,56.2683 1260.67,55.4558 1258.52,53.8308 C1256.5,52.0704 1255.49,49.8568 1255.49,47.1902 C1255.49,42.7006 1257.83,38.5027 1262.52,34.5964 C1267.08,30.6902 1272.06,28.7371 1277.46,28.7371"/>
<path class="Clef" d="M78.4076,58.6136 C77.4336,57.6345 76.9467,56.4287 76.9467,54.9964 C76.9467,53.5641 77.4336,52.361 78.4076,51.3871 C79.3815,50.4131 80.5847,49.9261 82.017,49.9261 C83.4493,49.9261 84.655,50.4131 85.6342,51.3871 C86.6133,52.361 87.1029,53.5641 87.1029,54.9964 C87.1029,56.4287 86.6133,57.6345 85.6342,58.6136 C84.655,59.5928 83.4493,60.0824 82.017,60.0824 C80.5847,60.0824 79.3815,59.5928 78.4076,58.6136 M78.4076,83.6214 C77.4336,82.6475 76.9467,81.4444 76.9467,80.0121 C76.9467,78.5798 77.4336,77.374 78.4076,76.3949 C79.3815,75.4157 80.5847,74.9261 82.017,74.9261 C83.4493,74.9261 84.655,75.4157 85.6342,76.3949 C86.6133,77.374 87.1029,78.5798 87.1029,80.0121 C87.1029,81.4444 86.6133,82.6475 85.6342,83.6214 C84.655,84.5954 83.4493,85.0824 82.017,85.0824 C80.5847,85.0824 79.3815,84.5954 78.4076,83.6214 M44.5248,41.2386 C53.181,41.2386 60.2748,43.4157 65.806,47.7699 C71.1498,52.3324 73.8217,58.5199 73.8217,66.3324 C73.8217,71.6032 72.78,76.4209 70.6967,80.7855 C68.7383,85.348 66.1654,89.3845 62.9779,92.8949 C59.7175,96.4782 55.78,99.8636 51.1654,103.051 C46.6654,106.176 42.0404,108.978 37.2904,111.457 C27.5925,116.332 22.2539,118.77 21.2748,118.77 C20.431,118.77 20.0092,118.348 20.0092,117.504 C20.0092,117.181 20.1394,116.89 20.3998,116.629 C23.7227,114.671 27.7904,112.166 32.6029,109.114 C35.7279,107.093 39.3737,104.291 43.5404,100.707 C47.5821,97.322 50.7071,94.1345 52.9154,91.1449 C55.1967,88.2074 57.28,84.5615 59.1654,80.2074 C60.7904,75.8428 61.6029,71.5407 61.6029,67.3011 C61.6029,60.9886 60.0404,55.4886 56.9154,50.8011 C53.7904,46.1136 49.6602,43.7699 44.5248,43.7699 C40.8789,43.7699 37.7539,44.9418 35.1498,47.2855 C32.3477,49.6918 30.3269,52.7178 29.0873,56.3636 C30.3269,55.8428 31.4675,55.5824 32.5092,55.5824 C35.2383,55.5824 37.5821,56.5615 39.5404,58.5199 C41.4883,60.6032 42.4623,62.9782 42.4623,65.6449 C42.4623,68.447 41.5196,70.9574 39.6342,73.1761 C37.6133,75.1865 35.2383,76.1918 32.5092,76.1918 C29.5821,76.1918 26.9467,75.1865 24.6029,73.1761 C22.3842,70.9574 21.2748,68.447 21.2748,65.6449 C21.2748,58.9365 23.556,53.2074 28.1185,48.4574 C32.6081,43.6449 38.0769,41.2386 44.5248,41.2386"/>
</svg>
