<?xml version="1.0" encoding="UTF-8" standalone="no"?>
<svg width="1346.46px" height="184.252px" viewBox="0 0 1346.46 184.252"
 xmlns="http://www.w3.org/2000/svg" xmlns:xlink="http://www.w3.org/1999/xlink" version="1.2" baseProfile="tiny">
<title>treble_clef_stems</title>
<desc>Generated by MuseScore 3.4.2</desc>
<polyline class="StaffLines" fill="none" stroke="#000000" stroke-width="2.00" stroke-linejoin="bevel" points="0,42.5027 1346.46,42.5027"/>
<polyline class="StaffLines" fill="none" stroke="#000000" stroke-width="2.00" stroke-linejoin="bevel" points="0,67.5043 1346.46,67.5043"/>
<polyline class="StaffLines" fill="none" stroke="#000000" stroke-width="2.00" stroke-linejoin="bevel" points="0,92.5058 1346.46,92.5058"/>
<polyline class="StaffLines" fill="none" stroke="#000000" stroke-width="2.00" stroke-linejoin="bevel" points="0,117.507 1346.46,117.507"/>
<polyline class="StaffLines" fill="none" stroke="#000000" stroke-width="2.00" stroke-linejoin="bevel" points="0,142.509 1346.46,142.509"/>
<polyline class="BarLine" fill="none" stroke="#000000" stroke-width="4.00" stroke-linejoin="bevel" points="699.641,41.5026 699.641,143.509"/>
<polyline class="BarLine" fill="none" stroke="#000000" stroke-width="4.00" stroke-linejoin="bevel" points="1321.96,41.5026 1321.96,143.509"/>
<polyline class="BarLine" fill="none" stroke="#000000" stroke-width="12.50" stroke-linejoin="bevel" points="1340.21,41.5026 1340.21,143.509"/>
<path class="Note" d="M143.65,128.743 C146.775,128.743 149.416,129.556 151.572,131.181 C153.583,132.941 154.588,135.155 154.588,137.821 C154.588,142.311 152.281,146.509 147.666,150.415 C142.978,154.321 137.963,156.275 132.619,156.275 C129.494,156.275 126.859,155.462 124.713,153.837 C122.692,152.077 121.682,149.863 121.682,147.196 C121.682,142.707 124.025,138.509 128.713,134.603 C133.275,130.696 138.254,128.743 143.65,128.743"/>
<path class="Note" d="M207.646,116.243 C210.771,116.243 213.411,117.055 215.568,118.68 C217.578,120.44 218.583,122.654 218.583,125.321 C218.583,129.81 216.276,134.008 211.661,137.914 C206.974,141.821 201.958,143.774 196.615,143.774 C193.49,143.774 190.854,142.961 188.708,141.336 C186.687,139.576 185.677,137.362 185.677,134.696 C185.677,130.206 188.021,126.008 192.708,122.102 C197.271,118.196 202.25,116.243 207.646,116.243"/>
<path class="Note" d="M271.641,103.742 C274.766,103.742 277.407,104.554 279.563,106.179 C281.574,107.94 282.579,110.153 282.579,112.82 C282.579,117.309 280.271,121.507 275.657,125.414 C270.969,129.32 265.954,131.273 260.61,131.273 C257.485,131.273 254.85,130.461 252.704,128.836 C250.683,127.075 249.673,124.862 249.673,122.195 C249.673,117.705 252.016,113.507 256.704,109.601 C261.266,105.695 266.245,103.742 271.641,103.742"/>
<path class="Note" d="M335.637,91.241 C338.762,91.241 341.402,92.0535 343.559,93.6785 C345.569,95.4389 346.574,97.6524 346.574,100.319 C346.574,104.809 344.267,109.007 339.652,112.913 C334.965,116.819 329.949,118.772 324.605,118.772 C321.48,118.772 318.845,117.96 316.699,116.335 C314.678,114.574 313.668,112.361 313.668,109.694 C313.668,105.205 316.012,101.007 320.699,97.1004 C325.262,93.1941 330.241,91.241 335.637,91.241"/>
<path class="Note" d="M399.632,78.7402 C402.757,78.7402 405.398,79.5527 407.554,81.1777 C409.564,82.9381 410.57,85.1517 410.57,87.8183 C410.57,92.3079 408.262,96.5058 403.648,100.412 C398.96,104.318 393.945,106.271 388.601,106.271 C385.476,106.271 382.841,105.459 380.695,103.834 C378.674,102.074 377.663,99.86 377.663,97.1933 C377.663,92.7037 380.007,88.5058 384.695,84.5996 C389.257,80.6933 394.236,78.7402 399.632,78.7402"/>
<path class="Note" d="M463.628,66.2394 C466.753,66.2394 469.393,67.0519 471.55,68.6769 C473.56,70.4373 474.565,72.6509 474.565,75.3175 C474.565,79.8071 472.258,84.005 467.643,87.9113 C462.956,91.8175 457.94,93.7707 452.596,93.7707 C449.471,93.7707 446.836,92.9582 444.69,91.3332 C442.669,89.5727 441.659,87.3592 441.659,84.6925 C441.659,80.203 444.003,76.005 448.69,72.0988 C453.253,68.1925 458.232,66.2394 463.628,66.2394"/>
<path class="Note" d="M527.623,53.7386 C530.748,53.7386 533.389,54.5511 535.545,56.1761 C537.555,57.9365 538.561,60.1501 538.561,62.8168 C538.561,67.3063 536.253,71.5043 531.639,75.4105 C526.951,79.3168 521.936,81.2699 516.592,81.2699 C513.467,81.2699 510.831,80.4574 508.686,78.8324 C506.665,77.072 505.654,74.8584 505.654,72.1918 C505.654,67.7022 507.998,63.5043 512.686,59.598 C517.248,55.6918 522.227,53.7386 527.623,53.7386"/>
<path class="Note" d="M591.619,41.2378 C594.744,41.2378 597.384,42.0503 599.54,43.6753 C601.551,45.4358 602.556,47.6493 602.556,50.316 C602.556,54.8055 600.249,59.0035 595.634,62.9097 C590.947,66.816 585.931,68.7691 580.587,68.7691 C577.462,68.7691 574.827,67.9566 572.681,66.3316 C570.66,64.5712 569.65,62.3576 569.65,59.691 C569.65,55.2014 571.994,51.0035 576.681,47.0972 C581.244,43.191 586.223,41.2378 591.619,41.2378"/>
<path class="Note" d="M655.614,28.7371 C658.739,28.7371 661.38,29.5496 663.536,31.1746 C665.546,32.935 666.552,35.1485 666.552,37.8152 C666.552,42.3048 664.244,46.5027 659.63,50.4089 C654.942,54.3152 649.927,56.2683 644.583,56.2683 C641.458,56.2683 638.822,55.4558 636.677,53.8308 C634.656,52.0704 633.645,49.8568 633.645,47.1902 C633.645,42.7006 635.989,38.5027 640.677,34.5964 C645.239,30.6902 650.218,28.7371 655.614,28.7371"/>
<path class="Clef" d="M56.72,91.9137 C56.72,91.9137 56.9179,91.9137 57.3138,91.9137 C57.5742,91.8512 57.7981,91.8199 57.9856,91.8199 C65.2773,91.8199 71.2669,94.3928 75.9544,99.5387 C80.6419,104.612 82.9856,110.533 82.9856,117.304 C82.9856,125.711 79.5065,132.549 72.5481,137.82 C70.7252,139.257 68.345,140.429 65.4075,141.336 C65.7408,145.565 65.9075,148.981 65.9075,151.586 C65.9075,152.106 65.8398,153.997 65.7044,157.257 C65.444,163.309 63.3606,168.549 59.4544,172.976 C55.6836,177.341 50.9961,179.523 45.3919,179.523 C40.1211,179.523 35.6315,177.669 31.9231,173.961 C28.2044,170.179 26.345,165.622 26.345,160.289 C26.345,157.487 27.4231,155.106 29.5794,153.148 C31.7877,151.2 34.3554,150.226 37.2825,150.226 C39.8867,150.226 42.069,151.237 43.8294,153.257 C45.6523,155.143 46.5638,157.487 46.5638,160.289 C46.5638,162.82 45.6523,164.997 43.8294,166.82 C42.0065,168.643 39.8242,169.554 37.2825,169.554 C36.2408,169.554 35.2356,169.362 34.2669,168.976 C37.1315,173.205 40.9388,175.32 45.6888,175.32 C50.1783,175.32 53.8554,173.497 56.72,169.851 C59.72,166.08 61.3502,161.684 61.6106,156.664 C61.7356,153.539 61.7981,151.752 61.7981,151.304 C61.7981,147.658 61.6679,144.664 61.4075,142.32 C58.1575,142.841 55.2617,143.101 52.72,143.101 C43.6679,143.101 35.9544,139.518 29.5794,132.351 C23.3294,125.122 20.2044,116.528 20.2044,106.57 C20.2044,104.487 20.3971,102.372 20.7825,100.226 C21.1783,98.4657 21.6679,96.5439 22.2513,94.4605 C22.5742,93.2834 23.4544,91.3928 24.8919,88.7887 C25.4127,88.0074 25.9987,87.0308 26.6497,85.859 C27.3007,84.6871 27.7565,83.9084 28.0169,83.523 C28.6627,82.2209 29.9283,80.4605 31.8138,78.2418 C32.3346,77.6584 32.8737,77.01 33.4309,76.2965 C33.9882,75.5829 34.4622,74.997 34.8528,74.5387 C35.2434,74.0803 35.5351,73.7209 35.7278,73.4605 C35.9205,73.2001 37.3867,71.4762 40.1263,68.2887 C40.7721,67.6324 41.4049,66.9319 42.0247,66.1871 C42.6445,65.4423 43.1497,64.8564 43.5403,64.4293 C43.9309,64.0022 44.2252,63.6949 44.4231,63.5074 C42.0794,55.7574 40.6106,49.5699 40.0169,44.9449 C39.569,41.2366 39.345,36.1584 39.345,29.7105 C39.345,24.0439 40.6471,18.7366 43.2513,13.7887 C45.7825,8.65323 49.3294,4.45532 53.8919,1.1949 C54.1523,0.996985 54.4752,0.898027 54.8606,0.898027 C55.319,0.898027 55.6471,0.996985 55.845,1.1949 C59.3554,5.42407 62.3815,10.9241 64.9231,17.6949 C67.5273,24.4657 68.8294,30.622 68.8294,36.1637 C68.8294,42.4137 67.3346,48.273 64.345,53.7418 C60.9596,59.5334 56.595,65.523 51.2513,71.7105 C52.6158,76.0022 54.4388,82.7366 56.72,91.9137 M65.0169,137.336 C68.4023,136.096 71.0429,133.981 72.9388,130.992 C75.0221,128.127 76.0638,124.903 76.0638,121.32 C76.0638,116.695 74.5013,112.591 71.3763,109.007 C68.1783,105.299 64.1054,103.216 59.1575,102.757 C61.9596,116.497 63.9127,128.023 65.0169,137.336 M27.2356,114.773 C27.2356,121.221 29.8398,126.888 35.0481,131.773 C40.3815,136.523 46.3711,138.898 53.0169,138.898 C55.7461,138.898 58.4127,138.7 61.0169,138.304 C59.9752,128.408 57.9231,116.559 54.8606,102.757 C51.1523,103.153 48.194,104.455 45.9856,106.664 C43.8294,108.945 42.7513,111.518 42.7513,114.382 C42.7513,119.33 45.3919,123.336 50.6731,126.398 C51.1211,126.856 51.345,127.346 51.345,127.867 C51.345,128.388 51.1211,128.872 50.6731,129.32 C50.2773,129.778 49.7877,130.007 49.2044,130.007 C49.1419,130.007 48.8502,129.945 48.3294,129.82 C44.6106,127.799 41.7461,125.195 39.7356,122.007 C37.8398,118.612 36.8919,115.19 36.8919,111.742 C36.8919,107.252 38.2929,103.184 41.095,99.5387 C44.0221,95.8928 47.8294,93.5491 52.5169,92.5074 C50.694,85.2157 49.1992,79.5178 48.0325,75.4137 C46.9908,76.5907 45.7382,78.0074 44.2747,79.6637 C42.8112,81.3199 41.9492,82.3147 41.6888,82.648 C39.345,85.7001 37.5533,88.0751 36.3138,89.773 C34.095,92.8355 32.4648,95.4709 31.4231,97.6793 C30.319,100.158 29.345,102.862 28.5013,105.789 C27.6575,108.591 27.2356,111.586 27.2356,114.773 M59.845,15.4605 C54.9596,17.8668 51.1211,21.3147 48.3294,25.8043 C45.4648,30.4293 44.0325,35.4084 44.0325,40.7418 C44.0325,45.4293 45.2044,51.747 47.5481,59.6949 C52.2356,54.0282 55.7513,48.7887 58.095,43.9762 C60.5638,38.8928 61.7981,33.5855 61.7981,28.0543 C61.7981,23.8876 61.1471,19.6897 59.845,15.4605"/>
</svg>
